G04 #@! TF.GenerationSoftware,KiCad,Pcbnew,7.0.1-3b83917a11~171~ubuntu22.04.1*
G04 #@! TF.CreationDate,2023-03-23T14:32:19-07:00*
G04 #@! TF.ProjectId,badge,62616467-652e-46b6-9963-61645f706362,rev?*
G04 #@! TF.SameCoordinates,Original*
G04 #@! TF.FileFunction,Legend,Top*
G04 #@! TF.FilePolarity,Positive*
%FSLAX46Y46*%
G04 Gerber Fmt 4.6, Leading zero omitted, Abs format (unit mm)*
G04 Created by KiCad (PCBNEW 7.0.1-3b83917a11~171~ubuntu22.04.1) date 2023-03-23 14:32:19*
%MOMM*%
%LPD*%
G01*
G04 APERTURE LIST*
%ADD10C,0.150000*%
%ADD11C,0.120000*%
G04 APERTURE END LIST*
D10*
G04 #@! TO.C,D17*
X183035714Y-92663955D02*
X182464286Y-92663955D01*
X182750000Y-92663955D02*
X182750000Y-91663955D01*
X182750000Y-91663955D02*
X182654762Y-91806812D01*
X182654762Y-91806812D02*
X182559524Y-91902050D01*
X182559524Y-91902050D02*
X182464286Y-91949669D01*
G04 #@! TO.C,D15*
X183035714Y-82334623D02*
X182464286Y-82334623D01*
X182750000Y-82334623D02*
X182750000Y-81334623D01*
X182750000Y-81334623D02*
X182654762Y-81477480D01*
X182654762Y-81477480D02*
X182559524Y-81572718D01*
X182559524Y-81572718D02*
X182464286Y-81620337D01*
G04 #@! TO.C,D7*
X145815714Y-77804619D02*
X145244286Y-77804619D01*
X145530000Y-77804619D02*
X145530000Y-76804619D01*
X145530000Y-76804619D02*
X145434762Y-76947476D01*
X145434762Y-76947476D02*
X145339524Y-77042714D01*
X145339524Y-77042714D02*
X145244286Y-77090333D01*
G04 #@! TO.C,D14*
X183676709Y-75836999D02*
X183139741Y-76032439D01*
X183408225Y-75934719D02*
X183066205Y-74995026D01*
X183066205Y-74995026D02*
X183025570Y-75161842D01*
X183025570Y-75161842D02*
X182968649Y-75283909D01*
X182968649Y-75283909D02*
X182895441Y-75361230D01*
G04 #@! TO.C,D25*
X123823000Y-68996709D02*
X123627560Y-68459741D01*
X123725280Y-68728225D02*
X124664973Y-68386205D01*
X124664973Y-68386205D02*
X124498157Y-68345570D01*
X124498157Y-68345570D02*
X124376090Y-68288649D01*
X124376090Y-68288649D02*
X124298769Y-68215441D01*
G04 #@! TO.C,D16*
X183035714Y-87499289D02*
X182464286Y-87499289D01*
X182750000Y-87499289D02*
X182750000Y-86499289D01*
X182750000Y-86499289D02*
X182654762Y-86642146D01*
X182654762Y-86642146D02*
X182559524Y-86737384D01*
X182559524Y-86737384D02*
X182464286Y-86785003D01*
G04 #@! TO.C,D2*
X145815714Y-104686284D02*
X145244286Y-104686284D01*
X145530000Y-104686284D02*
X145530000Y-103686284D01*
X145530000Y-103686284D02*
X145434762Y-103829141D01*
X145434762Y-103829141D02*
X145339524Y-103924379D01*
X145339524Y-103924379D02*
X145244286Y-103971998D01*
G04 #@! TO.C,D22*
X141449391Y-71335076D02*
X140981304Y-71662834D01*
X141215347Y-71498955D02*
X140641771Y-70679803D01*
X140641771Y-70679803D02*
X140645696Y-70851451D01*
X140645696Y-70851451D02*
X140622308Y-70984091D01*
X140622308Y-70984091D02*
X140571606Y-71077725D01*
G04 #@! TO.C,D31*
X113165714Y-86752619D02*
X112594286Y-86752619D01*
X112880000Y-86752619D02*
X112880000Y-85752619D01*
X112880000Y-85752619D02*
X112784762Y-85895476D01*
X112784762Y-85895476D02*
X112689524Y-85990714D01*
X112689524Y-85990714D02*
X112594286Y-86038333D01*
G04 #@! TO.C,D32*
X113165714Y-92086619D02*
X112594286Y-92086619D01*
X112880000Y-92086619D02*
X112880000Y-91086619D01*
X112880000Y-91086619D02*
X112784762Y-91229476D01*
X112784762Y-91229476D02*
X112689524Y-91324714D01*
X112689524Y-91324714D02*
X112594286Y-91372333D01*
G04 #@! TO.C,D27*
X113165714Y-65416619D02*
X112594286Y-65416619D01*
X112880000Y-65416619D02*
X112880000Y-64416619D01*
X112880000Y-64416619D02*
X112784762Y-64559476D01*
X112784762Y-64559476D02*
X112689524Y-64654714D01*
X112689524Y-64654714D02*
X112594286Y-64702333D01*
G04 #@! TO.C,D18*
X183035714Y-97828621D02*
X182464286Y-97828621D01*
X182750000Y-97828621D02*
X182750000Y-96828621D01*
X182750000Y-96828621D02*
X182654762Y-96971478D01*
X182654762Y-96971478D02*
X182559524Y-97066716D01*
X182559524Y-97066716D02*
X182464286Y-97114335D01*
G04 #@! TO.C,D12*
X176433497Y-65693873D02*
X176147782Y-66188744D01*
X176290640Y-65941309D02*
X175424614Y-65441309D01*
X175424614Y-65441309D02*
X175500713Y-65595216D01*
X175500713Y-65595216D02*
X175535573Y-65725313D01*
X175535573Y-65725313D02*
X175529193Y-65831602D01*
G04 #@! TO.C,D13*
X181146236Y-69840732D02*
X180708497Y-70208040D01*
X180927367Y-70024386D02*
X180284579Y-69258342D01*
X180284579Y-69258342D02*
X180303449Y-69428994D01*
X180303449Y-69428994D02*
X180291710Y-69563169D01*
X180291710Y-69563169D02*
X180249363Y-69660865D01*
G04 #@! TO.C,D11*
X169862619Y-63364285D02*
X169862619Y-63935713D01*
X169862619Y-63649999D02*
X168862619Y-63649999D01*
X168862619Y-63649999D02*
X169005476Y-63745237D01*
X169005476Y-63745237D02*
X169100714Y-63840475D01*
X169100714Y-63840475D02*
X169148333Y-63935713D01*
G04 #@! TO.C,D1*
X145815714Y-110062619D02*
X145244286Y-110062619D01*
X145530000Y-110062619D02*
X145530000Y-109062619D01*
X145530000Y-109062619D02*
X145434762Y-109205476D01*
X145434762Y-109205476D02*
X145339524Y-109300714D01*
X145339524Y-109300714D02*
X145244286Y-109348333D01*
G04 #@! TO.C,D9*
X156232217Y-66848745D02*
X155946503Y-66353874D01*
X156089360Y-66601309D02*
X156955385Y-66101309D01*
X156955385Y-66101309D02*
X156784048Y-66090259D01*
X156784048Y-66090259D02*
X156653951Y-66055400D01*
X156653951Y-66055400D02*
X156565092Y-65996731D01*
G04 #@! TO.C,D23*
X136813497Y-67393874D02*
X136527782Y-67888745D01*
X136670640Y-67641310D02*
X135804614Y-67141310D01*
X135804614Y-67141310D02*
X135880713Y-67295217D01*
X135880713Y-67295217D02*
X135915573Y-67425314D01*
X135915573Y-67425314D02*
X135909193Y-67531603D01*
G04 #@! TO.C,D21*
X183035714Y-113322619D02*
X182464286Y-113322619D01*
X182750000Y-113322619D02*
X182750000Y-112322619D01*
X182750000Y-112322619D02*
X182654762Y-112465476D01*
X182654762Y-112465476D02*
X182559524Y-112560714D01*
X182559524Y-112560714D02*
X182464286Y-112608333D01*
G04 #@! TO.C,D29*
X113165714Y-76084619D02*
X112594286Y-76084619D01*
X112880000Y-76084619D02*
X112880000Y-75084619D01*
X112880000Y-75084619D02*
X112784762Y-75227476D01*
X112784762Y-75227476D02*
X112689524Y-75322714D01*
X112689524Y-75322714D02*
X112594286Y-75370333D01*
G04 #@! TO.C,D26*
X118789267Y-72016235D02*
X118421959Y-71578496D01*
X118605613Y-71797366D02*
X119371657Y-71154578D01*
X119371657Y-71154578D02*
X119201005Y-71173448D01*
X119201005Y-71173448D02*
X119066830Y-71161709D01*
X119066830Y-71161709D02*
X118969134Y-71119362D01*
G04 #@! TO.C,D33*
X113165714Y-97420619D02*
X112594286Y-97420619D01*
X112880000Y-97420619D02*
X112880000Y-96420619D01*
X112880000Y-96420619D02*
X112784762Y-96563476D01*
X112784762Y-96563476D02*
X112689524Y-96658714D01*
X112689524Y-96658714D02*
X112594286Y-96706333D01*
G04 #@! TO.C,D20*
X183035714Y-108157953D02*
X182464286Y-108157953D01*
X182750000Y-108157953D02*
X182750000Y-107157953D01*
X182750000Y-107157953D02*
X182654762Y-107300810D01*
X182654762Y-107300810D02*
X182559524Y-107396048D01*
X182559524Y-107396048D02*
X182464286Y-107443667D01*
G04 #@! TO.C,D35*
X113165714Y-108088619D02*
X112594286Y-108088619D01*
X112880000Y-108088619D02*
X112880000Y-107088619D01*
X112880000Y-107088619D02*
X112784762Y-107231476D01*
X112784762Y-107231476D02*
X112689524Y-107326714D01*
X112689524Y-107326714D02*
X112594286Y-107374333D01*
G04 #@! TO.C,D19*
X183035714Y-102993287D02*
X182464286Y-102993287D01*
X182750000Y-102993287D02*
X182750000Y-101993287D01*
X182750000Y-101993287D02*
X182654762Y-102136144D01*
X182654762Y-102136144D02*
X182559524Y-102231382D01*
X182559524Y-102231382D02*
X182464286Y-102279001D01*
G04 #@! TO.C,D6*
X145815714Y-83180952D02*
X145244286Y-83180952D01*
X145530000Y-83180952D02*
X145530000Y-82180952D01*
X145530000Y-82180952D02*
X145434762Y-82323809D01*
X145434762Y-82323809D02*
X145339524Y-82419047D01*
X145339524Y-82419047D02*
X145244286Y-82466666D01*
G04 #@! TO.C,D3*
X145815714Y-99309951D02*
X145244286Y-99309951D01*
X145530000Y-99309951D02*
X145530000Y-98309951D01*
X145530000Y-98309951D02*
X145434762Y-98452808D01*
X145434762Y-98452808D02*
X145339524Y-98548046D01*
X145339524Y-98548046D02*
X145244286Y-98595665D01*
G04 #@! TO.C,D10*
X162103001Y-64366709D02*
X161907561Y-63829741D01*
X162005281Y-64098225D02*
X162944974Y-63756205D01*
X162944974Y-63756205D02*
X162778158Y-63715570D01*
X162778158Y-63715570D02*
X162656091Y-63658649D01*
X162656091Y-63658649D02*
X162578770Y-63585441D01*
G04 #@! TO.C,D34*
X113165714Y-102754619D02*
X112594286Y-102754619D01*
X112880000Y-102754619D02*
X112880000Y-101754619D01*
X112880000Y-101754619D02*
X112784762Y-101897476D01*
X112784762Y-101897476D02*
X112689524Y-101992714D01*
X112689524Y-101992714D02*
X112594286Y-102040333D01*
G04 #@! TO.C,D36*
X113165714Y-113422619D02*
X112594286Y-113422619D01*
X112880000Y-113422619D02*
X112880000Y-112422619D01*
X112880000Y-112422619D02*
X112784762Y-112565476D01*
X112784762Y-112565476D02*
X112689524Y-112660714D01*
X112689524Y-112660714D02*
X112594286Y-112708333D01*
G04 #@! TO.C,D30*
X113165714Y-81418619D02*
X112594286Y-81418619D01*
X112880000Y-81418619D02*
X112880000Y-80418619D01*
X112880000Y-80418619D02*
X112784762Y-80561476D01*
X112784762Y-80561476D02*
X112689524Y-80656714D01*
X112689524Y-80656714D02*
X112594286Y-80704333D01*
G04 #@! TO.C,D28*
X113165714Y-70750619D02*
X112594286Y-70750619D01*
X112880000Y-70750619D02*
X112880000Y-69750619D01*
X112880000Y-69750619D02*
X112784762Y-69893476D01*
X112784762Y-69893476D02*
X112689524Y-69988714D01*
X112689524Y-69988714D02*
X112594286Y-70036333D01*
G04 #@! TO.C,D5*
X145815714Y-88557285D02*
X145244286Y-88557285D01*
X145530000Y-88557285D02*
X145530000Y-87557285D01*
X145530000Y-87557285D02*
X145434762Y-87700142D01*
X145434762Y-87700142D02*
X145339524Y-87795380D01*
X145339524Y-87795380D02*
X145244286Y-87842999D01*
G04 #@! TO.C,D8*
X150764909Y-71209151D02*
X150360848Y-70805090D01*
X150562879Y-71007121D02*
X151269986Y-70300014D01*
X151269986Y-70300014D02*
X151101627Y-70333686D01*
X151101627Y-70333686D02*
X150966940Y-70333686D01*
X150966940Y-70333686D02*
X150865925Y-70300014D01*
G04 #@! TO.C,D24*
X130422619Y-66524285D02*
X130422619Y-67095713D01*
X130422619Y-66809999D02*
X129422619Y-66809999D01*
X129422619Y-66809999D02*
X129565476Y-66905237D01*
X129565476Y-66905237D02*
X129660714Y-67000475D01*
X129660714Y-67000475D02*
X129708333Y-67095713D01*
G04 #@! TO.C,D4*
X145815714Y-93933618D02*
X145244286Y-93933618D01*
X145530000Y-93933618D02*
X145530000Y-92933618D01*
X145530000Y-92933618D02*
X145434762Y-93076475D01*
X145434762Y-93076475D02*
X145339524Y-93171713D01*
X145339524Y-93171713D02*
X145244286Y-93219332D01*
D11*
G04 #@! TO.C,C14*
X184617836Y-77270000D02*
X184402164Y-77270000D01*
X184617836Y-76550000D02*
X184402164Y-76550000D01*
G04 #@! TO.C,C34*
X115160000Y-100829836D02*
X115160000Y-100614164D01*
X115880000Y-100829836D02*
X115880000Y-100614164D01*
G04 #@! TO.C,C17*
X185180000Y-90717836D02*
X185180000Y-90502164D01*
X185900000Y-90717836D02*
X185900000Y-90502164D01*
G04 #@! TO.C,C13*
X182440810Y-70468307D02*
X182288307Y-70620810D01*
X181931693Y-69959190D02*
X181779190Y-70111693D01*
G04 #@! TO.C,C1*
X143010000Y-110862164D02*
X143010000Y-111077836D01*
X142290000Y-110862164D02*
X142290000Y-111077836D01*
G04 #@! TO.C,C37*
X103992000Y-73171164D02*
X103992000Y-73386836D01*
X103272000Y-73171164D02*
X103272000Y-73386836D01*
G04 #@! TO.C,C3*
X143010000Y-100472164D02*
X143010000Y-100687836D01*
X142290000Y-100472164D02*
X142290000Y-100687836D01*
G04 #@! TO.C,C21*
X185180000Y-111557836D02*
X185180000Y-111342164D01*
X185900000Y-111557836D02*
X185900000Y-111342164D01*
G04 #@! TO.C,C38*
X104396000Y-69836420D02*
X104396000Y-70117580D01*
X103376000Y-69836420D02*
X103376000Y-70117580D01*
G04 #@! TO.C,C15*
X185180000Y-80407836D02*
X185180000Y-80192164D01*
X185900000Y-80407836D02*
X185900000Y-80192164D01*
G04 #@! TO.C,C29*
X115160000Y-74159836D02*
X115160000Y-73944164D01*
X115880000Y-74159836D02*
X115880000Y-73944164D01*
G04 #@! TO.C,C16*
X185180000Y-85667836D02*
X185180000Y-85452164D01*
X185900000Y-85667836D02*
X185900000Y-85452164D01*
G04 #@! TO.C,C35*
X115160000Y-106163836D02*
X115160000Y-105948164D01*
X115880000Y-106163836D02*
X115880000Y-105948164D01*
G04 #@! TO.C,C24*
X127680000Y-64067836D02*
X127680000Y-63852164D01*
X128400000Y-64067836D02*
X128400000Y-63852164D01*
G04 #@! TO.C,C25*
X121581693Y-67370810D02*
X121429190Y-67218307D01*
X122090810Y-66861693D02*
X121938307Y-66709190D01*
G04 #@! TO.C,C33*
X115160000Y-95495836D02*
X115160000Y-95280164D01*
X115880000Y-95495836D02*
X115880000Y-95280164D01*
G04 #@! TO.C,C28*
X115930000Y-70515164D02*
X115930000Y-70730836D01*
X115210000Y-70515164D02*
X115210000Y-70730836D01*
G04 #@! TO.C,C32*
X115160000Y-90161836D02*
X115160000Y-89946164D01*
X115880000Y-90161836D02*
X115880000Y-89946164D01*
G04 #@! TO.C,C5*
X143010000Y-89632164D02*
X143010000Y-89847836D01*
X142290000Y-89632164D02*
X142290000Y-89847836D01*
G04 #@! TO.C,C9*
X157840000Y-64042164D02*
X157840000Y-64257836D01*
X157120000Y-64042164D02*
X157120000Y-64257836D01*
G04 #@! TO.C,C11*
X171330000Y-63322164D02*
X171330000Y-63537836D01*
X170610000Y-63322164D02*
X170610000Y-63537836D01*
G04 #@! TO.C,C27*
X115337000Y-63734836D02*
X115337000Y-63519164D01*
X116057000Y-63734836D02*
X116057000Y-63519164D01*
G04 #@! TO.C,C8*
X152408307Y-69069190D02*
X152560810Y-69221693D01*
X151899190Y-69578307D02*
X152051693Y-69730810D01*
G04 #@! TO.C,C20*
X185180000Y-106287836D02*
X185180000Y-106072164D01*
X185900000Y-106287836D02*
X185900000Y-106072164D01*
G04 #@! TO.C,J1*
X106907500Y-67803000D02*
X105637500Y-67803000D01*
X106907500Y-66533000D02*
X106907500Y-67803000D01*
X104594571Y-64373000D02*
X104197500Y-64373000D01*
X104594571Y-63613000D02*
X104197500Y-63613000D01*
X104594571Y-61833000D02*
X104197500Y-61833000D01*
X104594571Y-61073000D02*
X104197500Y-61073000D01*
X104527500Y-66913000D02*
X104197500Y-66913000D01*
X104527500Y-66153000D02*
X104197500Y-66153000D01*
X104197500Y-67863000D02*
X104197500Y-60123000D01*
X104197500Y-65263000D02*
X101537500Y-65263000D01*
X104197500Y-62723000D02*
X101537500Y-62723000D01*
X104197500Y-60123000D02*
X101537500Y-60123000D01*
X101537500Y-67863000D02*
X104197500Y-67863000D01*
X101537500Y-66913000D02*
X95537500Y-66913000D01*
X101537500Y-66853000D02*
X95537500Y-66853000D01*
X101537500Y-66733000D02*
X95537500Y-66733000D01*
X101537500Y-66613000D02*
X95537500Y-66613000D01*
X101537500Y-66493000D02*
X95537500Y-66493000D01*
X101537500Y-66373000D02*
X95537500Y-66373000D01*
X101537500Y-66253000D02*
X95537500Y-66253000D01*
X101537500Y-64373000D02*
X95537500Y-64373000D01*
X101537500Y-61833000D02*
X95537500Y-61833000D01*
X101537500Y-60123000D02*
X101537500Y-67863000D01*
X95537500Y-66913000D02*
X95537500Y-66153000D01*
X95537500Y-66153000D02*
X101537500Y-66153000D01*
X95537500Y-64373000D02*
X95537500Y-63613000D01*
X95537500Y-63613000D02*
X101537500Y-63613000D01*
X95537500Y-61833000D02*
X95537500Y-61073000D01*
X95537500Y-61073000D02*
X101537500Y-61073000D01*
G04 #@! TO.C,C22*
X140889190Y-68701693D02*
X141041693Y-68549190D01*
X141398307Y-69210810D02*
X141550810Y-69058307D01*
G04 #@! TO.C,U1*
X104612000Y-73914000D02*
X104612000Y-75714000D01*
X104612000Y-73914000D02*
X104612000Y-73114000D01*
X107732000Y-73914000D02*
X107732000Y-74714000D01*
X107732000Y-73914000D02*
X107732000Y-73114000D01*
G04 #@! TO.C,C2*
X143010000Y-105892164D02*
X143010000Y-106107836D01*
X142290000Y-105892164D02*
X142290000Y-106107836D01*
G04 #@! TO.C,C12*
X178142164Y-64530000D02*
X178357836Y-64530000D01*
X178142164Y-65250000D02*
X178357836Y-65250000D01*
G04 #@! TO.C,C7*
X143010000Y-79162164D02*
X143010000Y-79377836D01*
X142290000Y-79162164D02*
X142290000Y-79377836D01*
G04 #@! TO.C,C23*
X134430000Y-66227836D02*
X134430000Y-66012164D01*
X135150000Y-66227836D02*
X135150000Y-66012164D01*
G04 #@! TO.C,C36*
X115160000Y-111497836D02*
X115160000Y-111282164D01*
X115880000Y-111497836D02*
X115880000Y-111282164D01*
G04 #@! TO.C,C4*
X143010000Y-95022164D02*
X143010000Y-95237836D01*
X142290000Y-95022164D02*
X142290000Y-95237836D01*
G04 #@! TO.C,C18*
X185180000Y-95917836D02*
X185180000Y-95702164D01*
X185900000Y-95917836D02*
X185900000Y-95702164D01*
G04 #@! TO.C,C6*
X143010000Y-84232164D02*
X143010000Y-84447836D01*
X142290000Y-84232164D02*
X142290000Y-84447836D01*
G04 #@! TO.C,C10*
X164530000Y-62772164D02*
X164530000Y-62987836D01*
X163810000Y-62772164D02*
X163810000Y-62987836D01*
G04 #@! TO.C,C31*
X115160000Y-84827836D02*
X115160000Y-84612164D01*
X115880000Y-84827836D02*
X115880000Y-84612164D01*
G04 #@! TO.C,C26*
X117221693Y-72430810D02*
X117069190Y-72278307D01*
X117730810Y-71921693D02*
X117578307Y-71769190D01*
G04 #@! TO.C,C19*
X185180000Y-101117836D02*
X185180000Y-100902164D01*
X185900000Y-101117836D02*
X185900000Y-100902164D01*
G04 #@! TO.C,C30*
X115160000Y-79493836D02*
X115160000Y-79278164D01*
X115880000Y-79493836D02*
X115880000Y-79278164D01*
G04 #@! TD*
M02*
