M48
; DRILL file {KiCad 7.0.1-3b83917a11~171~ubuntu22.04.1} date Thu 23 Mar 2023 02:32:19 PM
; FORMAT={-:-/ absolute / metric / decimal}
; #@! TF.CreationDate,2023-03-23T14:32:19-07:00
; #@! TF.GenerationSoftware,Kicad,Pcbnew,7.0.1-3b83917a11~171~ubuntu22.04.1
; #@! TF.FileFunction,MixedPlating,1,2
FMAT,2
METRIC
; #@! TA.AperFunction,Plated,PTH,ViaDrill
T1C0.400
; #@! TA.AperFunction,NonPlated,NPTH,ComponentDrill
T2C1.152
%
G90
G05
T1
X103.759Y-71.755
X105.156Y-76.327
X105.664Y-61.468
X106.426Y-70.739
X106.68Y-64.008
X106.68Y-66.675
X107.061Y-76.327
X107.823Y-69.469
X109.216Y-67.941
X109.347Y-78.74
X109.347Y-84.074
X109.347Y-89.408
X109.366Y-62.267
X109.474Y-94.742
X109.474Y-100.076
X109.474Y-105.283
X109.474Y-110.744
X110.578Y-63.741
X110.617Y-72.263
X112.093Y-69.547
X112.236Y-65.165
X114.3Y-69.088
X114.3Y-74.549
X114.3Y-79.883
X114.3Y-85.217
X114.3Y-90.551
X114.3Y-95.758
X114.3Y-101.092
X114.3Y-106.426
X114.3Y-110.652
X114.554Y-63.5
X116.84Y-63.881
X118.237Y-65.659
X120.269Y-74.549
X121.128Y-71.656
X125.73Y-68.834
X126.238Y-65.405
X128.944Y-68.439
X131.826Y-63.246
X133.731Y-65.913
X134.366Y-68.453
X139.7Y-65.278
X139.827Y-68.834
X140.335Y-72.644
X144.137Y-78.613
X144.137Y-83.82
X144.137Y-89.408
X144.137Y-94.742
X144.137Y-100.076
X144.137Y-105.537
X144.137Y-110.617
X144.653Y-71.12
X145.788Y-113.157
X148.836Y-106.172
X148.836Y-111.633
X148.963Y-79.375
X148.963Y-84.709
X148.963Y-90.043
X148.963Y-95.504
X148.963Y-100.965
X151.384Y-66.294
X151.892Y-74.676
X154.432Y-65.913
X156.083Y-62.484
X156.718Y-70.485
X157.988Y-73.66
X161.925Y-68.072
X163.322Y-63.5
X164.94Y-62.484
X165.989Y-65.659
X170.942Y-64.77
X171.958Y-62.484
X172.085Y-67.945
X176.403Y-70.358
X177.673Y-65.786
X178.943Y-74.803
X179.324Y-80.01
X179.324Y-84.963
X179.324Y-90.17
X179.324Y-95.377
X179.324Y-100.457
X179.324Y-105.664
X179.324Y-110.744
X181.356Y-71.374
X181.483Y-113.284
X182.753Y-70.866
X182.753Y-76.962
X184.277Y-80.772
X184.277Y-85.979
X184.277Y-91.186
X184.277Y-96.266
X184.277Y-101.473
X184.277Y-106.68
X184.912Y-77.564
X185.166Y-108.584
T2
X104.402Y-112.165
X151.384Y-67.564
X189.0Y-112.165
T0
M30
