G04 #@! TF.GenerationSoftware,KiCad,Pcbnew,7.0.0-da2b9df05c~165~ubuntu22.04.1*
G04 #@! TF.CreationDate,2023-03-05T13:20:21-08:00*
G04 #@! TF.ProjectId,badge,62616467-652e-46b6-9963-61645f706362,rev?*
G04 #@! TF.SameCoordinates,Original*
G04 #@! TF.FileFunction,Legend,Bot*
G04 #@! TF.FilePolarity,Positive*
%FSLAX46Y46*%
G04 Gerber Fmt 4.6, Leading zero omitted, Abs format (unit mm)*
G04 Created by KiCad (PCBNEW 7.0.0-da2b9df05c~165~ubuntu22.04.1) date 2023-03-05 13:20:21*
%MOMM*%
%LPD*%
G01*
G04 APERTURE LIST*
%ADD10C,0.250000*%
G04 APERTURE END LIST*
D10*
X104498761Y-111220380D02*
X105927333Y-111220380D01*
X105927333Y-111220380D02*
X106213047Y-111315619D01*
X106213047Y-111315619D02*
X106403523Y-111506095D01*
X106403523Y-111506095D02*
X106498761Y-111791809D01*
X106498761Y-111791809D02*
X106498761Y-111982285D01*
X106498761Y-109315618D02*
X106498761Y-110267999D01*
X106498761Y-110267999D02*
X104498761Y-110267999D01*
X106308285Y-107506094D02*
X106403523Y-107601332D01*
X106403523Y-107601332D02*
X106498761Y-107887046D01*
X106498761Y-107887046D02*
X106498761Y-108077522D01*
X106498761Y-108077522D02*
X106403523Y-108363237D01*
X106403523Y-108363237D02*
X106213047Y-108553713D01*
X106213047Y-108553713D02*
X106022571Y-108648951D01*
X106022571Y-108648951D02*
X105641619Y-108744189D01*
X105641619Y-108744189D02*
X105355904Y-108744189D01*
X105355904Y-108744189D02*
X104974952Y-108648951D01*
X104974952Y-108648951D02*
X104784476Y-108553713D01*
X104784476Y-108553713D02*
X104594000Y-108363237D01*
X104594000Y-108363237D02*
X104498761Y-108077522D01*
X104498761Y-108077522D02*
X104498761Y-107887046D01*
X104498761Y-107887046D02*
X104594000Y-107601332D01*
X104594000Y-107601332D02*
X104689238Y-107506094D01*
X104498761Y-106077522D02*
X105927333Y-106077522D01*
X105927333Y-106077522D02*
X106213047Y-106172761D01*
X106213047Y-106172761D02*
X106403523Y-106363237D01*
X106403523Y-106363237D02*
X106498761Y-106648951D01*
X106498761Y-106648951D02*
X106498761Y-106839427D01*
X106498761Y-104172760D02*
X106498761Y-105125141D01*
X106498761Y-105125141D02*
X104498761Y-105125141D01*
X106308285Y-102363236D02*
X106403523Y-102458474D01*
X106403523Y-102458474D02*
X106498761Y-102744188D01*
X106498761Y-102744188D02*
X106498761Y-102934664D01*
X106498761Y-102934664D02*
X106403523Y-103220379D01*
X106403523Y-103220379D02*
X106213047Y-103410855D01*
X106213047Y-103410855D02*
X106022571Y-103506093D01*
X106022571Y-103506093D02*
X105641619Y-103601331D01*
X105641619Y-103601331D02*
X105355904Y-103601331D01*
X105355904Y-103601331D02*
X104974952Y-103506093D01*
X104974952Y-103506093D02*
X104784476Y-103410855D01*
X104784476Y-103410855D02*
X104594000Y-103220379D01*
X104594000Y-103220379D02*
X104498761Y-102934664D01*
X104498761Y-102934664D02*
X104498761Y-102744188D01*
X104498761Y-102744188D02*
X104594000Y-102458474D01*
X104594000Y-102458474D02*
X104689238Y-102363236D01*
X104498761Y-100934664D02*
X105927333Y-100934664D01*
X105927333Y-100934664D02*
X106213047Y-101029903D01*
X106213047Y-101029903D02*
X106403523Y-101220379D01*
X106403523Y-101220379D02*
X106498761Y-101506093D01*
X106498761Y-101506093D02*
X106498761Y-101696569D01*
X106498761Y-99029902D02*
X106498761Y-99982283D01*
X106498761Y-99982283D02*
X104498761Y-99982283D01*
X106308285Y-97220378D02*
X106403523Y-97315616D01*
X106403523Y-97315616D02*
X106498761Y-97601330D01*
X106498761Y-97601330D02*
X106498761Y-97791806D01*
X106498761Y-97791806D02*
X106403523Y-98077521D01*
X106403523Y-98077521D02*
X106213047Y-98267997D01*
X106213047Y-98267997D02*
X106022571Y-98363235D01*
X106022571Y-98363235D02*
X105641619Y-98458473D01*
X105641619Y-98458473D02*
X105355904Y-98458473D01*
X105355904Y-98458473D02*
X104974952Y-98363235D01*
X104974952Y-98363235D02*
X104784476Y-98267997D01*
X104784476Y-98267997D02*
X104594000Y-98077521D01*
X104594000Y-98077521D02*
X104498761Y-97791806D01*
X104498761Y-97791806D02*
X104498761Y-97601330D01*
X104498761Y-97601330D02*
X104594000Y-97315616D01*
X104594000Y-97315616D02*
X104689238Y-97220378D01*
X104498761Y-95791806D02*
X105927333Y-95791806D01*
X105927333Y-95791806D02*
X106213047Y-95887045D01*
X106213047Y-95887045D02*
X106403523Y-96077521D01*
X106403523Y-96077521D02*
X106498761Y-96363235D01*
X106498761Y-96363235D02*
X106498761Y-96553711D01*
X106498761Y-93887044D02*
X106498761Y-94839425D01*
X106498761Y-94839425D02*
X104498761Y-94839425D01*
X106308285Y-92077520D02*
X106403523Y-92172758D01*
X106403523Y-92172758D02*
X106498761Y-92458472D01*
X106498761Y-92458472D02*
X106498761Y-92648948D01*
X106498761Y-92648948D02*
X106403523Y-92934663D01*
X106403523Y-92934663D02*
X106213047Y-93125139D01*
X106213047Y-93125139D02*
X106022571Y-93220377D01*
X106022571Y-93220377D02*
X105641619Y-93315615D01*
X105641619Y-93315615D02*
X105355904Y-93315615D01*
X105355904Y-93315615D02*
X104974952Y-93220377D01*
X104974952Y-93220377D02*
X104784476Y-93125139D01*
X104784476Y-93125139D02*
X104594000Y-92934663D01*
X104594000Y-92934663D02*
X104498761Y-92648948D01*
X104498761Y-92648948D02*
X104498761Y-92458472D01*
X104498761Y-92458472D02*
X104594000Y-92172758D01*
X104594000Y-92172758D02*
X104689238Y-92077520D01*
M02*
