G04 #@! TF.GenerationSoftware,KiCad,Pcbnew,7.0.1-3b83917a11~171~ubuntu22.04.1*
G04 #@! TF.CreationDate,2023-03-23T14:32:19-07:00*
G04 #@! TF.ProjectId,badge,62616467-652e-46b6-9963-61645f706362,rev?*
G04 #@! TF.SameCoordinates,Original*
G04 #@! TF.FileFunction,Profile,NP*
%FSLAX46Y46*%
G04 Gerber Fmt 4.6, Leading zero omitted, Abs format (unit mm)*
G04 Created by KiCad (PCBNEW 7.0.1-3b83917a11~171~ubuntu22.04.1) date 2023-03-23 14:32:19*
%MOMM*%
%LPD*%
G01*
G04 APERTURE LIST*
%ADD10C,0.200000*%
G04 #@! TA.AperFunction,Profile*
%ADD11C,0.200000*%
G04 #@! TD*
G04 APERTURE END LIST*
D10*
X141575106Y-58619081D02*
X141767070Y-58688438D01*
X141843305Y-58697999D01*
X188759950Y-70018017D02*
X188816194Y-70215724D01*
X188873412Y-70415990D01*
X188914737Y-70560053D01*
X125628148Y-72542878D02*
X125409882Y-72642736D01*
X125217347Y-72734010D01*
X125000181Y-72842936D01*
X124793957Y-72954384D01*
X124582416Y-73077204D01*
X124398432Y-73189597D01*
X124192317Y-73319467D01*
X124136355Y-73355196D01*
D11*
X119600652Y-110607471D02*
X119582465Y-113692834D01*
D10*
X166780466Y-57530919D02*
X167073387Y-57504931D01*
X167329127Y-57490556D01*
X167624706Y-57478543D01*
X167952817Y-57468897D01*
X168306150Y-57461620D01*
X168677397Y-57456715D01*
X169059250Y-57454184D01*
X169444399Y-57454032D01*
X169825537Y-57456261D01*
X170195355Y-57460873D01*
X170546543Y-57467873D01*
X170871794Y-57477262D01*
X171163798Y-57489045D01*
X171415248Y-57503223D01*
X171618834Y-57519800D01*
X171700395Y-57528989D01*
X136309813Y-75202741D02*
X136176476Y-74996989D01*
X136036991Y-74815805D01*
X135870325Y-74618350D01*
X135682476Y-74410712D01*
X135479439Y-74198977D01*
X135267212Y-73989231D01*
X135051790Y-73787560D01*
X134839171Y-73600051D01*
X134635351Y-73432790D01*
X134446326Y-73291863D01*
X134387643Y-73251792D01*
X151299141Y-65447185D02*
X151517301Y-65330792D01*
X151724696Y-65185377D01*
X151897661Y-65057479D01*
X152097518Y-64905506D01*
X152323520Y-64730044D01*
X152574922Y-64531683D01*
X152850977Y-64311011D01*
X153150938Y-64068618D01*
X153309650Y-63939459D01*
X153474060Y-63805091D01*
X153644073Y-63665587D01*
X153819596Y-63521020D01*
X154000536Y-63371464D01*
X154186800Y-63216992D01*
X154378295Y-63057679D01*
X154574927Y-62893598D01*
X154776602Y-62724821D01*
X154983229Y-62551424D01*
X155194713Y-62373480D01*
X138183089Y-103602811D02*
X138173682Y-101641045D01*
X138164719Y-99796651D01*
X138156128Y-98065649D01*
X138147837Y-96444055D01*
X138139777Y-94927889D01*
X138131875Y-93513170D01*
X138124062Y-92195916D01*
X138116265Y-90972145D01*
X138108415Y-89837877D01*
X138100439Y-88789129D01*
X138092268Y-87821920D01*
X138083829Y-86932270D01*
X138075053Y-86116195D01*
X138065867Y-85369716D01*
X138056201Y-84688850D01*
X138045985Y-84069617D01*
X138035147Y-83508034D01*
X138023615Y-83000121D01*
X138011320Y-82541895D01*
X137998190Y-82129376D01*
X137984154Y-81758582D01*
X137969141Y-81425532D01*
X137953080Y-81126243D01*
X137935900Y-80856736D01*
X137917530Y-80613027D01*
X137897900Y-80391137D01*
X137876937Y-80187083D01*
X137830733Y-79816559D01*
X137778349Y-79469603D01*
X137749663Y-79295011D01*
X178367336Y-59045420D02*
X178552680Y-59114965D01*
X170959401Y-74348005D02*
X170791297Y-74187161D01*
X170613918Y-74030038D01*
X170427782Y-73876925D01*
X170233408Y-73728114D01*
X170031318Y-73583894D01*
X169822029Y-73444557D01*
X169606062Y-73310393D01*
X169383937Y-73181694D01*
X169156172Y-73058749D01*
X168923288Y-72941850D01*
X168685804Y-72831288D01*
X168444240Y-72727352D01*
X168199115Y-72630334D01*
X167950949Y-72540525D01*
X167700261Y-72458215D01*
X167447572Y-72383696D01*
X122916850Y-60898705D02*
X123094644Y-60798696D01*
X123274509Y-60696457D01*
X123454124Y-60593960D01*
X123645635Y-60484339D01*
X123710219Y-60447297D01*
X190473307Y-106675347D02*
X190477679Y-107212908D01*
X190481709Y-107722767D01*
X190485391Y-108205633D01*
X190488719Y-108662215D01*
X190491686Y-109093225D01*
X190494288Y-109499371D01*
X190496516Y-109881363D01*
X190498366Y-110239912D01*
X190499831Y-110575728D01*
X190500905Y-110889520D01*
X190501581Y-111181998D01*
X190501855Y-111453873D01*
X190501719Y-111705854D01*
X190501167Y-111938651D01*
X190500193Y-112152973D01*
X190496956Y-112529037D01*
X190491958Y-112839723D01*
X190485151Y-113090712D01*
X190471438Y-113367687D01*
X190446360Y-113581053D01*
X190413159Y-113657858D01*
X121532652Y-61787324D02*
X121717017Y-61662529D01*
X121908203Y-61535924D01*
X122077565Y-61427604D01*
X122186880Y-61366446D01*
X120583149Y-62433577D02*
X120761255Y-62312861D01*
X120936100Y-62194018D01*
X121131710Y-62060851D01*
X121301099Y-61945389D01*
X121468173Y-61831369D01*
X121532652Y-61787324D01*
X145350029Y-60308663D02*
X145522537Y-60417142D01*
X145751867Y-60565579D01*
X145957543Y-60699947D01*
X146178091Y-60844832D01*
X146400915Y-60991926D01*
X146613418Y-61132920D01*
X146803006Y-61259507D01*
X146998372Y-61391517D01*
X147100749Y-61463449D01*
X175661373Y-58209099D02*
X175925287Y-58274889D01*
X176120593Y-58326546D01*
X176327128Y-58383125D01*
X176541242Y-58443498D01*
X176759283Y-58506534D01*
X176977601Y-58571107D01*
X177192544Y-58636088D01*
X177400461Y-58700348D01*
X177597700Y-58762758D01*
X177865552Y-58850439D01*
X178088842Y-58927611D01*
X178295945Y-59007578D01*
X178367336Y-59045420D01*
X163882707Y-58028480D02*
X164131567Y-57964752D01*
X164338364Y-57917434D01*
X164562811Y-57870459D01*
X164805249Y-57823771D01*
X165066020Y-57777308D01*
X165345463Y-57731014D01*
X165643919Y-57684830D01*
X165853621Y-57654072D01*
X166072026Y-57623319D01*
X166299234Y-57592554D01*
X166535347Y-57561760D01*
X166780466Y-57530919D01*
X119926127Y-78937328D02*
X119873128Y-79146715D01*
X119819428Y-79354229D01*
X119763255Y-79566072D01*
X119711167Y-79753659D01*
X173252335Y-79086553D02*
X173200514Y-78881419D01*
X173130456Y-78606643D01*
X173068282Y-78366785D01*
X173012507Y-78156680D01*
X172945526Y-77913896D01*
X172883756Y-77702584D01*
X172823674Y-77510501D01*
X172745579Y-77278788D01*
X172676416Y-77085211D01*
X136885631Y-57596020D02*
X137272371Y-57650337D01*
X137657729Y-57708361D01*
X138039324Y-57769570D01*
X138414779Y-57833447D01*
X138781712Y-57899472D01*
X139137745Y-57967126D01*
X139480498Y-58035890D01*
X139807593Y-58105245D01*
X140116649Y-58174672D01*
X140405288Y-58243652D01*
X140671129Y-58311666D01*
X140911795Y-58378196D01*
X141124904Y-58442721D01*
X141387697Y-58534615D01*
X141575106Y-58619081D01*
X172254725Y-76126234D02*
X172155423Y-75947143D01*
X172051342Y-75757525D01*
X171956376Y-75581455D01*
X119711167Y-79753659D02*
X119643535Y-80025483D01*
X119605354Y-80245532D01*
X119572465Y-80515660D01*
X119544665Y-80852163D01*
X119521753Y-81271339D01*
X119512067Y-81517021D01*
X119503528Y-81789483D01*
X119496109Y-82090761D01*
X119489787Y-82422892D01*
X119484536Y-82787914D01*
X119480330Y-83187863D01*
X119477144Y-83624777D01*
X119474954Y-84100692D01*
X119473735Y-84617646D01*
X119473460Y-85177676D01*
X119474104Y-85782819D01*
X119475644Y-86435112D01*
X119478052Y-87136592D01*
X119481305Y-87889295D01*
X119485377Y-88695260D01*
X119490242Y-89556524D01*
X119495876Y-90475122D01*
X119502254Y-91453093D01*
X119509349Y-92492473D01*
X119517138Y-93595300D01*
X119525595Y-94763611D01*
D11*
X119582465Y-113692834D02*
X111220303Y-113714094D01*
D10*
X122487032Y-61178817D02*
X122661960Y-61058262D01*
X122830971Y-60949427D01*
X122916850Y-60898705D01*
X187311108Y-66582743D02*
X187417592Y-66776175D01*
X187527767Y-66991543D01*
X187628541Y-67194235D01*
X187734885Y-67412448D01*
X187841577Y-67635567D01*
X187943393Y-67852977D01*
X188035110Y-68054063D01*
X137749663Y-79295011D02*
X137706015Y-79049759D01*
X137656438Y-78800292D01*
X137601434Y-78548191D01*
X137541507Y-78295039D01*
X137477160Y-78042416D01*
X137408898Y-77791906D01*
X137337223Y-77545089D01*
X137262640Y-77303549D01*
X137185651Y-77068867D01*
X137106760Y-76842624D01*
X137026471Y-76626404D01*
X136945287Y-76421787D01*
X136863712Y-76230357D01*
X136741717Y-75971395D01*
X136621674Y-75751000D01*
X133281346Y-72675136D02*
X133081899Y-72590516D01*
X132858464Y-72506286D01*
X132661341Y-72438834D01*
X132446974Y-72371033D01*
X132214523Y-72302619D01*
X131963147Y-72233325D01*
X131761690Y-72180618D01*
X131548761Y-72127156D01*
X167447572Y-72383696D02*
X167247662Y-72328966D01*
X166971571Y-72257468D01*
X166716184Y-72197764D01*
X166472699Y-72148819D01*
X166232315Y-72109595D01*
X165986228Y-72079057D01*
X165725638Y-72056168D01*
X165441743Y-72039891D01*
X165235186Y-72032202D01*
X165011751Y-72026685D01*
X164768830Y-72023031D01*
X164503815Y-72020935D01*
X164362208Y-72020375D01*
X184716905Y-63133067D02*
X184905476Y-63328692D01*
X185082189Y-63515899D01*
X185248830Y-63697064D01*
X185407184Y-63874561D01*
X185559038Y-64050764D01*
X185706176Y-64228048D01*
X185850385Y-64408788D01*
X185993451Y-64595358D01*
X186137159Y-64790132D01*
X186283295Y-64995485D01*
X186433646Y-65213792D01*
X186589995Y-65447428D01*
X186754131Y-65698766D01*
X186927837Y-65970181D01*
X187112901Y-66264049D01*
X187311108Y-66582743D01*
X172742760Y-57653525D02*
X172999251Y-57686207D01*
X173226088Y-57720307D01*
X173477616Y-57761701D01*
X173749468Y-57809558D01*
X174037274Y-57863046D01*
X174235852Y-57901423D01*
X174438285Y-57941686D01*
X174643280Y-57983591D01*
X174849541Y-58026889D01*
X175055776Y-58071335D01*
X175260688Y-58116683D01*
X175462985Y-58162687D01*
X175661373Y-58209099D01*
X121203214Y-76231695D02*
X121066590Y-76441681D01*
X120931275Y-76660723D01*
X120799919Y-76883661D01*
X120675169Y-77105339D01*
X120559674Y-77320598D01*
X120456084Y-77524280D01*
X120367047Y-77711227D01*
X120275546Y-77925544D01*
X120213740Y-78120082D01*
X120207890Y-78170172D01*
X154723264Y-113657579D02*
X154444755Y-113676612D01*
X154202217Y-113683717D01*
X153890107Y-113690481D01*
X153511997Y-113696873D01*
X153299309Y-113699919D01*
X153071461Y-113702859D01*
X152828900Y-113705690D01*
X152572072Y-113708407D01*
X152301424Y-113711007D01*
X152017404Y-113713485D01*
X151720457Y-113715838D01*
X151411030Y-113718060D01*
X151089570Y-113720148D01*
X150756524Y-113722098D01*
X150412339Y-113723906D01*
X150057460Y-113725568D01*
X149692335Y-113727080D01*
X149317410Y-113728437D01*
X148933133Y-113729636D01*
X148539949Y-113730672D01*
X148138306Y-113731541D01*
X147728650Y-113732240D01*
X147311428Y-113732764D01*
X146887086Y-113733109D01*
X146456072Y-113733271D01*
X113078160Y-60224945D02*
X113289705Y-60274121D01*
X113496420Y-60324802D01*
X113698453Y-60377065D01*
X113895952Y-60430988D01*
X114089065Y-60486651D01*
X114462730Y-60603512D01*
X114820634Y-60728275D01*
X115163965Y-60861571D01*
X115493908Y-61004028D01*
X115811653Y-61156278D01*
X116118384Y-61318948D01*
X116415291Y-61492669D01*
X116703559Y-61678070D01*
X116984376Y-61875781D01*
X117258929Y-62086431D01*
X117528406Y-62310650D01*
X117793992Y-62549067D01*
X118056875Y-62802313D01*
X118187675Y-62934693D01*
X118187675Y-62934693D02*
X118384218Y-63136311D01*
X118545969Y-63297364D01*
X118719594Y-63451367D01*
X118923586Y-63558812D01*
X119142705Y-63509835D01*
X119333367Y-63369031D01*
X119531234Y-63197761D01*
X142282217Y-58834651D02*
X142469740Y-58914950D01*
X142661149Y-58995179D01*
X142764537Y-59037216D01*
X130631465Y-57832722D02*
X130984460Y-57768470D01*
X131356239Y-57710294D01*
X131743857Y-57658304D01*
X131942687Y-57634663D01*
X132144374Y-57612610D01*
X132348549Y-57592160D01*
X132554846Y-57573326D01*
X132762896Y-57556122D01*
X132972331Y-57540562D01*
X133182785Y-57526659D01*
X133393888Y-57514429D01*
X133605274Y-57503884D01*
X133816574Y-57495038D01*
X134027421Y-57487906D01*
X134237446Y-57482502D01*
X134446283Y-57478839D01*
X134653563Y-57476932D01*
X134858919Y-57476793D01*
X135061982Y-57478438D01*
X135262385Y-57481879D01*
X135653741Y-57494210D01*
X136030043Y-57513895D01*
X136388349Y-57541048D01*
X136725718Y-57575778D01*
X136885631Y-57596020D01*
D11*
X146456072Y-113733271D02*
X138306406Y-113734541D01*
D10*
X150867544Y-65051072D02*
X151000367Y-65203229D01*
X151154645Y-65354281D01*
X151299141Y-65447185D01*
X164362208Y-72020375D02*
X164062701Y-72020261D01*
X163790086Y-72022031D01*
X163541200Y-72026138D01*
X163312883Y-72033035D01*
X163101973Y-72043174D01*
X162811330Y-72065454D01*
X162542069Y-72097578D01*
X162283522Y-72141073D01*
X162025018Y-72197469D01*
X161755887Y-72268293D01*
X161465460Y-72355075D01*
X161254741Y-72422550D01*
X161026655Y-72498250D01*
X119531234Y-63197761D02*
X119685524Y-63069965D01*
X119852828Y-62955862D01*
X119869917Y-62950822D01*
X136621674Y-75751000D02*
X136510718Y-75560293D01*
X136405434Y-75374839D01*
X136309813Y-75202741D01*
X157642841Y-60666118D02*
X157817474Y-60540034D01*
X158021962Y-60414501D01*
X158278211Y-60268203D01*
X158472800Y-60161705D01*
X158682894Y-60049832D01*
X158905494Y-59934127D01*
X159137599Y-59816131D01*
X159376209Y-59697386D01*
X159618325Y-59579434D01*
X159860947Y-59463817D01*
X160101074Y-59352076D01*
X160335706Y-59245753D01*
X160561845Y-59146390D01*
X160776490Y-59055529D01*
X157315867Y-60852731D02*
X157413530Y-60782729D01*
D11*
X102800000Y-86800000D02*
X102821361Y-60073917D01*
D10*
X102818389Y-113630706D02*
X102812608Y-113305420D01*
X102810845Y-113064201D01*
X102809167Y-112759452D01*
X102807574Y-112392892D01*
X102806068Y-111966242D01*
X102804650Y-111481220D01*
X102803320Y-110939546D01*
X102802080Y-110342941D01*
X102800932Y-109693122D01*
X102799877Y-108991810D01*
X102798914Y-108240724D01*
X102798047Y-107441584D01*
X102797276Y-106596109D01*
X102796602Y-105706019D01*
X102796026Y-104773033D01*
X102795550Y-103798871D01*
X102795175Y-102785252D01*
X102794901Y-101733895D01*
X102794731Y-100646521D01*
X102794665Y-99524848D01*
X102794704Y-98370596D01*
X102794850Y-97185485D01*
X102795104Y-95971234D01*
X102795467Y-94729563D01*
X102795940Y-93462191D01*
X102796524Y-92170838D01*
X102797221Y-90857222D01*
X102798032Y-89523064D01*
X102798958Y-88170084D01*
X102800000Y-86800000D01*
X120137760Y-78327855D02*
X120046669Y-78524759D01*
X119978925Y-78740546D01*
X119926127Y-78937328D01*
X157413530Y-60782729D02*
X157599392Y-60700695D01*
X157642841Y-60666118D01*
X189965129Y-77960800D02*
X189988759Y-78288874D01*
X190011397Y-78625821D01*
X190033091Y-78974426D01*
X190053890Y-79337474D01*
X190073845Y-79717750D01*
X190093003Y-80118040D01*
X190111416Y-80541130D01*
X190129131Y-80989805D01*
X190146198Y-81466849D01*
X190162667Y-81975049D01*
X190178586Y-82517189D01*
X190194006Y-83096056D01*
X190208974Y-83714434D01*
X190223541Y-84375109D01*
X190237757Y-85080866D01*
X190251669Y-85834491D01*
X190265328Y-86638769D01*
X190278782Y-87496486D01*
X190292082Y-88410425D01*
X190305276Y-89383375D01*
X190318413Y-90418118D01*
X190331544Y-91517441D01*
X190344717Y-92684130D01*
X190357981Y-93920969D01*
X190371386Y-95230744D01*
X190384982Y-96616240D01*
X190398816Y-98080243D01*
X190412940Y-99625538D01*
X190427401Y-101254911D01*
X190442250Y-102971146D01*
X190457535Y-104777030D01*
X190473307Y-106675347D01*
X188035110Y-68054063D02*
X188134373Y-68290075D01*
X188233246Y-68540398D01*
X188313966Y-68751053D01*
X188396894Y-68972081D01*
X188478951Y-69195145D01*
X188557060Y-69411906D01*
X188628144Y-69614026D01*
X188706675Y-69846330D01*
X188759950Y-70018017D01*
X163215601Y-58210242D02*
X163422057Y-58154202D01*
X163625274Y-58098860D01*
X163831148Y-58042612D01*
X163882707Y-58028480D01*
X127776963Y-71967060D02*
X127543352Y-72009559D01*
X127334694Y-72054167D01*
X127106583Y-72107218D01*
X126867317Y-72166489D01*
X126625193Y-72229756D01*
X126388508Y-72294796D01*
X126165560Y-72359385D01*
X125964647Y-72421300D01*
X125745380Y-72495850D01*
X125628148Y-72542878D01*
X147100749Y-61463449D02*
X147324364Y-61639327D01*
X147561489Y-61833019D01*
X147809567Y-62042089D01*
X148066040Y-62264102D01*
X148328349Y-62496621D01*
X148593939Y-62737211D01*
X148860250Y-62983435D01*
X149124726Y-63232857D01*
X149384808Y-63483042D01*
X149637940Y-63731554D01*
X149881564Y-63975957D01*
X150113122Y-64213814D01*
X150330056Y-64442690D01*
X150529810Y-64660149D01*
X150709825Y-64863755D01*
X150867544Y-65051072D01*
X173386117Y-96509251D02*
X173383986Y-95288330D01*
X173381809Y-94122207D01*
X173379577Y-93009767D01*
X173377280Y-91949894D01*
X173374911Y-90941472D01*
X173372462Y-89983387D01*
X173369922Y-89074521D01*
X173367285Y-88213761D01*
X173364541Y-87399990D01*
X173361682Y-86632093D01*
X173358699Y-85908954D01*
X173355583Y-85229457D01*
X173352327Y-84592488D01*
X173348922Y-83996931D01*
X173345358Y-83441669D01*
X173341628Y-82925588D01*
X173337723Y-82447572D01*
X173333635Y-82006505D01*
X173329354Y-81601272D01*
X173324873Y-81230758D01*
X173320183Y-80893846D01*
X173315274Y-80589421D01*
X173310140Y-80316368D01*
X173304770Y-80073572D01*
X173299158Y-79859916D01*
X173287168Y-79515563D01*
X173274101Y-79274386D01*
X173252335Y-79086553D01*
X173505980Y-113624762D02*
X173483009Y-113364570D01*
X173472540Y-113056068D01*
X173467549Y-112855671D01*
X173462716Y-112623922D01*
X173458037Y-112360380D01*
X173453511Y-112064603D01*
X173449133Y-111736151D01*
X173444901Y-111374582D01*
X173440812Y-110979455D01*
X173436863Y-110550329D01*
X173433049Y-110086762D01*
X173429370Y-109588314D01*
X173425820Y-109054543D01*
X173422398Y-108485008D01*
X173419100Y-107879269D01*
X173415922Y-107236882D01*
X173412863Y-106557409D01*
X173409919Y-105840407D01*
X173407087Y-105085435D01*
X173404363Y-104292052D01*
X173401745Y-103459817D01*
X173399229Y-102588288D01*
X173396813Y-101677025D01*
X173394493Y-100725586D01*
X173392267Y-99733531D01*
X173390131Y-98700417D01*
X173388082Y-97625804D01*
X173386117Y-96509251D01*
X172676416Y-77085211D02*
X172603954Y-76895178D01*
X172521960Y-76695117D01*
X172436270Y-76498300D01*
X172339410Y-76290488D01*
X172254725Y-76126234D01*
X155714372Y-77377082D02*
X155615552Y-77594404D01*
X155516714Y-77835751D01*
X155418798Y-78097960D01*
X155322741Y-78377864D01*
X155260200Y-78572735D01*
X155199180Y-78773126D01*
X155139961Y-78978100D01*
X155082819Y-79186718D01*
X155028034Y-79398042D01*
X154975883Y-79611136D01*
X154926644Y-79825061D01*
X154880596Y-80038880D01*
X154838016Y-80251654D01*
X154799184Y-80462446D01*
X119525595Y-94763611D02*
X119530350Y-95421629D01*
X119534998Y-96079293D01*
X119539534Y-96735585D01*
X119543954Y-97389490D01*
X119548251Y-98039994D01*
X119552422Y-98686080D01*
X119556461Y-99326734D01*
X119560364Y-99960939D01*
X119564126Y-100587682D01*
X119567742Y-101205945D01*
X119571208Y-101814714D01*
X119574518Y-102412974D01*
X119577667Y-102999708D01*
X119580652Y-103573903D01*
X119583466Y-104134541D01*
X119586106Y-104680609D01*
X119588567Y-105211090D01*
X119590843Y-105724969D01*
X119592929Y-106221231D01*
X119594822Y-106698860D01*
X119596516Y-107156842D01*
X119598007Y-107594160D01*
X119599288Y-108009799D01*
X119600357Y-108402744D01*
X119601208Y-108771980D01*
X119601835Y-109116490D01*
X119602235Y-109435261D01*
X119602403Y-109727276D01*
X119602333Y-109991519D01*
X119602021Y-110226977D01*
X119601462Y-110432632D01*
X119600652Y-110607471D01*
X133770474Y-72874094D02*
X133572093Y-72801501D01*
X133370747Y-72715101D01*
X133281346Y-72675136D01*
X157128237Y-61009272D02*
X157297287Y-60891579D01*
X157315867Y-60852731D01*
X131548761Y-72127156D02*
X131345058Y-72080836D01*
X131129403Y-72039033D01*
X130903440Y-72001815D01*
X130668816Y-71969253D01*
X130427178Y-71941415D01*
X130180171Y-71918373D01*
X129929441Y-71900196D01*
X129676635Y-71886954D01*
X129423398Y-71878717D01*
X129171377Y-71875555D01*
X128922217Y-71877536D01*
X128677566Y-71884733D01*
X128439069Y-71897213D01*
X128208372Y-71915048D01*
X127987121Y-71938307D01*
X127776963Y-71967060D01*
X138268026Y-113546911D02*
X138259366Y-113310087D01*
X138254543Y-113050731D01*
X138249450Y-112704209D01*
X138246816Y-112499854D01*
X138244130Y-112275620D01*
X138241398Y-112032143D01*
X138238626Y-111770061D01*
X138235819Y-111490012D01*
X138232983Y-111192632D01*
X138230122Y-110878560D01*
X138227243Y-110548431D01*
X138224351Y-110202884D01*
X138221451Y-109842556D01*
X138218548Y-109468084D01*
X138215649Y-109080105D01*
X138212759Y-108679256D01*
X138209882Y-108266176D01*
X138207025Y-107841501D01*
X138204193Y-107405868D01*
X138201391Y-106959915D01*
X138198626Y-106504279D01*
X138195901Y-106039598D01*
X138193223Y-105566508D01*
X138190598Y-105085647D01*
X138188030Y-104597652D01*
X138185525Y-104103161D01*
X138183089Y-103602811D01*
D11*
X138306406Y-113734541D02*
X138268026Y-113546911D01*
D10*
X141843305Y-58697999D02*
X142053532Y-58747857D01*
X142249431Y-58820730D01*
X142282217Y-58834651D01*
X155194713Y-62373480D02*
X155365356Y-62238186D01*
X155543751Y-62103938D01*
X155752640Y-61950569D01*
X155980578Y-61786153D01*
X156216120Y-61618767D01*
X156447818Y-61456485D01*
X156664230Y-61307386D01*
X156853908Y-61179542D01*
X157045445Y-61056109D01*
X157128237Y-61009272D01*
X178552680Y-59114965D02*
X178747315Y-59170735D01*
X178942460Y-59248739D01*
X179141519Y-59334545D01*
X179377588Y-59440653D01*
X179578284Y-59533281D01*
X179798744Y-59636875D01*
X180038516Y-59751241D01*
X180122654Y-59791723D01*
X161026655Y-72498250D02*
X160741003Y-72600580D01*
X160457474Y-72714677D01*
X160176441Y-72840275D01*
X159898279Y-72977111D01*
X159623361Y-73124919D01*
X159352062Y-73283437D01*
X159084756Y-73452399D01*
X158821817Y-73631541D01*
X158563618Y-73820599D01*
X158310534Y-74019310D01*
X158062939Y-74227408D01*
X157821207Y-74444629D01*
X157585712Y-74670710D01*
X157356828Y-74905385D01*
X157134929Y-75148391D01*
X156920389Y-75399464D01*
X120207890Y-78170172D02*
X120137760Y-78327855D01*
X111220303Y-113714094D02*
X110611579Y-113715576D01*
X110031101Y-113716854D01*
X109478275Y-113717920D01*
X108952511Y-113718770D01*
X108453218Y-113719396D01*
X107979805Y-113719794D01*
X107531681Y-113719958D01*
X107108254Y-113719881D01*
X106708933Y-113719558D01*
X106333128Y-113718982D01*
X105980247Y-113718149D01*
X105649699Y-113717052D01*
X105340893Y-113715685D01*
X105053238Y-113714043D01*
X104786143Y-113712120D01*
X104539016Y-113709909D01*
X104311267Y-113707405D01*
X104102305Y-113704603D01*
X103738375Y-113698077D01*
X103442498Y-113690286D01*
X103209944Y-113681182D01*
X102969501Y-113664963D01*
X102818389Y-113630706D01*
X160776490Y-59055529D02*
X161006758Y-58961764D01*
X161240673Y-58869625D01*
X161476859Y-58779589D01*
X161713937Y-58692134D01*
X161950531Y-58607735D01*
X162185263Y-58526871D01*
X162416756Y-58450017D01*
X162643634Y-58377651D01*
X162864518Y-58310249D01*
X163078032Y-58248290D01*
X163215601Y-58210242D01*
X122186880Y-61366446D02*
X122369976Y-61259976D01*
X122487032Y-61178817D01*
X154799184Y-80462446D02*
X154775700Y-80710918D01*
X154765014Y-80913888D01*
X154755033Y-81167971D01*
X154745759Y-81472134D01*
X154737194Y-81825343D01*
X154729339Y-82226566D01*
X154722194Y-82674771D01*
X154715762Y-83168923D01*
X154710044Y-83707991D01*
X154705041Y-84290941D01*
X154700754Y-84916740D01*
X154697185Y-85584356D01*
X154694335Y-86292756D01*
X154692206Y-87040907D01*
X154690799Y-87827775D01*
X154690115Y-88652329D01*
X154690155Y-89513535D01*
X154690921Y-90410361D01*
X154692415Y-91341773D01*
X154694637Y-92306739D01*
X154697590Y-93304225D01*
X154701273Y-94333200D01*
X154705690Y-95392629D01*
X154710840Y-96481481D01*
X154716726Y-97598722D01*
X154723349Y-98743319D01*
X154730709Y-99914240D01*
X154738810Y-101110451D01*
X154747651Y-102330921D01*
X154757234Y-103574615D01*
X154767561Y-104840502D01*
X123710219Y-60447297D02*
X123915116Y-60331074D01*
X124121186Y-60216913D01*
X124328384Y-60104831D01*
X124536667Y-59994843D01*
X124745992Y-59886967D01*
X124956313Y-59781219D01*
X125167588Y-59677615D01*
X125379773Y-59576172D01*
X125592824Y-59476906D01*
X125806697Y-59379834D01*
X126021349Y-59284973D01*
X126236736Y-59192339D01*
X126452814Y-59101948D01*
X126669539Y-59013817D01*
X126886868Y-58927962D01*
X127104758Y-58844400D01*
X127323163Y-58763148D01*
X127542041Y-58684222D01*
X127761348Y-58607638D01*
X127981040Y-58533413D01*
X128201073Y-58461564D01*
X128421404Y-58392106D01*
X128641989Y-58325057D01*
X128862784Y-58260433D01*
X129083746Y-58198251D01*
X129304830Y-58138526D01*
X129525993Y-58081276D01*
X129747192Y-58026517D01*
X129968382Y-57974266D01*
X130189520Y-57924538D01*
X130410562Y-57877351D01*
X130631465Y-57832722D01*
X171700395Y-57528989D02*
X171928516Y-57557571D01*
X172140502Y-57583447D01*
X172352445Y-57608771D01*
X172580408Y-57635316D01*
X172742760Y-57653525D01*
X188914737Y-70560053D02*
X189013674Y-70912483D01*
X189104984Y-71257126D01*
X189189350Y-71598794D01*
X189267455Y-71942304D01*
X189339983Y-72292471D01*
X189407616Y-72654110D01*
X189471039Y-73032037D01*
X189530934Y-73431065D01*
X189559773Y-73639997D01*
X189587986Y-73856011D01*
X189615659Y-74079708D01*
X189642877Y-74311690D01*
X189669726Y-74552559D01*
X189696292Y-74802917D01*
X189722658Y-75063365D01*
X189748912Y-75334506D01*
X189775139Y-75616942D01*
X189801423Y-75911274D01*
X189827851Y-76218105D01*
X189854507Y-76538036D01*
X189881478Y-76871669D01*
X189908848Y-77219606D01*
X189936703Y-77582449D01*
X189965129Y-77960800D01*
X119869917Y-62950822D02*
X120045869Y-62841258D01*
X120087925Y-62804899D01*
X107616195Y-60073917D02*
X108010857Y-60073963D01*
X108383996Y-60074115D01*
X108736318Y-60074393D01*
X109068530Y-60074816D01*
X109381341Y-60075403D01*
X109675458Y-60076174D01*
X109951587Y-60077150D01*
X110210437Y-60078348D01*
X110452715Y-60079789D01*
X110679128Y-60081493D01*
X110890383Y-60083478D01*
X111270251Y-60088373D01*
X111597978Y-60094631D01*
X111879223Y-60102407D01*
X112119644Y-60111859D01*
X112324902Y-60123143D01*
X112579236Y-60143847D01*
X112786284Y-60169552D01*
X113021804Y-60212520D01*
X113078160Y-60224945D01*
X154767561Y-104840502D02*
X154773239Y-105524415D01*
X154778508Y-106172788D01*
X154783363Y-106786541D01*
X154787798Y-107366591D01*
X154791811Y-107913860D01*
X154795395Y-108429265D01*
X154798547Y-108913726D01*
X154801262Y-109368164D01*
X154803535Y-109793496D01*
X154805361Y-110190642D01*
X154806737Y-110560522D01*
X154807656Y-110904055D01*
X154808116Y-111222160D01*
X154808110Y-111515757D01*
X154807635Y-111785764D01*
X154806686Y-112033102D01*
X154805259Y-112258690D01*
X154803347Y-112463446D01*
X154798057Y-112814142D01*
X154790778Y-113092545D01*
X154781473Y-113306010D01*
X154763638Y-113520536D01*
X154723264Y-113657579D01*
X124136355Y-73355196D02*
X123956864Y-73475464D01*
X123768524Y-73611846D01*
X123573121Y-73762588D01*
X123372442Y-73925938D01*
X123168273Y-74100144D01*
X122962403Y-74283454D01*
X122756617Y-74474114D01*
X122552703Y-74670372D01*
X122352448Y-74870477D01*
X122157638Y-75072675D01*
X121970062Y-75275214D01*
X121791505Y-75476343D01*
X121623754Y-75674307D01*
X121468598Y-75867355D01*
X121327822Y-76053735D01*
X121203214Y-76231695D01*
X171956376Y-75581455D02*
X171823628Y-75378511D01*
X171673406Y-75178275D01*
X171532536Y-75000448D01*
X171382334Y-74818156D01*
X171231167Y-74641751D01*
X171087401Y-74481583D01*
X170959401Y-74348005D01*
X134387643Y-73251792D02*
X134216966Y-73139792D01*
X134038505Y-73026174D01*
X133862632Y-72919851D01*
X133770474Y-72874094D01*
X180122654Y-59791723D02*
X180448942Y-59953063D01*
X180767243Y-60118723D01*
X181078149Y-60289133D01*
X181382255Y-60464726D01*
X181680153Y-60645932D01*
X181972435Y-60833183D01*
X182259696Y-61026911D01*
X182542528Y-61227546D01*
X182821524Y-61435520D01*
X183097276Y-61651264D01*
X183370380Y-61875211D01*
X183641426Y-62107790D01*
X183911009Y-62349434D01*
X184179721Y-62600574D01*
X184448155Y-62861641D01*
X184716905Y-63133067D01*
X190413159Y-113657858D02*
X190127476Y-113676754D01*
X189878278Y-113683819D01*
X189557608Y-113690551D01*
X189169219Y-113696918D01*
X188950802Y-113699953D01*
X188716863Y-113702885D01*
X188467870Y-113705708D01*
X188204293Y-113708419D01*
X187926601Y-113711014D01*
X187635262Y-113713487D01*
X187330746Y-113715836D01*
X187013521Y-113718056D01*
X186684058Y-113720143D01*
X186342824Y-113722092D01*
X185990289Y-113723900D01*
X185626922Y-113725562D01*
X185253193Y-113727074D01*
X184869569Y-113728431D01*
X184476521Y-113729631D01*
X184074516Y-113730668D01*
X183664026Y-113731539D01*
X183245517Y-113732238D01*
X182819460Y-113732763D01*
X182386324Y-113733108D01*
X181946577Y-113733271D01*
X120087925Y-62804899D02*
X120250985Y-62672803D01*
X120422863Y-62545520D01*
X120583149Y-62433577D01*
X142764537Y-59037216D02*
X142994456Y-59141876D01*
X143231328Y-59254810D01*
X143418658Y-59345187D01*
X143622911Y-59444385D01*
X143838424Y-59549617D01*
X144059531Y-59658099D01*
X144280567Y-59767045D01*
X144495869Y-59873668D01*
X144699771Y-59975185D01*
X144886610Y-60068808D01*
X145122480Y-60188351D01*
X145324380Y-60294118D01*
X145350029Y-60308663D01*
D11*
X102821361Y-60073917D02*
X107616195Y-60073917D01*
D10*
X181946577Y-113733271D02*
X181323988Y-113733307D01*
X180731419Y-113733211D01*
X180168183Y-113732972D01*
X179633593Y-113732584D01*
X179126961Y-113732035D01*
X178647601Y-113731319D01*
X178194825Y-113730426D01*
X177767947Y-113729346D01*
X177366280Y-113728072D01*
X176989137Y-113726595D01*
X176635830Y-113724905D01*
X176305673Y-113722994D01*
X175997978Y-113720853D01*
X175712059Y-113718474D01*
X175447229Y-113715847D01*
X175202801Y-113712963D01*
X174978087Y-113709815D01*
X174772401Y-113706392D01*
X174415363Y-113698689D01*
X174126193Y-113689784D01*
X173899393Y-113679607D01*
X173664115Y-113661800D01*
X173505980Y-113624762D01*
X156920389Y-75399464D02*
X156769179Y-75602461D01*
X156617236Y-75827644D01*
X156491615Y-76022649D01*
X156360573Y-76232539D01*
X156228227Y-76450560D01*
X156098695Y-76669960D01*
X155976096Y-76883984D01*
X155864547Y-77085881D01*
X155768165Y-77268896D01*
X155714372Y-77377082D01*
M02*
