M48
; DRILL file {KiCad 7.0.0-da2b9df05c~165~ubuntu22.04.1} date Mon 06 Mar 2023 01:31:39 PM
; FORMAT={-:-/ absolute / metric / decimal}
; #@! TF.CreationDate,2023-03-06T13:31:39-08:00
; #@! TF.GenerationSoftware,Kicad,Pcbnew,7.0.0-da2b9df05c~165~ubuntu22.04.1
; #@! TF.FileFunction,MixedPlating,1,2
FMAT,2
METRIC
; #@! TA.AperFunction,Plated,PTH,ViaDrill
T1C0.400
%
G90
G05
T1
X103.759Y-71.755
X105.156Y-76.327
X105.664Y-61.468
X106.172Y-73.914
X106.68Y-64.008
X107.061Y-76.327
X109.347Y-62.738
X109.347Y-68.072
X109.347Y-78.74
X109.347Y-84.074
X109.347Y-89.408
X109.474Y-94.742
X109.474Y-100.076
X109.474Y-105.283
X109.474Y-110.744
X110.617Y-72.263
X110.744Y-63.754
X112.093Y-69.547
X112.141Y-65.024
X114.3Y-69.088
X114.3Y-74.549
X114.3Y-79.883
X114.3Y-85.217
X114.3Y-90.551
X114.3Y-95.758
X114.3Y-101.092
X114.3Y-106.426
X114.3Y-110.652
X114.554Y-63.5
X116.84Y-63.881
X118.237Y-65.659
X120.269Y-74.549
X121.128Y-71.656
X125.73Y-68.834
X126.238Y-65.405
X128.944Y-68.439
X131.826Y-63.246
X133.731Y-65.913
X134.366Y-68.453
X139.7Y-65.278
X140.335Y-72.644
X143.637Y-78.613
X143.637Y-83.82
X143.637Y-89.408
X143.637Y-94.742
X143.637Y-100.076
X143.637Y-105.537
X143.637Y-110.617
X144.653Y-71.12
X145.288Y-113.157
X148.336Y-106.172
X148.336Y-111.633
X148.463Y-79.375
X148.463Y-84.709
X148.463Y-90.043
X148.463Y-95.504
X148.463Y-100.965
X151.638Y-65.913
X151.892Y-74.676
X156.083Y-62.484
X156.718Y-70.485
X157.988Y-73.66
X161.925Y-68.072
X163.322Y-63.5
X164.94Y-62.484
X165.989Y-65.659
X170.942Y-64.77
X171.958Y-62.484
X172.085Y-67.945
X176.403Y-70.358
X177.673Y-65.786
X178.943Y-74.803
X179.324Y-80.01
X179.324Y-84.963
X179.324Y-90.17
X179.324Y-95.377
X179.324Y-100.457
X179.324Y-105.664
X179.324Y-110.744
X181.356Y-71.374
X181.483Y-113.284
X182.753Y-70.866
X182.753Y-76.962
X184.277Y-80.772
X184.277Y-85.979
X184.277Y-91.186
X184.277Y-96.266
X184.277Y-101.473
X184.277Y-106.68
X184.912Y-77.564
X185.166Y-108.584
T0
M30
