G04 #@! TF.GenerationSoftware,KiCad,Pcbnew,7.0.0-da2b9df05c~165~ubuntu22.04.1*
G04 #@! TF.CreationDate,2023-03-06T13:31:38-08:00*
G04 #@! TF.ProjectId,badge,62616467-652e-46b6-9963-61645f706362,rev?*
G04 #@! TF.SameCoordinates,Original*
G04 #@! TF.FileFunction,Legend,Top*
G04 #@! TF.FilePolarity,Positive*
%FSLAX46Y46*%
G04 Gerber Fmt 4.6, Leading zero omitted, Abs format (unit mm)*
G04 Created by KiCad (PCBNEW 7.0.0-da2b9df05c~165~ubuntu22.04.1) date 2023-03-06 13:31:38*
%MOMM*%
%LPD*%
G01*
G04 APERTURE LIST*
%ADD10C,0.150000*%
%ADD11C,0.120000*%
G04 APERTURE END LIST*
D10*
G04 #@! TO.C,D17*
X183035714Y-92568716D02*
X182464286Y-92568716D01*
X182750000Y-92568716D02*
X182750000Y-91568716D01*
X182750000Y-91568716D02*
X182654762Y-91711574D01*
X182654762Y-91711574D02*
X182559524Y-91806812D01*
X182559524Y-91806812D02*
X182464286Y-91854431D01*
G04 #@! TO.C,D15*
X183035714Y-82239384D02*
X182464286Y-82239384D01*
X182750000Y-82239384D02*
X182750000Y-81239384D01*
X182750000Y-81239384D02*
X182654762Y-81382242D01*
X182654762Y-81382242D02*
X182559524Y-81477480D01*
X182559524Y-81477480D02*
X182464286Y-81525099D01*
G04 #@! TO.C,D7*
X145315714Y-77709380D02*
X144744286Y-77709380D01*
X145030000Y-77709380D02*
X145030000Y-76709380D01*
X145030000Y-76709380D02*
X144934762Y-76852238D01*
X144934762Y-76852238D02*
X144839524Y-76947476D01*
X144839524Y-76947476D02*
X144744286Y-76995095D01*
G04 #@! TO.C,D14*
X183644135Y-75747504D02*
X183107168Y-75942945D01*
X183375652Y-75845225D02*
X183033631Y-74905532D01*
X183033631Y-74905532D02*
X182992997Y-75072347D01*
X182992997Y-75072347D02*
X182936076Y-75194415D01*
X182936076Y-75194415D02*
X182862868Y-75271736D01*
G04 #@! TO.C,D25*
X123912495Y-68964135D02*
X123717054Y-68427168D01*
X123814774Y-68695652D02*
X124754467Y-68353631D01*
X124754467Y-68353631D02*
X124587652Y-68312997D01*
X124587652Y-68312997D02*
X124465584Y-68256076D01*
X124465584Y-68256076D02*
X124388263Y-68182868D01*
G04 #@! TO.C,D16*
X183035714Y-87404050D02*
X182464286Y-87404050D01*
X182750000Y-87404050D02*
X182750000Y-86404050D01*
X182750000Y-86404050D02*
X182654762Y-86546908D01*
X182654762Y-86546908D02*
X182559524Y-86642146D01*
X182559524Y-86642146D02*
X182464286Y-86689765D01*
G04 #@! TO.C,D2*
X145315714Y-104591045D02*
X144744286Y-104591045D01*
X145030000Y-104591045D02*
X145030000Y-103591045D01*
X145030000Y-103591045D02*
X144934762Y-103733903D01*
X144934762Y-103733903D02*
X144839524Y-103829141D01*
X144839524Y-103829141D02*
X144744286Y-103876760D01*
G04 #@! TO.C,D22*
X141394764Y-71257061D02*
X140926678Y-71584819D01*
X141160721Y-71420940D02*
X140587145Y-70601788D01*
X140587145Y-70601788D02*
X140591070Y-70773436D01*
X140591070Y-70773436D02*
X140567681Y-70906077D01*
X140567681Y-70906077D02*
X140516980Y-70999710D01*
G04 #@! TO.C,D31*
X113165714Y-86657380D02*
X112594286Y-86657380D01*
X112880000Y-86657380D02*
X112880000Y-85657380D01*
X112880000Y-85657380D02*
X112784762Y-85800238D01*
X112784762Y-85800238D02*
X112689524Y-85895476D01*
X112689524Y-85895476D02*
X112594286Y-85943095D01*
G04 #@! TO.C,D32*
X113165714Y-91991380D02*
X112594286Y-91991380D01*
X112880000Y-91991380D02*
X112880000Y-90991380D01*
X112880000Y-90991380D02*
X112784762Y-91134238D01*
X112784762Y-91134238D02*
X112689524Y-91229476D01*
X112689524Y-91229476D02*
X112594286Y-91277095D01*
G04 #@! TO.C,D27*
X113165714Y-65321380D02*
X112594286Y-65321380D01*
X112880000Y-65321380D02*
X112880000Y-64321380D01*
X112880000Y-64321380D02*
X112784762Y-64464238D01*
X112784762Y-64464238D02*
X112689524Y-64559476D01*
X112689524Y-64559476D02*
X112594286Y-64607095D01*
G04 #@! TO.C,D18*
X183035714Y-97733382D02*
X182464286Y-97733382D01*
X182750000Y-97733382D02*
X182750000Y-96733382D01*
X182750000Y-96733382D02*
X182654762Y-96876240D01*
X182654762Y-96876240D02*
X182559524Y-96971478D01*
X182559524Y-96971478D02*
X182464286Y-97019097D01*
G04 #@! TO.C,D12*
X176351018Y-65646254D02*
X176065304Y-66141125D01*
X176208161Y-65893690D02*
X175342136Y-65393690D01*
X175342136Y-65393690D02*
X175418234Y-65547597D01*
X175418234Y-65547597D02*
X175453094Y-65677694D01*
X175453094Y-65677694D02*
X175446714Y-65783983D01*
G04 #@! TO.C,D13*
X181085019Y-69767776D02*
X180647279Y-70135083D01*
X180866149Y-69951429D02*
X180223361Y-69185385D01*
X180223361Y-69185385D02*
X180242231Y-69356038D01*
X180242231Y-69356038D02*
X180230493Y-69490212D01*
X180230493Y-69490212D02*
X180188145Y-69587908D01*
G04 #@! TO.C,D11*
X169767380Y-63364285D02*
X169767380Y-63935713D01*
X169767380Y-63649999D02*
X168767380Y-63649999D01*
X168767380Y-63649999D02*
X168910238Y-63745237D01*
X168910238Y-63745237D02*
X169005476Y-63840475D01*
X169005476Y-63840475D02*
X169053095Y-63935713D01*
G04 #@! TO.C,D1*
X145315714Y-109967380D02*
X144744286Y-109967380D01*
X145030000Y-109967380D02*
X145030000Y-108967380D01*
X145030000Y-108967380D02*
X144934762Y-109110238D01*
X144934762Y-109110238D02*
X144839524Y-109205476D01*
X144839524Y-109205476D02*
X144744286Y-109253095D01*
G04 #@! TO.C,D9*
X156314696Y-66801126D02*
X156028981Y-66306255D01*
X156171839Y-66553690D02*
X157037864Y-66053690D01*
X157037864Y-66053690D02*
X156866527Y-66042640D01*
X156866527Y-66042640D02*
X156736429Y-66007781D01*
X156736429Y-66007781D02*
X156647571Y-65949112D01*
G04 #@! TO.C,D23*
X136731018Y-67346255D02*
X136445304Y-67841126D01*
X136588161Y-67593691D02*
X135722136Y-67093691D01*
X135722136Y-67093691D02*
X135798234Y-67247598D01*
X135798234Y-67247598D02*
X135833094Y-67377695D01*
X135833094Y-67377695D02*
X135826714Y-67483984D01*
G04 #@! TO.C,D21*
X183035714Y-113227380D02*
X182464286Y-113227380D01*
X182750000Y-113227380D02*
X182750000Y-112227380D01*
X182750000Y-112227380D02*
X182654762Y-112370238D01*
X182654762Y-112370238D02*
X182559524Y-112465476D01*
X182559524Y-112465476D02*
X182464286Y-112513095D01*
G04 #@! TO.C,D29*
X113165714Y-75989380D02*
X112594286Y-75989380D01*
X112880000Y-75989380D02*
X112880000Y-74989380D01*
X112880000Y-74989380D02*
X112784762Y-75132238D01*
X112784762Y-75132238D02*
X112689524Y-75227476D01*
X112689524Y-75227476D02*
X112594286Y-75275095D01*
G04 #@! TO.C,D26*
X118862223Y-71955018D02*
X118494916Y-71517278D01*
X118678570Y-71736148D02*
X119444614Y-71093360D01*
X119444614Y-71093360D02*
X119273961Y-71112230D01*
X119273961Y-71112230D02*
X119139787Y-71100492D01*
X119139787Y-71100492D02*
X119042091Y-71058144D01*
G04 #@! TO.C,D33*
X113165714Y-97325380D02*
X112594286Y-97325380D01*
X112880000Y-97325380D02*
X112880000Y-96325380D01*
X112880000Y-96325380D02*
X112784762Y-96468238D01*
X112784762Y-96468238D02*
X112689524Y-96563476D01*
X112689524Y-96563476D02*
X112594286Y-96611095D01*
G04 #@! TO.C,D20*
X183035714Y-108062714D02*
X182464286Y-108062714D01*
X182750000Y-108062714D02*
X182750000Y-107062714D01*
X182750000Y-107062714D02*
X182654762Y-107205572D01*
X182654762Y-107205572D02*
X182559524Y-107300810D01*
X182559524Y-107300810D02*
X182464286Y-107348429D01*
G04 #@! TO.C,D35*
X113165714Y-107993380D02*
X112594286Y-107993380D01*
X112880000Y-107993380D02*
X112880000Y-106993380D01*
X112880000Y-106993380D02*
X112784762Y-107136238D01*
X112784762Y-107136238D02*
X112689524Y-107231476D01*
X112689524Y-107231476D02*
X112594286Y-107279095D01*
G04 #@! TO.C,D19*
X183035714Y-102898048D02*
X182464286Y-102898048D01*
X182750000Y-102898048D02*
X182750000Y-101898048D01*
X182750000Y-101898048D02*
X182654762Y-102040906D01*
X182654762Y-102040906D02*
X182559524Y-102136144D01*
X182559524Y-102136144D02*
X182464286Y-102183763D01*
G04 #@! TO.C,D6*
X145315714Y-83085713D02*
X144744286Y-83085713D01*
X145030000Y-83085713D02*
X145030000Y-82085713D01*
X145030000Y-82085713D02*
X144934762Y-82228571D01*
X144934762Y-82228571D02*
X144839524Y-82323809D01*
X144839524Y-82323809D02*
X144744286Y-82371428D01*
G04 #@! TO.C,D3*
X145315714Y-99214712D02*
X144744286Y-99214712D01*
X145030000Y-99214712D02*
X145030000Y-98214712D01*
X145030000Y-98214712D02*
X144934762Y-98357570D01*
X144934762Y-98357570D02*
X144839524Y-98452808D01*
X144839524Y-98452808D02*
X144744286Y-98500427D01*
G04 #@! TO.C,D10*
X162192496Y-64334135D02*
X161997055Y-63797168D01*
X162094775Y-64065652D02*
X163034468Y-63723631D01*
X163034468Y-63723631D02*
X162867653Y-63682997D01*
X162867653Y-63682997D02*
X162745585Y-63626076D01*
X162745585Y-63626076D02*
X162668264Y-63552868D01*
G04 #@! TO.C,D34*
X113165714Y-102659380D02*
X112594286Y-102659380D01*
X112880000Y-102659380D02*
X112880000Y-101659380D01*
X112880000Y-101659380D02*
X112784762Y-101802238D01*
X112784762Y-101802238D02*
X112689524Y-101897476D01*
X112689524Y-101897476D02*
X112594286Y-101945095D01*
G04 #@! TO.C,D36*
X113165714Y-113327380D02*
X112594286Y-113327380D01*
X112880000Y-113327380D02*
X112880000Y-112327380D01*
X112880000Y-112327380D02*
X112784762Y-112470238D01*
X112784762Y-112470238D02*
X112689524Y-112565476D01*
X112689524Y-112565476D02*
X112594286Y-112613095D01*
G04 #@! TO.C,D30*
X113165714Y-81323380D02*
X112594286Y-81323380D01*
X112880000Y-81323380D02*
X112880000Y-80323380D01*
X112880000Y-80323380D02*
X112784762Y-80466238D01*
X112784762Y-80466238D02*
X112689524Y-80561476D01*
X112689524Y-80561476D02*
X112594286Y-80609095D01*
G04 #@! TO.C,D28*
X113165714Y-70655380D02*
X112594286Y-70655380D01*
X112880000Y-70655380D02*
X112880000Y-69655380D01*
X112880000Y-69655380D02*
X112784762Y-69798238D01*
X112784762Y-69798238D02*
X112689524Y-69893476D01*
X112689524Y-69893476D02*
X112594286Y-69941095D01*
G04 #@! TO.C,D5*
X145315714Y-88462046D02*
X144744286Y-88462046D01*
X145030000Y-88462046D02*
X145030000Y-87462046D01*
X145030000Y-87462046D02*
X144934762Y-87604904D01*
X144934762Y-87604904D02*
X144839524Y-87700142D01*
X144839524Y-87700142D02*
X144744286Y-87747761D01*
G04 #@! TO.C,D8*
X150832253Y-71141808D02*
X150428192Y-70737747D01*
X150630222Y-70939777D02*
X151337329Y-70232671D01*
X151337329Y-70232671D02*
X151168970Y-70266342D01*
X151168970Y-70266342D02*
X151034283Y-70266342D01*
X151034283Y-70266342D02*
X150933268Y-70232671D01*
G04 #@! TO.C,D24*
X130327380Y-66524285D02*
X130327380Y-67095713D01*
X130327380Y-66809999D02*
X129327380Y-66809999D01*
X129327380Y-66809999D02*
X129470238Y-66905237D01*
X129470238Y-66905237D02*
X129565476Y-67000475D01*
X129565476Y-67000475D02*
X129613095Y-67095713D01*
G04 #@! TO.C,D4*
X145315714Y-93838379D02*
X144744286Y-93838379D01*
X145030000Y-93838379D02*
X145030000Y-92838379D01*
X145030000Y-92838379D02*
X144934762Y-92981237D01*
X144934762Y-92981237D02*
X144839524Y-93076475D01*
X144839524Y-93076475D02*
X144744286Y-93124094D01*
D11*
G04 #@! TO.C,C14*
X184617836Y-77270000D02*
X184402164Y-77270000D01*
X184617836Y-76550000D02*
X184402164Y-76550000D01*
G04 #@! TO.C,C34*
X115160000Y-100829836D02*
X115160000Y-100614164D01*
X115880000Y-100829836D02*
X115880000Y-100614164D01*
G04 #@! TO.C,C17*
X185180000Y-90717836D02*
X185180000Y-90502164D01*
X185900000Y-90717836D02*
X185900000Y-90502164D01*
G04 #@! TO.C,C13*
X182440810Y-70468307D02*
X182288307Y-70620810D01*
X181931693Y-69959190D02*
X181779190Y-70111693D01*
G04 #@! TO.C,C1*
X142510000Y-110862164D02*
X142510000Y-111077836D01*
X141790000Y-110862164D02*
X141790000Y-111077836D01*
G04 #@! TO.C,C37*
X103992000Y-73171164D02*
X103992000Y-73386836D01*
X103272000Y-73171164D02*
X103272000Y-73386836D01*
G04 #@! TO.C,C3*
X142510000Y-100472164D02*
X142510000Y-100687836D01*
X141790000Y-100472164D02*
X141790000Y-100687836D01*
G04 #@! TO.C,C21*
X185180000Y-111557836D02*
X185180000Y-111342164D01*
X185900000Y-111557836D02*
X185900000Y-111342164D01*
G04 #@! TO.C,C38*
X104396000Y-69836420D02*
X104396000Y-70117580D01*
X103376000Y-69836420D02*
X103376000Y-70117580D01*
G04 #@! TO.C,C15*
X185180000Y-80407836D02*
X185180000Y-80192164D01*
X185900000Y-80407836D02*
X185900000Y-80192164D01*
G04 #@! TO.C,C29*
X115160000Y-74159836D02*
X115160000Y-73944164D01*
X115880000Y-74159836D02*
X115880000Y-73944164D01*
G04 #@! TO.C,C16*
X185180000Y-85667836D02*
X185180000Y-85452164D01*
X185900000Y-85667836D02*
X185900000Y-85452164D01*
G04 #@! TO.C,C35*
X115160000Y-106163836D02*
X115160000Y-105948164D01*
X115880000Y-106163836D02*
X115880000Y-105948164D01*
G04 #@! TO.C,C24*
X127680000Y-64067836D02*
X127680000Y-63852164D01*
X128400000Y-64067836D02*
X128400000Y-63852164D01*
G04 #@! TO.C,C25*
X121581693Y-67370810D02*
X121429190Y-67218307D01*
X122090810Y-66861693D02*
X121938307Y-66709190D01*
G04 #@! TO.C,C33*
X115160000Y-95495836D02*
X115160000Y-95280164D01*
X115880000Y-95495836D02*
X115880000Y-95280164D01*
G04 #@! TO.C,C28*
X115930000Y-70515164D02*
X115930000Y-70730836D01*
X115210000Y-70515164D02*
X115210000Y-70730836D01*
G04 #@! TO.C,C32*
X115160000Y-90161836D02*
X115160000Y-89946164D01*
X115880000Y-90161836D02*
X115880000Y-89946164D01*
G04 #@! TO.C,C5*
X142510000Y-89632164D02*
X142510000Y-89847836D01*
X141790000Y-89632164D02*
X141790000Y-89847836D01*
G04 #@! TO.C,C9*
X157840000Y-64042164D02*
X157840000Y-64257836D01*
X157120000Y-64042164D02*
X157120000Y-64257836D01*
G04 #@! TO.C,C11*
X171330000Y-63322164D02*
X171330000Y-63537836D01*
X170610000Y-63322164D02*
X170610000Y-63537836D01*
G04 #@! TO.C,C27*
X115337000Y-63734836D02*
X115337000Y-63519164D01*
X116057000Y-63734836D02*
X116057000Y-63519164D01*
G04 #@! TO.C,C8*
X152408307Y-69069190D02*
X152560810Y-69221693D01*
X151899190Y-69578307D02*
X152051693Y-69730810D01*
G04 #@! TO.C,C20*
X185180000Y-106287836D02*
X185180000Y-106072164D01*
X185900000Y-106287836D02*
X185900000Y-106072164D01*
G04 #@! TO.C,J1*
X106907500Y-67803000D02*
X105637500Y-67803000D01*
X106907500Y-66533000D02*
X106907500Y-67803000D01*
X104594571Y-64373000D02*
X104197500Y-64373000D01*
X104594571Y-63613000D02*
X104197500Y-63613000D01*
X104594571Y-61833000D02*
X104197500Y-61833000D01*
X104594571Y-61073000D02*
X104197500Y-61073000D01*
X104527500Y-66913000D02*
X104197500Y-66913000D01*
X104527500Y-66153000D02*
X104197500Y-66153000D01*
X104197500Y-67863000D02*
X104197500Y-60123000D01*
X104197500Y-65263000D02*
X101537500Y-65263000D01*
X104197500Y-62723000D02*
X101537500Y-62723000D01*
X104197500Y-60123000D02*
X101537500Y-60123000D01*
X101537500Y-67863000D02*
X104197500Y-67863000D01*
X101537500Y-66913000D02*
X95537500Y-66913000D01*
X101537500Y-66853000D02*
X95537500Y-66853000D01*
X101537500Y-66733000D02*
X95537500Y-66733000D01*
X101537500Y-66613000D02*
X95537500Y-66613000D01*
X101537500Y-66493000D02*
X95537500Y-66493000D01*
X101537500Y-66373000D02*
X95537500Y-66373000D01*
X101537500Y-66253000D02*
X95537500Y-66253000D01*
X101537500Y-64373000D02*
X95537500Y-64373000D01*
X101537500Y-61833000D02*
X95537500Y-61833000D01*
X101537500Y-60123000D02*
X101537500Y-67863000D01*
X95537500Y-66913000D02*
X95537500Y-66153000D01*
X95537500Y-66153000D02*
X101537500Y-66153000D01*
X95537500Y-64373000D02*
X95537500Y-63613000D01*
X95537500Y-63613000D02*
X101537500Y-63613000D01*
X95537500Y-61833000D02*
X95537500Y-61073000D01*
X95537500Y-61073000D02*
X101537500Y-61073000D01*
G04 #@! TO.C,C22*
X140889190Y-68701693D02*
X141041693Y-68549190D01*
X141398307Y-69210810D02*
X141550810Y-69058307D01*
G04 #@! TO.C,U1*
X104612000Y-73914000D02*
X104612000Y-75714000D01*
X104612000Y-73914000D02*
X104612000Y-73114000D01*
X107732000Y-73914000D02*
X107732000Y-74714000D01*
X107732000Y-73914000D02*
X107732000Y-73114000D01*
G04 #@! TO.C,C2*
X142510000Y-105892164D02*
X142510000Y-106107836D01*
X141790000Y-105892164D02*
X141790000Y-106107836D01*
G04 #@! TO.C,C12*
X178142164Y-64530000D02*
X178357836Y-64530000D01*
X178142164Y-65250000D02*
X178357836Y-65250000D01*
G04 #@! TO.C,C7*
X142510000Y-79162164D02*
X142510000Y-79377836D01*
X141790000Y-79162164D02*
X141790000Y-79377836D01*
G04 #@! TO.C,C23*
X134430000Y-66227836D02*
X134430000Y-66012164D01*
X135150000Y-66227836D02*
X135150000Y-66012164D01*
G04 #@! TO.C,C36*
X115160000Y-111497836D02*
X115160000Y-111282164D01*
X115880000Y-111497836D02*
X115880000Y-111282164D01*
G04 #@! TO.C,C4*
X142510000Y-95022164D02*
X142510000Y-95237836D01*
X141790000Y-95022164D02*
X141790000Y-95237836D01*
G04 #@! TO.C,C18*
X185180000Y-95917836D02*
X185180000Y-95702164D01*
X185900000Y-95917836D02*
X185900000Y-95702164D01*
G04 #@! TO.C,C6*
X142510000Y-84232164D02*
X142510000Y-84447836D01*
X141790000Y-84232164D02*
X141790000Y-84447836D01*
G04 #@! TO.C,C10*
X164530000Y-62772164D02*
X164530000Y-62987836D01*
X163810000Y-62772164D02*
X163810000Y-62987836D01*
G04 #@! TO.C,C31*
X115160000Y-84827836D02*
X115160000Y-84612164D01*
X115880000Y-84827836D02*
X115880000Y-84612164D01*
G04 #@! TO.C,C26*
X117221693Y-72430810D02*
X117069190Y-72278307D01*
X117730810Y-71921693D02*
X117578307Y-71769190D01*
G04 #@! TO.C,C19*
X185180000Y-101117836D02*
X185180000Y-100902164D01*
X185900000Y-101117836D02*
X185900000Y-100902164D01*
G04 #@! TO.C,C30*
X115160000Y-79493836D02*
X115160000Y-79278164D01*
X115880000Y-79493836D02*
X115880000Y-79278164D01*
G04 #@! TD*
M02*
