G04 #@! TF.GenerationSoftware,KiCad,Pcbnew,7.0.0-da2b9df05c~165~ubuntu22.04.1*
G04 #@! TF.CreationDate,2023-03-05T12:57:27-08:00*
G04 #@! TF.ProjectId,badge,62616467-652e-46b6-9963-61645f706362,rev?*
G04 #@! TF.SameCoordinates,Original*
G04 #@! TF.FileFunction,Legend,Top*
G04 #@! TF.FilePolarity,Positive*
%FSLAX46Y46*%
G04 Gerber Fmt 4.6, Leading zero omitted, Abs format (unit mm)*
G04 Created by KiCad (PCBNEW 7.0.0-da2b9df05c~165~ubuntu22.04.1) date 2023-03-05 12:57:27*
%MOMM*%
%LPD*%
G01*
G04 APERTURE LIST*
%ADD10C,0.150000*%
%ADD11C,0.120000*%
G04 APERTURE END LIST*
D10*
G04 #@! TO.C,D17*
X180559714Y-94460712D02*
X180559714Y-93460712D01*
X180559714Y-93460712D02*
X180797809Y-93460712D01*
X180797809Y-93460712D02*
X180940666Y-93508332D01*
X180940666Y-93508332D02*
X181035904Y-93603570D01*
X181035904Y-93603570D02*
X181083523Y-93698808D01*
X181083523Y-93698808D02*
X181131142Y-93889284D01*
X181131142Y-93889284D02*
X181131142Y-94032141D01*
X181131142Y-94032141D02*
X181083523Y-94222617D01*
X181083523Y-94222617D02*
X181035904Y-94317855D01*
X181035904Y-94317855D02*
X180940666Y-94413093D01*
X180940666Y-94413093D02*
X180797809Y-94460712D01*
X180797809Y-94460712D02*
X180559714Y-94460712D01*
X182083523Y-94460712D02*
X181512095Y-94460712D01*
X181797809Y-94460712D02*
X181797809Y-93460712D01*
X181797809Y-93460712D02*
X181702571Y-93603570D01*
X181702571Y-93603570D02*
X181607333Y-93698808D01*
X181607333Y-93698808D02*
X181512095Y-93746427D01*
X182416857Y-93460712D02*
X183083523Y-93460712D01*
X183083523Y-93460712D02*
X182654952Y-94460712D01*
X186209714Y-92560712D02*
X185638286Y-92560712D01*
X185924000Y-92560712D02*
X185924000Y-91560712D01*
X185924000Y-91560712D02*
X185828762Y-91703570D01*
X185828762Y-91703570D02*
X185733524Y-91798808D01*
X185733524Y-91798808D02*
X185638286Y-91846427D01*
G04 #@! TO.C,D15*
X180559714Y-84131380D02*
X180559714Y-83131380D01*
X180559714Y-83131380D02*
X180797809Y-83131380D01*
X180797809Y-83131380D02*
X180940666Y-83179000D01*
X180940666Y-83179000D02*
X181035904Y-83274238D01*
X181035904Y-83274238D02*
X181083523Y-83369476D01*
X181083523Y-83369476D02*
X181131142Y-83559952D01*
X181131142Y-83559952D02*
X181131142Y-83702809D01*
X181131142Y-83702809D02*
X181083523Y-83893285D01*
X181083523Y-83893285D02*
X181035904Y-83988523D01*
X181035904Y-83988523D02*
X180940666Y-84083761D01*
X180940666Y-84083761D02*
X180797809Y-84131380D01*
X180797809Y-84131380D02*
X180559714Y-84131380D01*
X182083523Y-84131380D02*
X181512095Y-84131380D01*
X181797809Y-84131380D02*
X181797809Y-83131380D01*
X181797809Y-83131380D02*
X181702571Y-83274238D01*
X181702571Y-83274238D02*
X181607333Y-83369476D01*
X181607333Y-83369476D02*
X181512095Y-83417095D01*
X182988285Y-83131380D02*
X182512095Y-83131380D01*
X182512095Y-83131380D02*
X182464476Y-83607571D01*
X182464476Y-83607571D02*
X182512095Y-83559952D01*
X182512095Y-83559952D02*
X182607333Y-83512333D01*
X182607333Y-83512333D02*
X182845428Y-83512333D01*
X182845428Y-83512333D02*
X182940666Y-83559952D01*
X182940666Y-83559952D02*
X182988285Y-83607571D01*
X182988285Y-83607571D02*
X183035904Y-83702809D01*
X183035904Y-83702809D02*
X183035904Y-83940904D01*
X183035904Y-83940904D02*
X182988285Y-84036142D01*
X182988285Y-84036142D02*
X182940666Y-84083761D01*
X182940666Y-84083761D02*
X182845428Y-84131380D01*
X182845428Y-84131380D02*
X182607333Y-84131380D01*
X182607333Y-84131380D02*
X182512095Y-84083761D01*
X182512095Y-84083761D02*
X182464476Y-84036142D01*
X186209714Y-82231380D02*
X185638286Y-82231380D01*
X185924000Y-82231380D02*
X185924000Y-81231380D01*
X185924000Y-81231380D02*
X185828762Y-81374238D01*
X185828762Y-81374238D02*
X185733524Y-81469476D01*
X185733524Y-81469476D02*
X185638286Y-81517095D01*
G04 #@! TO.C,D7*
X145311905Y-75861380D02*
X145311905Y-74861380D01*
X145311905Y-74861380D02*
X145550000Y-74861380D01*
X145550000Y-74861380D02*
X145692857Y-74909000D01*
X145692857Y-74909000D02*
X145788095Y-75004238D01*
X145788095Y-75004238D02*
X145835714Y-75099476D01*
X145835714Y-75099476D02*
X145883333Y-75289952D01*
X145883333Y-75289952D02*
X145883333Y-75432809D01*
X145883333Y-75432809D02*
X145835714Y-75623285D01*
X145835714Y-75623285D02*
X145788095Y-75718523D01*
X145788095Y-75718523D02*
X145692857Y-75813761D01*
X145692857Y-75813761D02*
X145550000Y-75861380D01*
X145550000Y-75861380D02*
X145311905Y-75861380D01*
X146216667Y-74861380D02*
X146883333Y-74861380D01*
X146883333Y-74861380D02*
X146454762Y-75861380D01*
X142185714Y-77761380D02*
X141614286Y-77761380D01*
X141900000Y-77761380D02*
X141900000Y-76761380D01*
X141900000Y-76761380D02*
X141804762Y-76904238D01*
X141804762Y-76904238D02*
X141709524Y-76999476D01*
X141709524Y-76999476D02*
X141614286Y-77047095D01*
G04 #@! TO.C,D14*
X181791667Y-78217459D02*
X181449647Y-77277766D01*
X181449647Y-77277766D02*
X181673383Y-77196333D01*
X181673383Y-77196333D02*
X181823911Y-77192220D01*
X181823911Y-77192220D02*
X181945979Y-77249141D01*
X181945979Y-77249141D02*
X182023300Y-77322349D01*
X182023300Y-77322349D02*
X182133194Y-77485052D01*
X182133194Y-77485052D02*
X182182054Y-77619293D01*
X182182054Y-77619293D02*
X182202453Y-77814569D01*
X182202453Y-77814569D02*
X182190279Y-77920350D01*
X182190279Y-77920350D02*
X182133358Y-78042418D01*
X182133358Y-78042418D02*
X182015403Y-78136025D01*
X182015403Y-78136025D02*
X181791667Y-78217459D01*
X183223579Y-77696285D02*
X182686612Y-77891725D01*
X182955096Y-77794005D02*
X182613076Y-76854313D01*
X182613076Y-76854313D02*
X182572441Y-77021128D01*
X182572441Y-77021128D02*
X182515520Y-77143196D01*
X182515520Y-77143196D02*
X182442312Y-77220516D01*
X183801017Y-76776663D02*
X184029030Y-77403125D01*
X183446987Y-76500119D02*
X183467551Y-77252761D01*
X183467551Y-77252761D02*
X184049265Y-77041034D01*
X186451092Y-74499629D02*
X185914125Y-74695070D01*
X186182609Y-74597350D02*
X185840588Y-73657657D01*
X185840588Y-73657657D02*
X185799954Y-73824472D01*
X185799954Y-73824472D02*
X185743033Y-73946540D01*
X185743033Y-73946540D02*
X185669825Y-74023861D01*
G04 #@! TO.C,D25*
X121426540Y-66983667D02*
X122366233Y-66641647D01*
X122366233Y-66641647D02*
X122447666Y-66865383D01*
X122447666Y-66865383D02*
X122451779Y-67015911D01*
X122451779Y-67015911D02*
X122394858Y-67137979D01*
X122394858Y-67137979D02*
X122321650Y-67215300D01*
X122321650Y-67215300D02*
X122158947Y-67325194D01*
X122158947Y-67325194D02*
X122024706Y-67374054D01*
X122024706Y-67374054D02*
X121829430Y-67394453D01*
X121829430Y-67394453D02*
X121723649Y-67382279D01*
X121723649Y-67382279D02*
X121601581Y-67325358D01*
X121601581Y-67325358D02*
X121507974Y-67207403D01*
X121507974Y-67207403D02*
X121426540Y-66983667D01*
X122602472Y-67569165D02*
X122663506Y-67597626D01*
X122663506Y-67597626D02*
X122740826Y-67670834D01*
X122740826Y-67670834D02*
X122822260Y-67894570D01*
X122822260Y-67894570D02*
X122810086Y-68000351D01*
X122810086Y-68000351D02*
X122781625Y-68061385D01*
X122781625Y-68061385D02*
X122708417Y-68138706D01*
X122708417Y-68138706D02*
X122618923Y-68171279D01*
X122618923Y-68171279D02*
X122468394Y-68175392D01*
X122468394Y-68175392D02*
X121735987Y-67833865D01*
X121735987Y-67833865D02*
X121947714Y-68415579D01*
X123196853Y-68923757D02*
X123033986Y-68476285D01*
X123033986Y-68476285D02*
X122570227Y-68594404D01*
X122570227Y-68594404D02*
X122631261Y-68622865D01*
X122631261Y-68622865D02*
X122708582Y-68696073D01*
X122708582Y-68696073D02*
X122790015Y-68919809D01*
X122790015Y-68919809D02*
X122777841Y-69025590D01*
X122777841Y-69025590D02*
X122749380Y-69086624D01*
X122749380Y-69086624D02*
X122676173Y-69163945D01*
X122676173Y-69163945D02*
X122452436Y-69245378D01*
X122452436Y-69245378D02*
X122346655Y-69233204D01*
X122346655Y-69233204D02*
X122285621Y-69204744D01*
X122285621Y-69204744D02*
X122208300Y-69131536D01*
X122208300Y-69131536D02*
X122126867Y-68907799D01*
X122126867Y-68907799D02*
X122139041Y-68802018D01*
X122139041Y-68802018D02*
X122167502Y-68740984D01*
X125144370Y-71643092D02*
X124948929Y-71106125D01*
X125046649Y-71374609D02*
X125986342Y-71032588D01*
X125986342Y-71032588D02*
X125819527Y-70991954D01*
X125819527Y-70991954D02*
X125697459Y-70935033D01*
X125697459Y-70935033D02*
X125620138Y-70861825D01*
G04 #@! TO.C,D16*
X180559714Y-89296046D02*
X180559714Y-88296046D01*
X180559714Y-88296046D02*
X180797809Y-88296046D01*
X180797809Y-88296046D02*
X180940666Y-88343666D01*
X180940666Y-88343666D02*
X181035904Y-88438904D01*
X181035904Y-88438904D02*
X181083523Y-88534142D01*
X181083523Y-88534142D02*
X181131142Y-88724618D01*
X181131142Y-88724618D02*
X181131142Y-88867475D01*
X181131142Y-88867475D02*
X181083523Y-89057951D01*
X181083523Y-89057951D02*
X181035904Y-89153189D01*
X181035904Y-89153189D02*
X180940666Y-89248427D01*
X180940666Y-89248427D02*
X180797809Y-89296046D01*
X180797809Y-89296046D02*
X180559714Y-89296046D01*
X182083523Y-89296046D02*
X181512095Y-89296046D01*
X181797809Y-89296046D02*
X181797809Y-88296046D01*
X181797809Y-88296046D02*
X181702571Y-88438904D01*
X181702571Y-88438904D02*
X181607333Y-88534142D01*
X181607333Y-88534142D02*
X181512095Y-88581761D01*
X182940666Y-88296046D02*
X182750190Y-88296046D01*
X182750190Y-88296046D02*
X182654952Y-88343666D01*
X182654952Y-88343666D02*
X182607333Y-88391285D01*
X182607333Y-88391285D02*
X182512095Y-88534142D01*
X182512095Y-88534142D02*
X182464476Y-88724618D01*
X182464476Y-88724618D02*
X182464476Y-89105570D01*
X182464476Y-89105570D02*
X182512095Y-89200808D01*
X182512095Y-89200808D02*
X182559714Y-89248427D01*
X182559714Y-89248427D02*
X182654952Y-89296046D01*
X182654952Y-89296046D02*
X182845428Y-89296046D01*
X182845428Y-89296046D02*
X182940666Y-89248427D01*
X182940666Y-89248427D02*
X182988285Y-89200808D01*
X182988285Y-89200808D02*
X183035904Y-89105570D01*
X183035904Y-89105570D02*
X183035904Y-88867475D01*
X183035904Y-88867475D02*
X182988285Y-88772237D01*
X182988285Y-88772237D02*
X182940666Y-88724618D01*
X182940666Y-88724618D02*
X182845428Y-88676999D01*
X182845428Y-88676999D02*
X182654952Y-88676999D01*
X182654952Y-88676999D02*
X182559714Y-88724618D01*
X182559714Y-88724618D02*
X182512095Y-88772237D01*
X182512095Y-88772237D02*
X182464476Y-88867475D01*
X186209714Y-87396046D02*
X185638286Y-87396046D01*
X185924000Y-87396046D02*
X185924000Y-86396046D01*
X185924000Y-86396046D02*
X185828762Y-86538904D01*
X185828762Y-86538904D02*
X185733524Y-86634142D01*
X185733524Y-86634142D02*
X185638286Y-86681761D01*
G04 #@! TO.C,D2*
X145311905Y-102743045D02*
X145311905Y-101743045D01*
X145311905Y-101743045D02*
X145550000Y-101743045D01*
X145550000Y-101743045D02*
X145692857Y-101790665D01*
X145692857Y-101790665D02*
X145788095Y-101885903D01*
X145788095Y-101885903D02*
X145835714Y-101981141D01*
X145835714Y-101981141D02*
X145883333Y-102171617D01*
X145883333Y-102171617D02*
X145883333Y-102314474D01*
X145883333Y-102314474D02*
X145835714Y-102504950D01*
X145835714Y-102504950D02*
X145788095Y-102600188D01*
X145788095Y-102600188D02*
X145692857Y-102695426D01*
X145692857Y-102695426D02*
X145550000Y-102743045D01*
X145550000Y-102743045D02*
X145311905Y-102743045D01*
X146264286Y-101838284D02*
X146311905Y-101790665D01*
X146311905Y-101790665D02*
X146407143Y-101743045D01*
X146407143Y-101743045D02*
X146645238Y-101743045D01*
X146645238Y-101743045D02*
X146740476Y-101790665D01*
X146740476Y-101790665D02*
X146788095Y-101838284D01*
X146788095Y-101838284D02*
X146835714Y-101933522D01*
X146835714Y-101933522D02*
X146835714Y-102028760D01*
X146835714Y-102028760D02*
X146788095Y-102171617D01*
X146788095Y-102171617D02*
X146216667Y-102743045D01*
X146216667Y-102743045D02*
X146835714Y-102743045D01*
X142185714Y-104643045D02*
X141614286Y-104643045D01*
X141900000Y-104643045D02*
X141900000Y-103643045D01*
X141900000Y-103643045D02*
X141804762Y-103785903D01*
X141804762Y-103785903D02*
X141709524Y-103881141D01*
X141709524Y-103881141D02*
X141614286Y-103928760D01*
G04 #@! TO.C,D22*
X139956518Y-70012394D02*
X139382941Y-69193242D01*
X139382941Y-69193242D02*
X139577978Y-69056676D01*
X139577978Y-69056676D02*
X139722313Y-69013744D01*
X139722313Y-69013744D02*
X139854953Y-69037132D01*
X139854953Y-69037132D02*
X139948587Y-69087833D01*
X139948587Y-69087833D02*
X140096847Y-69216549D01*
X140096847Y-69216549D02*
X140178786Y-69333571D01*
X140178786Y-69333571D02*
X140249032Y-69516913D01*
X140249032Y-69516913D02*
X140264651Y-69622241D01*
X140264651Y-69622241D02*
X140241263Y-69754882D01*
X140241263Y-69754882D02*
X140151554Y-69875828D01*
X140151554Y-69875828D02*
X139956518Y-70012394D01*
X140217713Y-68724993D02*
X140229407Y-68658673D01*
X140229407Y-68658673D02*
X140280108Y-68565039D01*
X140280108Y-68565039D02*
X140475144Y-68428473D01*
X140475144Y-68428473D02*
X140580472Y-68412854D01*
X140580472Y-68412854D02*
X140646792Y-68424548D01*
X140646792Y-68424548D02*
X140740426Y-68475250D01*
X140740426Y-68475250D02*
X140795052Y-68553264D01*
X140795052Y-68553264D02*
X140837984Y-68697599D01*
X140837984Y-68697599D02*
X140697655Y-69493444D01*
X140697655Y-69493444D02*
X141204750Y-69138373D01*
X140997857Y-68178730D02*
X141009552Y-68112410D01*
X141009552Y-68112410D02*
X141060253Y-68018776D01*
X141060253Y-68018776D02*
X141255289Y-67882210D01*
X141255289Y-67882210D02*
X141360617Y-67866591D01*
X141360617Y-67866591D02*
X141426937Y-67878285D01*
X141426937Y-67878285D02*
X141520571Y-67928986D01*
X141520571Y-67928986D02*
X141575197Y-68007001D01*
X141575197Y-68007001D02*
X141618129Y-68151336D01*
X141618129Y-68151336D02*
X141477800Y-68947181D01*
X141477800Y-68947181D02*
X141984894Y-68592110D01*
X138875561Y-73088760D02*
X138407475Y-73416518D01*
X138641518Y-73252639D02*
X138067942Y-72433487D01*
X138067942Y-72433487D02*
X138071867Y-72605135D01*
X138071867Y-72605135D02*
X138048478Y-72737776D01*
X138048478Y-72737776D02*
X137997777Y-72831409D01*
G04 #@! TO.C,D31*
X110545714Y-88449380D02*
X110545714Y-87449380D01*
X110545714Y-87449380D02*
X110783809Y-87449380D01*
X110783809Y-87449380D02*
X110926666Y-87497000D01*
X110926666Y-87497000D02*
X111021904Y-87592238D01*
X111021904Y-87592238D02*
X111069523Y-87687476D01*
X111069523Y-87687476D02*
X111117142Y-87877952D01*
X111117142Y-87877952D02*
X111117142Y-88020809D01*
X111117142Y-88020809D02*
X111069523Y-88211285D01*
X111069523Y-88211285D02*
X111021904Y-88306523D01*
X111021904Y-88306523D02*
X110926666Y-88401761D01*
X110926666Y-88401761D02*
X110783809Y-88449380D01*
X110783809Y-88449380D02*
X110545714Y-88449380D01*
X111450476Y-87449380D02*
X112069523Y-87449380D01*
X112069523Y-87449380D02*
X111736190Y-87830333D01*
X111736190Y-87830333D02*
X111879047Y-87830333D01*
X111879047Y-87830333D02*
X111974285Y-87877952D01*
X111974285Y-87877952D02*
X112021904Y-87925571D01*
X112021904Y-87925571D02*
X112069523Y-88020809D01*
X112069523Y-88020809D02*
X112069523Y-88258904D01*
X112069523Y-88258904D02*
X112021904Y-88354142D01*
X112021904Y-88354142D02*
X111974285Y-88401761D01*
X111974285Y-88401761D02*
X111879047Y-88449380D01*
X111879047Y-88449380D02*
X111593333Y-88449380D01*
X111593333Y-88449380D02*
X111498095Y-88401761D01*
X111498095Y-88401761D02*
X111450476Y-88354142D01*
X113021904Y-88449380D02*
X112450476Y-88449380D01*
X112736190Y-88449380D02*
X112736190Y-87449380D01*
X112736190Y-87449380D02*
X112640952Y-87592238D01*
X112640952Y-87592238D02*
X112545714Y-87687476D01*
X112545714Y-87687476D02*
X112450476Y-87735095D01*
X116195714Y-86549380D02*
X115624286Y-86549380D01*
X115910000Y-86549380D02*
X115910000Y-85549380D01*
X115910000Y-85549380D02*
X115814762Y-85692238D01*
X115814762Y-85692238D02*
X115719524Y-85787476D01*
X115719524Y-85787476D02*
X115624286Y-85835095D01*
G04 #@! TO.C,D32*
X110545714Y-93783380D02*
X110545714Y-92783380D01*
X110545714Y-92783380D02*
X110783809Y-92783380D01*
X110783809Y-92783380D02*
X110926666Y-92831000D01*
X110926666Y-92831000D02*
X111021904Y-92926238D01*
X111021904Y-92926238D02*
X111069523Y-93021476D01*
X111069523Y-93021476D02*
X111117142Y-93211952D01*
X111117142Y-93211952D02*
X111117142Y-93354809D01*
X111117142Y-93354809D02*
X111069523Y-93545285D01*
X111069523Y-93545285D02*
X111021904Y-93640523D01*
X111021904Y-93640523D02*
X110926666Y-93735761D01*
X110926666Y-93735761D02*
X110783809Y-93783380D01*
X110783809Y-93783380D02*
X110545714Y-93783380D01*
X111450476Y-92783380D02*
X112069523Y-92783380D01*
X112069523Y-92783380D02*
X111736190Y-93164333D01*
X111736190Y-93164333D02*
X111879047Y-93164333D01*
X111879047Y-93164333D02*
X111974285Y-93211952D01*
X111974285Y-93211952D02*
X112021904Y-93259571D01*
X112021904Y-93259571D02*
X112069523Y-93354809D01*
X112069523Y-93354809D02*
X112069523Y-93592904D01*
X112069523Y-93592904D02*
X112021904Y-93688142D01*
X112021904Y-93688142D02*
X111974285Y-93735761D01*
X111974285Y-93735761D02*
X111879047Y-93783380D01*
X111879047Y-93783380D02*
X111593333Y-93783380D01*
X111593333Y-93783380D02*
X111498095Y-93735761D01*
X111498095Y-93735761D02*
X111450476Y-93688142D01*
X112450476Y-92878619D02*
X112498095Y-92831000D01*
X112498095Y-92831000D02*
X112593333Y-92783380D01*
X112593333Y-92783380D02*
X112831428Y-92783380D01*
X112831428Y-92783380D02*
X112926666Y-92831000D01*
X112926666Y-92831000D02*
X112974285Y-92878619D01*
X112974285Y-92878619D02*
X113021904Y-92973857D01*
X113021904Y-92973857D02*
X113021904Y-93069095D01*
X113021904Y-93069095D02*
X112974285Y-93211952D01*
X112974285Y-93211952D02*
X112402857Y-93783380D01*
X112402857Y-93783380D02*
X113021904Y-93783380D01*
X116195714Y-91883380D02*
X115624286Y-91883380D01*
X115910000Y-91883380D02*
X115910000Y-90883380D01*
X115910000Y-90883380D02*
X115814762Y-91026238D01*
X115814762Y-91026238D02*
X115719524Y-91121476D01*
X115719524Y-91121476D02*
X115624286Y-91169095D01*
G04 #@! TO.C,D27*
X110545714Y-67113380D02*
X110545714Y-66113380D01*
X110545714Y-66113380D02*
X110783809Y-66113380D01*
X110783809Y-66113380D02*
X110926666Y-66161000D01*
X110926666Y-66161000D02*
X111021904Y-66256238D01*
X111021904Y-66256238D02*
X111069523Y-66351476D01*
X111069523Y-66351476D02*
X111117142Y-66541952D01*
X111117142Y-66541952D02*
X111117142Y-66684809D01*
X111117142Y-66684809D02*
X111069523Y-66875285D01*
X111069523Y-66875285D02*
X111021904Y-66970523D01*
X111021904Y-66970523D02*
X110926666Y-67065761D01*
X110926666Y-67065761D02*
X110783809Y-67113380D01*
X110783809Y-67113380D02*
X110545714Y-67113380D01*
X111498095Y-66208619D02*
X111545714Y-66161000D01*
X111545714Y-66161000D02*
X111640952Y-66113380D01*
X111640952Y-66113380D02*
X111879047Y-66113380D01*
X111879047Y-66113380D02*
X111974285Y-66161000D01*
X111974285Y-66161000D02*
X112021904Y-66208619D01*
X112021904Y-66208619D02*
X112069523Y-66303857D01*
X112069523Y-66303857D02*
X112069523Y-66399095D01*
X112069523Y-66399095D02*
X112021904Y-66541952D01*
X112021904Y-66541952D02*
X111450476Y-67113380D01*
X111450476Y-67113380D02*
X112069523Y-67113380D01*
X112402857Y-66113380D02*
X113069523Y-66113380D01*
X113069523Y-66113380D02*
X112640952Y-67113380D01*
X116195714Y-65213380D02*
X115624286Y-65213380D01*
X115910000Y-65213380D02*
X115910000Y-64213380D01*
X115910000Y-64213380D02*
X115814762Y-64356238D01*
X115814762Y-64356238D02*
X115719524Y-64451476D01*
X115719524Y-64451476D02*
X115624286Y-64499095D01*
G04 #@! TO.C,D18*
X180559714Y-99625378D02*
X180559714Y-98625378D01*
X180559714Y-98625378D02*
X180797809Y-98625378D01*
X180797809Y-98625378D02*
X180940666Y-98672998D01*
X180940666Y-98672998D02*
X181035904Y-98768236D01*
X181035904Y-98768236D02*
X181083523Y-98863474D01*
X181083523Y-98863474D02*
X181131142Y-99053950D01*
X181131142Y-99053950D02*
X181131142Y-99196807D01*
X181131142Y-99196807D02*
X181083523Y-99387283D01*
X181083523Y-99387283D02*
X181035904Y-99482521D01*
X181035904Y-99482521D02*
X180940666Y-99577759D01*
X180940666Y-99577759D02*
X180797809Y-99625378D01*
X180797809Y-99625378D02*
X180559714Y-99625378D01*
X182083523Y-99625378D02*
X181512095Y-99625378D01*
X181797809Y-99625378D02*
X181797809Y-98625378D01*
X181797809Y-98625378D02*
X181702571Y-98768236D01*
X181702571Y-98768236D02*
X181607333Y-98863474D01*
X181607333Y-98863474D02*
X181512095Y-98911093D01*
X182654952Y-99053950D02*
X182559714Y-99006331D01*
X182559714Y-99006331D02*
X182512095Y-98958712D01*
X182512095Y-98958712D02*
X182464476Y-98863474D01*
X182464476Y-98863474D02*
X182464476Y-98815855D01*
X182464476Y-98815855D02*
X182512095Y-98720617D01*
X182512095Y-98720617D02*
X182559714Y-98672998D01*
X182559714Y-98672998D02*
X182654952Y-98625378D01*
X182654952Y-98625378D02*
X182845428Y-98625378D01*
X182845428Y-98625378D02*
X182940666Y-98672998D01*
X182940666Y-98672998D02*
X182988285Y-98720617D01*
X182988285Y-98720617D02*
X183035904Y-98815855D01*
X183035904Y-98815855D02*
X183035904Y-98863474D01*
X183035904Y-98863474D02*
X182988285Y-98958712D01*
X182988285Y-98958712D02*
X182940666Y-99006331D01*
X182940666Y-99006331D02*
X182845428Y-99053950D01*
X182845428Y-99053950D02*
X182654952Y-99053950D01*
X182654952Y-99053950D02*
X182559714Y-99101569D01*
X182559714Y-99101569D02*
X182512095Y-99149188D01*
X182512095Y-99149188D02*
X182464476Y-99244426D01*
X182464476Y-99244426D02*
X182464476Y-99434902D01*
X182464476Y-99434902D02*
X182512095Y-99530140D01*
X182512095Y-99530140D02*
X182559714Y-99577759D01*
X182559714Y-99577759D02*
X182654952Y-99625378D01*
X182654952Y-99625378D02*
X182845428Y-99625378D01*
X182845428Y-99625378D02*
X182940666Y-99577759D01*
X182940666Y-99577759D02*
X182988285Y-99530140D01*
X182988285Y-99530140D02*
X183035904Y-99434902D01*
X183035904Y-99434902D02*
X183035904Y-99244426D01*
X183035904Y-99244426D02*
X182988285Y-99149188D01*
X182988285Y-99149188D02*
X182940666Y-99101569D01*
X182940666Y-99101569D02*
X182845428Y-99053950D01*
X186209714Y-97725378D02*
X185638286Y-97725378D01*
X185924000Y-97725378D02*
X185924000Y-96725378D01*
X185924000Y-96725378D02*
X185828762Y-96868236D01*
X185828762Y-96868236D02*
X185733524Y-96963474D01*
X185733524Y-96963474D02*
X185638286Y-97011093D01*
G04 #@! TO.C,D12*
X176478107Y-68771292D02*
X175612081Y-68271292D01*
X175612081Y-68271292D02*
X175731129Y-68065096D01*
X175731129Y-68065096D02*
X175843797Y-67965187D01*
X175843797Y-67965187D02*
X175973895Y-67930328D01*
X175973895Y-67930328D02*
X176080183Y-67936708D01*
X176080183Y-67936708D02*
X176268949Y-67990706D01*
X176268949Y-67990706D02*
X176392667Y-68062135D01*
X176392667Y-68062135D02*
X176533815Y-68198612D01*
X176533815Y-68198612D02*
X176592484Y-68287471D01*
X176592484Y-68287471D02*
X176627344Y-68417568D01*
X176627344Y-68417568D02*
X176597154Y-68565096D01*
X176597154Y-68565096D02*
X176478107Y-68771292D01*
X177240012Y-67451635D02*
X176954297Y-67946506D01*
X177097154Y-67699070D02*
X176231129Y-67199070D01*
X176231129Y-67199070D02*
X176307228Y-67352978D01*
X176307228Y-67352978D02*
X176342088Y-67483075D01*
X176342088Y-67483075D02*
X176335708Y-67589363D01*
X176646941Y-66669339D02*
X176629511Y-66604290D01*
X176629511Y-66604290D02*
X176635891Y-66498002D01*
X176635891Y-66498002D02*
X176754939Y-66291806D01*
X176754939Y-66291806D02*
X176843797Y-66233137D01*
X176843797Y-66233137D02*
X176908846Y-66215707D01*
X176908846Y-66215707D02*
X177015134Y-66222086D01*
X177015134Y-66222086D02*
X177097613Y-66269706D01*
X177097613Y-66269706D02*
X177197521Y-66382373D01*
X177197521Y-66382373D02*
X177406678Y-67162959D01*
X177406678Y-67162959D02*
X177716202Y-66626848D01*
X177657659Y-62928249D02*
X177371945Y-63423120D01*
X177514802Y-63175685D02*
X176648777Y-62675685D01*
X176648777Y-62675685D02*
X176724875Y-62829592D01*
X176724875Y-62829592D02*
X176759735Y-62959689D01*
X176759735Y-62959689D02*
X176753355Y-63065978D01*
G04 #@! TO.C,D13*
X180117708Y-72831113D02*
X179474920Y-72065069D01*
X179474920Y-72065069D02*
X179657311Y-71912024D01*
X179657311Y-71912024D02*
X179797355Y-71856676D01*
X179797355Y-71856676D02*
X179931530Y-71868415D01*
X179931530Y-71868415D02*
X180029226Y-71910762D01*
X180029226Y-71910762D02*
X180188140Y-72026067D01*
X180188140Y-72026067D02*
X180279967Y-72135502D01*
X180279967Y-72135502D02*
X180365924Y-72312024D01*
X180365924Y-72312024D02*
X180390664Y-72415589D01*
X180390664Y-72415589D02*
X180378925Y-72549764D01*
X180378925Y-72549764D02*
X180300099Y-72678069D01*
X180300099Y-72678069D02*
X180117708Y-72831113D01*
X181285013Y-71851628D02*
X180847274Y-72218935D01*
X181066144Y-72035281D02*
X180423356Y-71269237D01*
X180423356Y-71269237D02*
X180442226Y-71439890D01*
X180442226Y-71439890D02*
X180430487Y-71574064D01*
X180430487Y-71574064D02*
X180388140Y-71671760D01*
X180897574Y-70871321D02*
X181371792Y-70473404D01*
X181371792Y-70473404D02*
X181361315Y-70979493D01*
X181361315Y-70979493D02*
X181470750Y-70887667D01*
X181470750Y-70887667D02*
X181574316Y-70862927D01*
X181574316Y-70862927D02*
X181641403Y-70868796D01*
X181641403Y-70868796D02*
X181739099Y-70911144D01*
X181739099Y-70911144D02*
X181892144Y-71093536D01*
X181892144Y-71093536D02*
X181916883Y-71197101D01*
X181916883Y-71197101D02*
X181911014Y-71264188D01*
X181911014Y-71264188D02*
X181868666Y-71361885D01*
X181868666Y-71361885D02*
X181649796Y-71545538D01*
X181649796Y-71545538D02*
X181546231Y-71570278D01*
X181546231Y-71570278D02*
X181479144Y-71564408D01*
X183224563Y-67743879D02*
X182786823Y-68111186D01*
X183005693Y-67927532D02*
X182362905Y-67161488D01*
X182362905Y-67161488D02*
X182381775Y-67332141D01*
X182381775Y-67332141D02*
X182370037Y-67466315D01*
X182370037Y-67466315D02*
X182327689Y-67564011D01*
G04 #@! TO.C,D11*
X171507380Y-65984285D02*
X170507380Y-65984285D01*
X170507380Y-65984285D02*
X170507380Y-65746190D01*
X170507380Y-65746190D02*
X170555000Y-65603333D01*
X170555000Y-65603333D02*
X170650238Y-65508095D01*
X170650238Y-65508095D02*
X170745476Y-65460476D01*
X170745476Y-65460476D02*
X170935952Y-65412857D01*
X170935952Y-65412857D02*
X171078809Y-65412857D01*
X171078809Y-65412857D02*
X171269285Y-65460476D01*
X171269285Y-65460476D02*
X171364523Y-65508095D01*
X171364523Y-65508095D02*
X171459761Y-65603333D01*
X171459761Y-65603333D02*
X171507380Y-65746190D01*
X171507380Y-65746190D02*
X171507380Y-65984285D01*
X171507380Y-64460476D02*
X171507380Y-65031904D01*
X171507380Y-64746190D02*
X170507380Y-64746190D01*
X170507380Y-64746190D02*
X170650238Y-64841428D01*
X170650238Y-64841428D02*
X170745476Y-64936666D01*
X170745476Y-64936666D02*
X170793095Y-65031904D01*
X171507380Y-63508095D02*
X171507380Y-64079523D01*
X171507380Y-63793809D02*
X170507380Y-63793809D01*
X170507380Y-63793809D02*
X170650238Y-63889047D01*
X170650238Y-63889047D02*
X170745476Y-63984285D01*
X170745476Y-63984285D02*
X170793095Y-64079523D01*
X169607380Y-60334285D02*
X169607380Y-60905713D01*
X169607380Y-60619999D02*
X168607380Y-60619999D01*
X168607380Y-60619999D02*
X168750238Y-60715237D01*
X168750238Y-60715237D02*
X168845476Y-60810475D01*
X168845476Y-60810475D02*
X168893095Y-60905713D01*
G04 #@! TO.C,D1*
X145311905Y-108119380D02*
X145311905Y-107119380D01*
X145311905Y-107119380D02*
X145550000Y-107119380D01*
X145550000Y-107119380D02*
X145692857Y-107167000D01*
X145692857Y-107167000D02*
X145788095Y-107262238D01*
X145788095Y-107262238D02*
X145835714Y-107357476D01*
X145835714Y-107357476D02*
X145883333Y-107547952D01*
X145883333Y-107547952D02*
X145883333Y-107690809D01*
X145883333Y-107690809D02*
X145835714Y-107881285D01*
X145835714Y-107881285D02*
X145788095Y-107976523D01*
X145788095Y-107976523D02*
X145692857Y-108071761D01*
X145692857Y-108071761D02*
X145550000Y-108119380D01*
X145550000Y-108119380D02*
X145311905Y-108119380D01*
X146835714Y-108119380D02*
X146264286Y-108119380D01*
X146550000Y-108119380D02*
X146550000Y-107119380D01*
X146550000Y-107119380D02*
X146454762Y-107262238D01*
X146454762Y-107262238D02*
X146359524Y-107357476D01*
X146359524Y-107357476D02*
X146264286Y-107405095D01*
X142185714Y-110019380D02*
X141614286Y-110019380D01*
X141900000Y-110019380D02*
X141900000Y-109019380D01*
X141900000Y-109019380D02*
X141804762Y-109162238D01*
X141804762Y-109162238D02*
X141709524Y-109257476D01*
X141709524Y-109257476D02*
X141614286Y-109305095D01*
G04 #@! TO.C,D9*
X158045880Y-65866481D02*
X158911905Y-65366481D01*
X158911905Y-65366481D02*
X159030953Y-65572678D01*
X159030953Y-65572678D02*
X159061142Y-65720205D01*
X159061142Y-65720205D02*
X159026283Y-65850303D01*
X159026283Y-65850303D02*
X158967614Y-65939161D01*
X158967614Y-65939161D02*
X158826466Y-66075639D01*
X158826466Y-66075639D02*
X158702748Y-66147067D01*
X158702748Y-66147067D02*
X158513981Y-66201066D01*
X158513981Y-66201066D02*
X158407693Y-66207446D01*
X158407693Y-66207446D02*
X158277595Y-66172586D01*
X158277595Y-66172586D02*
X158164928Y-66072678D01*
X158164928Y-66072678D02*
X158045880Y-65866481D01*
X158569689Y-66773746D02*
X158664928Y-66938703D01*
X158664928Y-66938703D02*
X158753786Y-66997372D01*
X158753786Y-66997372D02*
X158818835Y-67014802D01*
X158818835Y-67014802D02*
X158990172Y-67025852D01*
X158990172Y-67025852D02*
X159178938Y-66971853D01*
X159178938Y-66971853D02*
X159508853Y-66781377D01*
X159508853Y-66781377D02*
X159567522Y-66692519D01*
X159567522Y-66692519D02*
X159584952Y-66627470D01*
X159584952Y-66627470D02*
X159578572Y-66521182D01*
X159578572Y-66521182D02*
X159483334Y-66356224D01*
X159483334Y-66356224D02*
X159394476Y-66297555D01*
X159394476Y-66297555D02*
X159329427Y-66280126D01*
X159329427Y-66280126D02*
X159223139Y-66286505D01*
X159223139Y-66286505D02*
X159016942Y-66405553D01*
X159016942Y-66405553D02*
X158958273Y-66494411D01*
X158958273Y-66494411D02*
X158940843Y-66559460D01*
X158940843Y-66559460D02*
X158947223Y-66665748D01*
X158947223Y-66665748D02*
X159042461Y-66830706D01*
X159042461Y-66830706D02*
X159131319Y-66889375D01*
X159131319Y-66889375D02*
X159196368Y-66906804D01*
X159196368Y-66906804D02*
X159302656Y-66900425D01*
X154837337Y-64109121D02*
X154551622Y-63614250D01*
X154694480Y-63861685D02*
X155560505Y-63361685D01*
X155560505Y-63361685D02*
X155389168Y-63350635D01*
X155389168Y-63350635D02*
X155259070Y-63315776D01*
X155259070Y-63315776D02*
X155170212Y-63257107D01*
G04 #@! TO.C,D23*
X134855929Y-66795292D02*
X133989903Y-66295292D01*
X133989903Y-66295292D02*
X134108951Y-66089096D01*
X134108951Y-66089096D02*
X134221619Y-65989187D01*
X134221619Y-65989187D02*
X134351717Y-65954328D01*
X134351717Y-65954328D02*
X134458005Y-65960708D01*
X134458005Y-65960708D02*
X134646771Y-66014706D01*
X134646771Y-66014706D02*
X134770489Y-66086135D01*
X134770489Y-66086135D02*
X134911637Y-66222612D01*
X134911637Y-66222612D02*
X134970306Y-66311471D01*
X134970306Y-66311471D02*
X135005166Y-66441568D01*
X135005166Y-66441568D02*
X134974976Y-66589096D01*
X134974976Y-66589096D02*
X134855929Y-66795292D01*
X134548573Y-65518125D02*
X134531143Y-65453076D01*
X134531143Y-65453076D02*
X134537523Y-65346788D01*
X134537523Y-65346788D02*
X134656570Y-65140592D01*
X134656570Y-65140592D02*
X134745428Y-65081923D01*
X134745428Y-65081923D02*
X134810477Y-65064493D01*
X134810477Y-65064493D02*
X134916765Y-65070873D01*
X134916765Y-65070873D02*
X134999244Y-65118492D01*
X134999244Y-65118492D02*
X135099152Y-65231160D01*
X135099152Y-65231160D02*
X135308310Y-66011745D01*
X135308310Y-66011745D02*
X135617834Y-65475635D01*
X134918475Y-64686959D02*
X135227999Y-64150848D01*
X135227999Y-64150848D02*
X135391246Y-64630000D01*
X135391246Y-64630000D02*
X135462675Y-64506282D01*
X135462675Y-64506282D02*
X135551533Y-64447613D01*
X135551533Y-64447613D02*
X135616582Y-64430183D01*
X135616582Y-64430183D02*
X135722870Y-64436563D01*
X135722870Y-64436563D02*
X135929067Y-64555610D01*
X135929067Y-64555610D02*
X135987736Y-64644469D01*
X135987736Y-64644469D02*
X136005166Y-64709517D01*
X136005166Y-64709517D02*
X135998786Y-64815806D01*
X135998786Y-64815806D02*
X135855929Y-65063241D01*
X135855929Y-65063241D02*
X135767071Y-65121911D01*
X135767071Y-65121911D02*
X135702022Y-65139340D01*
X135176377Y-70040259D02*
X134890663Y-70535130D01*
X135033520Y-70287695D02*
X134167495Y-69787695D01*
X134167495Y-69787695D02*
X134243593Y-69941602D01*
X134243593Y-69941602D02*
X134278453Y-70071699D01*
X134278453Y-70071699D02*
X134272073Y-70177988D01*
G04 #@! TO.C,D21*
X180559714Y-115119376D02*
X180559714Y-114119376D01*
X180559714Y-114119376D02*
X180797809Y-114119376D01*
X180797809Y-114119376D02*
X180940666Y-114166996D01*
X180940666Y-114166996D02*
X181035904Y-114262234D01*
X181035904Y-114262234D02*
X181083523Y-114357472D01*
X181083523Y-114357472D02*
X181131142Y-114547948D01*
X181131142Y-114547948D02*
X181131142Y-114690805D01*
X181131142Y-114690805D02*
X181083523Y-114881281D01*
X181083523Y-114881281D02*
X181035904Y-114976519D01*
X181035904Y-114976519D02*
X180940666Y-115071757D01*
X180940666Y-115071757D02*
X180797809Y-115119376D01*
X180797809Y-115119376D02*
X180559714Y-115119376D01*
X181512095Y-114214615D02*
X181559714Y-114166996D01*
X181559714Y-114166996D02*
X181654952Y-114119376D01*
X181654952Y-114119376D02*
X181893047Y-114119376D01*
X181893047Y-114119376D02*
X181988285Y-114166996D01*
X181988285Y-114166996D02*
X182035904Y-114214615D01*
X182035904Y-114214615D02*
X182083523Y-114309853D01*
X182083523Y-114309853D02*
X182083523Y-114405091D01*
X182083523Y-114405091D02*
X182035904Y-114547948D01*
X182035904Y-114547948D02*
X181464476Y-115119376D01*
X181464476Y-115119376D02*
X182083523Y-115119376D01*
X183035904Y-115119376D02*
X182464476Y-115119376D01*
X182750190Y-115119376D02*
X182750190Y-114119376D01*
X182750190Y-114119376D02*
X182654952Y-114262234D01*
X182654952Y-114262234D02*
X182559714Y-114357472D01*
X182559714Y-114357472D02*
X182464476Y-114405091D01*
X186209714Y-113219376D02*
X185638286Y-113219376D01*
X185924000Y-113219376D02*
X185924000Y-112219376D01*
X185924000Y-112219376D02*
X185828762Y-112362234D01*
X185828762Y-112362234D02*
X185733524Y-112457472D01*
X185733524Y-112457472D02*
X185638286Y-112505091D01*
G04 #@! TO.C,D29*
X110545714Y-77781380D02*
X110545714Y-76781380D01*
X110545714Y-76781380D02*
X110783809Y-76781380D01*
X110783809Y-76781380D02*
X110926666Y-76829000D01*
X110926666Y-76829000D02*
X111021904Y-76924238D01*
X111021904Y-76924238D02*
X111069523Y-77019476D01*
X111069523Y-77019476D02*
X111117142Y-77209952D01*
X111117142Y-77209952D02*
X111117142Y-77352809D01*
X111117142Y-77352809D02*
X111069523Y-77543285D01*
X111069523Y-77543285D02*
X111021904Y-77638523D01*
X111021904Y-77638523D02*
X110926666Y-77733761D01*
X110926666Y-77733761D02*
X110783809Y-77781380D01*
X110783809Y-77781380D02*
X110545714Y-77781380D01*
X111498095Y-76876619D02*
X111545714Y-76829000D01*
X111545714Y-76829000D02*
X111640952Y-76781380D01*
X111640952Y-76781380D02*
X111879047Y-76781380D01*
X111879047Y-76781380D02*
X111974285Y-76829000D01*
X111974285Y-76829000D02*
X112021904Y-76876619D01*
X112021904Y-76876619D02*
X112069523Y-76971857D01*
X112069523Y-76971857D02*
X112069523Y-77067095D01*
X112069523Y-77067095D02*
X112021904Y-77209952D01*
X112021904Y-77209952D02*
X111450476Y-77781380D01*
X111450476Y-77781380D02*
X112069523Y-77781380D01*
X112545714Y-77781380D02*
X112736190Y-77781380D01*
X112736190Y-77781380D02*
X112831428Y-77733761D01*
X112831428Y-77733761D02*
X112879047Y-77686142D01*
X112879047Y-77686142D02*
X112974285Y-77543285D01*
X112974285Y-77543285D02*
X113021904Y-77352809D01*
X113021904Y-77352809D02*
X113021904Y-76971857D01*
X113021904Y-76971857D02*
X112974285Y-76876619D01*
X112974285Y-76876619D02*
X112926666Y-76829000D01*
X112926666Y-76829000D02*
X112831428Y-76781380D01*
X112831428Y-76781380D02*
X112640952Y-76781380D01*
X112640952Y-76781380D02*
X112545714Y-76829000D01*
X112545714Y-76829000D02*
X112498095Y-76876619D01*
X112498095Y-76876619D02*
X112450476Y-76971857D01*
X112450476Y-76971857D02*
X112450476Y-77209952D01*
X112450476Y-77209952D02*
X112498095Y-77305190D01*
X112498095Y-77305190D02*
X112545714Y-77352809D01*
X112545714Y-77352809D02*
X112640952Y-77400428D01*
X112640952Y-77400428D02*
X112831428Y-77400428D01*
X112831428Y-77400428D02*
X112926666Y-77352809D01*
X112926666Y-77352809D02*
X112974285Y-77305190D01*
X112974285Y-77305190D02*
X113021904Y-77209952D01*
X116195714Y-75881380D02*
X115624286Y-75881380D01*
X115910000Y-75881380D02*
X115910000Y-74881380D01*
X115910000Y-74881380D02*
X115814762Y-75024238D01*
X115814762Y-75024238D02*
X115719524Y-75119476D01*
X115719524Y-75119476D02*
X115624286Y-75167095D01*
G04 #@! TO.C,D26*
X115890886Y-71151708D02*
X116656930Y-70508920D01*
X116656930Y-70508920D02*
X116809975Y-70691311D01*
X116809975Y-70691311D02*
X116865323Y-70831355D01*
X116865323Y-70831355D02*
X116853584Y-70965530D01*
X116853584Y-70965530D02*
X116811237Y-71063226D01*
X116811237Y-71063226D02*
X116695932Y-71222140D01*
X116695932Y-71222140D02*
X116586497Y-71313967D01*
X116586497Y-71313967D02*
X116409975Y-71399924D01*
X116409975Y-71399924D02*
X116306410Y-71424664D01*
X116306410Y-71424664D02*
X116172235Y-71412925D01*
X116172235Y-71412925D02*
X116043930Y-71334099D01*
X116043930Y-71334099D02*
X115890886Y-71151708D01*
X117196152Y-71299704D02*
X117263239Y-71305573D01*
X117263239Y-71305573D02*
X117360935Y-71347921D01*
X117360935Y-71347921D02*
X117513980Y-71530313D01*
X117513980Y-71530313D02*
X117538720Y-71633878D01*
X117538720Y-71633878D02*
X117532850Y-71700965D01*
X117532850Y-71700965D02*
X117490503Y-71798662D01*
X117490503Y-71798662D02*
X117417546Y-71859879D01*
X117417546Y-71859879D02*
X117277502Y-71915228D01*
X117277502Y-71915228D02*
X116472455Y-71844795D01*
X116472455Y-71844795D02*
X116870371Y-72319013D01*
X118187377Y-72332835D02*
X118064941Y-72186922D01*
X118064941Y-72186922D02*
X117967245Y-72144574D01*
X117967245Y-72144574D02*
X117900158Y-72138705D01*
X117900158Y-72138705D02*
X117729505Y-72157575D01*
X117729505Y-72157575D02*
X117552983Y-72243533D01*
X117552983Y-72243533D02*
X117261156Y-72488404D01*
X117261156Y-72488404D02*
X117218808Y-72586100D01*
X117218808Y-72586100D02*
X117212939Y-72653188D01*
X117212939Y-72653188D02*
X117237679Y-72756753D01*
X117237679Y-72756753D02*
X117360114Y-72902666D01*
X117360114Y-72902666D02*
X117457811Y-72945014D01*
X117457811Y-72945014D02*
X117524898Y-72950883D01*
X117524898Y-72950883D02*
X117628463Y-72926144D01*
X117628463Y-72926144D02*
X117810855Y-72773099D01*
X117810855Y-72773099D02*
X117853203Y-72675403D01*
X117853203Y-72675403D02*
X117859072Y-72608316D01*
X117859072Y-72608316D02*
X117834332Y-72504750D01*
X117834332Y-72504750D02*
X117711897Y-72358837D01*
X117711897Y-72358837D02*
X117614200Y-72316489D01*
X117614200Y-72316489D02*
X117547113Y-72310620D01*
X117547113Y-72310620D02*
X117443548Y-72335359D01*
X120978120Y-74258563D02*
X120610813Y-73820823D01*
X120794467Y-74039693D02*
X121560511Y-73396905D01*
X121560511Y-73396905D02*
X121389858Y-73415775D01*
X121389858Y-73415775D02*
X121255684Y-73404037D01*
X121255684Y-73404037D02*
X121157988Y-73361689D01*
G04 #@! TO.C,D33*
X110545714Y-99117380D02*
X110545714Y-98117380D01*
X110545714Y-98117380D02*
X110783809Y-98117380D01*
X110783809Y-98117380D02*
X110926666Y-98165000D01*
X110926666Y-98165000D02*
X111021904Y-98260238D01*
X111021904Y-98260238D02*
X111069523Y-98355476D01*
X111069523Y-98355476D02*
X111117142Y-98545952D01*
X111117142Y-98545952D02*
X111117142Y-98688809D01*
X111117142Y-98688809D02*
X111069523Y-98879285D01*
X111069523Y-98879285D02*
X111021904Y-98974523D01*
X111021904Y-98974523D02*
X110926666Y-99069761D01*
X110926666Y-99069761D02*
X110783809Y-99117380D01*
X110783809Y-99117380D02*
X110545714Y-99117380D01*
X111450476Y-98117380D02*
X112069523Y-98117380D01*
X112069523Y-98117380D02*
X111736190Y-98498333D01*
X111736190Y-98498333D02*
X111879047Y-98498333D01*
X111879047Y-98498333D02*
X111974285Y-98545952D01*
X111974285Y-98545952D02*
X112021904Y-98593571D01*
X112021904Y-98593571D02*
X112069523Y-98688809D01*
X112069523Y-98688809D02*
X112069523Y-98926904D01*
X112069523Y-98926904D02*
X112021904Y-99022142D01*
X112021904Y-99022142D02*
X111974285Y-99069761D01*
X111974285Y-99069761D02*
X111879047Y-99117380D01*
X111879047Y-99117380D02*
X111593333Y-99117380D01*
X111593333Y-99117380D02*
X111498095Y-99069761D01*
X111498095Y-99069761D02*
X111450476Y-99022142D01*
X112402857Y-98117380D02*
X113021904Y-98117380D01*
X113021904Y-98117380D02*
X112688571Y-98498333D01*
X112688571Y-98498333D02*
X112831428Y-98498333D01*
X112831428Y-98498333D02*
X112926666Y-98545952D01*
X112926666Y-98545952D02*
X112974285Y-98593571D01*
X112974285Y-98593571D02*
X113021904Y-98688809D01*
X113021904Y-98688809D02*
X113021904Y-98926904D01*
X113021904Y-98926904D02*
X112974285Y-99022142D01*
X112974285Y-99022142D02*
X112926666Y-99069761D01*
X112926666Y-99069761D02*
X112831428Y-99117380D01*
X112831428Y-99117380D02*
X112545714Y-99117380D01*
X112545714Y-99117380D02*
X112450476Y-99069761D01*
X112450476Y-99069761D02*
X112402857Y-99022142D01*
X116195714Y-97217380D02*
X115624286Y-97217380D01*
X115910000Y-97217380D02*
X115910000Y-96217380D01*
X115910000Y-96217380D02*
X115814762Y-96360238D01*
X115814762Y-96360238D02*
X115719524Y-96455476D01*
X115719524Y-96455476D02*
X115624286Y-96503095D01*
G04 #@! TO.C,D20*
X180559714Y-109954710D02*
X180559714Y-108954710D01*
X180559714Y-108954710D02*
X180797809Y-108954710D01*
X180797809Y-108954710D02*
X180940666Y-109002330D01*
X180940666Y-109002330D02*
X181035904Y-109097568D01*
X181035904Y-109097568D02*
X181083523Y-109192806D01*
X181083523Y-109192806D02*
X181131142Y-109383282D01*
X181131142Y-109383282D02*
X181131142Y-109526139D01*
X181131142Y-109526139D02*
X181083523Y-109716615D01*
X181083523Y-109716615D02*
X181035904Y-109811853D01*
X181035904Y-109811853D02*
X180940666Y-109907091D01*
X180940666Y-109907091D02*
X180797809Y-109954710D01*
X180797809Y-109954710D02*
X180559714Y-109954710D01*
X181512095Y-109049949D02*
X181559714Y-109002330D01*
X181559714Y-109002330D02*
X181654952Y-108954710D01*
X181654952Y-108954710D02*
X181893047Y-108954710D01*
X181893047Y-108954710D02*
X181988285Y-109002330D01*
X181988285Y-109002330D02*
X182035904Y-109049949D01*
X182035904Y-109049949D02*
X182083523Y-109145187D01*
X182083523Y-109145187D02*
X182083523Y-109240425D01*
X182083523Y-109240425D02*
X182035904Y-109383282D01*
X182035904Y-109383282D02*
X181464476Y-109954710D01*
X181464476Y-109954710D02*
X182083523Y-109954710D01*
X182702571Y-108954710D02*
X182797809Y-108954710D01*
X182797809Y-108954710D02*
X182893047Y-109002330D01*
X182893047Y-109002330D02*
X182940666Y-109049949D01*
X182940666Y-109049949D02*
X182988285Y-109145187D01*
X182988285Y-109145187D02*
X183035904Y-109335663D01*
X183035904Y-109335663D02*
X183035904Y-109573758D01*
X183035904Y-109573758D02*
X182988285Y-109764234D01*
X182988285Y-109764234D02*
X182940666Y-109859472D01*
X182940666Y-109859472D02*
X182893047Y-109907091D01*
X182893047Y-109907091D02*
X182797809Y-109954710D01*
X182797809Y-109954710D02*
X182702571Y-109954710D01*
X182702571Y-109954710D02*
X182607333Y-109907091D01*
X182607333Y-109907091D02*
X182559714Y-109859472D01*
X182559714Y-109859472D02*
X182512095Y-109764234D01*
X182512095Y-109764234D02*
X182464476Y-109573758D01*
X182464476Y-109573758D02*
X182464476Y-109335663D01*
X182464476Y-109335663D02*
X182512095Y-109145187D01*
X182512095Y-109145187D02*
X182559714Y-109049949D01*
X182559714Y-109049949D02*
X182607333Y-109002330D01*
X182607333Y-109002330D02*
X182702571Y-108954710D01*
X186209714Y-108054710D02*
X185638286Y-108054710D01*
X185924000Y-108054710D02*
X185924000Y-107054710D01*
X185924000Y-107054710D02*
X185828762Y-107197568D01*
X185828762Y-107197568D02*
X185733524Y-107292806D01*
X185733524Y-107292806D02*
X185638286Y-107340425D01*
G04 #@! TO.C,D35*
X110545714Y-109785380D02*
X110545714Y-108785380D01*
X110545714Y-108785380D02*
X110783809Y-108785380D01*
X110783809Y-108785380D02*
X110926666Y-108833000D01*
X110926666Y-108833000D02*
X111021904Y-108928238D01*
X111021904Y-108928238D02*
X111069523Y-109023476D01*
X111069523Y-109023476D02*
X111117142Y-109213952D01*
X111117142Y-109213952D02*
X111117142Y-109356809D01*
X111117142Y-109356809D02*
X111069523Y-109547285D01*
X111069523Y-109547285D02*
X111021904Y-109642523D01*
X111021904Y-109642523D02*
X110926666Y-109737761D01*
X110926666Y-109737761D02*
X110783809Y-109785380D01*
X110783809Y-109785380D02*
X110545714Y-109785380D01*
X111450476Y-108785380D02*
X112069523Y-108785380D01*
X112069523Y-108785380D02*
X111736190Y-109166333D01*
X111736190Y-109166333D02*
X111879047Y-109166333D01*
X111879047Y-109166333D02*
X111974285Y-109213952D01*
X111974285Y-109213952D02*
X112021904Y-109261571D01*
X112021904Y-109261571D02*
X112069523Y-109356809D01*
X112069523Y-109356809D02*
X112069523Y-109594904D01*
X112069523Y-109594904D02*
X112021904Y-109690142D01*
X112021904Y-109690142D02*
X111974285Y-109737761D01*
X111974285Y-109737761D02*
X111879047Y-109785380D01*
X111879047Y-109785380D02*
X111593333Y-109785380D01*
X111593333Y-109785380D02*
X111498095Y-109737761D01*
X111498095Y-109737761D02*
X111450476Y-109690142D01*
X112974285Y-108785380D02*
X112498095Y-108785380D01*
X112498095Y-108785380D02*
X112450476Y-109261571D01*
X112450476Y-109261571D02*
X112498095Y-109213952D01*
X112498095Y-109213952D02*
X112593333Y-109166333D01*
X112593333Y-109166333D02*
X112831428Y-109166333D01*
X112831428Y-109166333D02*
X112926666Y-109213952D01*
X112926666Y-109213952D02*
X112974285Y-109261571D01*
X112974285Y-109261571D02*
X113021904Y-109356809D01*
X113021904Y-109356809D02*
X113021904Y-109594904D01*
X113021904Y-109594904D02*
X112974285Y-109690142D01*
X112974285Y-109690142D02*
X112926666Y-109737761D01*
X112926666Y-109737761D02*
X112831428Y-109785380D01*
X112831428Y-109785380D02*
X112593333Y-109785380D01*
X112593333Y-109785380D02*
X112498095Y-109737761D01*
X112498095Y-109737761D02*
X112450476Y-109690142D01*
X116195714Y-107885380D02*
X115624286Y-107885380D01*
X115910000Y-107885380D02*
X115910000Y-106885380D01*
X115910000Y-106885380D02*
X115814762Y-107028238D01*
X115814762Y-107028238D02*
X115719524Y-107123476D01*
X115719524Y-107123476D02*
X115624286Y-107171095D01*
G04 #@! TO.C,D19*
X180559714Y-104790044D02*
X180559714Y-103790044D01*
X180559714Y-103790044D02*
X180797809Y-103790044D01*
X180797809Y-103790044D02*
X180940666Y-103837664D01*
X180940666Y-103837664D02*
X181035904Y-103932902D01*
X181035904Y-103932902D02*
X181083523Y-104028140D01*
X181083523Y-104028140D02*
X181131142Y-104218616D01*
X181131142Y-104218616D02*
X181131142Y-104361473D01*
X181131142Y-104361473D02*
X181083523Y-104551949D01*
X181083523Y-104551949D02*
X181035904Y-104647187D01*
X181035904Y-104647187D02*
X180940666Y-104742425D01*
X180940666Y-104742425D02*
X180797809Y-104790044D01*
X180797809Y-104790044D02*
X180559714Y-104790044D01*
X182083523Y-104790044D02*
X181512095Y-104790044D01*
X181797809Y-104790044D02*
X181797809Y-103790044D01*
X181797809Y-103790044D02*
X181702571Y-103932902D01*
X181702571Y-103932902D02*
X181607333Y-104028140D01*
X181607333Y-104028140D02*
X181512095Y-104075759D01*
X182559714Y-104790044D02*
X182750190Y-104790044D01*
X182750190Y-104790044D02*
X182845428Y-104742425D01*
X182845428Y-104742425D02*
X182893047Y-104694806D01*
X182893047Y-104694806D02*
X182988285Y-104551949D01*
X182988285Y-104551949D02*
X183035904Y-104361473D01*
X183035904Y-104361473D02*
X183035904Y-103980521D01*
X183035904Y-103980521D02*
X182988285Y-103885283D01*
X182988285Y-103885283D02*
X182940666Y-103837664D01*
X182940666Y-103837664D02*
X182845428Y-103790044D01*
X182845428Y-103790044D02*
X182654952Y-103790044D01*
X182654952Y-103790044D02*
X182559714Y-103837664D01*
X182559714Y-103837664D02*
X182512095Y-103885283D01*
X182512095Y-103885283D02*
X182464476Y-103980521D01*
X182464476Y-103980521D02*
X182464476Y-104218616D01*
X182464476Y-104218616D02*
X182512095Y-104313854D01*
X182512095Y-104313854D02*
X182559714Y-104361473D01*
X182559714Y-104361473D02*
X182654952Y-104409092D01*
X182654952Y-104409092D02*
X182845428Y-104409092D01*
X182845428Y-104409092D02*
X182940666Y-104361473D01*
X182940666Y-104361473D02*
X182988285Y-104313854D01*
X182988285Y-104313854D02*
X183035904Y-104218616D01*
X186209714Y-102890044D02*
X185638286Y-102890044D01*
X185924000Y-102890044D02*
X185924000Y-101890044D01*
X185924000Y-101890044D02*
X185828762Y-102032902D01*
X185828762Y-102032902D02*
X185733524Y-102128140D01*
X185733524Y-102128140D02*
X185638286Y-102175759D01*
G04 #@! TO.C,D6*
X145311905Y-81237713D02*
X145311905Y-80237713D01*
X145311905Y-80237713D02*
X145550000Y-80237713D01*
X145550000Y-80237713D02*
X145692857Y-80285333D01*
X145692857Y-80285333D02*
X145788095Y-80380571D01*
X145788095Y-80380571D02*
X145835714Y-80475809D01*
X145835714Y-80475809D02*
X145883333Y-80666285D01*
X145883333Y-80666285D02*
X145883333Y-80809142D01*
X145883333Y-80809142D02*
X145835714Y-80999618D01*
X145835714Y-80999618D02*
X145788095Y-81094856D01*
X145788095Y-81094856D02*
X145692857Y-81190094D01*
X145692857Y-81190094D02*
X145550000Y-81237713D01*
X145550000Y-81237713D02*
X145311905Y-81237713D01*
X146740476Y-80237713D02*
X146550000Y-80237713D01*
X146550000Y-80237713D02*
X146454762Y-80285333D01*
X146454762Y-80285333D02*
X146407143Y-80332952D01*
X146407143Y-80332952D02*
X146311905Y-80475809D01*
X146311905Y-80475809D02*
X146264286Y-80666285D01*
X146264286Y-80666285D02*
X146264286Y-81047237D01*
X146264286Y-81047237D02*
X146311905Y-81142475D01*
X146311905Y-81142475D02*
X146359524Y-81190094D01*
X146359524Y-81190094D02*
X146454762Y-81237713D01*
X146454762Y-81237713D02*
X146645238Y-81237713D01*
X146645238Y-81237713D02*
X146740476Y-81190094D01*
X146740476Y-81190094D02*
X146788095Y-81142475D01*
X146788095Y-81142475D02*
X146835714Y-81047237D01*
X146835714Y-81047237D02*
X146835714Y-80809142D01*
X146835714Y-80809142D02*
X146788095Y-80713904D01*
X146788095Y-80713904D02*
X146740476Y-80666285D01*
X146740476Y-80666285D02*
X146645238Y-80618666D01*
X146645238Y-80618666D02*
X146454762Y-80618666D01*
X146454762Y-80618666D02*
X146359524Y-80666285D01*
X146359524Y-80666285D02*
X146311905Y-80713904D01*
X146311905Y-80713904D02*
X146264286Y-80809142D01*
X142185714Y-83137713D02*
X141614286Y-83137713D01*
X141900000Y-83137713D02*
X141900000Y-82137713D01*
X141900000Y-82137713D02*
X141804762Y-82280571D01*
X141804762Y-82280571D02*
X141709524Y-82375809D01*
X141709524Y-82375809D02*
X141614286Y-82423428D01*
G04 #@! TO.C,D3*
X145311905Y-97366712D02*
X145311905Y-96366712D01*
X145311905Y-96366712D02*
X145550000Y-96366712D01*
X145550000Y-96366712D02*
X145692857Y-96414332D01*
X145692857Y-96414332D02*
X145788095Y-96509570D01*
X145788095Y-96509570D02*
X145835714Y-96604808D01*
X145835714Y-96604808D02*
X145883333Y-96795284D01*
X145883333Y-96795284D02*
X145883333Y-96938141D01*
X145883333Y-96938141D02*
X145835714Y-97128617D01*
X145835714Y-97128617D02*
X145788095Y-97223855D01*
X145788095Y-97223855D02*
X145692857Y-97319093D01*
X145692857Y-97319093D02*
X145550000Y-97366712D01*
X145550000Y-97366712D02*
X145311905Y-97366712D01*
X146216667Y-96366712D02*
X146835714Y-96366712D01*
X146835714Y-96366712D02*
X146502381Y-96747665D01*
X146502381Y-96747665D02*
X146645238Y-96747665D01*
X146645238Y-96747665D02*
X146740476Y-96795284D01*
X146740476Y-96795284D02*
X146788095Y-96842903D01*
X146788095Y-96842903D02*
X146835714Y-96938141D01*
X146835714Y-96938141D02*
X146835714Y-97176236D01*
X146835714Y-97176236D02*
X146788095Y-97271474D01*
X146788095Y-97271474D02*
X146740476Y-97319093D01*
X146740476Y-97319093D02*
X146645238Y-97366712D01*
X146645238Y-97366712D02*
X146359524Y-97366712D01*
X146359524Y-97366712D02*
X146264286Y-97319093D01*
X146264286Y-97319093D02*
X146216667Y-97271474D01*
X142185714Y-99266712D02*
X141614286Y-99266712D01*
X141900000Y-99266712D02*
X141900000Y-98266712D01*
X141900000Y-98266712D02*
X141804762Y-98409570D01*
X141804762Y-98409570D02*
X141709524Y-98504808D01*
X141709524Y-98504808D02*
X141614286Y-98552427D01*
G04 #@! TO.C,D10*
X163818388Y-63319525D02*
X164758081Y-62977505D01*
X164758081Y-62977505D02*
X164839514Y-63201241D01*
X164839514Y-63201241D02*
X164843627Y-63351769D01*
X164843627Y-63351769D02*
X164786706Y-63473837D01*
X164786706Y-63473837D02*
X164713498Y-63551158D01*
X164713498Y-63551158D02*
X164550795Y-63661052D01*
X164550795Y-63661052D02*
X164416554Y-63709912D01*
X164416554Y-63709912D02*
X164221278Y-63730311D01*
X164221278Y-63730311D02*
X164115497Y-63718137D01*
X164115497Y-63718137D02*
X163993429Y-63661216D01*
X163993429Y-63661216D02*
X163899822Y-63543261D01*
X163899822Y-63543261D02*
X163818388Y-63319525D01*
X164339562Y-64751437D02*
X164144122Y-64214470D01*
X164241842Y-64482954D02*
X165181534Y-64140934D01*
X165181534Y-64140934D02*
X165014719Y-64100299D01*
X165014719Y-64100299D02*
X164892651Y-64043378D01*
X164892651Y-64043378D02*
X164815331Y-63970170D01*
X165490981Y-64991132D02*
X165523554Y-65080626D01*
X165523554Y-65080626D02*
X165511381Y-65186408D01*
X165511381Y-65186408D02*
X165482920Y-65247441D01*
X165482920Y-65247441D02*
X165409712Y-65324762D01*
X165409712Y-65324762D02*
X165247010Y-65434656D01*
X165247010Y-65434656D02*
X165023273Y-65516089D01*
X165023273Y-65516089D02*
X164827998Y-65536489D01*
X164827998Y-65536489D02*
X164722216Y-65524315D01*
X164722216Y-65524315D02*
X164661182Y-65495854D01*
X164661182Y-65495854D02*
X164583862Y-65422646D01*
X164583862Y-65422646D02*
X164551288Y-65333152D01*
X164551288Y-65333152D02*
X164563462Y-65227371D01*
X164563462Y-65227371D02*
X164591923Y-65166337D01*
X164591923Y-65166337D02*
X164665131Y-65089016D01*
X164665131Y-65089016D02*
X164827833Y-64979122D01*
X164827833Y-64979122D02*
X165051570Y-64897689D01*
X165051570Y-64897689D02*
X165246845Y-64877289D01*
X165246845Y-64877289D02*
X165352627Y-64889463D01*
X165352627Y-64889463D02*
X165413660Y-64917924D01*
X165413660Y-64917924D02*
X165490981Y-64991132D01*
X161126620Y-61479178D02*
X160931179Y-60942211D01*
X161028899Y-61210695D02*
X161968592Y-60868674D01*
X161968592Y-60868674D02*
X161801777Y-60828040D01*
X161801777Y-60828040D02*
X161679709Y-60771119D01*
X161679709Y-60771119D02*
X161602388Y-60697911D01*
G04 #@! TO.C,D34*
X110545714Y-104451380D02*
X110545714Y-103451380D01*
X110545714Y-103451380D02*
X110783809Y-103451380D01*
X110783809Y-103451380D02*
X110926666Y-103499000D01*
X110926666Y-103499000D02*
X111021904Y-103594238D01*
X111021904Y-103594238D02*
X111069523Y-103689476D01*
X111069523Y-103689476D02*
X111117142Y-103879952D01*
X111117142Y-103879952D02*
X111117142Y-104022809D01*
X111117142Y-104022809D02*
X111069523Y-104213285D01*
X111069523Y-104213285D02*
X111021904Y-104308523D01*
X111021904Y-104308523D02*
X110926666Y-104403761D01*
X110926666Y-104403761D02*
X110783809Y-104451380D01*
X110783809Y-104451380D02*
X110545714Y-104451380D01*
X111450476Y-103451380D02*
X112069523Y-103451380D01*
X112069523Y-103451380D02*
X111736190Y-103832333D01*
X111736190Y-103832333D02*
X111879047Y-103832333D01*
X111879047Y-103832333D02*
X111974285Y-103879952D01*
X111974285Y-103879952D02*
X112021904Y-103927571D01*
X112021904Y-103927571D02*
X112069523Y-104022809D01*
X112069523Y-104022809D02*
X112069523Y-104260904D01*
X112069523Y-104260904D02*
X112021904Y-104356142D01*
X112021904Y-104356142D02*
X111974285Y-104403761D01*
X111974285Y-104403761D02*
X111879047Y-104451380D01*
X111879047Y-104451380D02*
X111593333Y-104451380D01*
X111593333Y-104451380D02*
X111498095Y-104403761D01*
X111498095Y-104403761D02*
X111450476Y-104356142D01*
X112926666Y-103784714D02*
X112926666Y-104451380D01*
X112688571Y-103403761D02*
X112450476Y-104118047D01*
X112450476Y-104118047D02*
X113069523Y-104118047D01*
X116195714Y-102551380D02*
X115624286Y-102551380D01*
X115910000Y-102551380D02*
X115910000Y-101551380D01*
X115910000Y-101551380D02*
X115814762Y-101694238D01*
X115814762Y-101694238D02*
X115719524Y-101789476D01*
X115719524Y-101789476D02*
X115624286Y-101837095D01*
G04 #@! TO.C,D36*
X110545714Y-115119380D02*
X110545714Y-114119380D01*
X110545714Y-114119380D02*
X110783809Y-114119380D01*
X110783809Y-114119380D02*
X110926666Y-114167000D01*
X110926666Y-114167000D02*
X111021904Y-114262238D01*
X111021904Y-114262238D02*
X111069523Y-114357476D01*
X111069523Y-114357476D02*
X111117142Y-114547952D01*
X111117142Y-114547952D02*
X111117142Y-114690809D01*
X111117142Y-114690809D02*
X111069523Y-114881285D01*
X111069523Y-114881285D02*
X111021904Y-114976523D01*
X111021904Y-114976523D02*
X110926666Y-115071761D01*
X110926666Y-115071761D02*
X110783809Y-115119380D01*
X110783809Y-115119380D02*
X110545714Y-115119380D01*
X111450476Y-114119380D02*
X112069523Y-114119380D01*
X112069523Y-114119380D02*
X111736190Y-114500333D01*
X111736190Y-114500333D02*
X111879047Y-114500333D01*
X111879047Y-114500333D02*
X111974285Y-114547952D01*
X111974285Y-114547952D02*
X112021904Y-114595571D01*
X112021904Y-114595571D02*
X112069523Y-114690809D01*
X112069523Y-114690809D02*
X112069523Y-114928904D01*
X112069523Y-114928904D02*
X112021904Y-115024142D01*
X112021904Y-115024142D02*
X111974285Y-115071761D01*
X111974285Y-115071761D02*
X111879047Y-115119380D01*
X111879047Y-115119380D02*
X111593333Y-115119380D01*
X111593333Y-115119380D02*
X111498095Y-115071761D01*
X111498095Y-115071761D02*
X111450476Y-115024142D01*
X112926666Y-114119380D02*
X112736190Y-114119380D01*
X112736190Y-114119380D02*
X112640952Y-114167000D01*
X112640952Y-114167000D02*
X112593333Y-114214619D01*
X112593333Y-114214619D02*
X112498095Y-114357476D01*
X112498095Y-114357476D02*
X112450476Y-114547952D01*
X112450476Y-114547952D02*
X112450476Y-114928904D01*
X112450476Y-114928904D02*
X112498095Y-115024142D01*
X112498095Y-115024142D02*
X112545714Y-115071761D01*
X112545714Y-115071761D02*
X112640952Y-115119380D01*
X112640952Y-115119380D02*
X112831428Y-115119380D01*
X112831428Y-115119380D02*
X112926666Y-115071761D01*
X112926666Y-115071761D02*
X112974285Y-115024142D01*
X112974285Y-115024142D02*
X113021904Y-114928904D01*
X113021904Y-114928904D02*
X113021904Y-114690809D01*
X113021904Y-114690809D02*
X112974285Y-114595571D01*
X112974285Y-114595571D02*
X112926666Y-114547952D01*
X112926666Y-114547952D02*
X112831428Y-114500333D01*
X112831428Y-114500333D02*
X112640952Y-114500333D01*
X112640952Y-114500333D02*
X112545714Y-114547952D01*
X112545714Y-114547952D02*
X112498095Y-114595571D01*
X112498095Y-114595571D02*
X112450476Y-114690809D01*
X116195714Y-113219380D02*
X115624286Y-113219380D01*
X115910000Y-113219380D02*
X115910000Y-112219380D01*
X115910000Y-112219380D02*
X115814762Y-112362238D01*
X115814762Y-112362238D02*
X115719524Y-112457476D01*
X115719524Y-112457476D02*
X115624286Y-112505095D01*
G04 #@! TO.C,D30*
X110545714Y-83115380D02*
X110545714Y-82115380D01*
X110545714Y-82115380D02*
X110783809Y-82115380D01*
X110783809Y-82115380D02*
X110926666Y-82163000D01*
X110926666Y-82163000D02*
X111021904Y-82258238D01*
X111021904Y-82258238D02*
X111069523Y-82353476D01*
X111069523Y-82353476D02*
X111117142Y-82543952D01*
X111117142Y-82543952D02*
X111117142Y-82686809D01*
X111117142Y-82686809D02*
X111069523Y-82877285D01*
X111069523Y-82877285D02*
X111021904Y-82972523D01*
X111021904Y-82972523D02*
X110926666Y-83067761D01*
X110926666Y-83067761D02*
X110783809Y-83115380D01*
X110783809Y-83115380D02*
X110545714Y-83115380D01*
X111450476Y-82115380D02*
X112069523Y-82115380D01*
X112069523Y-82115380D02*
X111736190Y-82496333D01*
X111736190Y-82496333D02*
X111879047Y-82496333D01*
X111879047Y-82496333D02*
X111974285Y-82543952D01*
X111974285Y-82543952D02*
X112021904Y-82591571D01*
X112021904Y-82591571D02*
X112069523Y-82686809D01*
X112069523Y-82686809D02*
X112069523Y-82924904D01*
X112069523Y-82924904D02*
X112021904Y-83020142D01*
X112021904Y-83020142D02*
X111974285Y-83067761D01*
X111974285Y-83067761D02*
X111879047Y-83115380D01*
X111879047Y-83115380D02*
X111593333Y-83115380D01*
X111593333Y-83115380D02*
X111498095Y-83067761D01*
X111498095Y-83067761D02*
X111450476Y-83020142D01*
X112688571Y-82115380D02*
X112783809Y-82115380D01*
X112783809Y-82115380D02*
X112879047Y-82163000D01*
X112879047Y-82163000D02*
X112926666Y-82210619D01*
X112926666Y-82210619D02*
X112974285Y-82305857D01*
X112974285Y-82305857D02*
X113021904Y-82496333D01*
X113021904Y-82496333D02*
X113021904Y-82734428D01*
X113021904Y-82734428D02*
X112974285Y-82924904D01*
X112974285Y-82924904D02*
X112926666Y-83020142D01*
X112926666Y-83020142D02*
X112879047Y-83067761D01*
X112879047Y-83067761D02*
X112783809Y-83115380D01*
X112783809Y-83115380D02*
X112688571Y-83115380D01*
X112688571Y-83115380D02*
X112593333Y-83067761D01*
X112593333Y-83067761D02*
X112545714Y-83020142D01*
X112545714Y-83020142D02*
X112498095Y-82924904D01*
X112498095Y-82924904D02*
X112450476Y-82734428D01*
X112450476Y-82734428D02*
X112450476Y-82496333D01*
X112450476Y-82496333D02*
X112498095Y-82305857D01*
X112498095Y-82305857D02*
X112545714Y-82210619D01*
X112545714Y-82210619D02*
X112593333Y-82163000D01*
X112593333Y-82163000D02*
X112688571Y-82115380D01*
X116195714Y-81215380D02*
X115624286Y-81215380D01*
X115910000Y-81215380D02*
X115910000Y-80215380D01*
X115910000Y-80215380D02*
X115814762Y-80358238D01*
X115814762Y-80358238D02*
X115719524Y-80453476D01*
X115719524Y-80453476D02*
X115624286Y-80501095D01*
G04 #@! TO.C,D28*
X110545714Y-72447380D02*
X110545714Y-71447380D01*
X110545714Y-71447380D02*
X110783809Y-71447380D01*
X110783809Y-71447380D02*
X110926666Y-71495000D01*
X110926666Y-71495000D02*
X111021904Y-71590238D01*
X111021904Y-71590238D02*
X111069523Y-71685476D01*
X111069523Y-71685476D02*
X111117142Y-71875952D01*
X111117142Y-71875952D02*
X111117142Y-72018809D01*
X111117142Y-72018809D02*
X111069523Y-72209285D01*
X111069523Y-72209285D02*
X111021904Y-72304523D01*
X111021904Y-72304523D02*
X110926666Y-72399761D01*
X110926666Y-72399761D02*
X110783809Y-72447380D01*
X110783809Y-72447380D02*
X110545714Y-72447380D01*
X111498095Y-71542619D02*
X111545714Y-71495000D01*
X111545714Y-71495000D02*
X111640952Y-71447380D01*
X111640952Y-71447380D02*
X111879047Y-71447380D01*
X111879047Y-71447380D02*
X111974285Y-71495000D01*
X111974285Y-71495000D02*
X112021904Y-71542619D01*
X112021904Y-71542619D02*
X112069523Y-71637857D01*
X112069523Y-71637857D02*
X112069523Y-71733095D01*
X112069523Y-71733095D02*
X112021904Y-71875952D01*
X112021904Y-71875952D02*
X111450476Y-72447380D01*
X111450476Y-72447380D02*
X112069523Y-72447380D01*
X112640952Y-71875952D02*
X112545714Y-71828333D01*
X112545714Y-71828333D02*
X112498095Y-71780714D01*
X112498095Y-71780714D02*
X112450476Y-71685476D01*
X112450476Y-71685476D02*
X112450476Y-71637857D01*
X112450476Y-71637857D02*
X112498095Y-71542619D01*
X112498095Y-71542619D02*
X112545714Y-71495000D01*
X112545714Y-71495000D02*
X112640952Y-71447380D01*
X112640952Y-71447380D02*
X112831428Y-71447380D01*
X112831428Y-71447380D02*
X112926666Y-71495000D01*
X112926666Y-71495000D02*
X112974285Y-71542619D01*
X112974285Y-71542619D02*
X113021904Y-71637857D01*
X113021904Y-71637857D02*
X113021904Y-71685476D01*
X113021904Y-71685476D02*
X112974285Y-71780714D01*
X112974285Y-71780714D02*
X112926666Y-71828333D01*
X112926666Y-71828333D02*
X112831428Y-71875952D01*
X112831428Y-71875952D02*
X112640952Y-71875952D01*
X112640952Y-71875952D02*
X112545714Y-71923571D01*
X112545714Y-71923571D02*
X112498095Y-71971190D01*
X112498095Y-71971190D02*
X112450476Y-72066428D01*
X112450476Y-72066428D02*
X112450476Y-72256904D01*
X112450476Y-72256904D02*
X112498095Y-72352142D01*
X112498095Y-72352142D02*
X112545714Y-72399761D01*
X112545714Y-72399761D02*
X112640952Y-72447380D01*
X112640952Y-72447380D02*
X112831428Y-72447380D01*
X112831428Y-72447380D02*
X112926666Y-72399761D01*
X112926666Y-72399761D02*
X112974285Y-72352142D01*
X112974285Y-72352142D02*
X113021904Y-72256904D01*
X113021904Y-72256904D02*
X113021904Y-72066428D01*
X113021904Y-72066428D02*
X112974285Y-71971190D01*
X112974285Y-71971190D02*
X112926666Y-71923571D01*
X112926666Y-71923571D02*
X112831428Y-71875952D01*
X116195714Y-70547380D02*
X115624286Y-70547380D01*
X115910000Y-70547380D02*
X115910000Y-69547380D01*
X115910000Y-69547380D02*
X115814762Y-69690238D01*
X115814762Y-69690238D02*
X115719524Y-69785476D01*
X115719524Y-69785476D02*
X115624286Y-69833095D01*
G04 #@! TO.C,D5*
X145311905Y-86614046D02*
X145311905Y-85614046D01*
X145311905Y-85614046D02*
X145550000Y-85614046D01*
X145550000Y-85614046D02*
X145692857Y-85661666D01*
X145692857Y-85661666D02*
X145788095Y-85756904D01*
X145788095Y-85756904D02*
X145835714Y-85852142D01*
X145835714Y-85852142D02*
X145883333Y-86042618D01*
X145883333Y-86042618D02*
X145883333Y-86185475D01*
X145883333Y-86185475D02*
X145835714Y-86375951D01*
X145835714Y-86375951D02*
X145788095Y-86471189D01*
X145788095Y-86471189D02*
X145692857Y-86566427D01*
X145692857Y-86566427D02*
X145550000Y-86614046D01*
X145550000Y-86614046D02*
X145311905Y-86614046D01*
X146788095Y-85614046D02*
X146311905Y-85614046D01*
X146311905Y-85614046D02*
X146264286Y-86090237D01*
X146264286Y-86090237D02*
X146311905Y-86042618D01*
X146311905Y-86042618D02*
X146407143Y-85994999D01*
X146407143Y-85994999D02*
X146645238Y-85994999D01*
X146645238Y-85994999D02*
X146740476Y-86042618D01*
X146740476Y-86042618D02*
X146788095Y-86090237D01*
X146788095Y-86090237D02*
X146835714Y-86185475D01*
X146835714Y-86185475D02*
X146835714Y-86423570D01*
X146835714Y-86423570D02*
X146788095Y-86518808D01*
X146788095Y-86518808D02*
X146740476Y-86566427D01*
X146740476Y-86566427D02*
X146645238Y-86614046D01*
X146645238Y-86614046D02*
X146407143Y-86614046D01*
X146407143Y-86614046D02*
X146311905Y-86566427D01*
X146311905Y-86566427D02*
X146264286Y-86518808D01*
X142185714Y-88514046D02*
X141614286Y-88514046D01*
X141900000Y-88514046D02*
X141900000Y-87514046D01*
X141900000Y-87514046D02*
X141804762Y-87656904D01*
X141804762Y-87656904D02*
X141709524Y-87752142D01*
X141709524Y-87752142D02*
X141614286Y-87799761D01*
G04 #@! TO.C,D8*
X152315184Y-69906991D02*
X153022291Y-69199884D01*
X153022291Y-69199884D02*
X153190650Y-69368243D01*
X153190650Y-69368243D02*
X153257993Y-69502930D01*
X153257993Y-69502930D02*
X153257993Y-69637617D01*
X153257993Y-69637617D02*
X153224321Y-69738632D01*
X153224321Y-69738632D02*
X153123306Y-69906991D01*
X153123306Y-69906991D02*
X153022291Y-70008007D01*
X153022291Y-70008007D02*
X152853932Y-70109022D01*
X152853932Y-70109022D02*
X152752917Y-70142694D01*
X152752917Y-70142694D02*
X152618230Y-70142694D01*
X152618230Y-70142694D02*
X152483543Y-70075350D01*
X152483543Y-70075350D02*
X152315184Y-69906991D01*
X153527367Y-70311052D02*
X153493695Y-70210037D01*
X153493695Y-70210037D02*
X153493695Y-70142694D01*
X153493695Y-70142694D02*
X153527367Y-70041678D01*
X153527367Y-70041678D02*
X153561039Y-70008007D01*
X153561039Y-70008007D02*
X153662054Y-69974335D01*
X153662054Y-69974335D02*
X153729398Y-69974335D01*
X153729398Y-69974335D02*
X153830413Y-70008007D01*
X153830413Y-70008007D02*
X153965100Y-70142694D01*
X153965100Y-70142694D02*
X153998772Y-70243709D01*
X153998772Y-70243709D02*
X153998772Y-70311052D01*
X153998772Y-70311052D02*
X153965100Y-70412068D01*
X153965100Y-70412068D02*
X153931428Y-70445739D01*
X153931428Y-70445739D02*
X153830413Y-70479411D01*
X153830413Y-70479411D02*
X153763069Y-70479411D01*
X153763069Y-70479411D02*
X153662054Y-70445739D01*
X153662054Y-70445739D02*
X153527367Y-70311052D01*
X153527367Y-70311052D02*
X153426352Y-70277381D01*
X153426352Y-70277381D02*
X153359008Y-70277381D01*
X153359008Y-70277381D02*
X153257993Y-70311052D01*
X153257993Y-70311052D02*
X153123306Y-70445739D01*
X153123306Y-70445739D02*
X153089634Y-70546755D01*
X153089634Y-70546755D02*
X153089634Y-70614098D01*
X153089634Y-70614098D02*
X153123306Y-70715113D01*
X153123306Y-70715113D02*
X153257993Y-70849800D01*
X153257993Y-70849800D02*
X153359008Y-70883472D01*
X153359008Y-70883472D02*
X153426352Y-70883472D01*
X153426352Y-70883472D02*
X153527367Y-70849800D01*
X153527367Y-70849800D02*
X153662054Y-70715113D01*
X153662054Y-70715113D02*
X153695726Y-70614098D01*
X153695726Y-70614098D02*
X153695726Y-70546755D01*
X153695726Y-70546755D02*
X153662054Y-70445739D01*
X148761131Y-69039944D02*
X148357070Y-68635883D01*
X148559100Y-68837913D02*
X149266207Y-68130807D01*
X149266207Y-68130807D02*
X149097848Y-68164478D01*
X149097848Y-68164478D02*
X148963161Y-68164478D01*
X148963161Y-68164478D02*
X148862146Y-68130807D01*
G04 #@! TO.C,D24*
X128439380Y-67000285D02*
X127439380Y-67000285D01*
X127439380Y-67000285D02*
X127439380Y-66762190D01*
X127439380Y-66762190D02*
X127487000Y-66619333D01*
X127487000Y-66619333D02*
X127582238Y-66524095D01*
X127582238Y-66524095D02*
X127677476Y-66476476D01*
X127677476Y-66476476D02*
X127867952Y-66428857D01*
X127867952Y-66428857D02*
X128010809Y-66428857D01*
X128010809Y-66428857D02*
X128201285Y-66476476D01*
X128201285Y-66476476D02*
X128296523Y-66524095D01*
X128296523Y-66524095D02*
X128391761Y-66619333D01*
X128391761Y-66619333D02*
X128439380Y-66762190D01*
X128439380Y-66762190D02*
X128439380Y-67000285D01*
X127534619Y-66047904D02*
X127487000Y-66000285D01*
X127487000Y-66000285D02*
X127439380Y-65905047D01*
X127439380Y-65905047D02*
X127439380Y-65666952D01*
X127439380Y-65666952D02*
X127487000Y-65571714D01*
X127487000Y-65571714D02*
X127534619Y-65524095D01*
X127534619Y-65524095D02*
X127629857Y-65476476D01*
X127629857Y-65476476D02*
X127725095Y-65476476D01*
X127725095Y-65476476D02*
X127867952Y-65524095D01*
X127867952Y-65524095D02*
X128439380Y-66095523D01*
X128439380Y-66095523D02*
X128439380Y-65476476D01*
X127772714Y-64619333D02*
X128439380Y-64619333D01*
X127391761Y-64857428D02*
X128106047Y-65095523D01*
X128106047Y-65095523D02*
X128106047Y-64476476D01*
X130339380Y-69650285D02*
X130339380Y-70221713D01*
X130339380Y-69935999D02*
X129339380Y-69935999D01*
X129339380Y-69935999D02*
X129482238Y-70031237D01*
X129482238Y-70031237D02*
X129577476Y-70126475D01*
X129577476Y-70126475D02*
X129625095Y-70221713D01*
G04 #@! TO.C,D4*
X145311905Y-91990379D02*
X145311905Y-90990379D01*
X145311905Y-90990379D02*
X145550000Y-90990379D01*
X145550000Y-90990379D02*
X145692857Y-91037999D01*
X145692857Y-91037999D02*
X145788095Y-91133237D01*
X145788095Y-91133237D02*
X145835714Y-91228475D01*
X145835714Y-91228475D02*
X145883333Y-91418951D01*
X145883333Y-91418951D02*
X145883333Y-91561808D01*
X145883333Y-91561808D02*
X145835714Y-91752284D01*
X145835714Y-91752284D02*
X145788095Y-91847522D01*
X145788095Y-91847522D02*
X145692857Y-91942760D01*
X145692857Y-91942760D02*
X145550000Y-91990379D01*
X145550000Y-91990379D02*
X145311905Y-91990379D01*
X146740476Y-91323713D02*
X146740476Y-91990379D01*
X146502381Y-90942760D02*
X146264286Y-91657046D01*
X146264286Y-91657046D02*
X146883333Y-91657046D01*
X142185714Y-93890379D02*
X141614286Y-93890379D01*
X141900000Y-93890379D02*
X141900000Y-92890379D01*
X141900000Y-92890379D02*
X141804762Y-93033237D01*
X141804762Y-93033237D02*
X141709524Y-93128475D01*
X141709524Y-93128475D02*
X141614286Y-93176094D01*
D11*
G04 #@! TO.C,D17*
X178124000Y-87843332D02*
X178124000Y-88993332D01*
G04 #@! TO.C,D15*
X178124000Y-77514000D02*
X178124000Y-78664000D01*
G04 #@! TO.C,D7*
X149700000Y-81744000D02*
X149700000Y-80594000D01*
G04 #@! TO.C,D14*
X177239567Y-72832219D02*
X177632890Y-73912865D01*
G04 #@! TO.C,D25*
X126811781Y-62431567D02*
X125731135Y-62824890D01*
G04 #@! TO.C,D16*
X178124000Y-82678666D02*
X178124000Y-83828666D01*
G04 #@! TO.C,D2*
X149700000Y-108625665D02*
X149700000Y-107475665D01*
G04 #@! TO.C,D22*
X147315240Y-72041114D02*
X146655627Y-71099089D01*
G04 #@! TO.C,D31*
X108110000Y-81832000D02*
X108110000Y-82982000D01*
G04 #@! TO.C,D32*
X108110000Y-87166000D02*
X108110000Y-88316000D01*
G04 #@! TO.C,D27*
X108110000Y-60496000D02*
X108110000Y-61646000D01*
G04 #@! TO.C,D18*
X178124000Y-93007998D02*
X178124000Y-94157998D01*
G04 #@! TO.C,D12*
X169529430Y-67571993D02*
X170525359Y-68146993D01*
G04 #@! TO.C,D13*
X173998272Y-69327553D02*
X174737478Y-70208504D01*
G04 #@! TO.C,D11*
X164890000Y-68420000D02*
X166040000Y-68420000D01*
G04 #@! TO.C,D1*
X149700000Y-114002000D02*
X149700000Y-112852000D01*
G04 #@! TO.C,D9*
X155145430Y-72607993D02*
X156141359Y-72032993D01*
G04 #@! TO.C,D23*
X142382570Y-65524007D02*
X141386641Y-64949007D01*
G04 #@! TO.C,D21*
X178124000Y-108501996D02*
X178124000Y-109651996D01*
G04 #@! TO.C,D29*
X108110000Y-71164000D02*
X108110000Y-72314000D01*
G04 #@! TO.C,D26*
X119394447Y-65032272D02*
X118513496Y-65771478D01*
G04 #@! TO.C,D33*
X108110000Y-92500000D02*
X108110000Y-93650000D01*
G04 #@! TO.C,D20*
X178124000Y-103337330D02*
X178124000Y-104487330D01*
G04 #@! TO.C,D35*
X108110000Y-103168000D02*
X108110000Y-104318000D01*
G04 #@! TO.C,D19*
X178124000Y-98172664D02*
X178124000Y-99322664D01*
G04 #@! TO.C,D6*
X149700000Y-87120333D02*
X149700000Y-85970333D01*
G04 #@! TO.C,D3*
X149700000Y-103249332D02*
X149700000Y-102099332D01*
G04 #@! TO.C,D10*
X159954219Y-69902433D02*
X161034865Y-69509110D01*
G04 #@! TO.C,D34*
X108110000Y-97834000D02*
X108110000Y-98984000D01*
G04 #@! TO.C,D36*
X108110000Y-108502000D02*
X108110000Y-109652000D01*
G04 #@! TO.C,D30*
X108110000Y-76498000D02*
X108110000Y-77648000D01*
G04 #@! TO.C,D28*
X108110000Y-65830000D02*
X108110000Y-66980000D01*
G04 #@! TO.C,D5*
X149700000Y-92496666D02*
X149700000Y-91346666D01*
G04 #@! TO.C,D8*
X151258396Y-77169483D02*
X152071569Y-76356311D01*
G04 #@! TO.C,D24*
X134322000Y-62136000D02*
X133172000Y-62136000D01*
G04 #@! TO.C,D4*
X149700000Y-97872999D02*
X149700000Y-96722999D01*
G04 #@! TD*
M02*
