G04 #@! TF.GenerationSoftware,KiCad,Pcbnew,7.0.0-da2b9df05c~165~ubuntu22.04.1*
G04 #@! TF.CreationDate,2023-03-06T13:31:38-08:00*
G04 #@! TF.ProjectId,badge,62616467-652e-46b6-9963-61645f706362,rev?*
G04 #@! TF.SameCoordinates,Original*
G04 #@! TF.FileFunction,Copper,L2,Bot*
G04 #@! TF.FilePolarity,Positive*
%FSLAX46Y46*%
G04 Gerber Fmt 4.6, Leading zero omitted, Abs format (unit mm)*
G04 Created by KiCad (PCBNEW 7.0.0-da2b9df05c~165~ubuntu22.04.1) date 2023-03-06 13:31:38*
%MOMM*%
%LPD*%
G01*
G04 APERTURE LIST*
G04 #@! TA.AperFunction,ViaPad*
%ADD10C,0.800000*%
G04 #@! TD*
G04 #@! TA.AperFunction,Conductor*
%ADD11C,0.500000*%
G04 #@! TD*
G04 #@! TA.AperFunction,Conductor*
%ADD12C,0.250000*%
G04 #@! TD*
G04 APERTURE END LIST*
D10*
G04 #@! TO.N,+5V*
X151638000Y-65913000D03*
X143637000Y-100076000D03*
X125730000Y-68834000D03*
X114300000Y-101092000D03*
X184277000Y-96266000D03*
X184277000Y-106680000D03*
X182753000Y-70866000D03*
X143637000Y-78613000D03*
X114300000Y-110651502D03*
X164940498Y-62484000D03*
X171958000Y-62484000D03*
X134366000Y-68453000D03*
X143637000Y-89408000D03*
X114300000Y-85217000D03*
X114300000Y-95758000D03*
X156083000Y-62484000D03*
X143637000Y-83820000D03*
X184277000Y-85979000D03*
X114300000Y-69088000D03*
X114300000Y-90551000D03*
X114300000Y-106426000D03*
X185166282Y-108584167D03*
X184277000Y-101473000D03*
X128944439Y-68438645D03*
X184277000Y-80772000D03*
X114300000Y-74549000D03*
X143637000Y-105537000D03*
X184277000Y-91186000D03*
X143637000Y-94742000D03*
X114300000Y-79883000D03*
X112092500Y-69547500D03*
X143637000Y-110617000D03*
X140335000Y-72644000D03*
X184912000Y-77564498D03*
X177673000Y-65786000D03*
X116840000Y-63881000D03*
X121127849Y-71656225D03*
G04 #@! TO.N,GND*
X176403000Y-70358000D03*
X109347000Y-62738000D03*
X179324000Y-105664000D03*
X131826000Y-63246000D03*
X118237000Y-65659000D03*
X107061000Y-76327000D03*
X179324000Y-110744000D03*
X148463000Y-90043000D03*
X179324000Y-90170000D03*
X182753000Y-76962000D03*
X156718000Y-70485000D03*
X109474000Y-105283000D03*
X148463000Y-84709000D03*
X181356000Y-71374000D03*
X148463000Y-79375000D03*
X148463000Y-100965000D03*
X144653000Y-71120000D03*
X179324000Y-80010000D03*
X109474000Y-94742000D03*
X148463000Y-95504000D03*
X179324000Y-100457000D03*
X148336000Y-106172000D03*
X126238000Y-65405000D03*
X133731000Y-65913000D03*
X109474000Y-100076000D03*
X114554000Y-63500000D03*
X165989000Y-65659000D03*
X105156000Y-76327000D03*
X106680000Y-64008000D03*
X148336000Y-111633000D03*
X179324000Y-95377000D03*
X170942000Y-64770000D03*
X109347000Y-84074000D03*
X151892000Y-74676000D03*
X109347000Y-78740000D03*
X110617000Y-72263000D03*
X139700000Y-65278000D03*
X109347000Y-89408000D03*
X103759000Y-71755000D03*
X172085000Y-67945000D03*
X178943000Y-74803000D03*
X161925000Y-68072000D03*
X163322000Y-63500000D03*
X109347000Y-68072000D03*
X109474000Y-110744000D03*
X179324000Y-84963000D03*
G04 #@! TO.N,Net-(D1-DIN)*
X120269000Y-74549000D03*
X145288000Y-113157000D03*
G04 #@! TO.N,Net-(D21-DOUT)*
X157988000Y-73660000D03*
X181483000Y-113284000D03*
G04 #@! TO.N,Net-(D26-DOUT)*
X112141000Y-65024000D03*
X110744000Y-63754000D03*
G04 #@! TO.N,Net-(J1-Pin_3)*
X105664000Y-61468000D03*
X106172000Y-73914000D03*
G04 #@! TD*
D11*
G04 #@! TO.N,+5V*
X177673000Y-65786000D02*
X182753000Y-70866000D01*
X164211000Y-62484000D02*
X171958000Y-62484000D01*
X125857000Y-59690000D02*
X124968000Y-60579000D01*
X184277000Y-107694885D02*
X185166282Y-108584167D01*
X140335000Y-72644000D02*
X140335000Y-73025000D01*
X119888000Y-63246000D02*
X119253000Y-63881000D01*
X155410808Y-62521192D02*
X153416000Y-64516000D01*
X156083000Y-62484000D02*
X164211000Y-62484000D01*
X125730000Y-68834000D02*
X122907775Y-71656225D01*
X114300000Y-79883000D02*
X114300000Y-85217000D01*
X147050363Y-61833363D02*
X147050363Y-61741882D01*
X127000000Y-59690000D02*
X125857000Y-59690000D01*
X114300000Y-69088000D02*
X112552000Y-69088000D01*
X153035000Y-64516000D02*
X151638000Y-65913000D01*
X128524000Y-59055000D02*
X127635000Y-59055000D01*
X130429000Y-58166000D02*
X129921000Y-58674000D01*
X174371000Y-62484000D02*
X177673000Y-65786000D01*
X122428000Y-61849000D02*
X121920000Y-61849000D01*
X184277000Y-77597000D02*
X184277000Y-80772000D01*
X151257000Y-65913000D02*
X150291251Y-64947251D01*
D12*
X164211000Y-62484000D02*
X164940498Y-62484000D01*
D11*
X184277000Y-85979000D02*
X184277000Y-91186000D01*
X143637000Y-83820000D02*
X143637000Y-89408000D01*
X171958000Y-62484000D02*
X174371000Y-62484000D01*
X121920000Y-61849000D02*
X121158000Y-62611000D01*
X114300000Y-95758000D02*
X114300000Y-101092000D01*
X122907775Y-71656225D02*
X121127849Y-71656225D01*
X146831882Y-61741882D02*
X146431000Y-61341000D01*
X148463000Y-63246000D02*
X147050363Y-61833363D01*
D12*
X184309502Y-77564498D02*
X184277000Y-77597000D01*
D11*
X114300000Y-106426000D02*
X114300000Y-110651502D01*
X139192000Y-58420000D02*
X138176000Y-58420000D01*
X184277000Y-91186000D02*
X184277000Y-96266000D01*
X120777000Y-62611000D02*
X120142000Y-63246000D01*
X134366000Y-68453000D02*
X135636000Y-68453000D01*
X129921000Y-58674000D02*
X128905000Y-58674000D01*
X114300000Y-69088000D02*
X114300000Y-74549000D01*
X147050363Y-61741882D02*
X146831882Y-61741882D01*
X145415000Y-60706000D02*
X145034000Y-60706000D01*
X125730000Y-68834000D02*
X126111000Y-68453000D01*
X143637000Y-89408000D02*
X143637000Y-94742000D01*
X139827000Y-59055000D02*
X139192000Y-58420000D01*
X119253000Y-63881000D02*
X116840000Y-63881000D01*
X114300000Y-85217000D02*
X114300000Y-90551000D01*
X143510000Y-59817000D02*
X143256000Y-59563000D01*
X124206000Y-60579000D02*
X123571000Y-61214000D01*
X142113000Y-59055000D02*
X139827000Y-59055000D01*
X143637000Y-78613000D02*
X143637000Y-83820000D01*
X184277000Y-80772000D02*
X184277000Y-85979000D01*
X184277000Y-101473000D02*
X184277000Y-106680000D01*
X114300000Y-74549000D02*
X114300000Y-79883000D01*
X150291251Y-64770000D02*
X148767251Y-63246000D01*
X144526000Y-60198000D02*
X144196828Y-60198000D01*
X148767251Y-63246000D02*
X148463000Y-63246000D01*
X138176000Y-58420000D02*
X137922000Y-58166000D01*
X143815828Y-59817000D02*
X143510000Y-59817000D01*
X143637000Y-100076000D02*
X143637000Y-105537000D01*
X123063000Y-61214000D02*
X122428000Y-61849000D01*
X114300000Y-101092000D02*
X114300000Y-106426000D01*
D12*
X184912000Y-77564498D02*
X184309502Y-77564498D01*
D11*
X121158000Y-62611000D02*
X120777000Y-62611000D01*
X143637000Y-76327000D02*
X143637000Y-78613000D01*
X127635000Y-59055000D02*
X127000000Y-59690000D01*
X155457717Y-62484000D02*
X155410808Y-62521192D01*
X120142000Y-63246000D02*
X119888000Y-63246000D01*
X150291251Y-64947251D02*
X150291251Y-64770000D01*
X151638000Y-65913000D02*
X151257000Y-65913000D01*
X184277000Y-72390000D02*
X184277000Y-77597000D01*
X146050000Y-61341000D02*
X145415000Y-60706000D01*
X143637000Y-105537000D02*
X143637000Y-110617000D01*
X145034000Y-60706000D02*
X144526000Y-60198000D01*
X144196828Y-60198000D02*
X143815828Y-59817000D01*
X112552000Y-69088000D02*
X112092500Y-69547500D01*
X182753000Y-70866000D02*
X184277000Y-72390000D01*
X156083000Y-62484000D02*
X155457717Y-62484000D01*
X184277000Y-96266000D02*
X184277000Y-101473000D01*
X143256000Y-59563000D02*
X142621000Y-59563000D01*
X135636000Y-68453000D02*
X139827000Y-72644000D01*
X114300000Y-90551000D02*
X114300000Y-95758000D01*
X139827000Y-72644000D02*
X140335000Y-72644000D01*
X128905000Y-58674000D02*
X128524000Y-59055000D01*
X126111000Y-68453000D02*
X134366000Y-68453000D01*
X124968000Y-60579000D02*
X124206000Y-60579000D01*
X143637000Y-94742000D02*
X143637000Y-100076000D01*
X142621000Y-59563000D02*
X142113000Y-59055000D01*
X146431000Y-61341000D02*
X146050000Y-61341000D01*
X123571000Y-61214000D02*
X123063000Y-61214000D01*
X153416000Y-64516000D02*
X153035000Y-64516000D01*
X140335000Y-73025000D02*
X143637000Y-76327000D01*
X184277000Y-106680000D02*
X184277000Y-107694885D01*
X137922000Y-58166000D02*
X130429000Y-58166000D01*
D12*
G04 #@! TO.N,Net-(D1-DIN)*
X125349000Y-71501000D02*
X134874000Y-71501000D01*
X138557000Y-75184000D02*
X138557000Y-112522000D01*
X138557000Y-112522000D02*
X139192000Y-113157000D01*
X122301000Y-74549000D02*
X125349000Y-71501000D01*
X139192000Y-113157000D02*
X145288000Y-113157000D01*
X134874000Y-71501000D02*
X138557000Y-75184000D01*
X120269000Y-74549000D02*
X122301000Y-74549000D01*
G04 #@! TO.N,Net-(D21-DOUT)*
X174625000Y-113284000D02*
X173863000Y-112522000D01*
X168529000Y-71755000D02*
X160020000Y-71755000D01*
X171831000Y-73152000D02*
X170434000Y-71755000D01*
X181483000Y-113284000D02*
X174625000Y-113284000D01*
X173863000Y-112522000D02*
X173863000Y-75184000D01*
X170434000Y-71755000D02*
X168529000Y-71755000D01*
X158115000Y-73660000D02*
X157988000Y-73660000D01*
X160020000Y-71755000D02*
X158115000Y-73660000D01*
X173863000Y-75184000D02*
X171831000Y-73152000D01*
D11*
G04 #@! TO.N,Net-(D26-DOUT)*
X112014000Y-65024000D02*
X110744000Y-63754000D01*
X112141000Y-65024000D02*
X112014000Y-65024000D01*
D12*
G04 #@! TO.N,Net-(J1-Pin_3)*
X102944799Y-62028201D02*
X102934182Y-75312269D01*
X104149305Y-75946000D02*
X106172000Y-73923305D01*
X103505000Y-61468000D02*
X102944799Y-62028201D01*
X102934182Y-75312269D02*
X102934182Y-75629182D01*
X103251000Y-75946000D02*
X104149305Y-75946000D01*
X105664000Y-61468000D02*
X103505000Y-61468000D01*
X106172000Y-73923305D02*
X106172000Y-73914000D01*
X102934182Y-75629182D02*
X103251000Y-75946000D01*
G04 #@! TD*
G04 #@! TA.AperFunction,Conductor*
G04 #@! TO.N,GND*
G36*
X169444789Y-57454533D02*
G01*
X169825220Y-57456759D01*
X169826033Y-57456766D01*
X170194916Y-57461367D01*
X170195707Y-57461379D01*
X170546194Y-57468366D01*
X170546876Y-57468382D01*
X170871055Y-57477741D01*
X170872467Y-57477789D01*
X171162834Y-57489506D01*
X171164733Y-57489597D01*
X171413702Y-57503636D01*
X171416743Y-57503845D01*
X171616879Y-57520141D01*
X171620672Y-57520509D01*
X171699580Y-57529400D01*
X171701026Y-57529571D01*
X171928356Y-57558054D01*
X171928344Y-57558154D01*
X171928345Y-57558154D01*
X171928357Y-57558055D01*
X171928490Y-57558071D01*
X171928482Y-57558131D01*
X171928702Y-57558096D01*
X172140342Y-57583930D01*
X172140015Y-57586612D01*
X172140023Y-57586613D01*
X172140344Y-57583932D01*
X172352288Y-57609255D01*
X172351979Y-57611840D01*
X172352184Y-57611853D01*
X172352484Y-57609278D01*
X172580252Y-57635801D01*
X172580251Y-57635802D01*
X172580402Y-57635818D01*
X172580448Y-57635824D01*
X172580448Y-57635823D01*
X172580538Y-57635833D01*
X172741845Y-57653924D01*
X172743632Y-57654139D01*
X172997828Y-57686530D01*
X173000543Y-57686907D01*
X173225232Y-57720683D01*
X173226776Y-57720926D01*
X173458185Y-57759009D01*
X173476833Y-57762078D01*
X173478196Y-57762310D01*
X173748910Y-57809967D01*
X173750068Y-57810177D01*
X173882944Y-57834872D01*
X174036846Y-57863475D01*
X174037575Y-57863613D01*
X174235465Y-57901857D01*
X174236001Y-57901961D01*
X174438184Y-57942176D01*
X174438375Y-57942214D01*
X174642969Y-57984037D01*
X174643568Y-57984162D01*
X174718659Y-57999924D01*
X174849313Y-58027351D01*
X174849558Y-58027403D01*
X175055552Y-58071798D01*
X175055807Y-58071854D01*
X175260240Y-58117096D01*
X175260943Y-58117254D01*
X175352470Y-58138068D01*
X175438961Y-58157737D01*
X175462747Y-58163146D01*
X175463497Y-58163319D01*
X175660353Y-58209373D01*
X175662099Y-58209795D01*
X175787610Y-58241083D01*
X175924341Y-58275168D01*
X175925928Y-58275575D01*
X176120058Y-58326921D01*
X176121012Y-58327179D01*
X176326724Y-58383534D01*
X176327613Y-58383781D01*
X176540595Y-58443835D01*
X176541381Y-58444059D01*
X176758944Y-58506956D01*
X176759594Y-58507147D01*
X176977243Y-58571521D01*
X176977570Y-58571619D01*
X177192021Y-58636451D01*
X177192649Y-58636643D01*
X177268890Y-58660206D01*
X177400133Y-58700769D01*
X177400517Y-58700890D01*
X177596980Y-58763053D01*
X177598065Y-58763403D01*
X177864445Y-58850603D01*
X177866371Y-58851250D01*
X178086616Y-58927370D01*
X178090711Y-58928868D01*
X178288212Y-59005128D01*
X178288852Y-59005375D01*
X178302251Y-59011486D01*
X178367045Y-59045831D01*
X178367068Y-59045853D01*
X178367127Y-59045875D01*
X178367189Y-59045908D01*
X178367223Y-59045911D01*
X178552431Y-59115406D01*
X178552224Y-59115957D01*
X178552287Y-59115977D01*
X178552447Y-59115418D01*
X178552517Y-59115438D01*
X178552597Y-59115468D01*
X178552393Y-59116011D01*
X178552456Y-59116031D01*
X178552618Y-59115467D01*
X178741114Y-59169478D01*
X178752977Y-59173537D01*
X178940736Y-59248588D01*
X178943768Y-59249847D01*
X179140520Y-59334657D01*
X179142105Y-59335355D01*
X179376877Y-59440881D01*
X179377929Y-59441360D01*
X179577818Y-59533616D01*
X179578479Y-59533924D01*
X179798079Y-59637114D01*
X179798503Y-59637314D01*
X180038209Y-59751648D01*
X180038210Y-59751649D01*
X180121870Y-59791900D01*
X180122981Y-59792442D01*
X180447571Y-59952942D01*
X180449789Y-59954067D01*
X180765835Y-60118553D01*
X180768145Y-60119788D01*
X181076732Y-60288926D01*
X181079086Y-60290251D01*
X181380815Y-60464471D01*
X181383116Y-60465835D01*
X181678630Y-60645590D01*
X181681078Y-60647119D01*
X181905101Y-60790638D01*
X181970840Y-60832754D01*
X181970917Y-60832803D01*
X181973314Y-60834378D01*
X182172876Y-60968963D01*
X182258189Y-61026498D01*
X182260601Y-61028167D01*
X182541064Y-61227121D01*
X182543412Y-61228828D01*
X182820049Y-61435044D01*
X182822333Y-61436789D01*
X183095839Y-61650774D01*
X183098011Y-61652514D01*
X183369009Y-61874734D01*
X183371089Y-61876478D01*
X183640111Y-62107320D01*
X183642078Y-62109045D01*
X183907487Y-62346949D01*
X183909706Y-62348938D01*
X183911609Y-62350680D01*
X184178452Y-62600073D01*
X184180236Y-62601773D01*
X184446967Y-62861182D01*
X184448629Y-62862830D01*
X184715970Y-63132835D01*
X184717131Y-63134023D01*
X184904704Y-63328612D01*
X184905600Y-63329552D01*
X185081236Y-63515619D01*
X185082327Y-63516789D01*
X185247795Y-63696677D01*
X185249061Y-63698074D01*
X185406126Y-63874126D01*
X185407528Y-63875725D01*
X185557924Y-64050236D01*
X185559377Y-64051955D01*
X185705034Y-64227455D01*
X185706544Y-64229311D01*
X185849236Y-64408152D01*
X185850708Y-64410033D01*
X185992382Y-64594788D01*
X185993762Y-64596623D01*
X186136101Y-64789541D01*
X186137350Y-64791265D01*
X186282349Y-64995019D01*
X186283438Y-64996573D01*
X186297379Y-65016816D01*
X186432767Y-65213399D01*
X186433696Y-65214768D01*
X186589154Y-65447070D01*
X186589923Y-65448233D01*
X186753393Y-65698552D01*
X186754012Y-65699510D01*
X186927145Y-65970028D01*
X186927631Y-65970793D01*
X187112311Y-66264052D01*
X187112668Y-66264622D01*
X187308954Y-66580229D01*
X187312267Y-66585887D01*
X187416248Y-66774773D01*
X187418013Y-66778098D01*
X187526950Y-66991044D01*
X187527591Y-66992314D01*
X187627832Y-67193934D01*
X187628265Y-67194815D01*
X187734223Y-67412233D01*
X187734624Y-67413062D01*
X187840903Y-67635316D01*
X187841311Y-67636178D01*
X187942701Y-67852679D01*
X187943224Y-67853811D01*
X188033884Y-68052582D01*
X188035367Y-68055965D01*
X188133375Y-68288991D01*
X188134403Y-68291512D01*
X188232581Y-68540078D01*
X188233041Y-68541262D01*
X188313313Y-68750748D01*
X188313621Y-68751558D01*
X188396322Y-68971983D01*
X188396599Y-68972731D01*
X188478320Y-69194878D01*
X188478602Y-69195652D01*
X188556399Y-69411549D01*
X188556719Y-69412446D01*
X188627463Y-69613600D01*
X188627955Y-69615029D01*
X188705698Y-69845004D01*
X188706658Y-69847965D01*
X188759026Y-70016725D01*
X188759865Y-70019546D01*
X188815685Y-70215766D01*
X188812869Y-70216566D01*
X188812870Y-70216570D01*
X188815686Y-70215766D01*
X188872904Y-70416031D01*
X188870547Y-70416704D01*
X188870549Y-70416709D01*
X188872904Y-70416034D01*
X188914183Y-70559939D01*
X188914375Y-70560615D01*
X189012955Y-70911777D01*
X189013434Y-70913534D01*
X189104233Y-71256246D01*
X189104753Y-71258278D01*
X189188576Y-71597752D01*
X189189106Y-71599984D01*
X189266702Y-71941252D01*
X189267211Y-71943595D01*
X189339249Y-72291394D01*
X189339713Y-72293749D01*
X189379003Y-72503834D01*
X189404902Y-72642323D01*
X189406915Y-72653084D01*
X189407318Y-72655357D01*
X189470375Y-73031110D01*
X189470711Y-73033226D01*
X189530321Y-73430355D01*
X189530530Y-73431805D01*
X189559192Y-73639446D01*
X189559313Y-73640343D01*
X189587446Y-73855744D01*
X189587552Y-73856579D01*
X189615119Y-74079420D01*
X189615212Y-74080194D01*
X189642335Y-74311366D01*
X189642417Y-74312079D01*
X189669202Y-74552380D01*
X189669273Y-74553033D01*
X189695788Y-74802911D01*
X189695849Y-74803506D01*
X189722105Y-75062875D01*
X189721973Y-75062888D01*
X189722160Y-75063413D01*
X189748404Y-75334454D01*
X189748450Y-75334940D01*
X189774591Y-75616452D01*
X189774483Y-75616462D01*
X189774632Y-75616888D01*
X189800897Y-75911006D01*
X189800931Y-75911394D01*
X189814569Y-76069729D01*
X189827354Y-76218161D01*
X189854010Y-76538094D01*
X189866681Y-76694836D01*
X189880971Y-76871610D01*
X189880938Y-76871612D01*
X189880993Y-76871880D01*
X189897689Y-77084125D01*
X189908351Y-77219666D01*
X189920375Y-77376299D01*
X189936196Y-77582388D01*
X189936180Y-77582389D01*
X189936211Y-77582586D01*
X189964594Y-77960345D01*
X189964589Y-77960345D01*
X189964623Y-77960737D01*
X189988252Y-78288809D01*
X189988293Y-78289405D01*
X190010870Y-78625442D01*
X190010910Y-78626052D01*
X190030279Y-78937300D01*
X190032585Y-78974356D01*
X190032620Y-78974955D01*
X190053363Y-79337021D01*
X190053396Y-79337615D01*
X190073332Y-79717518D01*
X190073360Y-79718088D01*
X190092485Y-80117708D01*
X190092510Y-80118244D01*
X190107489Y-80462409D01*
X190110912Y-80541050D01*
X190110912Y-80541051D01*
X190113751Y-80612958D01*
X190128616Y-80989465D01*
X190128498Y-80989469D01*
X190128635Y-80989924D01*
X190145694Y-81466766D01*
X190145701Y-81467184D01*
X190145708Y-81467184D01*
X190162151Y-81974589D01*
X190162054Y-81974592D01*
X190162164Y-81974965D01*
X190178089Y-82517303D01*
X190178098Y-82517641D01*
X190193503Y-83095969D01*
X190193511Y-83096270D01*
X190206302Y-83624680D01*
X190208472Y-83714345D01*
X190208472Y-83714346D01*
X190221182Y-84290844D01*
X190223038Y-84375020D01*
X190223040Y-84375258D01*
X190223043Y-84375258D01*
X190237254Y-85080776D01*
X190237256Y-85080987D01*
X190237258Y-85080987D01*
X190251167Y-85834400D01*
X190251170Y-85834583D01*
X190264826Y-86638678D01*
X190264827Y-86638840D01*
X190264829Y-86638840D01*
X190278280Y-87496394D01*
X190278258Y-87496394D01*
X190278283Y-87496538D01*
X190291580Y-88410380D01*
X190291579Y-88410380D01*
X190291583Y-88410532D01*
X190304777Y-89383480D01*
X190304778Y-89383587D01*
X190317914Y-90418210D01*
X190317915Y-90418303D01*
X190331042Y-91517348D01*
X190331043Y-91517432D01*
X190344215Y-92684036D01*
X190344215Y-92684108D01*
X190357479Y-93920875D01*
X190357479Y-93920938D01*
X190370884Y-95230650D01*
X190370879Y-95230650D01*
X190370885Y-95230707D01*
X190384481Y-96616145D01*
X190384481Y-96616190D01*
X190398313Y-98079982D01*
X190398315Y-98080149D01*
X190412439Y-99625442D01*
X190412439Y-99625474D01*
X190426900Y-101254814D01*
X190426900Y-101254842D01*
X190441747Y-102970861D01*
X190441749Y-102971051D01*
X190457034Y-104776934D01*
X190457034Y-104776953D01*
X190472806Y-106675251D01*
X190472806Y-106675272D01*
X190477178Y-107212811D01*
X190477178Y-107212840D01*
X190481208Y-107722670D01*
X190481208Y-107722705D01*
X190484888Y-108205335D01*
X190484890Y-108205515D01*
X190484890Y-108205538D01*
X190488218Y-108662117D01*
X190488218Y-108662167D01*
X190491185Y-109093127D01*
X190491185Y-109093187D01*
X190493785Y-109499050D01*
X190493786Y-109499193D01*
X190493787Y-109499275D01*
X190496015Y-109881264D01*
X190496015Y-109881347D01*
X190497865Y-110239815D01*
X190497866Y-110239914D01*
X190499331Y-110575829D01*
X190499331Y-110575946D01*
X190500404Y-110889479D01*
X190500404Y-110889617D01*
X190501081Y-111181900D01*
X190501081Y-111182062D01*
X190501354Y-111453774D01*
X190501354Y-111453969D01*
X190501219Y-111705526D01*
X190501219Y-111705753D01*
X190500668Y-111938280D01*
X190500667Y-111938550D01*
X190499693Y-112152870D01*
X190499691Y-112152869D01*
X190499689Y-112153375D01*
X190496459Y-112528572D01*
X190496448Y-112529500D01*
X190491466Y-112839126D01*
X190491436Y-112840493D01*
X190484687Y-113089305D01*
X190484581Y-113092074D01*
X190471146Y-113363457D01*
X190470450Y-113371800D01*
X190449115Y-113553326D01*
X190429713Y-113606763D01*
X190388503Y-113645926D01*
X190334147Y-113662582D01*
X190129790Y-113676099D01*
X190125121Y-113676319D01*
X189878788Y-113683304D01*
X189877875Y-113683327D01*
X189557800Y-113690045D01*
X189557231Y-113690055D01*
X189169482Y-113696413D01*
X189169172Y-113696418D01*
X188950696Y-113699454D01*
X188950694Y-113699454D01*
X188950660Y-113699454D01*
X188950527Y-113699456D01*
X188716928Y-113702383D01*
X188716927Y-113702381D01*
X188716757Y-113702386D01*
X188467765Y-113705209D01*
X188467764Y-113705209D01*
X188467761Y-113705209D01*
X188467634Y-113705210D01*
X188204348Y-113707918D01*
X187926695Y-113710513D01*
X187635357Y-113712986D01*
X187330843Y-113715335D01*
X187013618Y-113717555D01*
X186684156Y-113719642D01*
X186342923Y-113721591D01*
X186342851Y-113721591D01*
X185990348Y-113723400D01*
X185626821Y-113725062D01*
X185626756Y-113725062D01*
X185253092Y-113726574D01*
X185253029Y-113726574D01*
X184869468Y-113727931D01*
X184869408Y-113727931D01*
X184476748Y-113729130D01*
X184476417Y-113729130D01*
X184476418Y-113729131D01*
X184074416Y-113730168D01*
X184074359Y-113730168D01*
X183663926Y-113731039D01*
X183663870Y-113731039D01*
X183245417Y-113731738D01*
X183245363Y-113731738D01*
X182819360Y-113732263D01*
X182819306Y-113732263D01*
X182386225Y-113732608D01*
X182386224Y-113732607D01*
X182386223Y-113732608D01*
X182188238Y-113732680D01*
X182130597Y-113718492D01*
X182086156Y-113679138D01*
X182065098Y-113623638D01*
X182072251Y-113564709D01*
X182076568Y-113553326D01*
X182119237Y-113440818D01*
X182138278Y-113284000D01*
X182119237Y-113127182D01*
X182063220Y-112979477D01*
X181977840Y-112855782D01*
X181977742Y-112855640D01*
X181977741Y-112855639D01*
X181973483Y-112849470D01*
X181962532Y-112839768D01*
X181860856Y-112749692D01*
X181860854Y-112749690D01*
X181855240Y-112744717D01*
X181848595Y-112741229D01*
X181848593Y-112741228D01*
X181722006Y-112674789D01*
X181722002Y-112674787D01*
X181715365Y-112671304D01*
X181708087Y-112669510D01*
X181708084Y-112669509D01*
X181569267Y-112635294D01*
X181569260Y-112635293D01*
X181561985Y-112633500D01*
X181404015Y-112633500D01*
X181396740Y-112635292D01*
X181396732Y-112635294D01*
X181257915Y-112669509D01*
X181257909Y-112669510D01*
X181250635Y-112671304D01*
X181244000Y-112674786D01*
X181243993Y-112674789D01*
X181117406Y-112741228D01*
X181117400Y-112741231D01*
X181110760Y-112744717D01*
X181105148Y-112749687D01*
X181105143Y-112749692D01*
X180998129Y-112844497D01*
X180998123Y-112844502D01*
X180992517Y-112849470D01*
X180988256Y-112855642D01*
X180983285Y-112861255D01*
X180982449Y-112860514D01*
X180944318Y-112894297D01*
X180886692Y-112908500D01*
X174831899Y-112908500D01*
X174784446Y-112899061D01*
X174744218Y-112872181D01*
X174274819Y-112402781D01*
X174247939Y-112362553D01*
X174238500Y-112315100D01*
X174238500Y-75235805D01*
X174241140Y-75210356D01*
X174241258Y-75209790D01*
X174241258Y-75209789D01*
X174243367Y-75199732D01*
X174239451Y-75168323D01*
X174239128Y-75163113D01*
X174238924Y-75163130D01*
X174238500Y-75158018D01*
X174238500Y-75152886D01*
X174235074Y-75132362D01*
X174234341Y-75127326D01*
X174229137Y-75085572D01*
X174227866Y-75075374D01*
X174224373Y-75068229D01*
X174223065Y-75060390D01*
X174198158Y-75014366D01*
X174195837Y-75009859D01*
X174172826Y-74962789D01*
X174167202Y-74957165D01*
X174163419Y-74950174D01*
X174155858Y-74943214D01*
X174155857Y-74943212D01*
X174124917Y-74914730D01*
X174121219Y-74911182D01*
X172074518Y-72864480D01*
X170736150Y-71526112D01*
X170720022Y-71506251D01*
X170719706Y-71505768D01*
X170719703Y-71505765D01*
X170714084Y-71497164D01*
X170689109Y-71477725D01*
X170685190Y-71474264D01*
X170685058Y-71474421D01*
X170681143Y-71471105D01*
X170677518Y-71467480D01*
X170660591Y-71455395D01*
X170656481Y-71452330D01*
X170623297Y-71426502D01*
X170615189Y-71420191D01*
X170607668Y-71417609D01*
X170601199Y-71412990D01*
X170591353Y-71410058D01*
X170591350Y-71410057D01*
X170551043Y-71398056D01*
X170546167Y-71396494D01*
X170506381Y-71382836D01*
X170506374Y-71382834D01*
X170496660Y-71379500D01*
X170488706Y-71379500D01*
X170481088Y-71377232D01*
X170470823Y-71377656D01*
X170470820Y-71377656D01*
X170428807Y-71379394D01*
X170423684Y-71379500D01*
X168591660Y-71379500D01*
X160071804Y-71379500D01*
X160046358Y-71376861D01*
X160045787Y-71376741D01*
X160045785Y-71376740D01*
X160035732Y-71374633D01*
X160025541Y-71375903D01*
X160025537Y-71375903D01*
X160004324Y-71378548D01*
X159999109Y-71378871D01*
X159999126Y-71379076D01*
X159994007Y-71379500D01*
X159988886Y-71379500D01*
X159983838Y-71380342D01*
X159983828Y-71380343D01*
X159968394Y-71382918D01*
X159963334Y-71383655D01*
X159921571Y-71388861D01*
X159921560Y-71388864D01*
X159911374Y-71390134D01*
X159904229Y-71393626D01*
X159896390Y-71394935D01*
X159887361Y-71399820D01*
X159887358Y-71399822D01*
X159850369Y-71419838D01*
X159845821Y-71422179D01*
X159808017Y-71440662D01*
X159808015Y-71440663D01*
X159798789Y-71445174D01*
X159793165Y-71450797D01*
X159786174Y-71454581D01*
X159779221Y-71462132D01*
X159779219Y-71462135D01*
X159750718Y-71493094D01*
X159747172Y-71496789D01*
X158250797Y-72993163D01*
X158196415Y-73024927D01*
X158133443Y-73025879D01*
X158074270Y-73011295D01*
X158074265Y-73011294D01*
X158066985Y-73009500D01*
X157909015Y-73009500D01*
X157901740Y-73011292D01*
X157901732Y-73011294D01*
X157762915Y-73045509D01*
X157762909Y-73045510D01*
X157755635Y-73047304D01*
X157749000Y-73050786D01*
X157748993Y-73050789D01*
X157622406Y-73117228D01*
X157622400Y-73117231D01*
X157615760Y-73120717D01*
X157610148Y-73125687D01*
X157610143Y-73125692D01*
X157503127Y-73220499D01*
X157503122Y-73220503D01*
X157497517Y-73225470D01*
X157493262Y-73231634D01*
X157493257Y-73231640D01*
X157412043Y-73349300D01*
X157412040Y-73349303D01*
X157407780Y-73355477D01*
X157405120Y-73362488D01*
X157405118Y-73362494D01*
X157354423Y-73496167D01*
X157351763Y-73503182D01*
X157350859Y-73510622D01*
X157350858Y-73510629D01*
X157336234Y-73631076D01*
X157332722Y-73660000D01*
X157333626Y-73667445D01*
X157350858Y-73809370D01*
X157350859Y-73809375D01*
X157351763Y-73816818D01*
X157354422Y-73823831D01*
X157354423Y-73823832D01*
X157398399Y-73939789D01*
X157407780Y-73964523D01*
X157412043Y-73970699D01*
X157487621Y-74080194D01*
X157497517Y-74094530D01*
X157503126Y-74099499D01*
X157503127Y-74099500D01*
X157601652Y-74186785D01*
X157615760Y-74199283D01*
X157755634Y-74272695D01*
X157755635Y-74272696D01*
X157755029Y-74273848D01*
X157798308Y-74304373D01*
X157825347Y-74359921D01*
X157822227Y-74421621D01*
X157789724Y-74474158D01*
X157585430Y-74670286D01*
X157584861Y-74669693D01*
X157584839Y-74669715D01*
X157585423Y-74670290D01*
X157585359Y-74670355D01*
X157585294Y-74670418D01*
X157584724Y-74669830D01*
X157584702Y-74669852D01*
X157585290Y-74670425D01*
X157356533Y-74904970D01*
X157355903Y-74904356D01*
X157355880Y-74904381D01*
X157356525Y-74904975D01*
X157356455Y-74905051D01*
X157356401Y-74905107D01*
X157355771Y-74904499D01*
X157355750Y-74904521D01*
X157356398Y-74905113D01*
X157134620Y-75147986D01*
X157133887Y-75147316D01*
X157133867Y-75147340D01*
X157134613Y-75147991D01*
X157134551Y-75148062D01*
X157134493Y-75148127D01*
X157133757Y-75147470D01*
X157133739Y-75147492D01*
X157134490Y-75148134D01*
X156920062Y-75399076D01*
X156919469Y-75398569D01*
X156919431Y-75398617D01*
X156920047Y-75399086D01*
X156919996Y-75399153D01*
X156919945Y-75399214D01*
X156919350Y-75398717D01*
X156919313Y-75398763D01*
X156919939Y-75399229D01*
X156768830Y-75602091D01*
X156767924Y-75601416D01*
X156767895Y-75601458D01*
X156768820Y-75602099D01*
X156768766Y-75602177D01*
X156768719Y-75602242D01*
X156767808Y-75601583D01*
X156767782Y-75601622D01*
X156768716Y-75602252D01*
X156616873Y-75827287D01*
X156616144Y-75826795D01*
X156616132Y-75826812D01*
X156616869Y-75827290D01*
X156616821Y-75827364D01*
X156616766Y-75827446D01*
X156616031Y-75826953D01*
X156616019Y-75826971D01*
X156616764Y-75827451D01*
X156491245Y-76022299D01*
X156489356Y-76021082D01*
X156489349Y-76021089D01*
X156491244Y-76022300D01*
X156491221Y-76022336D01*
X156491141Y-76022461D01*
X156491107Y-76022439D01*
X156491103Y-76022443D01*
X156491139Y-76022466D01*
X156367970Y-76219745D01*
X156361582Y-76229976D01*
X156361580Y-76229978D01*
X156360198Y-76232193D01*
X156359680Y-76231870D01*
X156359673Y-76231877D01*
X156360197Y-76232195D01*
X156360177Y-76232228D01*
X156360096Y-76232358D01*
X156359539Y-76232011D01*
X156359530Y-76232019D01*
X156360095Y-76232362D01*
X156227848Y-76450220D01*
X156227847Y-76450219D01*
X156225924Y-76449052D01*
X156225922Y-76449054D01*
X156227846Y-76450220D01*
X156227826Y-76450253D01*
X156227827Y-76450254D01*
X156227748Y-76450385D01*
X156227747Y-76450384D01*
X156227745Y-76450388D01*
X156227747Y-76450389D01*
X156098383Y-76669501D01*
X156098324Y-76669601D01*
X156098312Y-76669623D01*
X156098310Y-76669626D01*
X156098263Y-76669706D01*
X156098214Y-76669791D01*
X156098213Y-76669794D01*
X155975743Y-76883591D01*
X155975611Y-76883824D01*
X155975612Y-76883825D01*
X155864154Y-77085557D01*
X155863047Y-77084945D01*
X155863035Y-77084968D01*
X155864151Y-77085560D01*
X155864116Y-77085626D01*
X155864061Y-77085726D01*
X155862956Y-77085118D01*
X155862942Y-77085143D01*
X155864060Y-77085732D01*
X155767765Y-77268581D01*
X155766687Y-77268013D01*
X155766673Y-77268041D01*
X155767761Y-77268585D01*
X155767720Y-77268667D01*
X155767676Y-77268751D01*
X155766598Y-77268186D01*
X155766584Y-77268214D01*
X155767675Y-77268757D01*
X155713963Y-77376779D01*
X155712999Y-77376299D01*
X155712984Y-77376332D01*
X155713958Y-77376785D01*
X155713925Y-77376856D01*
X155713880Y-77376948D01*
X155712919Y-77376478D01*
X155712903Y-77376514D01*
X155713879Y-77376958D01*
X155615133Y-77594116D01*
X155614392Y-77593779D01*
X155614302Y-77593988D01*
X155615055Y-77594297D01*
X155516286Y-77835476D01*
X155514753Y-77834848D01*
X155514735Y-77834896D01*
X155516280Y-77835483D01*
X155516242Y-77835583D01*
X155516214Y-77835653D01*
X155514681Y-77835039D01*
X155514665Y-77835081D01*
X155516214Y-77835660D01*
X155418362Y-78097698D01*
X155416889Y-78097148D01*
X155416874Y-78097189D01*
X155418357Y-78097704D01*
X155418323Y-78097802D01*
X155418295Y-78097878D01*
X155416821Y-78097335D01*
X155416807Y-78097373D01*
X155418295Y-78097884D01*
X155322298Y-78377612D01*
X155322296Y-78377611D01*
X155322294Y-78377616D01*
X155322295Y-78377617D01*
X155322264Y-78377710D01*
X155322236Y-78377795D01*
X155322235Y-78377794D01*
X155322234Y-78377798D01*
X155322236Y-78377799D01*
X155259753Y-78572491D01*
X155259752Y-78572490D01*
X155259692Y-78572679D01*
X155259694Y-78572680D01*
X155198729Y-78772888D01*
X155198080Y-78772690D01*
X155198077Y-78772703D01*
X155198727Y-78772892D01*
X155198695Y-78773002D01*
X155198673Y-78773075D01*
X155198030Y-78772881D01*
X155198027Y-78772890D01*
X155198673Y-78773077D01*
X155139506Y-78977871D01*
X155138858Y-78977683D01*
X155138855Y-78977693D01*
X155139505Y-78977873D01*
X155139489Y-78977931D01*
X155139453Y-78978056D01*
X155138809Y-78977870D01*
X155138806Y-78977882D01*
X155139453Y-78978060D01*
X155082362Y-79186494D01*
X155081180Y-79186170D01*
X155081176Y-79186185D01*
X155082360Y-79186497D01*
X155082335Y-79186592D01*
X155082311Y-79186681D01*
X155081126Y-79186361D01*
X155081122Y-79186375D01*
X155082311Y-79186684D01*
X155027573Y-79397824D01*
X155027572Y-79397823D01*
X155027571Y-79397826D01*
X155027572Y-79397827D01*
X155027555Y-79397893D01*
X155027523Y-79398015D01*
X155027525Y-79398016D01*
X154975420Y-79610923D01*
X154975418Y-79610927D01*
X154975393Y-79611031D01*
X154975374Y-79611113D01*
X154975374Y-79611116D01*
X154975354Y-79611202D01*
X154926178Y-79824855D01*
X154926176Y-79824854D01*
X154926175Y-79824858D01*
X154926176Y-79824859D01*
X154926149Y-79824981D01*
X154926134Y-79825044D01*
X154923360Y-79824438D01*
X154923356Y-79824448D01*
X154926134Y-79825046D01*
X154926135Y-79825047D01*
X154880126Y-80038682D01*
X154879809Y-80038613D01*
X154879808Y-80038620D01*
X154880125Y-80038685D01*
X154880108Y-80038768D01*
X154880086Y-80038872D01*
X154879774Y-80038806D01*
X154879772Y-80038813D01*
X154880086Y-80038876D01*
X154837544Y-80251462D01*
X154836874Y-80251327D01*
X154836872Y-80251338D01*
X154837542Y-80251466D01*
X154837525Y-80251555D01*
X154837506Y-80251653D01*
X154836832Y-80251522D01*
X154836830Y-80251532D01*
X154837506Y-80251657D01*
X154798705Y-80462283D01*
X154797998Y-80462152D01*
X154797988Y-80462225D01*
X154798696Y-80462301D01*
X154798689Y-80462367D01*
X154798674Y-80462453D01*
X154797974Y-80462330D01*
X154797963Y-80462409D01*
X154798679Y-80462477D01*
X154775210Y-80710783D01*
X154774005Y-80710669D01*
X154774001Y-80710725D01*
X154775206Y-80710793D01*
X154775201Y-80710882D01*
X154775193Y-80710970D01*
X154773993Y-80710860D01*
X154773990Y-80710916D01*
X154775196Y-80710980D01*
X154764519Y-80913766D01*
X154764518Y-80913765D01*
X154764518Y-80913769D01*
X154764514Y-80913851D01*
X154764509Y-80913961D01*
X154761815Y-80913838D01*
X154761814Y-80913858D01*
X154764510Y-80913964D01*
X154754583Y-81166643D01*
X154754582Y-81166672D01*
X154754574Y-81166877D01*
X154754574Y-81166879D01*
X154754536Y-81167855D01*
X154754297Y-81167845D01*
X154754296Y-81167849D01*
X154754536Y-81167857D01*
X154754535Y-81167888D01*
X154754529Y-81168050D01*
X154754241Y-81168039D01*
X154754240Y-81168043D01*
X154754530Y-81168052D01*
X154745256Y-81472218D01*
X154742615Y-81472137D01*
X154742614Y-81472156D01*
X154745257Y-81472221D01*
X154736696Y-81825232D01*
X154736458Y-81825226D01*
X154736457Y-81825229D01*
X154736696Y-81825234D01*
X154728837Y-82226655D01*
X154728681Y-82226651D01*
X154728680Y-82226654D01*
X154728837Y-82226657D01*
X154721695Y-82674664D01*
X154721541Y-82674661D01*
X154721541Y-82674663D01*
X154721695Y-82674665D01*
X154715267Y-83168438D01*
X154715263Y-83168817D01*
X154715263Y-83168819D01*
X154711413Y-83531731D01*
X154710094Y-83656167D01*
X154709545Y-83707887D01*
X154709545Y-83707888D01*
X154704540Y-84291036D01*
X154704540Y-84291037D01*
X154704538Y-84291336D01*
X154700253Y-84916836D01*
X154700253Y-84916838D01*
X154696685Y-85584254D01*
X154696685Y-85584343D01*
X154696684Y-85584508D01*
X154693835Y-86292654D01*
X154693835Y-86292656D01*
X154691706Y-87040805D01*
X154691705Y-87040806D01*
X154691706Y-87040807D01*
X154690299Y-87827675D01*
X154690299Y-87827676D01*
X154689615Y-88652229D01*
X154689615Y-88652230D01*
X154689654Y-89513436D01*
X154686661Y-89513436D01*
X154686661Y-89513438D01*
X154689655Y-89513436D01*
X154690420Y-90410263D01*
X154687435Y-90410265D01*
X154687435Y-90410267D01*
X154690421Y-90410263D01*
X154691914Y-91341675D01*
X154688935Y-91341679D01*
X154688935Y-91341681D01*
X154691915Y-91341675D01*
X154694137Y-92306840D01*
X154694137Y-92306841D01*
X154697090Y-93304325D01*
X154697090Y-93304326D01*
X154700773Y-94333301D01*
X154700773Y-94333303D01*
X154705190Y-95392730D01*
X154705190Y-95392732D01*
X154710339Y-96481384D01*
X154710339Y-96481385D01*
X154716225Y-97598623D01*
X154716225Y-97598626D01*
X154722848Y-98743220D01*
X154722848Y-98743223D01*
X154730208Y-99914142D01*
X154730208Y-99914144D01*
X154738309Y-101110354D01*
X154738309Y-101110356D01*
X154747150Y-102330824D01*
X154747150Y-102330826D01*
X154756733Y-103574518D01*
X154756733Y-103574520D01*
X154767060Y-104840406D01*
X154767060Y-104840407D01*
X154772738Y-105524319D01*
X154772738Y-105524340D01*
X154778007Y-106172692D01*
X154778007Y-106172719D01*
X154782862Y-106786444D01*
X154782862Y-106786477D01*
X154787295Y-107366291D01*
X154787297Y-107366492D01*
X154787297Y-107366496D01*
X154791310Y-107913762D01*
X154791310Y-107913809D01*
X154794894Y-108429167D01*
X154794894Y-108429222D01*
X154798044Y-108913410D01*
X154798044Y-108913412D01*
X154798045Y-108913566D01*
X154798046Y-108913630D01*
X154800761Y-109368066D01*
X154800761Y-109368144D01*
X154803033Y-109793306D01*
X154803009Y-109793306D01*
X154803034Y-109793394D01*
X154803034Y-109793399D01*
X154803035Y-109793399D01*
X154804861Y-110190743D01*
X154804861Y-110190852D01*
X154806236Y-110560354D01*
X154806237Y-110560624D01*
X154807156Y-110904152D01*
X154807156Y-110904305D01*
X154807615Y-111222061D01*
X154807615Y-111222245D01*
X154807610Y-111515442D01*
X154807610Y-111515658D01*
X154807135Y-111785662D01*
X154807134Y-111785920D01*
X154806186Y-112032999D01*
X154806185Y-112033308D01*
X154804759Y-112258625D01*
X154804756Y-112258998D01*
X154802848Y-112463231D01*
X154802839Y-112463943D01*
X154797569Y-112813346D01*
X154797541Y-112814717D01*
X154790306Y-113091474D01*
X154790230Y-113093633D01*
X154781080Y-113303526D01*
X154780772Y-113308400D01*
X154764193Y-113507817D01*
X154759564Y-113532586D01*
X154747269Y-113574319D01*
X154723812Y-113618384D01*
X154684878Y-113649628D01*
X154636778Y-113662987D01*
X154447165Y-113675945D01*
X154442342Y-113676181D01*
X154202648Y-113683203D01*
X154201704Y-113683227D01*
X153890334Y-113689975D01*
X153889743Y-113689986D01*
X153512104Y-113696371D01*
X153511783Y-113696376D01*
X153299601Y-113699413D01*
X153299602Y-113699414D01*
X153299538Y-113699415D01*
X153299200Y-113699420D01*
X153071512Y-113702357D01*
X153071511Y-113702343D01*
X153071355Y-113702360D01*
X152828795Y-113705191D01*
X152828794Y-113705191D01*
X152828791Y-113705191D01*
X152828659Y-113705192D01*
X152572068Y-113707906D01*
X152572067Y-113707905D01*
X152572067Y-113707906D01*
X152301563Y-113710505D01*
X152301454Y-113710506D01*
X152017499Y-113712984D01*
X151720553Y-113715337D01*
X151411127Y-113717559D01*
X151089667Y-113719647D01*
X150756623Y-113721597D01*
X150756549Y-113721597D01*
X150412356Y-113723406D01*
X150057359Y-113725068D01*
X150057292Y-113725068D01*
X149697766Y-113726557D01*
X149692234Y-113726580D01*
X149692170Y-113726580D01*
X149317309Y-113727937D01*
X149317247Y-113727937D01*
X148933352Y-113729135D01*
X148933029Y-113729135D01*
X148933030Y-113729136D01*
X148539849Y-113730172D01*
X148539790Y-113730172D01*
X148138206Y-113731041D01*
X148138150Y-113731041D01*
X147728550Y-113731740D01*
X147728494Y-113731740D01*
X147311328Y-113732264D01*
X147311273Y-113732264D01*
X146886987Y-113732609D01*
X146886986Y-113732608D01*
X146886986Y-113732609D01*
X146455973Y-113732771D01*
X146455972Y-113732770D01*
X146455972Y-113732771D01*
X145917214Y-113732854D01*
X145853057Y-113714978D01*
X145807403Y-113666488D01*
X145793421Y-113601371D01*
X145815145Y-113538415D01*
X145868220Y-113461523D01*
X145924237Y-113313818D01*
X145943278Y-113157000D01*
X145924237Y-113000182D01*
X145868220Y-112852477D01*
X145809425Y-112767297D01*
X145782742Y-112728640D01*
X145782741Y-112728639D01*
X145778483Y-112722470D01*
X145691725Y-112645610D01*
X145665856Y-112622692D01*
X145665854Y-112622690D01*
X145660240Y-112617717D01*
X145653595Y-112614229D01*
X145653593Y-112614228D01*
X145527006Y-112547789D01*
X145527002Y-112547787D01*
X145520365Y-112544304D01*
X145513087Y-112542510D01*
X145513084Y-112542509D01*
X145374267Y-112508294D01*
X145374260Y-112508293D01*
X145366985Y-112506500D01*
X145209015Y-112506500D01*
X145201740Y-112508292D01*
X145201732Y-112508294D01*
X145062915Y-112542509D01*
X145062909Y-112542510D01*
X145055635Y-112544304D01*
X145049000Y-112547786D01*
X145048993Y-112547789D01*
X144922406Y-112614228D01*
X144922400Y-112614231D01*
X144915760Y-112617717D01*
X144910148Y-112622687D01*
X144910143Y-112622692D01*
X144803129Y-112717497D01*
X144803123Y-112717502D01*
X144797517Y-112722470D01*
X144793256Y-112728642D01*
X144788285Y-112734255D01*
X144787449Y-112733514D01*
X144749318Y-112767297D01*
X144691692Y-112781500D01*
X139398899Y-112781500D01*
X139351446Y-112772061D01*
X139311218Y-112745181D01*
X138968819Y-112402781D01*
X138941939Y-112362553D01*
X138932500Y-112315100D01*
X138932500Y-75235804D01*
X138935139Y-75210358D01*
X138935141Y-75210344D01*
X138937367Y-75199732D01*
X138933451Y-75168323D01*
X138933128Y-75163107D01*
X138932923Y-75163125D01*
X138932500Y-75158023D01*
X138932500Y-75152886D01*
X138929079Y-75132385D01*
X138928341Y-75127327D01*
X138921866Y-75075375D01*
X138918373Y-75068230D01*
X138917065Y-75060390D01*
X138892149Y-75014350D01*
X138889822Y-75009829D01*
X138871338Y-74972017D01*
X138871335Y-74972013D01*
X138866826Y-74962789D01*
X138861202Y-74957165D01*
X138857419Y-74950174D01*
X138818892Y-74914707D01*
X138815218Y-74911181D01*
X135176150Y-71272112D01*
X135160022Y-71252251D01*
X135159706Y-71251768D01*
X135159703Y-71251765D01*
X135154084Y-71243164D01*
X135129109Y-71223725D01*
X135125190Y-71220264D01*
X135125058Y-71220421D01*
X135121143Y-71217105D01*
X135117518Y-71213480D01*
X135100591Y-71201395D01*
X135096481Y-71198330D01*
X135063297Y-71172502D01*
X135055189Y-71166191D01*
X135047668Y-71163609D01*
X135041199Y-71158990D01*
X135031353Y-71156058D01*
X135031350Y-71156057D01*
X134991043Y-71144056D01*
X134986167Y-71142494D01*
X134946381Y-71128836D01*
X134946374Y-71128834D01*
X134936660Y-71125500D01*
X134928706Y-71125500D01*
X134921088Y-71123232D01*
X134910823Y-71123656D01*
X134910820Y-71123656D01*
X134868807Y-71125394D01*
X134863684Y-71125500D01*
X125400805Y-71125500D01*
X125375356Y-71122860D01*
X125374790Y-71122741D01*
X125374783Y-71122740D01*
X125364732Y-71120633D01*
X125354541Y-71121903D01*
X125354537Y-71121903D01*
X125333324Y-71124548D01*
X125328109Y-71124871D01*
X125328126Y-71125076D01*
X125323007Y-71125500D01*
X125317886Y-71125500D01*
X125312838Y-71126342D01*
X125312828Y-71126343D01*
X125297394Y-71128918D01*
X125292334Y-71129655D01*
X125250571Y-71134861D01*
X125250560Y-71134864D01*
X125240374Y-71136134D01*
X125233229Y-71139626D01*
X125225390Y-71140935D01*
X125216361Y-71145820D01*
X125216358Y-71145822D01*
X125179369Y-71165838D01*
X125174821Y-71168179D01*
X125137017Y-71186662D01*
X125137015Y-71186663D01*
X125127789Y-71191174D01*
X125122165Y-71196797D01*
X125115174Y-71200581D01*
X125108221Y-71208132D01*
X125108219Y-71208135D01*
X125079717Y-71239095D01*
X125076171Y-71242790D01*
X122181781Y-74137181D01*
X122141553Y-74164061D01*
X122094100Y-74173500D01*
X120865308Y-74173500D01*
X120807682Y-74159297D01*
X120769550Y-74125514D01*
X120768715Y-74126255D01*
X120763744Y-74120644D01*
X120759483Y-74114470D01*
X120742585Y-74099500D01*
X120646856Y-74014692D01*
X120646854Y-74014690D01*
X120641240Y-74009717D01*
X120634595Y-74006229D01*
X120634593Y-74006228D01*
X120508006Y-73939789D01*
X120508002Y-73939787D01*
X120501365Y-73936304D01*
X120494087Y-73934510D01*
X120494084Y-73934509D01*
X120355267Y-73900294D01*
X120355260Y-73900293D01*
X120347985Y-73898500D01*
X120190015Y-73898500D01*
X120182740Y-73900292D01*
X120182732Y-73900294D01*
X120043915Y-73934509D01*
X120043909Y-73934510D01*
X120036635Y-73936304D01*
X120030000Y-73939786D01*
X120029993Y-73939789D01*
X119903406Y-74006228D01*
X119903400Y-74006231D01*
X119896760Y-74009717D01*
X119891148Y-74014687D01*
X119891143Y-74014692D01*
X119784127Y-74109499D01*
X119784122Y-74109503D01*
X119778517Y-74114470D01*
X119774262Y-74120634D01*
X119774257Y-74120640D01*
X119693043Y-74238300D01*
X119693040Y-74238303D01*
X119688780Y-74244477D01*
X119686120Y-74251488D01*
X119686118Y-74251494D01*
X119635423Y-74385167D01*
X119632763Y-74392182D01*
X119631859Y-74399622D01*
X119631858Y-74399629D01*
X119621941Y-74481309D01*
X119613722Y-74549000D01*
X119614626Y-74556445D01*
X119631858Y-74698370D01*
X119631859Y-74698375D01*
X119632763Y-74705818D01*
X119635422Y-74712831D01*
X119635423Y-74712832D01*
X119675484Y-74818466D01*
X119688780Y-74853523D01*
X119693043Y-74859699D01*
X119771997Y-74974085D01*
X119778517Y-74983530D01*
X119784126Y-74988499D01*
X119784127Y-74988500D01*
X119882188Y-75075374D01*
X119896760Y-75088283D01*
X120036635Y-75161696D01*
X120190015Y-75199500D01*
X120340485Y-75199500D01*
X120347985Y-75199500D01*
X120501365Y-75161696D01*
X120641240Y-75088283D01*
X120759483Y-74983530D01*
X120763745Y-74977354D01*
X120768715Y-74971745D01*
X120769550Y-74972485D01*
X120807682Y-74938703D01*
X120865308Y-74924500D01*
X122010336Y-74924500D01*
X122065782Y-74937587D01*
X122109525Y-74974085D01*
X122132331Y-75026290D01*
X122129387Y-75083184D01*
X122101313Y-75132755D01*
X121969758Y-75274805D01*
X121969044Y-75274144D01*
X121969033Y-75274158D01*
X121969754Y-75274808D01*
X121969690Y-75274879D01*
X121969628Y-75274947D01*
X121968916Y-75274298D01*
X121968904Y-75274311D01*
X121969626Y-75274952D01*
X121791192Y-75475941D01*
X121790522Y-75475346D01*
X121790512Y-75475358D01*
X121791188Y-75475944D01*
X121791142Y-75475997D01*
X121791065Y-75476085D01*
X121790395Y-75475499D01*
X121790382Y-75475515D01*
X121791062Y-75476092D01*
X121623432Y-75673913D01*
X121622482Y-75673108D01*
X121622463Y-75673132D01*
X121623426Y-75673917D01*
X121623364Y-75673993D01*
X121623309Y-75674059D01*
X121622355Y-75673264D01*
X121622338Y-75673285D01*
X121623307Y-75674064D01*
X121468264Y-75866971D01*
X121467482Y-75866343D01*
X121467465Y-75866365D01*
X121468259Y-75866975D01*
X121468216Y-75867031D01*
X121468146Y-75867119D01*
X121467367Y-75866499D01*
X121467346Y-75866526D01*
X121468143Y-75867128D01*
X121327477Y-76053361D01*
X121326647Y-76052734D01*
X121326625Y-76052764D01*
X121327469Y-76053367D01*
X121327414Y-76053444D01*
X121327363Y-76053513D01*
X121326528Y-76052895D01*
X121326507Y-76052923D01*
X121327360Y-76053521D01*
X121202856Y-76231333D01*
X121202087Y-76230794D01*
X121202066Y-76230826D01*
X121202849Y-76231339D01*
X121202796Y-76231420D01*
X121202748Y-76231489D01*
X121201981Y-76230955D01*
X121201961Y-76230985D01*
X121202746Y-76231496D01*
X121066221Y-76441331D01*
X121064978Y-76440522D01*
X121064964Y-76440543D01*
X121066217Y-76441334D01*
X121066176Y-76441399D01*
X121066117Y-76441491D01*
X121064867Y-76440690D01*
X121064850Y-76440716D01*
X121066115Y-76441498D01*
X120930899Y-76660379D01*
X120930043Y-76659850D01*
X120930032Y-76659870D01*
X120930894Y-76660384D01*
X120930835Y-76660483D01*
X120930798Y-76660544D01*
X120929942Y-76660024D01*
X120929933Y-76660039D01*
X120930797Y-76660548D01*
X120799534Y-76883327D01*
X120799304Y-76883191D01*
X120799301Y-76883197D01*
X120799532Y-76883330D01*
X120799501Y-76883384D01*
X120799438Y-76883492D01*
X120799219Y-76883364D01*
X120799215Y-76883373D01*
X120799437Y-76883498D01*
X120674780Y-77105010D01*
X120674777Y-77105008D01*
X120674774Y-77105014D01*
X120674775Y-77105015D01*
X120674716Y-77105123D01*
X120674715Y-77105122D01*
X120674704Y-77105144D01*
X120674716Y-77105123D01*
X120674685Y-77105180D01*
X120672060Y-77103752D01*
X120672051Y-77103769D01*
X120674685Y-77105182D01*
X120559278Y-77320278D01*
X120558724Y-77319981D01*
X120558715Y-77319996D01*
X120559273Y-77320283D01*
X120559217Y-77320392D01*
X120559187Y-77320449D01*
X120558626Y-77320153D01*
X120558620Y-77320164D01*
X120559186Y-77320452D01*
X120455679Y-77523971D01*
X120454955Y-77523602D01*
X120454944Y-77523625D01*
X120455675Y-77523976D01*
X120455639Y-77524051D01*
X120455593Y-77524142D01*
X120454874Y-77523778D01*
X120454863Y-77523801D01*
X120455592Y-77524149D01*
X120366633Y-77710931D01*
X120365779Y-77710524D01*
X120365759Y-77710567D01*
X120366626Y-77710939D01*
X120366590Y-77711023D01*
X120366553Y-77711101D01*
X120365702Y-77710697D01*
X120365683Y-77710740D01*
X120366552Y-77711111D01*
X120279994Y-77913851D01*
X120278657Y-77916979D01*
X120278655Y-77916985D01*
X120275115Y-77925278D01*
X120274890Y-77925181D01*
X120274873Y-77925225D01*
X120275099Y-77925298D01*
X120275075Y-77925373D01*
X120275047Y-77925439D01*
X120274828Y-77925346D01*
X120274813Y-77925388D01*
X120275046Y-77925462D01*
X120272084Y-77934783D01*
X120272082Y-77934789D01*
X120271710Y-77935961D01*
X120271709Y-77935963D01*
X120216077Y-78111070D01*
X120216075Y-78111078D01*
X120213277Y-78119886D01*
X120213255Y-78119926D01*
X120213249Y-78119973D01*
X120213233Y-78120025D01*
X120213237Y-78120076D01*
X120212177Y-78129145D01*
X120212177Y-78129149D01*
X120209592Y-78151283D01*
X120199729Y-78187288D01*
X120137661Y-78326845D01*
X120136902Y-78328518D01*
X120050220Y-78515890D01*
X120050220Y-78515892D01*
X120046243Y-78524489D01*
X120046222Y-78524515D01*
X120046202Y-78524577D01*
X120046174Y-78524639D01*
X120046172Y-78524672D01*
X120043285Y-78533866D01*
X120043285Y-78533867D01*
X119978473Y-78740313D01*
X119977431Y-78739985D01*
X119977418Y-78740033D01*
X119978468Y-78740321D01*
X119978448Y-78740394D01*
X119978418Y-78740491D01*
X119977381Y-78740170D01*
X119977368Y-78740221D01*
X119978419Y-78740503D01*
X119925618Y-78937294D01*
X119922714Y-78936514D01*
X119922694Y-78936560D01*
X119925618Y-78937300D01*
X119872733Y-79146235D01*
X119872570Y-79146874D01*
X119819022Y-79353797D01*
X119818834Y-79354513D01*
X119762931Y-79565337D01*
X119762552Y-79566731D01*
X119710709Y-79753437D01*
X119710163Y-79753285D01*
X119710158Y-79753306D01*
X119710706Y-79753443D01*
X119710685Y-79753527D01*
X119710659Y-79753621D01*
X119710117Y-79753471D01*
X119710112Y-79753491D01*
X119710659Y-79753628D01*
X119643069Y-80025283D01*
X119642293Y-80025090D01*
X119642279Y-80025159D01*
X119643059Y-80025300D01*
X119643044Y-80025383D01*
X119643026Y-80025458D01*
X119642255Y-80025273D01*
X119642241Y-80025338D01*
X119643028Y-80025475D01*
X119604875Y-80245363D01*
X119603783Y-80245173D01*
X119603775Y-80245232D01*
X119604870Y-80245373D01*
X119604861Y-80245443D01*
X119604844Y-80245544D01*
X119603757Y-80245361D01*
X119603748Y-80245425D01*
X119604847Y-80245559D01*
X119571979Y-80515511D01*
X119570954Y-80515386D01*
X119570950Y-80515429D01*
X119571975Y-80515521D01*
X119571967Y-80515611D01*
X119571957Y-80515698D01*
X119570936Y-80515580D01*
X119570932Y-80515622D01*
X119571959Y-80515707D01*
X119544174Y-80852029D01*
X119543082Y-80851938D01*
X119543079Y-80851968D01*
X119544171Y-80852037D01*
X119544164Y-80852148D01*
X119544159Y-80852220D01*
X119543067Y-80852144D01*
X119543065Y-80852165D01*
X119544160Y-80852225D01*
X119521258Y-81271216D01*
X119520251Y-81271160D01*
X119520251Y-81271177D01*
X119521257Y-81271220D01*
X119521253Y-81271314D01*
X119521248Y-81271411D01*
X119520250Y-81271359D01*
X119520250Y-81271374D01*
X119521249Y-81271414D01*
X119511570Y-81516904D01*
X119511202Y-81516889D01*
X119511201Y-81516894D01*
X119511570Y-81516906D01*
X119511569Y-81516937D01*
X119511563Y-81517100D01*
X119511146Y-81517084D01*
X119511145Y-81517088D01*
X119511563Y-81517102D01*
X119503025Y-81789566D01*
X119500400Y-81789483D01*
X119500399Y-81789504D01*
X119503026Y-81789569D01*
X119495611Y-82090651D01*
X119495421Y-82090646D01*
X119495420Y-82090649D01*
X119495611Y-82090653D01*
X119489288Y-82422784D01*
X119489160Y-82422781D01*
X119489159Y-82422784D01*
X119489288Y-82422786D01*
X119485665Y-82674665D01*
X119484040Y-82787537D01*
X119484040Y-82787539D01*
X119484037Y-82787808D01*
X119483967Y-82787806D01*
X119483966Y-82787809D01*
X119484037Y-82787810D01*
X119479832Y-83187580D01*
X119479829Y-83187957D01*
X119479829Y-83187958D01*
X119477389Y-83522494D01*
X119476644Y-83624675D01*
X119476643Y-83624845D01*
X119474454Y-84100589D01*
X119474453Y-84100591D01*
X119474454Y-84100592D01*
X119473235Y-84617545D01*
X119473235Y-84617547D01*
X119472960Y-85177577D01*
X119472960Y-85177578D01*
X119473603Y-85782721D01*
X119470556Y-85782724D01*
X119470556Y-85782728D01*
X119473604Y-85782721D01*
X119475144Y-86435212D01*
X119475144Y-86435213D01*
X119477552Y-87136693D01*
X119477552Y-87136695D01*
X119480805Y-87889396D01*
X119477888Y-87889408D01*
X119477888Y-87889412D01*
X119480806Y-87889398D01*
X119484876Y-88695161D01*
X119484876Y-88695164D01*
X119489741Y-89556425D01*
X119489741Y-89556428D01*
X119495375Y-90475024D01*
X119495375Y-90475026D01*
X119501753Y-91452995D01*
X119501753Y-91452997D01*
X119508848Y-92492376D01*
X119508848Y-92492378D01*
X119516637Y-93595203D01*
X119516637Y-93595205D01*
X119525094Y-94763514D01*
X119525094Y-94763516D01*
X119529849Y-95421532D01*
X119529849Y-95421552D01*
X119534497Y-96079195D01*
X119534497Y-96079214D01*
X119539033Y-96735487D01*
X119539033Y-96735506D01*
X119543453Y-97389392D01*
X119543453Y-97389411D01*
X119547750Y-98039896D01*
X119547750Y-98039915D01*
X119551919Y-98685737D01*
X119551921Y-98685984D01*
X119555960Y-99326636D01*
X119555960Y-99326655D01*
X119559863Y-99960841D01*
X119559863Y-99960860D01*
X119563625Y-100587584D01*
X119563625Y-100587603D01*
X119567241Y-101205846D01*
X119567241Y-101205865D01*
X119570707Y-101814615D01*
X119570707Y-101814635D01*
X119574017Y-102412875D01*
X119574017Y-102412895D01*
X119577166Y-102999609D01*
X119577166Y-102999630D01*
X119580151Y-103573807D01*
X119580148Y-103573807D01*
X119580152Y-103573834D01*
X119582964Y-104134155D01*
X119582965Y-104134311D01*
X119582966Y-104134444D01*
X119585606Y-104680710D01*
X119585606Y-104680734D01*
X119588067Y-105211192D01*
X119588067Y-105211218D01*
X119590343Y-105725070D01*
X119590343Y-105725098D01*
X119592429Y-106221332D01*
X119592429Y-106221362D01*
X119594322Y-106698961D01*
X119594322Y-106698993D01*
X119596016Y-107156943D01*
X119596016Y-107156979D01*
X119597507Y-107594261D01*
X119597507Y-107594302D01*
X119598787Y-108009518D01*
X119598788Y-108009900D01*
X119598788Y-108009901D01*
X119599857Y-108402841D01*
X119599857Y-108402892D01*
X119600708Y-108771882D01*
X119600708Y-108771943D01*
X119601334Y-109116392D01*
X119601325Y-109116392D01*
X119601335Y-109116466D01*
X119601734Y-109435162D01*
X119601720Y-109435162D01*
X119601735Y-109435249D01*
X119601902Y-109727177D01*
X119601902Y-109727283D01*
X119601833Y-109991288D01*
X119601833Y-109991420D01*
X119601561Y-110196982D01*
X119601521Y-110226875D01*
X119601521Y-110226876D01*
X119601176Y-110353996D01*
X119600963Y-110432294D01*
X119600962Y-110432531D01*
X119600152Y-110607369D01*
X119600126Y-110607368D01*
X119600152Y-110607529D01*
X119582691Y-113569378D01*
X119565889Y-113630978D01*
X119520664Y-113676051D01*
X119459008Y-113692647D01*
X111220203Y-113713594D01*
X111220190Y-113713594D01*
X110611479Y-113715076D01*
X110611450Y-113715076D01*
X110031001Y-113716354D01*
X110030967Y-113716354D01*
X109478175Y-113717420D01*
X109478136Y-113717420D01*
X108952411Y-113718270D01*
X108952366Y-113718270D01*
X108453118Y-113718896D01*
X108453067Y-113718896D01*
X107979706Y-113719294D01*
X107979705Y-113719293D01*
X107979705Y-113719294D01*
X107531669Y-113719456D01*
X107531602Y-113719456D01*
X107108353Y-113719381D01*
X106709032Y-113719058D01*
X106333228Y-113718482D01*
X105980349Y-113717649D01*
X105980349Y-113717648D01*
X105980047Y-113717648D01*
X105649936Y-113716552D01*
X105649800Y-113716515D01*
X105649800Y-113716552D01*
X105340902Y-113715185D01*
X105340891Y-113715184D01*
X105340742Y-113715184D01*
X105053324Y-113713543D01*
X105053140Y-113713492D01*
X105053140Y-113713542D01*
X104786047Y-113711619D01*
X104786012Y-113711618D01*
X104785829Y-113711617D01*
X104539270Y-113709410D01*
X104539018Y-113709340D01*
X104539018Y-113709408D01*
X104311382Y-113706906D01*
X104311082Y-113706902D01*
X104102572Y-113704106D01*
X104102012Y-113704097D01*
X103738851Y-113697584D01*
X103737810Y-113697561D01*
X103443352Y-113689808D01*
X103441765Y-113689756D01*
X103211738Y-113680751D01*
X103208244Y-113680565D01*
X102979213Y-113665116D01*
X102960142Y-113662328D01*
X102913717Y-113651803D01*
X102864491Y-113628350D01*
X102830085Y-113586047D01*
X102817153Y-113533079D01*
X102813117Y-113306013D01*
X102813104Y-113305005D01*
X102811805Y-113127182D01*
X102811347Y-113064521D01*
X102811346Y-113064298D01*
X102809666Y-112759350D01*
X102809665Y-112759205D01*
X102809650Y-112755826D01*
X102808074Y-112392791D01*
X102808073Y-112392790D01*
X102808089Y-112392789D01*
X102808072Y-112392686D01*
X102806568Y-111966141D01*
X102806579Y-111966140D01*
X102806566Y-111966064D01*
X102805150Y-111481120D01*
X102805159Y-111481119D01*
X102805148Y-111481065D01*
X102803820Y-110939446D01*
X102803826Y-110939445D01*
X102803818Y-110939398D01*
X102802580Y-110342841D01*
X102802580Y-110342840D01*
X102802585Y-110342839D01*
X102802578Y-110342801D01*
X102801432Y-109693022D01*
X102801436Y-109693021D01*
X102801430Y-109692989D01*
X102800377Y-108991710D01*
X102800380Y-108991709D01*
X102800375Y-108991683D01*
X102799414Y-108240624D01*
X102799417Y-108240623D01*
X102799412Y-108240598D01*
X102798547Y-107441484D01*
X102798549Y-107441483D01*
X102798545Y-107441463D01*
X102797776Y-106596010D01*
X102797778Y-106596009D01*
X102797774Y-106595990D01*
X102797102Y-105705920D01*
X102797103Y-105705919D01*
X102797100Y-105705903D01*
X102796526Y-104772934D01*
X102796527Y-104772933D01*
X102796524Y-104772918D01*
X102796050Y-103798772D01*
X102796051Y-103798771D01*
X102796048Y-103798758D01*
X102795675Y-102785153D01*
X102795676Y-102785152D01*
X102795673Y-102785139D01*
X102795401Y-101733796D01*
X102795402Y-101733795D01*
X102795399Y-101733782D01*
X102795231Y-100646422D01*
X102795231Y-100646421D01*
X102795229Y-100646412D01*
X102795165Y-99524749D01*
X102795204Y-98370497D01*
X102795350Y-97185386D01*
X102795604Y-95971135D01*
X102795967Y-94729464D01*
X102796440Y-93462092D01*
X102797024Y-92170739D01*
X102797543Y-91193445D01*
X102797721Y-90857132D01*
X102797721Y-90857123D01*
X102798532Y-89522975D01*
X102798532Y-89522965D01*
X102799458Y-88169994D01*
X102799458Y-88169985D01*
X102800500Y-86799906D01*
X102800500Y-86799901D01*
X102801471Y-85584343D01*
X102808865Y-76332163D01*
X102828399Y-76265460D01*
X102880758Y-76219745D01*
X102949489Y-76209384D01*
X103006581Y-76234780D01*
X103007482Y-76233519D01*
X103024389Y-76245590D01*
X103028500Y-76248655D01*
X103069811Y-76280809D01*
X103077331Y-76283390D01*
X103083801Y-76288010D01*
X103133940Y-76302937D01*
X103138822Y-76304501D01*
X103161066Y-76312137D01*
X103188340Y-76321500D01*
X103196293Y-76321500D01*
X103203911Y-76323768D01*
X103256191Y-76321606D01*
X103261315Y-76321500D01*
X104097500Y-76321500D01*
X104122949Y-76324140D01*
X104123514Y-76324258D01*
X104123515Y-76324258D01*
X104133573Y-76326367D01*
X104164981Y-76322451D01*
X104170192Y-76322128D01*
X104170176Y-76321924D01*
X104175291Y-76321500D01*
X104180419Y-76321500D01*
X104200941Y-76318074D01*
X104205971Y-76317342D01*
X104257931Y-76310866D01*
X104265075Y-76307373D01*
X104272915Y-76306065D01*
X104318952Y-76281150D01*
X104323469Y-76278825D01*
X104370516Y-76255826D01*
X104376139Y-76250202D01*
X104383131Y-76246419D01*
X104418622Y-76207863D01*
X104422099Y-76204241D01*
X106025522Y-74600818D01*
X106065750Y-74573939D01*
X106113203Y-74564500D01*
X106243485Y-74564500D01*
X106250985Y-74564500D01*
X106404365Y-74526696D01*
X106544240Y-74453283D01*
X106662483Y-74348530D01*
X106752220Y-74218523D01*
X106808237Y-74070818D01*
X106827278Y-73914000D01*
X106808237Y-73757182D01*
X106752220Y-73609477D01*
X106662483Y-73479470D01*
X106631442Y-73451970D01*
X106549856Y-73379692D01*
X106549854Y-73379690D01*
X106544240Y-73374717D01*
X106537595Y-73371229D01*
X106537593Y-73371228D01*
X106411006Y-73304789D01*
X106411002Y-73304787D01*
X106404365Y-73301304D01*
X106397087Y-73299510D01*
X106397084Y-73299509D01*
X106258267Y-73265294D01*
X106258260Y-73265293D01*
X106250985Y-73263500D01*
X106093015Y-73263500D01*
X106085740Y-73265292D01*
X106085732Y-73265294D01*
X105946915Y-73299509D01*
X105946909Y-73299510D01*
X105939635Y-73301304D01*
X105933000Y-73304786D01*
X105932993Y-73304789D01*
X105806406Y-73371228D01*
X105806400Y-73371231D01*
X105799760Y-73374717D01*
X105794148Y-73379687D01*
X105794143Y-73379692D01*
X105687127Y-73474499D01*
X105687122Y-73474503D01*
X105681517Y-73479470D01*
X105677262Y-73485634D01*
X105677257Y-73485640D01*
X105596043Y-73603300D01*
X105596040Y-73603303D01*
X105591780Y-73609477D01*
X105589120Y-73616488D01*
X105589118Y-73616494D01*
X105546634Y-73728517D01*
X105535763Y-73757182D01*
X105534859Y-73764622D01*
X105534858Y-73764629D01*
X105521176Y-73877314D01*
X105516722Y-73914000D01*
X105517626Y-73921445D01*
X105517626Y-73921448D01*
X105523903Y-73973153D01*
X105518024Y-74028547D01*
X105488488Y-74075778D01*
X104030086Y-75534181D01*
X103989858Y-75561061D01*
X103942405Y-75570500D01*
X103457900Y-75570500D01*
X103410447Y-75561061D01*
X103370219Y-75534181D01*
X103346001Y-75509963D01*
X103319121Y-75469735D01*
X103309682Y-75422282D01*
X103309682Y-75312669D01*
X103309801Y-75163490D01*
X103314289Y-69547500D01*
X111437222Y-69547500D01*
X111438126Y-69554945D01*
X111455358Y-69696870D01*
X111455359Y-69696875D01*
X111456263Y-69704318D01*
X111512280Y-69852023D01*
X111602017Y-69982030D01*
X111607626Y-69986999D01*
X111607627Y-69987000D01*
X111642788Y-70018150D01*
X111720260Y-70086783D01*
X111860135Y-70160196D01*
X112013515Y-70198000D01*
X112163985Y-70198000D01*
X112171485Y-70198000D01*
X112324865Y-70160196D01*
X112464740Y-70086783D01*
X112582983Y-69982030D01*
X112672720Y-69852023D01*
X112728737Y-69704318D01*
X112729641Y-69696868D01*
X112731436Y-69689589D01*
X112732481Y-69689846D01*
X112750602Y-69642063D01*
X112795027Y-69602704D01*
X112852654Y-69588500D01*
X113675500Y-69588500D01*
X113737500Y-69605113D01*
X113782887Y-69650500D01*
X113799500Y-69712500D01*
X113799500Y-74090342D01*
X113793885Y-74127232D01*
X113777550Y-74160782D01*
X113724043Y-74238300D01*
X113724040Y-74238303D01*
X113719780Y-74244477D01*
X113717120Y-74251488D01*
X113717118Y-74251494D01*
X113666423Y-74385167D01*
X113663763Y-74392182D01*
X113662859Y-74399622D01*
X113662858Y-74399629D01*
X113652941Y-74481309D01*
X113644722Y-74549000D01*
X113645626Y-74556445D01*
X113662858Y-74698370D01*
X113662859Y-74698375D01*
X113663763Y-74705818D01*
X113666422Y-74712831D01*
X113666423Y-74712832D01*
X113706484Y-74818466D01*
X113719780Y-74853523D01*
X113724043Y-74859699D01*
X113777550Y-74937218D01*
X113793885Y-74970768D01*
X113799500Y-75007658D01*
X113799500Y-79424342D01*
X113793885Y-79461232D01*
X113777550Y-79494782D01*
X113724043Y-79572300D01*
X113724040Y-79572303D01*
X113719780Y-79578477D01*
X113717120Y-79585488D01*
X113717118Y-79585494D01*
X113666423Y-79719167D01*
X113663763Y-79726182D01*
X113662859Y-79733622D01*
X113662858Y-79733629D01*
X113647539Y-79859802D01*
X113644722Y-79883000D01*
X113645626Y-79890445D01*
X113662858Y-80032370D01*
X113662859Y-80032375D01*
X113663763Y-80039818D01*
X113666422Y-80046831D01*
X113666423Y-80046832D01*
X113693382Y-80117919D01*
X113719780Y-80187523D01*
X113724043Y-80193699D01*
X113777550Y-80271218D01*
X113793885Y-80304768D01*
X113799500Y-80341658D01*
X113799500Y-84758342D01*
X113793885Y-84795232D01*
X113777550Y-84828782D01*
X113724043Y-84906300D01*
X113724040Y-84906303D01*
X113719780Y-84912477D01*
X113717120Y-84919488D01*
X113717118Y-84919494D01*
X113666423Y-85053167D01*
X113663763Y-85060182D01*
X113662859Y-85067622D01*
X113662858Y-85067629D01*
X113646070Y-85205896D01*
X113644722Y-85217000D01*
X113645626Y-85224445D01*
X113662858Y-85366370D01*
X113662859Y-85366375D01*
X113663763Y-85373818D01*
X113719780Y-85521523D01*
X113724043Y-85527699D01*
X113777550Y-85605218D01*
X113793885Y-85638768D01*
X113799500Y-85675658D01*
X113799500Y-90092342D01*
X113793885Y-90129232D01*
X113777550Y-90162782D01*
X113724043Y-90240300D01*
X113724040Y-90240303D01*
X113719780Y-90246477D01*
X113717120Y-90253488D01*
X113717118Y-90253494D01*
X113666423Y-90387167D01*
X113663763Y-90394182D01*
X113662859Y-90401622D01*
X113662858Y-90401629D01*
X113653923Y-90475219D01*
X113644722Y-90551000D01*
X113645626Y-90558445D01*
X113662858Y-90700370D01*
X113662859Y-90700375D01*
X113663763Y-90707818D01*
X113666422Y-90714831D01*
X113666423Y-90714832D01*
X113697881Y-90797782D01*
X113719780Y-90855523D01*
X113724043Y-90861699D01*
X113777550Y-90939218D01*
X113793885Y-90972768D01*
X113799500Y-91009658D01*
X113799500Y-95299342D01*
X113793885Y-95336232D01*
X113777550Y-95369782D01*
X113724043Y-95447300D01*
X113724040Y-95447303D01*
X113719780Y-95453477D01*
X113717120Y-95460488D01*
X113717118Y-95460494D01*
X113666423Y-95594167D01*
X113663763Y-95601182D01*
X113662859Y-95608622D01*
X113662858Y-95608629D01*
X113646070Y-95746896D01*
X113644722Y-95758000D01*
X113645626Y-95765445D01*
X113662858Y-95907370D01*
X113662859Y-95907375D01*
X113663763Y-95914818D01*
X113666422Y-95921831D01*
X113666423Y-95921832D01*
X113684119Y-95968494D01*
X113719780Y-96062523D01*
X113724043Y-96068699D01*
X113777550Y-96146218D01*
X113793885Y-96179768D01*
X113799500Y-96216658D01*
X113799500Y-100633342D01*
X113793885Y-100670232D01*
X113777550Y-100703782D01*
X113724043Y-100781300D01*
X113724040Y-100781303D01*
X113719780Y-100787477D01*
X113717120Y-100794488D01*
X113717118Y-100794494D01*
X113666423Y-100928167D01*
X113663763Y-100935182D01*
X113662859Y-100942622D01*
X113662858Y-100942629D01*
X113646070Y-101080896D01*
X113644722Y-101092000D01*
X113645626Y-101099445D01*
X113662858Y-101241370D01*
X113662859Y-101241375D01*
X113663763Y-101248818D01*
X113719780Y-101396523D01*
X113724043Y-101402699D01*
X113777550Y-101480218D01*
X113793885Y-101513768D01*
X113799500Y-101550658D01*
X113799500Y-105967342D01*
X113793885Y-106004232D01*
X113777550Y-106037782D01*
X113724043Y-106115300D01*
X113724040Y-106115303D01*
X113719780Y-106121477D01*
X113717120Y-106128488D01*
X113717118Y-106128494D01*
X113667252Y-106259982D01*
X113663763Y-106269182D01*
X113662859Y-106276622D01*
X113662858Y-106276629D01*
X113646070Y-106414896D01*
X113644722Y-106426000D01*
X113645626Y-106433445D01*
X113662858Y-106575370D01*
X113662859Y-106575375D01*
X113663763Y-106582818D01*
X113666422Y-106589831D01*
X113666423Y-106589832D01*
X113707810Y-106698962D01*
X113719780Y-106730523D01*
X113724043Y-106736699D01*
X113777550Y-106814218D01*
X113793885Y-106847768D01*
X113799500Y-106884658D01*
X113799500Y-110192844D01*
X113793885Y-110229734D01*
X113777550Y-110263284D01*
X113724043Y-110340802D01*
X113724040Y-110340805D01*
X113719780Y-110346979D01*
X113717120Y-110353990D01*
X113717118Y-110353996D01*
X113666423Y-110487669D01*
X113663763Y-110494684D01*
X113662859Y-110502124D01*
X113662858Y-110502131D01*
X113650080Y-110607374D01*
X113644722Y-110651502D01*
X113645626Y-110658947D01*
X113662858Y-110800872D01*
X113662859Y-110800877D01*
X113663763Y-110808320D01*
X113666422Y-110815333D01*
X113666423Y-110815334D01*
X113704033Y-110914505D01*
X113719780Y-110956025D01*
X113724043Y-110962201D01*
X113789132Y-111056500D01*
X113809517Y-111086032D01*
X113815126Y-111091001D01*
X113815127Y-111091002D01*
X113917913Y-111182062D01*
X113927760Y-111190785D01*
X114067635Y-111264198D01*
X114221015Y-111302002D01*
X114371485Y-111302002D01*
X114378985Y-111302002D01*
X114532365Y-111264198D01*
X114672240Y-111190785D01*
X114790483Y-111086032D01*
X114880220Y-110956025D01*
X114936237Y-110808320D01*
X114955278Y-110651502D01*
X114936237Y-110494684D01*
X114880220Y-110346979D01*
X114822450Y-110263284D01*
X114806115Y-110229734D01*
X114800500Y-110192844D01*
X114800500Y-106884658D01*
X114806115Y-106847768D01*
X114822450Y-106814218D01*
X114841619Y-106786446D01*
X114880220Y-106730523D01*
X114936237Y-106582818D01*
X114955278Y-106426000D01*
X114936237Y-106269182D01*
X114880220Y-106121477D01*
X114822450Y-106037782D01*
X114806115Y-106004232D01*
X114800500Y-105967342D01*
X114800500Y-101550658D01*
X114806115Y-101513768D01*
X114822450Y-101480218D01*
X114832571Y-101465555D01*
X114880220Y-101396523D01*
X114936237Y-101248818D01*
X114955278Y-101092000D01*
X114936237Y-100935182D01*
X114880220Y-100787477D01*
X114822450Y-100703782D01*
X114806115Y-100670232D01*
X114800500Y-100633342D01*
X114800500Y-96216658D01*
X114806115Y-96179768D01*
X114822450Y-96146218D01*
X114829848Y-96135498D01*
X114880220Y-96062523D01*
X114936237Y-95914818D01*
X114955278Y-95758000D01*
X114936237Y-95601182D01*
X114880220Y-95453477D01*
X114822450Y-95369782D01*
X114806115Y-95336232D01*
X114800500Y-95299342D01*
X114800500Y-91009658D01*
X114806115Y-90972768D01*
X114822450Y-90939218D01*
X114829848Y-90928498D01*
X114880220Y-90855523D01*
X114936237Y-90707818D01*
X114955278Y-90551000D01*
X114936237Y-90394182D01*
X114880220Y-90246477D01*
X114822450Y-90162782D01*
X114806115Y-90129232D01*
X114800500Y-90092342D01*
X114800500Y-85675658D01*
X114806115Y-85638768D01*
X114822450Y-85605218D01*
X114854364Y-85558982D01*
X114880220Y-85521523D01*
X114936237Y-85373818D01*
X114955278Y-85217000D01*
X114936237Y-85060182D01*
X114880220Y-84912477D01*
X114822450Y-84828782D01*
X114806115Y-84795232D01*
X114800500Y-84758342D01*
X114800500Y-80341658D01*
X114806115Y-80304768D01*
X114822450Y-80271218D01*
X114835952Y-80251657D01*
X114880220Y-80187523D01*
X114936237Y-80039818D01*
X114955278Y-79883000D01*
X114936237Y-79726182D01*
X114880220Y-79578477D01*
X114822450Y-79494782D01*
X114806115Y-79461232D01*
X114800500Y-79424342D01*
X114800500Y-75007658D01*
X114806115Y-74970768D01*
X114822450Y-74937218D01*
X114841882Y-74909065D01*
X114880220Y-74853523D01*
X114936237Y-74705818D01*
X114955278Y-74549000D01*
X114936237Y-74392182D01*
X114880220Y-74244477D01*
X114822450Y-74160782D01*
X114806115Y-74127232D01*
X114800500Y-74090342D01*
X114800500Y-71656225D01*
X120472571Y-71656225D01*
X120473475Y-71663670D01*
X120490707Y-71805595D01*
X120490708Y-71805600D01*
X120491612Y-71813043D01*
X120494271Y-71820056D01*
X120494272Y-71820057D01*
X120541123Y-71943595D01*
X120547629Y-71960748D01*
X120551892Y-71966924D01*
X120630856Y-72081325D01*
X120637366Y-72090755D01*
X120642975Y-72095724D01*
X120642976Y-72095725D01*
X120747033Y-72187911D01*
X120755609Y-72195508D01*
X120826706Y-72232823D01*
X120872694Y-72256960D01*
X120895484Y-72268921D01*
X121048864Y-72306725D01*
X121199334Y-72306725D01*
X121206834Y-72306725D01*
X121360214Y-72268921D01*
X121500089Y-72195508D01*
X121508666Y-72187908D01*
X121546920Y-72164783D01*
X121590892Y-72156725D01*
X122840631Y-72156725D01*
X122854180Y-72158181D01*
X122854189Y-72158066D01*
X122863035Y-72158698D01*
X122871702Y-72160584D01*
X122921236Y-72157040D01*
X122930083Y-72156725D01*
X122939140Y-72156725D01*
X122943574Y-72156725D01*
X122956937Y-72154803D01*
X122965724Y-72153858D01*
X123015258Y-72150316D01*
X123023568Y-72147215D01*
X123032235Y-72145331D01*
X123032259Y-72145445D01*
X123032977Y-72145262D01*
X123032944Y-72145150D01*
X123041450Y-72142652D01*
X123050232Y-72141390D01*
X123095422Y-72120751D01*
X123103562Y-72117380D01*
X123150106Y-72100021D01*
X123157208Y-72094703D01*
X123164994Y-72090453D01*
X123165049Y-72090555D01*
X123165683Y-72090179D01*
X123165620Y-72090080D01*
X123173076Y-72085287D01*
X123181148Y-72081602D01*
X123218678Y-72049080D01*
X123225550Y-72043543D01*
X123236368Y-72035446D01*
X123245917Y-72025895D01*
X123252379Y-72019878D01*
X123289918Y-71987353D01*
X123294712Y-71979892D01*
X123300524Y-71973186D01*
X123300611Y-71973261D01*
X123309157Y-71962655D01*
X125755783Y-69516030D01*
X125813787Y-69483316D01*
X125962365Y-69446696D01*
X126102240Y-69373283D01*
X126220483Y-69268530D01*
X126310220Y-69138523D01*
X126350038Y-69033529D01*
X126376552Y-68991602D01*
X126417377Y-68963423D01*
X126465981Y-68953500D01*
X128499761Y-68953500D01*
X128536651Y-68959115D01*
X128568426Y-68974586D01*
X128572199Y-68977928D01*
X128712074Y-69051341D01*
X128865454Y-69089145D01*
X129015924Y-69089145D01*
X129023424Y-69089145D01*
X129176804Y-69051341D01*
X129316679Y-68977928D01*
X129320451Y-68974586D01*
X129352227Y-68959115D01*
X129389117Y-68953500D01*
X133902957Y-68953500D01*
X133946929Y-68961558D01*
X133985182Y-68984683D01*
X133993760Y-68992283D01*
X134133635Y-69065696D01*
X134287015Y-69103500D01*
X134437485Y-69103500D01*
X134444985Y-69103500D01*
X134598365Y-69065696D01*
X134738240Y-68992283D01*
X134746817Y-68984683D01*
X134785071Y-68961558D01*
X134829043Y-68953500D01*
X135377324Y-68953500D01*
X135424777Y-68962939D01*
X135465005Y-68989819D01*
X139425613Y-72950427D01*
X139434164Y-72961038D01*
X139434252Y-72960963D01*
X139440063Y-72967668D01*
X139444857Y-72975128D01*
X139482400Y-73007658D01*
X139488862Y-73013676D01*
X139498407Y-73023221D01*
X139502908Y-73026590D01*
X139509207Y-73031306D01*
X139516099Y-73036860D01*
X139546919Y-73063566D01*
X139546925Y-73063570D01*
X139553627Y-73069377D01*
X139561694Y-73073061D01*
X139569154Y-73077855D01*
X139569090Y-73077953D01*
X139569729Y-73078332D01*
X139569785Y-73078230D01*
X139577565Y-73082478D01*
X139584669Y-73087796D01*
X139631222Y-73105159D01*
X139639360Y-73108530D01*
X139684543Y-73129165D01*
X139693326Y-73130427D01*
X139701832Y-73132925D01*
X139701798Y-73133037D01*
X139702515Y-73133220D01*
X139702540Y-73133106D01*
X139711204Y-73134990D01*
X139719517Y-73138091D01*
X139766895Y-73141479D01*
X139812230Y-73153626D01*
X139849803Y-73181752D01*
X139874231Y-73221828D01*
X139888102Y-73259017D01*
X139888105Y-73259022D01*
X139891204Y-73267331D01*
X139896519Y-73274431D01*
X139900768Y-73282212D01*
X139900666Y-73282267D01*
X139901046Y-73282907D01*
X139901143Y-73282845D01*
X139905939Y-73290307D01*
X139909623Y-73298373D01*
X139942147Y-73335907D01*
X139947688Y-73342785D01*
X139955779Y-73353593D01*
X139958916Y-73356730D01*
X139965322Y-73363136D01*
X139971354Y-73369615D01*
X139998065Y-73400442D01*
X139998067Y-73400444D01*
X140003872Y-73407143D01*
X140011328Y-73411934D01*
X140018037Y-73417748D01*
X140017961Y-73417835D01*
X140028571Y-73426385D01*
X143100181Y-76497995D01*
X143127061Y-76538223D01*
X143136500Y-76585676D01*
X143136500Y-78154342D01*
X143130885Y-78191232D01*
X143114550Y-78224782D01*
X143061043Y-78302300D01*
X143061040Y-78302303D01*
X143056780Y-78308477D01*
X143054120Y-78315488D01*
X143054118Y-78315494D01*
X143003423Y-78449167D01*
X143000763Y-78456182D01*
X142999859Y-78463622D01*
X142999858Y-78463629D01*
X142983070Y-78601896D01*
X142981722Y-78613000D01*
X142982626Y-78620445D01*
X142999858Y-78762370D01*
X142999859Y-78762375D01*
X143000763Y-78769818D01*
X143003422Y-78776831D01*
X143003423Y-78776832D01*
X143042711Y-78880428D01*
X143056780Y-78917523D01*
X143061043Y-78923699D01*
X143114550Y-79001218D01*
X143130885Y-79034768D01*
X143136500Y-79071658D01*
X143136500Y-83361342D01*
X143130885Y-83398232D01*
X143114550Y-83431782D01*
X143061043Y-83509300D01*
X143061040Y-83509303D01*
X143056780Y-83515477D01*
X143054120Y-83522488D01*
X143054118Y-83522494D01*
X143015302Y-83624845D01*
X143000763Y-83663182D01*
X142999859Y-83670622D01*
X142999858Y-83670629D01*
X142994518Y-83714613D01*
X142981722Y-83820000D01*
X142982626Y-83827445D01*
X142999858Y-83969370D01*
X142999859Y-83969375D01*
X143000763Y-83976818D01*
X143003422Y-83983831D01*
X143003423Y-83983832D01*
X143047703Y-84100591D01*
X143056780Y-84124523D01*
X143061043Y-84130699D01*
X143114550Y-84208218D01*
X143130885Y-84241768D01*
X143136500Y-84278658D01*
X143136500Y-88949342D01*
X143130885Y-88986232D01*
X143114550Y-89019782D01*
X143061043Y-89097300D01*
X143061040Y-89097303D01*
X143056780Y-89103477D01*
X143054120Y-89110488D01*
X143054118Y-89110494D01*
X143003423Y-89244167D01*
X143000763Y-89251182D01*
X142999859Y-89258622D01*
X142999858Y-89258629D01*
X142984725Y-89383268D01*
X142981722Y-89408000D01*
X142982626Y-89415445D01*
X142999858Y-89557370D01*
X142999859Y-89557375D01*
X143000763Y-89564818D01*
X143056780Y-89712523D01*
X143061043Y-89718699D01*
X143114550Y-89796218D01*
X143130885Y-89829768D01*
X143136500Y-89866658D01*
X143136500Y-94283342D01*
X143130885Y-94320232D01*
X143114550Y-94353782D01*
X143061043Y-94431300D01*
X143061040Y-94431303D01*
X143056780Y-94437477D01*
X143054120Y-94444488D01*
X143054118Y-94444494D01*
X143003423Y-94578167D01*
X143000763Y-94585182D01*
X142999859Y-94592622D01*
X142999858Y-94592629D01*
X142983244Y-94729463D01*
X142981722Y-94742000D01*
X142982626Y-94749445D01*
X142999858Y-94891370D01*
X142999859Y-94891375D01*
X143000763Y-94898818D01*
X143003422Y-94905831D01*
X143003423Y-94905832D01*
X143011824Y-94927985D01*
X143056780Y-95046523D01*
X143061043Y-95052699D01*
X143114550Y-95130218D01*
X143130885Y-95163768D01*
X143136500Y-95200658D01*
X143136500Y-99617342D01*
X143130885Y-99654232D01*
X143114550Y-99687782D01*
X143061043Y-99765300D01*
X143061040Y-99765303D01*
X143056780Y-99771477D01*
X143054120Y-99778488D01*
X143054118Y-99778494D01*
X143003423Y-99912167D01*
X143000763Y-99919182D01*
X142999859Y-99926622D01*
X142999858Y-99926629D01*
X142983070Y-100064896D01*
X142981722Y-100076000D01*
X142982626Y-100083445D01*
X142999858Y-100225370D01*
X142999859Y-100225375D01*
X143000763Y-100232818D01*
X143056780Y-100380523D01*
X143061043Y-100386699D01*
X143114550Y-100464218D01*
X143130885Y-100497768D01*
X143136500Y-100534658D01*
X143136500Y-105078342D01*
X143130885Y-105115232D01*
X143114550Y-105148782D01*
X143061043Y-105226300D01*
X143061040Y-105226303D01*
X143056780Y-105232477D01*
X143054120Y-105239488D01*
X143054118Y-105239494D01*
X143003423Y-105373167D01*
X143000763Y-105380182D01*
X142999859Y-105387622D01*
X142999858Y-105387629D01*
X142983263Y-105524312D01*
X142981722Y-105537000D01*
X142982626Y-105544445D01*
X142999858Y-105686370D01*
X142999859Y-105686375D01*
X143000763Y-105693818D01*
X143003422Y-105700831D01*
X143003423Y-105700832D01*
X143012537Y-105724865D01*
X143056780Y-105841523D01*
X143061043Y-105847699D01*
X143114550Y-105925218D01*
X143130885Y-105958768D01*
X143136500Y-105995658D01*
X143136500Y-110158342D01*
X143130885Y-110195232D01*
X143114550Y-110228782D01*
X143061043Y-110306300D01*
X143061040Y-110306303D01*
X143056780Y-110312477D01*
X143054120Y-110319488D01*
X143054118Y-110319494D01*
X143003423Y-110453167D01*
X143000763Y-110460182D01*
X142999859Y-110467622D01*
X142999858Y-110467629D01*
X142986721Y-110575829D01*
X142981722Y-110617000D01*
X142982626Y-110624445D01*
X142999858Y-110766370D01*
X142999859Y-110766375D01*
X143000763Y-110773818D01*
X143003422Y-110780831D01*
X143003423Y-110780832D01*
X143050116Y-110903953D01*
X143056780Y-110921523D01*
X143061043Y-110927699D01*
X143096702Y-110979361D01*
X143146517Y-111051530D01*
X143264760Y-111156283D01*
X143404635Y-111229696D01*
X143558015Y-111267500D01*
X143708485Y-111267500D01*
X143715985Y-111267500D01*
X143869365Y-111229696D01*
X144009240Y-111156283D01*
X144127483Y-111051530D01*
X144217220Y-110921523D01*
X144273237Y-110773818D01*
X144292278Y-110617000D01*
X144273237Y-110460182D01*
X144217220Y-110312477D01*
X144159450Y-110228782D01*
X144143115Y-110195232D01*
X144137500Y-110158342D01*
X144137500Y-105995658D01*
X144143115Y-105958768D01*
X144159450Y-105925218D01*
X144166848Y-105914498D01*
X144217220Y-105841523D01*
X144273237Y-105693818D01*
X144292278Y-105537000D01*
X144273237Y-105380182D01*
X144217220Y-105232477D01*
X144159450Y-105148782D01*
X144143115Y-105115232D01*
X144137500Y-105078342D01*
X144137500Y-100534658D01*
X144143115Y-100497768D01*
X144159450Y-100464218D01*
X144166848Y-100453498D01*
X144217220Y-100380523D01*
X144273237Y-100232818D01*
X144292278Y-100076000D01*
X144273237Y-99919182D01*
X144217220Y-99771477D01*
X144159450Y-99687782D01*
X144143115Y-99654232D01*
X144137500Y-99617342D01*
X144137500Y-95200658D01*
X144143115Y-95163768D01*
X144159450Y-95130218D01*
X144166848Y-95119498D01*
X144217220Y-95046523D01*
X144273237Y-94898818D01*
X144292278Y-94742000D01*
X144273237Y-94585182D01*
X144217220Y-94437477D01*
X144159450Y-94353782D01*
X144143115Y-94320232D01*
X144137500Y-94283342D01*
X144137500Y-89866658D01*
X144143115Y-89829768D01*
X144159450Y-89796218D01*
X144166848Y-89785498D01*
X144217220Y-89712523D01*
X144273237Y-89564818D01*
X144292278Y-89408000D01*
X144273237Y-89251182D01*
X144217220Y-89103477D01*
X144159450Y-89019782D01*
X144143115Y-88986232D01*
X144137500Y-88949342D01*
X144137500Y-84278658D01*
X144143115Y-84241768D01*
X144159450Y-84208218D01*
X144166848Y-84197498D01*
X144217220Y-84124523D01*
X144273237Y-83976818D01*
X144292278Y-83820000D01*
X144273237Y-83663182D01*
X144217220Y-83515477D01*
X144159450Y-83431782D01*
X144143115Y-83398232D01*
X144137500Y-83361342D01*
X144137500Y-79071658D01*
X144143115Y-79034768D01*
X144159450Y-79001218D01*
X144175294Y-78978264D01*
X144217220Y-78917523D01*
X144273237Y-78769818D01*
X144292278Y-78613000D01*
X144273237Y-78456182D01*
X144217220Y-78308477D01*
X144159450Y-78224782D01*
X144143115Y-78191232D01*
X144137500Y-78154342D01*
X144137500Y-76394144D01*
X144138956Y-76380594D01*
X144138841Y-76380586D01*
X144139473Y-76371739D01*
X144141359Y-76363073D01*
X144137815Y-76313538D01*
X144137500Y-76304692D01*
X144137500Y-76295636D01*
X144137500Y-76291201D01*
X144135578Y-76277837D01*
X144134633Y-76269046D01*
X144131091Y-76219517D01*
X144127990Y-76211204D01*
X144126106Y-76202540D01*
X144126220Y-76202515D01*
X144126037Y-76201798D01*
X144125925Y-76201832D01*
X144123427Y-76193326D01*
X144122165Y-76184543D01*
X144101530Y-76139360D01*
X144098159Y-76131222D01*
X144080796Y-76084669D01*
X144075478Y-76077565D01*
X144071230Y-76069785D01*
X144071332Y-76069729D01*
X144070953Y-76069090D01*
X144070855Y-76069154D01*
X144066061Y-76061694D01*
X144062377Y-76053627D01*
X144056570Y-76046925D01*
X144056566Y-76046919D01*
X144029860Y-76016099D01*
X144024306Y-76009207D01*
X144022197Y-76006390D01*
X144016221Y-75998407D01*
X144006676Y-75988862D01*
X144000658Y-75982400D01*
X143968128Y-75944857D01*
X143960668Y-75940063D01*
X143953963Y-75934252D01*
X143954038Y-75934164D01*
X143943427Y-75925613D01*
X140985965Y-72968151D01*
X140959568Y-72929073D01*
X140949671Y-72882964D01*
X140957703Y-72836501D01*
X140971237Y-72800818D01*
X140990278Y-72644000D01*
X140971237Y-72487182D01*
X140915220Y-72339477D01*
X140839135Y-72229248D01*
X140829742Y-72215640D01*
X140829741Y-72215639D01*
X140825483Y-72209470D01*
X140817473Y-72202374D01*
X140712856Y-72109692D01*
X140712854Y-72109690D01*
X140707240Y-72104717D01*
X140700595Y-72101229D01*
X140700593Y-72101228D01*
X140574006Y-72034789D01*
X140574002Y-72034787D01*
X140567365Y-72031304D01*
X140560087Y-72029510D01*
X140560084Y-72029509D01*
X140421267Y-71995294D01*
X140421260Y-71995293D01*
X140413985Y-71993500D01*
X140256015Y-71993500D01*
X140248740Y-71995292D01*
X140248732Y-71995294D01*
X140109915Y-72029509D01*
X140109909Y-72029510D01*
X140102635Y-72031304D01*
X140095997Y-72034787D01*
X140095994Y-72034789D01*
X140065037Y-72051036D01*
X140014899Y-72065012D01*
X139963442Y-72057180D01*
X139919733Y-72028919D01*
X136037385Y-68146571D01*
X136028835Y-68135961D01*
X136028748Y-68136037D01*
X136022934Y-68129328D01*
X136018143Y-68121872D01*
X136011444Y-68116067D01*
X136011442Y-68116065D01*
X135980615Y-68089354D01*
X135974136Y-68083322D01*
X135967730Y-68076916D01*
X135967729Y-68076915D01*
X135964593Y-68073779D01*
X135953777Y-68065682D01*
X135946907Y-68060147D01*
X135909373Y-68027623D01*
X135901307Y-68023939D01*
X135893845Y-68019143D01*
X135893907Y-68019046D01*
X135893267Y-68018666D01*
X135893212Y-68018768D01*
X135885431Y-68014519D01*
X135878331Y-68009204D01*
X135870023Y-68006105D01*
X135870021Y-68006104D01*
X135831790Y-67991845D01*
X135823613Y-67988457D01*
X135786527Y-67971520D01*
X135786524Y-67971519D01*
X135778457Y-67967835D01*
X135769676Y-67966572D01*
X135761171Y-67964075D01*
X135761203Y-67963964D01*
X135760479Y-67963779D01*
X135760455Y-67963892D01*
X135751789Y-67962006D01*
X135743483Y-67958909D01*
X135734642Y-67958276D01*
X135734640Y-67958276D01*
X135693946Y-67955365D01*
X135685155Y-67954420D01*
X135671799Y-67952500D01*
X135667370Y-67952500D01*
X135658308Y-67952500D01*
X135649461Y-67952184D01*
X135608773Y-67949273D01*
X135608767Y-67949273D01*
X135599927Y-67948641D01*
X135591262Y-67950525D01*
X135582414Y-67951159D01*
X135582405Y-67951043D01*
X135568856Y-67952500D01*
X134829043Y-67952500D01*
X134785071Y-67944442D01*
X134746816Y-67921315D01*
X134738240Y-67913717D01*
X134704242Y-67895873D01*
X134605006Y-67843789D01*
X134605002Y-67843787D01*
X134598365Y-67840304D01*
X134591087Y-67838510D01*
X134591084Y-67838509D01*
X134452267Y-67804294D01*
X134452260Y-67804293D01*
X134444985Y-67802500D01*
X134287015Y-67802500D01*
X134279740Y-67804292D01*
X134279732Y-67804294D01*
X134140915Y-67838509D01*
X134140909Y-67838510D01*
X134133635Y-67840304D01*
X134127000Y-67843786D01*
X134126993Y-67843789D01*
X134000403Y-67910230D01*
X134000400Y-67910231D01*
X133993760Y-67913717D01*
X133985184Y-67921315D01*
X133946929Y-67944442D01*
X133902957Y-67952500D01*
X129423687Y-67952500D01*
X129379716Y-67944442D01*
X129341460Y-67921315D01*
X129322299Y-67904340D01*
X129322294Y-67904337D01*
X129316679Y-67899362D01*
X129310034Y-67895874D01*
X129310032Y-67895873D01*
X129183445Y-67829434D01*
X129183441Y-67829432D01*
X129176804Y-67825949D01*
X129169526Y-67824155D01*
X129169523Y-67824154D01*
X129030706Y-67789939D01*
X129030699Y-67789938D01*
X129023424Y-67788145D01*
X128865454Y-67788145D01*
X128858179Y-67789937D01*
X128858171Y-67789939D01*
X128719354Y-67824154D01*
X128719348Y-67824155D01*
X128712074Y-67825949D01*
X128705439Y-67829431D01*
X128705432Y-67829434D01*
X128578845Y-67895873D01*
X128578839Y-67895876D01*
X128572199Y-67899362D01*
X128566586Y-67904333D01*
X128566578Y-67904340D01*
X128547418Y-67921315D01*
X128509162Y-67944442D01*
X128465191Y-67952500D01*
X126178144Y-67952500D01*
X126164594Y-67951043D01*
X126164586Y-67951159D01*
X126155737Y-67950525D01*
X126147073Y-67948641D01*
X126138231Y-67949273D01*
X126138226Y-67949273D01*
X126097539Y-67952184D01*
X126088692Y-67952500D01*
X126075201Y-67952500D01*
X126070819Y-67953129D01*
X126070817Y-67953130D01*
X126061844Y-67954420D01*
X126053054Y-67955365D01*
X126012362Y-67958276D01*
X126012360Y-67958276D01*
X126003517Y-67958909D01*
X125995208Y-67962007D01*
X125986545Y-67963892D01*
X125986520Y-67963779D01*
X125985794Y-67963964D01*
X125985827Y-67964075D01*
X125977319Y-67966572D01*
X125968543Y-67967835D01*
X125960482Y-67971516D01*
X125960476Y-67971518D01*
X125923366Y-67988466D01*
X125915196Y-67991849D01*
X125902453Y-67996602D01*
X125876979Y-68006104D01*
X125876976Y-68006105D01*
X125868669Y-68009204D01*
X125861568Y-68014519D01*
X125853787Y-68018768D01*
X125853732Y-68018667D01*
X125853091Y-68019048D01*
X125853153Y-68019144D01*
X125845689Y-68023940D01*
X125837627Y-68027623D01*
X125830930Y-68033425D01*
X125830925Y-68033429D01*
X125800098Y-68060140D01*
X125793221Y-68065682D01*
X125785951Y-68071124D01*
X125785927Y-68071144D01*
X125782407Y-68073780D01*
X125779287Y-68076899D01*
X125779274Y-68076911D01*
X125772860Y-68083324D01*
X125766393Y-68089345D01*
X125735560Y-68116063D01*
X125735557Y-68116065D01*
X125728857Y-68121872D01*
X125724062Y-68129332D01*
X125718257Y-68136032D01*
X125718169Y-68135956D01*
X125709614Y-68146571D01*
X125704218Y-68151967D01*
X125646212Y-68184683D01*
X125504915Y-68219509D01*
X125504909Y-68219510D01*
X125497635Y-68221304D01*
X125491000Y-68224786D01*
X125490993Y-68224789D01*
X125364406Y-68291228D01*
X125364400Y-68291231D01*
X125357760Y-68294717D01*
X125352148Y-68299687D01*
X125352143Y-68299692D01*
X125245127Y-68394499D01*
X125245122Y-68394503D01*
X125239517Y-68399470D01*
X125235262Y-68405634D01*
X125235257Y-68405640D01*
X125154043Y-68523300D01*
X125154040Y-68523303D01*
X125149780Y-68529477D01*
X125147120Y-68536488D01*
X125147118Y-68536494D01*
X125096423Y-68670165D01*
X125096420Y-68670173D01*
X125093763Y-68677182D01*
X125092859Y-68684623D01*
X125092858Y-68684629D01*
X125087139Y-68731728D01*
X125075529Y-68771063D01*
X125051724Y-68804460D01*
X122736780Y-71119406D01*
X122696552Y-71146286D01*
X122649099Y-71155725D01*
X121590892Y-71155725D01*
X121546920Y-71147667D01*
X121508666Y-71124541D01*
X121500089Y-71116942D01*
X121475420Y-71103994D01*
X121366855Y-71047014D01*
X121366851Y-71047012D01*
X121360214Y-71043529D01*
X121352936Y-71041735D01*
X121352933Y-71041734D01*
X121214116Y-71007519D01*
X121214109Y-71007518D01*
X121206834Y-71005725D01*
X121048864Y-71005725D01*
X121041589Y-71007517D01*
X121041581Y-71007519D01*
X120902764Y-71041734D01*
X120902758Y-71041735D01*
X120895484Y-71043529D01*
X120888849Y-71047011D01*
X120888842Y-71047014D01*
X120762255Y-71113453D01*
X120762249Y-71113456D01*
X120755609Y-71116942D01*
X120749997Y-71121912D01*
X120749992Y-71121917D01*
X120642976Y-71216724D01*
X120642971Y-71216728D01*
X120637366Y-71221695D01*
X120633111Y-71227859D01*
X120633106Y-71227865D01*
X120551892Y-71345525D01*
X120551889Y-71345528D01*
X120547629Y-71351702D01*
X120544969Y-71358713D01*
X120544967Y-71358719D01*
X120494856Y-71490853D01*
X120491612Y-71499407D01*
X120490708Y-71506847D01*
X120490707Y-71506854D01*
X120479671Y-71597752D01*
X120472571Y-71656225D01*
X114800500Y-71656225D01*
X114800500Y-69546658D01*
X114806115Y-69509768D01*
X114822450Y-69476218D01*
X114845233Y-69443210D01*
X114880220Y-69392523D01*
X114936237Y-69244818D01*
X114955278Y-69088000D01*
X114936237Y-68931182D01*
X114880220Y-68783477D01*
X114802007Y-68670165D01*
X114794742Y-68659640D01*
X114794741Y-68659639D01*
X114790483Y-68653470D01*
X114737485Y-68606518D01*
X114677856Y-68553692D01*
X114677852Y-68553689D01*
X114672240Y-68548717D01*
X114665595Y-68545229D01*
X114665593Y-68545228D01*
X114539006Y-68478789D01*
X114539002Y-68478787D01*
X114532365Y-68475304D01*
X114525087Y-68473510D01*
X114525084Y-68473509D01*
X114386267Y-68439294D01*
X114386260Y-68439293D01*
X114378985Y-68437500D01*
X114221015Y-68437500D01*
X114213740Y-68439292D01*
X114213732Y-68439294D01*
X114074915Y-68473509D01*
X114074909Y-68473510D01*
X114067635Y-68475304D01*
X114061000Y-68478786D01*
X114060993Y-68478789D01*
X113934403Y-68545230D01*
X113934400Y-68545231D01*
X113927760Y-68548717D01*
X113919182Y-68556316D01*
X113880929Y-68579442D01*
X113836957Y-68587500D01*
X112619144Y-68587500D01*
X112605594Y-68586043D01*
X112605586Y-68586159D01*
X112596737Y-68585525D01*
X112588073Y-68583641D01*
X112579231Y-68584273D01*
X112579226Y-68584273D01*
X112538539Y-68587184D01*
X112529692Y-68587500D01*
X112516201Y-68587500D01*
X112511819Y-68588129D01*
X112511817Y-68588130D01*
X112502844Y-68589420D01*
X112494054Y-68590365D01*
X112453362Y-68593276D01*
X112453360Y-68593276D01*
X112444517Y-68593909D01*
X112436208Y-68597007D01*
X112427545Y-68598892D01*
X112427520Y-68598779D01*
X112426794Y-68598964D01*
X112426827Y-68599075D01*
X112418319Y-68601572D01*
X112409543Y-68602835D01*
X112401482Y-68606516D01*
X112401476Y-68606518D01*
X112364366Y-68623466D01*
X112356196Y-68626849D01*
X112343453Y-68631602D01*
X112317979Y-68641104D01*
X112317976Y-68641105D01*
X112309669Y-68644204D01*
X112302568Y-68649519D01*
X112294787Y-68653768D01*
X112294732Y-68653667D01*
X112294091Y-68654048D01*
X112294153Y-68654144D01*
X112286689Y-68658940D01*
X112278627Y-68662623D01*
X112271930Y-68668425D01*
X112271925Y-68668429D01*
X112241107Y-68695132D01*
X112234230Y-68700674D01*
X112226960Y-68706117D01*
X112226942Y-68706132D01*
X112223407Y-68708779D01*
X112220283Y-68711902D01*
X112220278Y-68711907D01*
X112213858Y-68718327D01*
X112207385Y-68724353D01*
X112176672Y-68750967D01*
X112169857Y-68756872D01*
X112165064Y-68764328D01*
X112159255Y-68771033D01*
X112159167Y-68770957D01*
X112150617Y-68781567D01*
X112066717Y-68865468D01*
X112008710Y-68898184D01*
X111867415Y-68933009D01*
X111867409Y-68933010D01*
X111860135Y-68934804D01*
X111853500Y-68938286D01*
X111853493Y-68938289D01*
X111726906Y-69004728D01*
X111726900Y-69004731D01*
X111720260Y-69008217D01*
X111714648Y-69013187D01*
X111714643Y-69013192D01*
X111607627Y-69107999D01*
X111607622Y-69108003D01*
X111602017Y-69112970D01*
X111597762Y-69119134D01*
X111597757Y-69119140D01*
X111516543Y-69236800D01*
X111516540Y-69236803D01*
X111512280Y-69242977D01*
X111509620Y-69249988D01*
X111509618Y-69249994D01*
X111458923Y-69383667D01*
X111456263Y-69390682D01*
X111455359Y-69398122D01*
X111455358Y-69398129D01*
X111442016Y-69508018D01*
X111437222Y-69547500D01*
X103314289Y-69547500D01*
X103318919Y-63754000D01*
X110088722Y-63754000D01*
X110089626Y-63761445D01*
X110106858Y-63903370D01*
X110106859Y-63903375D01*
X110107763Y-63910818D01*
X110110422Y-63917831D01*
X110110423Y-63917832D01*
X110160742Y-64050514D01*
X110163780Y-64058523D01*
X110168043Y-64064699D01*
X110217796Y-64136780D01*
X110253517Y-64188530D01*
X110259126Y-64193499D01*
X110259127Y-64193500D01*
X110346565Y-64270963D01*
X110371760Y-64293283D01*
X110511635Y-64366696D01*
X110518915Y-64368490D01*
X110518917Y-64368491D01*
X110660211Y-64403316D01*
X110718218Y-64436032D01*
X111511452Y-65229266D01*
X111539713Y-65272975D01*
X111557063Y-65318724D01*
X111560780Y-65328523D01*
X111565041Y-65334696D01*
X111643409Y-65448233D01*
X111650517Y-65458530D01*
X111768760Y-65563283D01*
X111908635Y-65636696D01*
X112062015Y-65674500D01*
X112212485Y-65674500D01*
X112219985Y-65674500D01*
X112373365Y-65636696D01*
X112513240Y-65563283D01*
X112631483Y-65458530D01*
X112721220Y-65328523D01*
X112777237Y-65180818D01*
X112796278Y-65024000D01*
X112777237Y-64867182D01*
X112721220Y-64719477D01*
X112657763Y-64627543D01*
X112635742Y-64595640D01*
X112635741Y-64595639D01*
X112631483Y-64589470D01*
X112564022Y-64529705D01*
X112518856Y-64489692D01*
X112518854Y-64489690D01*
X112513240Y-64484717D01*
X112506595Y-64481229D01*
X112506593Y-64481228D01*
X112380006Y-64414789D01*
X112380002Y-64414787D01*
X112373365Y-64411304D01*
X112366087Y-64409510D01*
X112366084Y-64409509D01*
X112227267Y-64375294D01*
X112227260Y-64375293D01*
X112219985Y-64373500D01*
X112212485Y-64373500D01*
X112122676Y-64373500D01*
X112075223Y-64364061D01*
X112034995Y-64337181D01*
X111422274Y-63724460D01*
X111398468Y-63691061D01*
X111386859Y-63651724D01*
X111385298Y-63638870D01*
X111380237Y-63597182D01*
X111324220Y-63449477D01*
X111241442Y-63329552D01*
X111238742Y-63325640D01*
X111238741Y-63325639D01*
X111234483Y-63319470D01*
X111228872Y-63314499D01*
X111121856Y-63219692D01*
X111121854Y-63219690D01*
X111116240Y-63214717D01*
X111109595Y-63211229D01*
X111109593Y-63211228D01*
X110983006Y-63144789D01*
X110983002Y-63144787D01*
X110976365Y-63141304D01*
X110969087Y-63139510D01*
X110969084Y-63139509D01*
X110830267Y-63105294D01*
X110830260Y-63105293D01*
X110822985Y-63103500D01*
X110665015Y-63103500D01*
X110657740Y-63105292D01*
X110657732Y-63105294D01*
X110518915Y-63139509D01*
X110518909Y-63139510D01*
X110511635Y-63141304D01*
X110505000Y-63144786D01*
X110504993Y-63144789D01*
X110378406Y-63211228D01*
X110378400Y-63211231D01*
X110371760Y-63214717D01*
X110366148Y-63219687D01*
X110366143Y-63219692D01*
X110259127Y-63314499D01*
X110259122Y-63314503D01*
X110253517Y-63319470D01*
X110249262Y-63325634D01*
X110249257Y-63325640D01*
X110168043Y-63443300D01*
X110168040Y-63443303D01*
X110163780Y-63449477D01*
X110161120Y-63456488D01*
X110161118Y-63456494D01*
X110112954Y-63583494D01*
X110107763Y-63597182D01*
X110106859Y-63604622D01*
X110106858Y-63604629D01*
X110091016Y-63735106D01*
X110088722Y-63754000D01*
X103318919Y-63754000D01*
X103320133Y-62235160D01*
X103329590Y-62187766D01*
X103356446Y-62147589D01*
X103624221Y-61879816D01*
X103664448Y-61852939D01*
X103711900Y-61843500D01*
X105067692Y-61843500D01*
X105125318Y-61857703D01*
X105163449Y-61891485D01*
X105164285Y-61890745D01*
X105169255Y-61896356D01*
X105173517Y-61902530D01*
X105179127Y-61907500D01*
X105179129Y-61907502D01*
X105277980Y-61995075D01*
X105291760Y-62007283D01*
X105431635Y-62080696D01*
X105585015Y-62118500D01*
X105735485Y-62118500D01*
X105742985Y-62118500D01*
X105896365Y-62080696D01*
X106036240Y-62007283D01*
X106154483Y-61902530D01*
X106244220Y-61772523D01*
X106300237Y-61624818D01*
X106319278Y-61468000D01*
X106300237Y-61311182D01*
X106244220Y-61163477D01*
X106178343Y-61068037D01*
X106158742Y-61039640D01*
X106158741Y-61039639D01*
X106154483Y-61033470D01*
X106147543Y-61027322D01*
X106041856Y-60933692D01*
X106041854Y-60933690D01*
X106036240Y-60928717D01*
X106029595Y-60925229D01*
X106029593Y-60925228D01*
X105903006Y-60858789D01*
X105903002Y-60858787D01*
X105896365Y-60855304D01*
X105889087Y-60853510D01*
X105889084Y-60853509D01*
X105750267Y-60819294D01*
X105750260Y-60819293D01*
X105742985Y-60817500D01*
X105585015Y-60817500D01*
X105577740Y-60819292D01*
X105577732Y-60819294D01*
X105438915Y-60853509D01*
X105438909Y-60853510D01*
X105431635Y-60855304D01*
X105425000Y-60858786D01*
X105424993Y-60858789D01*
X105298406Y-60925228D01*
X105298400Y-60925231D01*
X105291760Y-60928717D01*
X105286148Y-60933687D01*
X105286143Y-60933692D01*
X105179129Y-61028497D01*
X105179123Y-61028502D01*
X105173517Y-61033470D01*
X105169256Y-61039642D01*
X105164285Y-61045255D01*
X105163449Y-61044514D01*
X105125318Y-61078297D01*
X105067692Y-61092500D01*
X103556804Y-61092500D01*
X103531358Y-61089861D01*
X103530787Y-61089741D01*
X103530785Y-61089740D01*
X103520732Y-61087633D01*
X103510541Y-61088903D01*
X103510537Y-61088903D01*
X103489324Y-61091548D01*
X103484109Y-61091871D01*
X103484126Y-61092076D01*
X103479007Y-61092500D01*
X103473886Y-61092500D01*
X103468838Y-61093342D01*
X103468828Y-61093343D01*
X103453394Y-61095918D01*
X103448334Y-61096655D01*
X103406571Y-61101861D01*
X103406560Y-61101864D01*
X103396374Y-61103134D01*
X103389229Y-61106626D01*
X103381390Y-61107935D01*
X103372361Y-61112820D01*
X103372358Y-61112822D01*
X103335369Y-61132838D01*
X103330821Y-61135179D01*
X103293017Y-61153662D01*
X103293015Y-61153663D01*
X103283789Y-61158174D01*
X103278165Y-61163797D01*
X103271174Y-61167581D01*
X103264221Y-61175132D01*
X103264219Y-61175135D01*
X103235718Y-61206094D01*
X103232172Y-61209789D01*
X103032544Y-61409417D01*
X102983162Y-61439673D01*
X102925426Y-61444203D01*
X102871929Y-61422019D01*
X102834342Y-61377960D01*
X102820863Y-61321639D01*
X102821706Y-60267718D01*
X102821762Y-60198318D01*
X102838408Y-60136360D01*
X102883791Y-60091013D01*
X102945762Y-60074417D01*
X107616096Y-60074417D01*
X108010722Y-60074461D01*
X108010757Y-60074467D01*
X108010758Y-60074463D01*
X108383850Y-60074613D01*
X108383896Y-60074621D01*
X108383897Y-60074615D01*
X108736157Y-60074891D01*
X108736216Y-60074901D01*
X108736217Y-60074893D01*
X108736685Y-60074893D01*
X109068354Y-60075314D01*
X109068429Y-60075327D01*
X109068430Y-60075316D01*
X109381147Y-60075901D01*
X109381239Y-60075916D01*
X109381240Y-60075903D01*
X109382333Y-60075905D01*
X109675244Y-60076672D01*
X109675356Y-60076699D01*
X109675357Y-60076674D01*
X109951347Y-60077648D01*
X109951485Y-60077668D01*
X109951486Y-60077650D01*
X110210395Y-60078847D01*
X110210394Y-60078890D01*
X110210557Y-60078847D01*
X110452811Y-60080290D01*
X110452811Y-60080289D01*
X110452812Y-60080290D01*
X110452811Y-60080317D01*
X110453010Y-60080290D01*
X110679223Y-60081994D01*
X110679223Y-60081993D01*
X110679301Y-60081993D01*
X110890315Y-60083977D01*
X111270056Y-60088870D01*
X111270478Y-60088877D01*
X111597415Y-60095119D01*
X111598407Y-60095142D01*
X111878641Y-60102891D01*
X111879895Y-60102933D01*
X112118683Y-60112321D01*
X112120566Y-60112409D01*
X112323323Y-60123556D01*
X112326465Y-60123771D01*
X112576589Y-60144132D01*
X112581756Y-60144663D01*
X112782727Y-60169613D01*
X112789649Y-60170673D01*
X113019527Y-60212613D01*
X113023875Y-60213488D01*
X113077338Y-60225275D01*
X113078508Y-60225539D01*
X113288982Y-60274466D01*
X113290377Y-60274800D01*
X113495607Y-60325116D01*
X113497011Y-60325470D01*
X113697597Y-60377359D01*
X113699121Y-60377765D01*
X113894963Y-60431236D01*
X113896646Y-60431708D01*
X114087611Y-60486752D01*
X114090197Y-60487529D01*
X114460663Y-60603389D01*
X114464409Y-60604627D01*
X114818465Y-60728048D01*
X114822479Y-60729527D01*
X115161631Y-60861201D01*
X115165895Y-60862949D01*
X115491486Y-61003526D01*
X115495877Y-61005525D01*
X115809156Y-61155636D01*
X115813658Y-61157907D01*
X115912560Y-61210358D01*
X116112712Y-61316505D01*
X116115839Y-61318163D01*
X116120355Y-61320680D01*
X116396843Y-61482453D01*
X116412755Y-61491763D01*
X116417207Y-61494495D01*
X116700500Y-61676697D01*
X116701090Y-61677076D01*
X116705391Y-61679972D01*
X116982027Y-61874738D01*
X116986088Y-61877724D01*
X117222153Y-62058845D01*
X117256659Y-62085320D01*
X117260488Y-62088380D01*
X117526292Y-62309543D01*
X117529815Y-62312588D01*
X117792037Y-62547984D01*
X117795232Y-62550955D01*
X118036419Y-62783302D01*
X118055447Y-62801632D01*
X118057620Y-62803778D01*
X118186557Y-62934273D01*
X118187041Y-62934762D01*
X118187575Y-62935306D01*
X118320968Y-63072144D01*
X118383793Y-63136592D01*
X118382749Y-63137608D01*
X118382766Y-63137623D01*
X118383795Y-63136595D01*
X118383843Y-63136643D01*
X118383929Y-63136731D01*
X118382900Y-63137736D01*
X118382918Y-63137751D01*
X118383933Y-63136732D01*
X118415969Y-63168630D01*
X118446342Y-63217978D01*
X118450975Y-63275739D01*
X118428858Y-63329299D01*
X118384820Y-63366960D01*
X118328477Y-63380500D01*
X117303043Y-63380500D01*
X117259071Y-63372442D01*
X117220817Y-63349316D01*
X117212240Y-63341717D01*
X117181608Y-63325640D01*
X117079006Y-63271789D01*
X117079002Y-63271787D01*
X117072365Y-63268304D01*
X117065087Y-63266510D01*
X117065084Y-63266509D01*
X116926267Y-63232294D01*
X116926260Y-63232293D01*
X116918985Y-63230500D01*
X116761015Y-63230500D01*
X116753740Y-63232292D01*
X116753732Y-63232294D01*
X116614915Y-63266509D01*
X116614909Y-63266510D01*
X116607635Y-63268304D01*
X116601000Y-63271786D01*
X116600993Y-63271789D01*
X116474406Y-63338228D01*
X116474400Y-63338231D01*
X116467760Y-63341717D01*
X116462148Y-63346687D01*
X116462143Y-63346692D01*
X116355127Y-63441499D01*
X116355122Y-63441503D01*
X116349517Y-63446470D01*
X116345262Y-63452634D01*
X116345257Y-63452640D01*
X116264043Y-63570300D01*
X116264040Y-63570303D01*
X116259780Y-63576477D01*
X116257120Y-63583488D01*
X116257118Y-63583494D01*
X116208939Y-63710534D01*
X116203763Y-63724182D01*
X116202859Y-63731622D01*
X116202858Y-63731629D01*
X116186070Y-63869896D01*
X116184722Y-63881000D01*
X116185626Y-63888445D01*
X116202858Y-64030370D01*
X116202859Y-64030375D01*
X116203763Y-64037818D01*
X116206422Y-64044831D01*
X116206423Y-64044832D01*
X116246097Y-64149446D01*
X116259780Y-64185523D01*
X116264043Y-64191699D01*
X116339189Y-64300568D01*
X116349517Y-64315530D01*
X116355126Y-64320499D01*
X116355127Y-64320500D01*
X116459184Y-64412686D01*
X116467760Y-64420283D01*
X116574835Y-64476481D01*
X116583879Y-64481228D01*
X116607635Y-64493696D01*
X116761015Y-64531500D01*
X116911485Y-64531500D01*
X116918985Y-64531500D01*
X117072365Y-64493696D01*
X117212240Y-64420283D01*
X117220817Y-64412683D01*
X117259071Y-64389558D01*
X117303043Y-64381500D01*
X119185856Y-64381500D01*
X119199405Y-64382956D01*
X119199414Y-64382841D01*
X119208260Y-64383473D01*
X119216927Y-64385359D01*
X119266461Y-64381815D01*
X119275308Y-64381500D01*
X119284365Y-64381500D01*
X119288799Y-64381500D01*
X119302162Y-64379578D01*
X119310949Y-64378633D01*
X119360483Y-64375091D01*
X119368793Y-64371990D01*
X119377460Y-64370106D01*
X119377484Y-64370220D01*
X119378202Y-64370037D01*
X119378169Y-64369925D01*
X119386675Y-64367427D01*
X119395457Y-64366165D01*
X119440647Y-64345526D01*
X119448787Y-64342155D01*
X119495331Y-64324796D01*
X119502433Y-64319478D01*
X119510219Y-64315228D01*
X119510274Y-64315330D01*
X119510908Y-64314954D01*
X119510845Y-64314855D01*
X119518301Y-64310062D01*
X119526373Y-64306377D01*
X119563903Y-64273855D01*
X119570775Y-64268318D01*
X119581593Y-64260221D01*
X119591142Y-64250670D01*
X119597604Y-64244653D01*
X119635143Y-64212128D01*
X119639937Y-64204667D01*
X119645749Y-64197961D01*
X119645836Y-64198036D01*
X119654382Y-64187430D01*
X120057638Y-63784174D01*
X120093806Y-63759063D01*
X120136470Y-63748174D01*
X120146219Y-63747476D01*
X120155464Y-63746816D01*
X120164308Y-63746500D01*
X120173365Y-63746500D01*
X120177799Y-63746500D01*
X120191162Y-63744578D01*
X120199949Y-63743633D01*
X120249483Y-63740091D01*
X120257793Y-63736990D01*
X120266460Y-63735106D01*
X120266484Y-63735220D01*
X120267202Y-63735037D01*
X120267169Y-63734925D01*
X120275675Y-63732427D01*
X120284457Y-63731165D01*
X120329647Y-63710526D01*
X120337787Y-63707155D01*
X120384331Y-63689796D01*
X120391433Y-63684478D01*
X120399219Y-63680228D01*
X120399274Y-63680330D01*
X120399908Y-63679954D01*
X120399845Y-63679855D01*
X120407301Y-63675062D01*
X120415373Y-63671377D01*
X120452903Y-63638855D01*
X120459775Y-63633318D01*
X120470593Y-63625221D01*
X120480142Y-63615670D01*
X120486604Y-63609653D01*
X120524143Y-63577128D01*
X120528937Y-63569667D01*
X120534749Y-63562961D01*
X120534836Y-63563036D01*
X120543382Y-63552430D01*
X120947994Y-63147819D01*
X120988223Y-63120939D01*
X121035676Y-63111500D01*
X121090856Y-63111500D01*
X121104405Y-63112956D01*
X121104414Y-63112841D01*
X121113260Y-63113473D01*
X121121927Y-63115359D01*
X121171461Y-63111815D01*
X121180308Y-63111500D01*
X121189365Y-63111500D01*
X121193799Y-63111500D01*
X121207162Y-63109578D01*
X121215949Y-63108633D01*
X121265483Y-63105091D01*
X121273793Y-63101990D01*
X121282460Y-63100106D01*
X121282484Y-63100220D01*
X121283202Y-63100037D01*
X121283169Y-63099925D01*
X121291675Y-63097427D01*
X121300457Y-63096165D01*
X121345647Y-63075526D01*
X121353787Y-63072155D01*
X121400331Y-63054796D01*
X121407433Y-63049478D01*
X121415219Y-63045228D01*
X121415274Y-63045330D01*
X121415908Y-63044954D01*
X121415845Y-63044855D01*
X121423301Y-63040062D01*
X121431373Y-63036377D01*
X121468903Y-63003855D01*
X121475775Y-62998318D01*
X121486593Y-62990221D01*
X121496142Y-62980670D01*
X121502604Y-62974653D01*
X121540143Y-62942128D01*
X121544937Y-62934667D01*
X121550749Y-62927961D01*
X121550836Y-62928036D01*
X121559382Y-62917430D01*
X122090994Y-62385819D01*
X122131223Y-62358939D01*
X122178676Y-62349500D01*
X122360856Y-62349500D01*
X122374405Y-62350956D01*
X122374414Y-62350841D01*
X122383260Y-62351473D01*
X122391927Y-62353359D01*
X122441461Y-62349815D01*
X122450308Y-62349500D01*
X122459365Y-62349500D01*
X122463799Y-62349500D01*
X122477162Y-62347578D01*
X122485949Y-62346633D01*
X122535483Y-62343091D01*
X122543793Y-62339990D01*
X122552460Y-62338106D01*
X122552484Y-62338220D01*
X122553202Y-62338037D01*
X122553169Y-62337925D01*
X122561675Y-62335427D01*
X122570457Y-62334165D01*
X122615647Y-62313526D01*
X122623787Y-62310155D01*
X122670331Y-62292796D01*
X122677433Y-62287478D01*
X122685219Y-62283228D01*
X122685274Y-62283330D01*
X122685908Y-62282954D01*
X122685845Y-62282855D01*
X122693301Y-62278062D01*
X122701373Y-62274377D01*
X122738903Y-62241855D01*
X122745775Y-62236318D01*
X122756593Y-62228221D01*
X122766142Y-62218670D01*
X122772604Y-62212653D01*
X122810143Y-62180128D01*
X122814937Y-62172667D01*
X122820749Y-62165961D01*
X122820836Y-62166036D01*
X122829382Y-62155430D01*
X123233994Y-61750819D01*
X123274223Y-61723939D01*
X123321676Y-61714500D01*
X123503856Y-61714500D01*
X123517405Y-61715956D01*
X123517414Y-61715841D01*
X123526260Y-61716473D01*
X123534927Y-61718359D01*
X123584461Y-61714815D01*
X123593308Y-61714500D01*
X123602365Y-61714500D01*
X123606799Y-61714500D01*
X123620162Y-61712578D01*
X123628949Y-61711633D01*
X123678483Y-61708091D01*
X123686793Y-61704990D01*
X123695460Y-61703106D01*
X123695484Y-61703220D01*
X123696202Y-61703037D01*
X123696169Y-61702925D01*
X123704675Y-61700427D01*
X123713457Y-61699165D01*
X123758647Y-61678526D01*
X123766787Y-61675155D01*
X123813331Y-61657796D01*
X123820433Y-61652478D01*
X123828219Y-61648228D01*
X123828274Y-61648330D01*
X123828908Y-61647954D01*
X123828845Y-61647855D01*
X123836301Y-61643062D01*
X123844373Y-61639377D01*
X123881903Y-61606855D01*
X123888775Y-61601318D01*
X123899593Y-61593221D01*
X123909142Y-61583670D01*
X123915604Y-61577653D01*
X123953143Y-61545128D01*
X123957937Y-61537667D01*
X123963749Y-61530961D01*
X123963836Y-61531036D01*
X123972382Y-61520430D01*
X124376994Y-61115819D01*
X124417223Y-61088939D01*
X124464676Y-61079500D01*
X124900856Y-61079500D01*
X124914405Y-61080956D01*
X124914414Y-61080841D01*
X124923260Y-61081473D01*
X124931927Y-61083359D01*
X124981461Y-61079815D01*
X124990308Y-61079500D01*
X124999365Y-61079500D01*
X125003799Y-61079500D01*
X125017162Y-61077578D01*
X125025949Y-61076633D01*
X125075483Y-61073091D01*
X125083793Y-61069990D01*
X125092460Y-61068106D01*
X125092484Y-61068220D01*
X125093202Y-61068037D01*
X125093169Y-61067925D01*
X125101675Y-61065427D01*
X125110457Y-61064165D01*
X125155647Y-61043526D01*
X125163787Y-61040155D01*
X125210331Y-61022796D01*
X125217433Y-61017478D01*
X125225219Y-61013228D01*
X125225274Y-61013330D01*
X125225908Y-61012954D01*
X125225845Y-61012855D01*
X125233301Y-61008062D01*
X125241373Y-61004377D01*
X125278903Y-60971855D01*
X125285775Y-60966318D01*
X125296593Y-60958221D01*
X125306142Y-60948670D01*
X125312604Y-60942653D01*
X125350143Y-60910128D01*
X125354937Y-60902667D01*
X125360749Y-60895961D01*
X125360836Y-60896036D01*
X125369382Y-60885430D01*
X126027994Y-60226819D01*
X126068223Y-60199939D01*
X126115676Y-60190500D01*
X126932856Y-60190500D01*
X126946405Y-60191956D01*
X126946414Y-60191841D01*
X126955260Y-60192473D01*
X126963927Y-60194359D01*
X127013461Y-60190815D01*
X127022308Y-60190500D01*
X127031365Y-60190500D01*
X127035799Y-60190500D01*
X127049162Y-60188578D01*
X127057949Y-60187633D01*
X127107483Y-60184091D01*
X127115793Y-60180990D01*
X127124460Y-60179106D01*
X127124484Y-60179220D01*
X127125202Y-60179037D01*
X127125169Y-60178925D01*
X127133675Y-60176427D01*
X127142457Y-60175165D01*
X127187647Y-60154526D01*
X127195787Y-60151155D01*
X127242331Y-60133796D01*
X127249433Y-60128478D01*
X127257219Y-60124228D01*
X127257274Y-60124330D01*
X127257908Y-60123954D01*
X127257845Y-60123855D01*
X127265301Y-60119062D01*
X127273373Y-60115377D01*
X127310903Y-60082855D01*
X127317775Y-60077318D01*
X127328593Y-60069221D01*
X127338142Y-60059670D01*
X127344604Y-60053653D01*
X127382143Y-60021128D01*
X127386937Y-60013667D01*
X127392749Y-60006961D01*
X127392836Y-60007036D01*
X127401382Y-59996430D01*
X127805994Y-59591819D01*
X127846223Y-59564939D01*
X127893676Y-59555500D01*
X128456856Y-59555500D01*
X128470405Y-59556956D01*
X128470414Y-59556841D01*
X128479260Y-59557473D01*
X128487927Y-59559359D01*
X128537461Y-59555815D01*
X128546308Y-59555500D01*
X128555365Y-59555500D01*
X128559799Y-59555500D01*
X128573162Y-59553578D01*
X128581949Y-59552633D01*
X128631483Y-59549091D01*
X128639793Y-59545990D01*
X128648460Y-59544106D01*
X128648484Y-59544220D01*
X128649202Y-59544037D01*
X128649169Y-59543925D01*
X128657675Y-59541427D01*
X128666457Y-59540165D01*
X128711647Y-59519526D01*
X128719787Y-59516155D01*
X128766331Y-59498796D01*
X128773433Y-59493478D01*
X128781219Y-59489228D01*
X128781274Y-59489330D01*
X128781908Y-59488954D01*
X128781845Y-59488855D01*
X128789301Y-59484062D01*
X128797373Y-59480377D01*
X128834903Y-59447855D01*
X128841775Y-59442318D01*
X128852593Y-59434221D01*
X128862141Y-59424671D01*
X128868603Y-59418654D01*
X128906143Y-59386128D01*
X128910937Y-59378667D01*
X128916749Y-59371961D01*
X128916836Y-59372036D01*
X128925378Y-59361434D01*
X129075997Y-59210815D01*
X129116222Y-59183939D01*
X129163675Y-59174500D01*
X129853856Y-59174500D01*
X129867405Y-59175956D01*
X129867414Y-59175841D01*
X129876260Y-59176473D01*
X129884927Y-59178359D01*
X129934461Y-59174815D01*
X129943308Y-59174500D01*
X129952365Y-59174500D01*
X129956799Y-59174500D01*
X129970162Y-59172578D01*
X129978949Y-59171633D01*
X130028483Y-59168091D01*
X130036793Y-59164990D01*
X130045460Y-59163106D01*
X130045484Y-59163220D01*
X130046202Y-59163037D01*
X130046169Y-59162925D01*
X130054675Y-59160427D01*
X130063457Y-59159165D01*
X130108647Y-59138526D01*
X130116787Y-59135155D01*
X130163331Y-59117796D01*
X130170433Y-59112478D01*
X130178219Y-59108228D01*
X130178274Y-59108330D01*
X130178908Y-59107954D01*
X130178845Y-59107855D01*
X130186301Y-59103062D01*
X130194373Y-59099377D01*
X130231903Y-59066855D01*
X130238775Y-59061318D01*
X130249593Y-59053221D01*
X130259142Y-59043670D01*
X130265604Y-59037653D01*
X130303143Y-59005128D01*
X130307937Y-58997667D01*
X130313749Y-58990961D01*
X130313836Y-58991036D01*
X130322378Y-58980434D01*
X130599997Y-58702816D01*
X130640223Y-58675939D01*
X130687676Y-58666500D01*
X137663325Y-58666500D01*
X137710778Y-58675939D01*
X137751006Y-58702819D01*
X137774615Y-58726428D01*
X137783167Y-58737040D01*
X137783255Y-58736965D01*
X137789061Y-58743666D01*
X137793857Y-58751128D01*
X137826201Y-58779154D01*
X137831391Y-58783651D01*
X137837869Y-58789682D01*
X137847407Y-58799220D01*
X137850958Y-58801878D01*
X137858198Y-58807298D01*
X137865091Y-58812852D01*
X137902627Y-58845377D01*
X137910695Y-58849061D01*
X137918154Y-58853855D01*
X137918090Y-58853953D01*
X137918729Y-58854332D01*
X137918785Y-58854230D01*
X137926565Y-58858478D01*
X137933669Y-58863796D01*
X137980222Y-58881159D01*
X137988360Y-58884530D01*
X138033543Y-58905165D01*
X138042326Y-58906427D01*
X138050832Y-58908925D01*
X138050798Y-58909037D01*
X138051515Y-58909220D01*
X138051540Y-58909106D01*
X138060204Y-58910990D01*
X138068517Y-58914091D01*
X138118052Y-58917633D01*
X138126837Y-58918578D01*
X138140201Y-58920500D01*
X138153692Y-58920500D01*
X138162538Y-58920815D01*
X138212073Y-58924359D01*
X138220739Y-58922473D01*
X138229586Y-58921841D01*
X138229594Y-58921956D01*
X138243144Y-58920500D01*
X138933324Y-58920500D01*
X138980777Y-58929939D01*
X139021005Y-58956819D01*
X139425613Y-59361427D01*
X139434164Y-59372038D01*
X139434252Y-59371963D01*
X139440063Y-59378668D01*
X139444857Y-59386128D01*
X139482400Y-59418658D01*
X139488861Y-59424675D01*
X139498407Y-59434221D01*
X139506337Y-59440157D01*
X139509207Y-59442306D01*
X139516099Y-59447860D01*
X139546919Y-59474566D01*
X139546925Y-59474570D01*
X139553627Y-59480377D01*
X139561694Y-59484061D01*
X139569154Y-59488855D01*
X139569090Y-59488953D01*
X139569729Y-59489332D01*
X139569785Y-59489230D01*
X139577565Y-59493478D01*
X139584669Y-59498796D01*
X139631222Y-59516159D01*
X139639360Y-59519530D01*
X139684543Y-59540165D01*
X139693326Y-59541427D01*
X139701832Y-59543925D01*
X139701798Y-59544037D01*
X139702515Y-59544220D01*
X139702540Y-59544106D01*
X139711204Y-59545990D01*
X139719517Y-59549091D01*
X139769052Y-59552633D01*
X139777837Y-59553578D01*
X139791201Y-59555500D01*
X139804692Y-59555500D01*
X139813538Y-59555815D01*
X139863073Y-59559359D01*
X139871739Y-59557473D01*
X139880586Y-59556841D01*
X139880594Y-59556956D01*
X139894144Y-59555500D01*
X141854324Y-59555500D01*
X141901777Y-59564939D01*
X141942005Y-59591819D01*
X142219613Y-59869427D01*
X142228164Y-59880038D01*
X142228252Y-59879963D01*
X142234063Y-59886668D01*
X142238857Y-59894128D01*
X142276400Y-59926658D01*
X142282861Y-59932675D01*
X142292406Y-59942220D01*
X142303212Y-59950309D01*
X142310102Y-59955862D01*
X142340922Y-59982568D01*
X142340926Y-59982570D01*
X142347627Y-59988377D01*
X142355692Y-59992060D01*
X142363155Y-59996856D01*
X142363091Y-59996954D01*
X142363731Y-59997333D01*
X142363788Y-59997231D01*
X142371568Y-60001479D01*
X142378669Y-60006795D01*
X142417097Y-60021128D01*
X142425194Y-60024148D01*
X142433356Y-60027528D01*
X142478543Y-60048165D01*
X142487326Y-60049427D01*
X142495832Y-60051925D01*
X142495798Y-60052037D01*
X142496513Y-60052220D01*
X142496538Y-60052106D01*
X142505208Y-60053992D01*
X142513517Y-60057091D01*
X142563039Y-60060632D01*
X142571839Y-60061578D01*
X142585201Y-60063500D01*
X142598701Y-60063500D01*
X142607547Y-60063816D01*
X142657073Y-60067358D01*
X142665740Y-60065472D01*
X142674584Y-60064840D01*
X142674592Y-60064956D01*
X142688138Y-60063500D01*
X142997325Y-60063500D01*
X143044778Y-60072939D01*
X143085006Y-60099819D01*
X143108615Y-60123428D01*
X143117167Y-60134040D01*
X143117255Y-60133965D01*
X143123061Y-60140666D01*
X143127857Y-60148128D01*
X143165391Y-60180651D01*
X143171869Y-60186682D01*
X143181407Y-60196220D01*
X143186375Y-60199939D01*
X143192198Y-60204298D01*
X143199091Y-60209852D01*
X143236627Y-60242377D01*
X143244695Y-60246061D01*
X143252154Y-60250855D01*
X143252090Y-60250953D01*
X143252729Y-60251332D01*
X143252785Y-60251230D01*
X143260565Y-60255478D01*
X143267669Y-60260796D01*
X143314222Y-60278159D01*
X143322360Y-60281530D01*
X143367543Y-60302165D01*
X143376326Y-60303427D01*
X143384832Y-60305925D01*
X143384798Y-60306037D01*
X143385515Y-60306220D01*
X143385540Y-60306106D01*
X143394204Y-60307990D01*
X143402517Y-60311091D01*
X143452052Y-60314633D01*
X143460837Y-60315578D01*
X143474201Y-60317500D01*
X143487692Y-60317500D01*
X143496538Y-60317815D01*
X143546073Y-60321359D01*
X143552083Y-60320051D01*
X143602460Y-60327294D01*
X143646806Y-60355792D01*
X143795447Y-60504432D01*
X143803995Y-60515040D01*
X143804083Y-60514965D01*
X143809889Y-60521666D01*
X143814685Y-60529128D01*
X143821387Y-60534935D01*
X143852219Y-60561651D01*
X143858697Y-60567682D01*
X143868235Y-60577220D01*
X143871786Y-60579878D01*
X143879026Y-60585298D01*
X143885919Y-60590852D01*
X143901076Y-60603986D01*
X143923455Y-60623377D01*
X143931523Y-60627061D01*
X143938982Y-60631855D01*
X143938918Y-60631953D01*
X143939557Y-60632332D01*
X143939613Y-60632230D01*
X143947393Y-60636478D01*
X143954497Y-60641796D01*
X144001050Y-60659159D01*
X144009188Y-60662530D01*
X144054371Y-60683165D01*
X144063154Y-60684427D01*
X144071660Y-60686925D01*
X144071626Y-60687037D01*
X144072343Y-60687220D01*
X144072368Y-60687106D01*
X144081032Y-60688990D01*
X144089345Y-60692091D01*
X144138880Y-60695633D01*
X144147665Y-60696578D01*
X144161029Y-60698500D01*
X144174520Y-60698500D01*
X144183366Y-60698815D01*
X144232901Y-60702359D01*
X144241567Y-60700473D01*
X144250414Y-60699841D01*
X144250422Y-60699956D01*
X144263972Y-60698500D01*
X144267324Y-60698500D01*
X144314777Y-60707939D01*
X144355005Y-60734819D01*
X144632613Y-61012427D01*
X144641164Y-61023038D01*
X144641252Y-61022963D01*
X144647063Y-61029668D01*
X144651857Y-61037128D01*
X144689400Y-61069658D01*
X144695861Y-61075675D01*
X144705406Y-61085220D01*
X144716212Y-61093309D01*
X144723102Y-61098862D01*
X144753922Y-61125568D01*
X144753926Y-61125570D01*
X144760627Y-61131377D01*
X144768692Y-61135060D01*
X144776155Y-61139856D01*
X144776091Y-61139954D01*
X144776731Y-61140333D01*
X144776788Y-61140231D01*
X144784568Y-61144479D01*
X144791669Y-61149795D01*
X144825797Y-61162524D01*
X144838194Y-61167148D01*
X144846356Y-61170528D01*
X144891543Y-61191165D01*
X144900326Y-61192427D01*
X144908832Y-61194925D01*
X144908798Y-61195037D01*
X144909513Y-61195220D01*
X144909538Y-61195106D01*
X144918208Y-61196992D01*
X144926517Y-61200091D01*
X144976039Y-61203632D01*
X144984839Y-61204578D01*
X144998201Y-61206500D01*
X145011701Y-61206500D01*
X145020547Y-61206816D01*
X145070073Y-61210358D01*
X145078740Y-61208472D01*
X145087584Y-61207840D01*
X145087592Y-61207956D01*
X145101138Y-61206500D01*
X145156324Y-61206500D01*
X145203777Y-61215939D01*
X145244005Y-61242819D01*
X145648613Y-61647427D01*
X145657164Y-61658038D01*
X145657252Y-61657963D01*
X145663063Y-61664668D01*
X145667857Y-61672128D01*
X145705400Y-61704658D01*
X145711861Y-61710675D01*
X145721407Y-61720221D01*
X145726374Y-61723939D01*
X145732207Y-61728306D01*
X145739099Y-61733860D01*
X145769919Y-61760566D01*
X145769925Y-61760570D01*
X145776627Y-61766377D01*
X145784694Y-61770061D01*
X145792154Y-61774855D01*
X145792090Y-61774953D01*
X145792729Y-61775332D01*
X145792785Y-61775230D01*
X145800565Y-61779478D01*
X145807669Y-61784796D01*
X145854222Y-61802159D01*
X145862360Y-61805530D01*
X145907543Y-61826165D01*
X145916326Y-61827427D01*
X145924832Y-61829925D01*
X145924798Y-61830037D01*
X145925515Y-61830220D01*
X145925540Y-61830106D01*
X145934204Y-61831990D01*
X145942517Y-61835091D01*
X145992052Y-61838633D01*
X146000837Y-61839578D01*
X146014201Y-61841500D01*
X146027692Y-61841500D01*
X146036538Y-61841815D01*
X146086073Y-61845359D01*
X146094739Y-61843473D01*
X146103586Y-61842841D01*
X146103594Y-61842956D01*
X146117144Y-61841500D01*
X146172324Y-61841500D01*
X146219777Y-61850939D01*
X146260005Y-61877819D01*
X146430495Y-62048309D01*
X146439046Y-62058920D01*
X146439134Y-62058845D01*
X146444945Y-62065550D01*
X146449739Y-62073010D01*
X146487282Y-62105540D01*
X146493744Y-62111558D01*
X146503289Y-62121103D01*
X146511272Y-62127079D01*
X146514089Y-62129188D01*
X146520981Y-62134742D01*
X146551801Y-62161448D01*
X146551807Y-62161452D01*
X146558509Y-62167259D01*
X146566576Y-62170943D01*
X146574036Y-62175737D01*
X146573972Y-62175835D01*
X146574611Y-62176214D01*
X146574667Y-62176112D01*
X146582447Y-62180360D01*
X146589551Y-62185678D01*
X146636104Y-62203041D01*
X146644242Y-62206412D01*
X146689425Y-62227047D01*
X146698208Y-62228309D01*
X146706714Y-62230807D01*
X146706680Y-62230919D01*
X146707396Y-62231102D01*
X146707421Y-62230988D01*
X146713701Y-62232354D01*
X146716735Y-62233485D01*
X146719887Y-62234290D01*
X146724404Y-62235975D01*
X146724282Y-62236300D01*
X146746771Y-62244688D01*
X146775026Y-62265840D01*
X148061613Y-63552427D01*
X148070164Y-63563038D01*
X148070252Y-63562963D01*
X148076063Y-63569668D01*
X148080857Y-63577128D01*
X148118400Y-63609658D01*
X148124860Y-63615674D01*
X148134406Y-63625220D01*
X148145206Y-63633304D01*
X148152102Y-63638862D01*
X148182922Y-63665568D01*
X148182926Y-63665570D01*
X148189627Y-63671377D01*
X148197692Y-63675060D01*
X148205155Y-63679856D01*
X148205091Y-63679954D01*
X148205731Y-63680333D01*
X148205788Y-63680231D01*
X148213568Y-63684479D01*
X148220669Y-63689795D01*
X148241027Y-63697388D01*
X148267194Y-63707148D01*
X148275356Y-63710528D01*
X148320543Y-63731165D01*
X148329326Y-63732427D01*
X148337832Y-63734925D01*
X148337798Y-63735037D01*
X148338513Y-63735220D01*
X148338538Y-63735106D01*
X148347208Y-63736992D01*
X148355517Y-63740091D01*
X148405039Y-63743632D01*
X148413839Y-63744578D01*
X148427201Y-63746500D01*
X148440701Y-63746500D01*
X148449547Y-63746816D01*
X148499073Y-63750358D01*
X148504205Y-63749241D01*
X148553986Y-63756397D01*
X148598336Y-63784899D01*
X149758985Y-64945548D01*
X149784097Y-64981715D01*
X149794988Y-65024378D01*
X149797160Y-65054734D01*
X149800257Y-65063040D01*
X149802143Y-65071706D01*
X149802030Y-65071730D01*
X149802215Y-65072454D01*
X149802326Y-65072422D01*
X149804823Y-65080927D01*
X149806086Y-65089708D01*
X149809770Y-65097775D01*
X149809771Y-65097778D01*
X149826708Y-65134864D01*
X149830096Y-65143041D01*
X149844355Y-65181272D01*
X149844356Y-65181274D01*
X149847455Y-65189582D01*
X149852770Y-65196682D01*
X149857019Y-65204463D01*
X149856917Y-65204518D01*
X149857297Y-65205158D01*
X149857394Y-65205096D01*
X149862190Y-65212558D01*
X149865874Y-65220624D01*
X149898398Y-65258158D01*
X149903939Y-65265036D01*
X149912030Y-65275844D01*
X149915167Y-65278981D01*
X149921573Y-65285387D01*
X149927605Y-65291866D01*
X149954316Y-65322693D01*
X149954318Y-65322695D01*
X149960123Y-65329394D01*
X149967579Y-65334185D01*
X149974288Y-65339999D01*
X149974212Y-65340086D01*
X149984822Y-65348636D01*
X150855615Y-66219428D01*
X150864167Y-66230040D01*
X150864255Y-66229965D01*
X150870061Y-66236666D01*
X150874857Y-66244128D01*
X150881559Y-66249935D01*
X150912391Y-66276651D01*
X150918870Y-66282683D01*
X150928407Y-66292220D01*
X150931958Y-66294878D01*
X150939198Y-66300298D01*
X150946091Y-66305852D01*
X150983627Y-66338377D01*
X150991695Y-66342061D01*
X150999154Y-66346855D01*
X150999090Y-66346953D01*
X150999729Y-66347332D01*
X150999785Y-66347230D01*
X151007565Y-66351478D01*
X151014669Y-66356796D01*
X151061222Y-66374159D01*
X151069360Y-66377530D01*
X151114543Y-66398165D01*
X151123326Y-66399427D01*
X151131832Y-66401925D01*
X151131798Y-66402037D01*
X151132515Y-66402220D01*
X151132540Y-66402106D01*
X151141204Y-66403990D01*
X151149517Y-66407091D01*
X151178555Y-66409167D01*
X151217789Y-66418552D01*
X151251935Y-66440035D01*
X151265760Y-66452283D01*
X151405635Y-66525696D01*
X151559015Y-66563500D01*
X151709485Y-66563500D01*
X151716985Y-66563500D01*
X151870365Y-66525696D01*
X152010240Y-66452283D01*
X152128483Y-66347530D01*
X152218220Y-66217523D01*
X152274237Y-66069818D01*
X152280859Y-66015272D01*
X152292468Y-65975937D01*
X152316271Y-65942541D01*
X153205993Y-65052819D01*
X153246222Y-65025939D01*
X153293675Y-65016500D01*
X153348856Y-65016500D01*
X153362405Y-65017956D01*
X153362414Y-65017841D01*
X153371260Y-65018473D01*
X153379927Y-65020359D01*
X153429461Y-65016815D01*
X153438308Y-65016500D01*
X153447365Y-65016500D01*
X153451799Y-65016500D01*
X153465162Y-65014578D01*
X153473949Y-65013633D01*
X153523483Y-65010091D01*
X153531793Y-65006990D01*
X153540460Y-65005106D01*
X153540484Y-65005220D01*
X153541202Y-65005037D01*
X153541169Y-65004925D01*
X153549675Y-65002427D01*
X153558457Y-65001165D01*
X153603647Y-64980526D01*
X153611787Y-64977155D01*
X153658331Y-64959796D01*
X153665433Y-64954478D01*
X153673219Y-64950228D01*
X153673274Y-64950330D01*
X153673908Y-64949954D01*
X153673845Y-64949855D01*
X153681301Y-64945062D01*
X153689373Y-64941377D01*
X153726903Y-64908855D01*
X153733775Y-64903318D01*
X153744593Y-64895221D01*
X153754142Y-64885670D01*
X153760604Y-64879653D01*
X153798143Y-64847128D01*
X153802937Y-64839667D01*
X153808749Y-64832961D01*
X153808836Y-64833036D01*
X153817382Y-64822430D01*
X155584449Y-63055364D01*
X155628157Y-63027105D01*
X155679616Y-63019273D01*
X155729749Y-63033249D01*
X155850635Y-63096696D01*
X156004015Y-63134500D01*
X156154485Y-63134500D01*
X156161985Y-63134500D01*
X156315365Y-63096696D01*
X156455240Y-63023283D01*
X156463817Y-63015683D01*
X156502071Y-62992558D01*
X156546043Y-62984500D01*
X164175201Y-62984500D01*
X164246799Y-62984500D01*
X164477455Y-62984500D01*
X164521427Y-62992558D01*
X164559680Y-63015683D01*
X164568258Y-63023283D01*
X164708133Y-63096696D01*
X164861513Y-63134500D01*
X165011983Y-63134500D01*
X165019483Y-63134500D01*
X165172863Y-63096696D01*
X165312738Y-63023283D01*
X165321315Y-63015683D01*
X165359569Y-62992558D01*
X165403541Y-62984500D01*
X171494957Y-62984500D01*
X171538929Y-62992558D01*
X171577182Y-63015683D01*
X171585760Y-63023283D01*
X171725635Y-63096696D01*
X171879015Y-63134500D01*
X172029485Y-63134500D01*
X172036985Y-63134500D01*
X172190365Y-63096696D01*
X172330240Y-63023283D01*
X172338817Y-63015683D01*
X172377071Y-62992558D01*
X172421043Y-62984500D01*
X174112324Y-62984500D01*
X174159777Y-62993939D01*
X174200005Y-63020819D01*
X176994724Y-65815538D01*
X177018529Y-65848935D01*
X177030139Y-65888270D01*
X177035858Y-65935370D01*
X177035859Y-65935374D01*
X177036763Y-65942818D01*
X177039421Y-65949827D01*
X177039423Y-65949834D01*
X177090118Y-66083505D01*
X177092780Y-66090523D01*
X177182517Y-66220530D01*
X177300760Y-66325283D01*
X177440635Y-66398696D01*
X177447915Y-66400490D01*
X177447917Y-66400491D01*
X177589211Y-66435316D01*
X177647218Y-66468032D01*
X182074724Y-70895538D01*
X182098529Y-70928935D01*
X182110139Y-70968270D01*
X182115858Y-71015370D01*
X182115859Y-71015374D01*
X182116763Y-71022818D01*
X182119421Y-71029827D01*
X182119423Y-71029834D01*
X182170118Y-71163505D01*
X182172780Y-71170523D01*
X182177043Y-71176699D01*
X182242901Y-71272112D01*
X182262517Y-71300530D01*
X182268126Y-71305499D01*
X182268127Y-71305500D01*
X182370088Y-71395829D01*
X182380760Y-71405283D01*
X182520635Y-71478696D01*
X182527915Y-71480490D01*
X182527917Y-71480491D01*
X182669211Y-71515316D01*
X182727218Y-71548032D01*
X183740181Y-72560995D01*
X183767061Y-72601223D01*
X183776500Y-72648676D01*
X183776500Y-80313342D01*
X183770885Y-80350232D01*
X183754550Y-80383782D01*
X183701043Y-80461300D01*
X183701040Y-80461303D01*
X183696780Y-80467477D01*
X183694120Y-80474488D01*
X183694118Y-80474494D01*
X183650567Y-80589330D01*
X183640763Y-80615182D01*
X183639859Y-80622622D01*
X183639858Y-80622629D01*
X183629143Y-80710882D01*
X183621722Y-80772000D01*
X183622626Y-80779445D01*
X183639858Y-80921370D01*
X183639859Y-80921375D01*
X183640763Y-80928818D01*
X183643422Y-80935831D01*
X183643423Y-80935832D01*
X183663922Y-80989885D01*
X183696780Y-81076523D01*
X183701043Y-81082699D01*
X183754550Y-81160218D01*
X183770885Y-81193768D01*
X183776500Y-81230658D01*
X183776500Y-85520342D01*
X183770885Y-85557232D01*
X183754550Y-85590782D01*
X183701043Y-85668300D01*
X183701040Y-85668303D01*
X183696780Y-85674477D01*
X183694120Y-85681488D01*
X183694118Y-85681494D01*
X183643423Y-85815167D01*
X183640763Y-85822182D01*
X183639859Y-85829622D01*
X183639858Y-85829629D01*
X183623070Y-85967896D01*
X183621722Y-85979000D01*
X183622626Y-85986445D01*
X183639858Y-86128370D01*
X183639859Y-86128375D01*
X183640763Y-86135818D01*
X183696780Y-86283523D01*
X183701043Y-86289699D01*
X183754550Y-86367218D01*
X183770885Y-86400768D01*
X183776500Y-86437658D01*
X183776500Y-90727342D01*
X183770885Y-90764232D01*
X183754550Y-90797782D01*
X183701043Y-90875300D01*
X183701040Y-90875303D01*
X183696780Y-90881477D01*
X183694120Y-90888488D01*
X183694118Y-90888494D01*
X183648167Y-91009658D01*
X183640763Y-91029182D01*
X183639859Y-91036622D01*
X183639858Y-91036629D01*
X183623070Y-91174896D01*
X183621722Y-91186000D01*
X183622626Y-91193445D01*
X183639858Y-91335370D01*
X183639859Y-91335375D01*
X183640763Y-91342818D01*
X183643422Y-91349831D01*
X183643423Y-91349832D01*
X183682547Y-91452995D01*
X183696780Y-91490523D01*
X183701043Y-91496699D01*
X183754550Y-91574218D01*
X183770885Y-91607768D01*
X183776500Y-91644658D01*
X183776500Y-95807342D01*
X183770885Y-95844232D01*
X183754550Y-95877782D01*
X183701043Y-95955300D01*
X183701040Y-95955303D01*
X183696780Y-95961477D01*
X183694120Y-95968488D01*
X183694118Y-95968494D01*
X183643423Y-96102167D01*
X183640763Y-96109182D01*
X183639859Y-96116622D01*
X183639858Y-96116629D01*
X183632192Y-96179768D01*
X183621722Y-96266000D01*
X183622626Y-96273445D01*
X183639858Y-96415370D01*
X183639859Y-96415375D01*
X183640763Y-96422818D01*
X183643422Y-96429831D01*
X183643423Y-96429832D01*
X183673504Y-96509151D01*
X183696780Y-96570523D01*
X183701043Y-96576699D01*
X183754550Y-96654218D01*
X183770885Y-96687768D01*
X183776500Y-96724658D01*
X183776500Y-101014342D01*
X183770885Y-101051232D01*
X183754550Y-101084782D01*
X183701043Y-101162300D01*
X183701040Y-101162303D01*
X183696780Y-101168477D01*
X183694120Y-101175488D01*
X183694118Y-101175494D01*
X183643423Y-101309167D01*
X183640763Y-101316182D01*
X183639859Y-101323622D01*
X183639858Y-101323629D01*
X183631860Y-101389505D01*
X183621722Y-101473000D01*
X183622626Y-101480445D01*
X183639858Y-101622370D01*
X183639859Y-101622375D01*
X183640763Y-101629818D01*
X183643422Y-101636831D01*
X183643423Y-101636832D01*
X183680196Y-101733796D01*
X183696780Y-101777523D01*
X183701043Y-101783699D01*
X183754550Y-101861218D01*
X183770885Y-101894768D01*
X183776500Y-101931658D01*
X183776500Y-106221342D01*
X183770885Y-106258232D01*
X183754550Y-106291782D01*
X183701043Y-106369300D01*
X183701040Y-106369303D01*
X183696780Y-106375477D01*
X183694120Y-106382488D01*
X183694118Y-106382494D01*
X183643423Y-106516167D01*
X183640763Y-106523182D01*
X183639859Y-106530622D01*
X183639858Y-106530629D01*
X183632670Y-106589832D01*
X183621722Y-106680000D01*
X183622626Y-106687445D01*
X183639858Y-106829370D01*
X183639859Y-106829375D01*
X183640763Y-106836818D01*
X183696780Y-106984523D01*
X183701043Y-106990699D01*
X183754550Y-107068218D01*
X183770885Y-107101768D01*
X183776500Y-107138658D01*
X183776500Y-107627741D01*
X183775043Y-107641290D01*
X183775159Y-107641299D01*
X183774525Y-107650147D01*
X183772641Y-107658812D01*
X183773273Y-107667652D01*
X183773273Y-107667658D01*
X183776184Y-107708346D01*
X183776500Y-107717193D01*
X183776500Y-107730684D01*
X183777130Y-107735065D01*
X183778420Y-107744040D01*
X183779365Y-107752831D01*
X183782909Y-107802368D01*
X183786006Y-107810674D01*
X183787892Y-107819340D01*
X183787779Y-107819364D01*
X183787964Y-107820088D01*
X183788075Y-107820056D01*
X183790572Y-107828561D01*
X183791835Y-107837342D01*
X183795519Y-107845409D01*
X183795520Y-107845412D01*
X183812457Y-107882498D01*
X183815845Y-107890675D01*
X183830104Y-107928906D01*
X183830105Y-107928908D01*
X183833204Y-107937216D01*
X183838519Y-107944316D01*
X183842768Y-107952097D01*
X183842666Y-107952152D01*
X183843046Y-107952792D01*
X183843143Y-107952730D01*
X183847939Y-107960192D01*
X183851623Y-107968258D01*
X183884147Y-108005792D01*
X183889688Y-108012670D01*
X183897779Y-108023478D01*
X183900915Y-108026614D01*
X183900916Y-108026615D01*
X183907322Y-108033021D01*
X183913354Y-108039500D01*
X183940065Y-108070327D01*
X183940067Y-108070329D01*
X183945872Y-108077028D01*
X183953328Y-108081819D01*
X183960037Y-108087633D01*
X183959961Y-108087720D01*
X183970571Y-108096270D01*
X184488006Y-108613705D01*
X184511811Y-108647102D01*
X184523421Y-108686437D01*
X184529140Y-108733537D01*
X184529141Y-108733541D01*
X184530045Y-108740985D01*
X184532703Y-108747994D01*
X184532705Y-108748001D01*
X184583400Y-108881672D01*
X184586062Y-108888690D01*
X184590325Y-108894866D01*
X184657172Y-108991712D01*
X184675799Y-109018697D01*
X184681408Y-109023666D01*
X184681409Y-109023667D01*
X184786158Y-109116466D01*
X184794042Y-109123450D01*
X184933917Y-109196863D01*
X185087297Y-109234667D01*
X185237767Y-109234667D01*
X185245267Y-109234667D01*
X185398647Y-109196863D01*
X185538522Y-109123450D01*
X185656765Y-109018697D01*
X185746502Y-108888690D01*
X185802519Y-108740985D01*
X185821560Y-108584167D01*
X185802519Y-108427349D01*
X185746502Y-108279644D01*
X185656765Y-108149637D01*
X185651154Y-108144666D01*
X185544138Y-108049859D01*
X185544136Y-108049857D01*
X185538522Y-108044884D01*
X185531877Y-108041396D01*
X185531875Y-108041395D01*
X185405288Y-107974956D01*
X185405284Y-107974954D01*
X185398647Y-107971471D01*
X185391369Y-107969677D01*
X185391366Y-107969676D01*
X185250069Y-107934850D01*
X185192063Y-107902134D01*
X184813819Y-107523890D01*
X184786939Y-107483662D01*
X184777500Y-107436209D01*
X184777500Y-107138658D01*
X184783115Y-107101768D01*
X184799450Y-107068218D01*
X184806848Y-107057498D01*
X184857220Y-106984523D01*
X184913237Y-106836818D01*
X184932278Y-106680000D01*
X184913237Y-106523182D01*
X184857220Y-106375477D01*
X184799450Y-106291782D01*
X184783115Y-106258232D01*
X184777500Y-106221342D01*
X184777500Y-101931658D01*
X184783115Y-101894768D01*
X184799450Y-101861218D01*
X184831481Y-101814812D01*
X184857220Y-101777523D01*
X184913237Y-101629818D01*
X184932278Y-101473000D01*
X184913237Y-101316182D01*
X184857220Y-101168477D01*
X184799450Y-101084782D01*
X184783115Y-101051232D01*
X184777500Y-101014342D01*
X184777500Y-96724658D01*
X184783115Y-96687768D01*
X184799450Y-96654218D01*
X184806848Y-96643498D01*
X184857220Y-96570523D01*
X184913237Y-96422818D01*
X184932278Y-96266000D01*
X184913237Y-96109182D01*
X184857220Y-95961477D01*
X184799450Y-95877782D01*
X184783115Y-95844232D01*
X184777500Y-95807342D01*
X184777500Y-91644658D01*
X184783115Y-91607768D01*
X184799450Y-91574218D01*
X184806848Y-91563498D01*
X184857220Y-91490523D01*
X184913237Y-91342818D01*
X184932278Y-91186000D01*
X184913237Y-91029182D01*
X184857220Y-90881477D01*
X184799450Y-90797782D01*
X184783115Y-90764232D01*
X184777500Y-90727342D01*
X184777500Y-86437658D01*
X184783115Y-86400768D01*
X184799450Y-86367218D01*
X184806848Y-86356498D01*
X184857220Y-86283523D01*
X184913237Y-86135818D01*
X184932278Y-85979000D01*
X184913237Y-85822182D01*
X184857220Y-85674477D01*
X184799450Y-85590782D01*
X184783115Y-85557232D01*
X184777500Y-85520342D01*
X184777500Y-81230658D01*
X184783115Y-81193768D01*
X184799450Y-81160218D01*
X184822854Y-81126311D01*
X184857220Y-81076523D01*
X184913237Y-80928818D01*
X184932278Y-80772000D01*
X184913237Y-80615182D01*
X184857220Y-80467477D01*
X184816763Y-80408865D01*
X184799450Y-80383782D01*
X184783115Y-80350232D01*
X184777500Y-80313342D01*
X184777500Y-78338998D01*
X184794113Y-78276998D01*
X184839500Y-78231611D01*
X184901500Y-78214998D01*
X184983485Y-78214998D01*
X184990985Y-78214998D01*
X185144365Y-78177194D01*
X185284240Y-78103781D01*
X185402483Y-77999028D01*
X185492220Y-77869021D01*
X185548237Y-77721316D01*
X185567278Y-77564498D01*
X185548237Y-77407680D01*
X185492220Y-77259975D01*
X185402483Y-77129968D01*
X185396872Y-77124997D01*
X185289856Y-77030190D01*
X185289854Y-77030188D01*
X185284240Y-77025215D01*
X185277595Y-77021727D01*
X185277593Y-77021726D01*
X185151006Y-76955287D01*
X185151002Y-76955285D01*
X185144365Y-76951802D01*
X185137087Y-76950008D01*
X185137084Y-76950007D01*
X184998267Y-76915792D01*
X184998260Y-76915791D01*
X184990985Y-76913998D01*
X184901500Y-76913998D01*
X184839500Y-76897385D01*
X184794113Y-76851998D01*
X184777500Y-76789998D01*
X184777500Y-72457138D01*
X184778956Y-72443592D01*
X184778840Y-72443584D01*
X184779472Y-72434740D01*
X184781358Y-72426073D01*
X184777816Y-72376547D01*
X184777500Y-72367701D01*
X184777500Y-72358636D01*
X184777500Y-72354201D01*
X184775578Y-72340839D01*
X184774632Y-72332037D01*
X184774380Y-72328507D01*
X184771091Y-72282517D01*
X184767992Y-72274208D01*
X184766106Y-72265538D01*
X184766220Y-72265513D01*
X184766037Y-72264798D01*
X184765925Y-72264832D01*
X184763427Y-72256326D01*
X184762165Y-72247543D01*
X184741528Y-72202356D01*
X184738148Y-72194194D01*
X184736782Y-72190532D01*
X184720795Y-72147669D01*
X184715479Y-72140568D01*
X184711231Y-72132788D01*
X184711333Y-72132731D01*
X184710954Y-72132091D01*
X184710856Y-72132155D01*
X184706060Y-72124692D01*
X184702377Y-72116627D01*
X184696570Y-72109926D01*
X184696568Y-72109922D01*
X184669862Y-72079102D01*
X184664303Y-72072205D01*
X184658872Y-72064949D01*
X184656220Y-72061406D01*
X184646675Y-72051861D01*
X184640658Y-72045400D01*
X184608128Y-72007857D01*
X184600668Y-72003063D01*
X184593963Y-71997252D01*
X184594038Y-71997164D01*
X184583427Y-71988613D01*
X183431274Y-70836460D01*
X183407468Y-70803061D01*
X183395859Y-70763724D01*
X183390141Y-70716629D01*
X183389237Y-70709182D01*
X183333220Y-70561477D01*
X183243483Y-70431470D01*
X183226821Y-70416709D01*
X183130856Y-70331692D01*
X183130854Y-70331690D01*
X183125240Y-70326717D01*
X183118595Y-70323229D01*
X183118593Y-70323228D01*
X182992006Y-70256789D01*
X182992002Y-70256787D01*
X182985365Y-70253304D01*
X182978087Y-70251510D01*
X182978084Y-70251509D01*
X182836787Y-70216683D01*
X182778781Y-70183967D01*
X178351274Y-65756460D01*
X178327468Y-65723061D01*
X178315859Y-65683724D01*
X178310141Y-65636629D01*
X178309237Y-65629182D01*
X178253220Y-65481477D01*
X178163483Y-65351470D01*
X178105728Y-65300304D01*
X178050856Y-65251692D01*
X178050854Y-65251690D01*
X178045240Y-65246717D01*
X178038595Y-65243229D01*
X178038593Y-65243228D01*
X177912006Y-65176789D01*
X177912002Y-65176787D01*
X177905365Y-65173304D01*
X177898087Y-65171510D01*
X177898084Y-65171509D01*
X177756787Y-65136683D01*
X177698781Y-65103967D01*
X174772385Y-62177571D01*
X174763835Y-62166961D01*
X174763748Y-62167037D01*
X174757934Y-62160328D01*
X174753143Y-62152872D01*
X174746444Y-62147067D01*
X174746442Y-62147065D01*
X174715615Y-62120354D01*
X174709136Y-62114322D01*
X174702730Y-62107916D01*
X174702729Y-62107915D01*
X174699593Y-62104779D01*
X174688785Y-62096688D01*
X174681907Y-62091147D01*
X174644373Y-62058623D01*
X174636307Y-62054939D01*
X174628845Y-62050143D01*
X174628907Y-62050046D01*
X174628267Y-62049666D01*
X174628212Y-62049768D01*
X174620431Y-62045519D01*
X174613331Y-62040204D01*
X174605023Y-62037105D01*
X174605021Y-62037104D01*
X174566790Y-62022845D01*
X174558613Y-62019457D01*
X174521527Y-62002520D01*
X174521524Y-62002519D01*
X174513457Y-61998835D01*
X174504676Y-61997572D01*
X174496171Y-61995075D01*
X174496203Y-61994964D01*
X174495479Y-61994779D01*
X174495455Y-61994892D01*
X174486789Y-61993006D01*
X174478483Y-61989909D01*
X174469642Y-61989276D01*
X174469640Y-61989276D01*
X174428946Y-61986365D01*
X174420155Y-61985420D01*
X174406799Y-61983500D01*
X174402370Y-61983500D01*
X174393308Y-61983500D01*
X174384461Y-61983184D01*
X174343773Y-61980273D01*
X174343767Y-61980273D01*
X174334927Y-61979641D01*
X174326262Y-61981525D01*
X174317414Y-61982159D01*
X174317405Y-61982043D01*
X174303856Y-61983500D01*
X172421043Y-61983500D01*
X172377071Y-61975442D01*
X172338817Y-61952316D01*
X172330240Y-61944717D01*
X172259330Y-61907500D01*
X172197006Y-61874789D01*
X172197002Y-61874787D01*
X172190365Y-61871304D01*
X172183087Y-61869510D01*
X172183084Y-61869509D01*
X172044267Y-61835294D01*
X172044260Y-61835293D01*
X172036985Y-61833500D01*
X171879015Y-61833500D01*
X171871740Y-61835292D01*
X171871732Y-61835294D01*
X171732915Y-61869509D01*
X171732909Y-61869510D01*
X171725635Y-61871304D01*
X171719000Y-61874786D01*
X171718993Y-61874789D01*
X171592403Y-61941230D01*
X171592400Y-61941231D01*
X171585760Y-61944717D01*
X171577182Y-61952316D01*
X171538929Y-61975442D01*
X171494957Y-61983500D01*
X165403541Y-61983500D01*
X165359569Y-61975442D01*
X165321315Y-61952316D01*
X165312738Y-61944717D01*
X165241828Y-61907500D01*
X165179504Y-61874789D01*
X165179500Y-61874787D01*
X165172863Y-61871304D01*
X165165585Y-61869510D01*
X165165582Y-61869509D01*
X165026765Y-61835294D01*
X165026758Y-61835293D01*
X165019483Y-61833500D01*
X164861513Y-61833500D01*
X164854238Y-61835292D01*
X164854230Y-61835294D01*
X164715413Y-61869509D01*
X164715407Y-61869510D01*
X164708133Y-61871304D01*
X164701498Y-61874786D01*
X164701491Y-61874789D01*
X164574901Y-61941230D01*
X164574898Y-61941231D01*
X164568258Y-61944717D01*
X164559680Y-61952316D01*
X164521427Y-61975442D01*
X164477455Y-61983500D01*
X164246799Y-61983500D01*
X156546043Y-61983500D01*
X156502071Y-61975442D01*
X156463817Y-61952316D01*
X156455240Y-61944717D01*
X156384330Y-61907500D01*
X156322006Y-61874789D01*
X156322002Y-61874787D01*
X156315365Y-61871304D01*
X156281375Y-61862926D01*
X156241160Y-61853014D01*
X156180837Y-61817918D01*
X156149023Y-61755801D01*
X156155795Y-61686341D01*
X156199006Y-61631540D01*
X156216060Y-61619421D01*
X156216621Y-61619025D01*
X156447835Y-61457082D01*
X156448427Y-61456671D01*
X156664106Y-61308077D01*
X156664996Y-61307471D01*
X156853173Y-61180639D01*
X156855221Y-61179289D01*
X157042725Y-61058455D01*
X157048778Y-61054796D01*
X157128419Y-61009743D01*
X157128421Y-61009742D01*
X157128635Y-61010120D01*
X157128833Y-61009995D01*
X157128584Y-61009638D01*
X157182833Y-60971870D01*
X157297431Y-60892088D01*
X157297467Y-60892090D01*
X157297596Y-60891973D01*
X157297654Y-60891933D01*
X157297672Y-60891904D01*
X157297695Y-60891884D01*
X157297722Y-60891826D01*
X157297820Y-60891675D01*
X157297812Y-60891639D01*
X157302518Y-60881797D01*
X157303856Y-60880200D01*
X157306095Y-60876211D01*
X157310427Y-60870458D01*
X157315759Y-60865997D01*
X157342143Y-60834511D01*
X157403357Y-60790634D01*
X157425519Y-60777982D01*
X157599561Y-60701166D01*
X157599626Y-60701148D01*
X157599654Y-60701125D01*
X157599685Y-60701112D01*
X157599729Y-60701065D01*
X157640918Y-60668287D01*
X157645504Y-60664810D01*
X157814009Y-60543151D01*
X157821679Y-60538038D01*
X158020600Y-60415922D01*
X158023859Y-60413992D01*
X158277593Y-60269129D01*
X158279384Y-60268128D01*
X158472453Y-60162464D01*
X158473556Y-60161868D01*
X158682702Y-60050500D01*
X158683580Y-60050037D01*
X158905327Y-59934775D01*
X158906037Y-59934410D01*
X159137528Y-59816726D01*
X159138170Y-59816403D01*
X159375961Y-59698068D01*
X159376836Y-59697636D01*
X159618178Y-59580061D01*
X159618846Y-59579739D01*
X159860793Y-59464442D01*
X159861572Y-59464075D01*
X160100890Y-59352711D01*
X160101695Y-59352342D01*
X160335398Y-59246441D01*
X160336401Y-59245993D01*
X160561396Y-59147132D01*
X160562746Y-59146550D01*
X160775943Y-59056302D01*
X160777509Y-59055653D01*
X160779039Y-59055030D01*
X161006543Y-58962391D01*
X161007633Y-58961955D01*
X161240338Y-58870293D01*
X161241405Y-58869879D01*
X161476586Y-58780227D01*
X161477560Y-58779862D01*
X161713551Y-58692808D01*
X161714651Y-58692409D01*
X161950231Y-58608372D01*
X161951303Y-58607997D01*
X162184801Y-58527558D01*
X162185960Y-58527165D01*
X162416297Y-58450694D01*
X162417552Y-58450286D01*
X162643130Y-58378335D01*
X162644452Y-58377923D01*
X162863887Y-58310963D01*
X162865395Y-58310514D01*
X163077499Y-58248964D01*
X163078942Y-58248555D01*
X163215776Y-58210712D01*
X163422092Y-58154709D01*
X163422914Y-58157738D01*
X163422917Y-58157737D01*
X163422093Y-58154710D01*
X163625501Y-58099316D01*
X163626299Y-58102249D01*
X163626302Y-58102248D01*
X163625501Y-58099315D01*
X163663724Y-58088872D01*
X163824275Y-58045008D01*
X163831906Y-58045008D01*
X163832181Y-58046015D01*
X163832182Y-58046014D01*
X163831906Y-58045008D01*
X163824275Y-58045008D01*
X163831376Y-58043068D01*
X163831376Y-58043067D01*
X163881918Y-58029214D01*
X163883745Y-58028729D01*
X164130196Y-57965618D01*
X164133228Y-57964883D01*
X164337439Y-57918156D01*
X164339460Y-57917714D01*
X164561946Y-57871150D01*
X164563757Y-57870785D01*
X164804543Y-57824414D01*
X164806160Y-57824115D01*
X165065411Y-57777923D01*
X165066781Y-57777687D01*
X165344992Y-57731598D01*
X165346112Y-57731418D01*
X165643768Y-57685358D01*
X165644319Y-57685276D01*
X165853334Y-57654618D01*
X165853774Y-57654554D01*
X166071754Y-57623860D01*
X166071994Y-57623827D01*
X166071995Y-57623828D01*
X166299041Y-57593084D01*
X166299361Y-57593041D01*
X166471672Y-57570568D01*
X166535511Y-57562243D01*
X166535528Y-57562377D01*
X166536064Y-57562172D01*
X166778302Y-57531695D01*
X166782731Y-57531219D01*
X167071456Y-57505603D01*
X167075349Y-57505320D01*
X167328261Y-57491104D01*
X167330056Y-57491018D01*
X167624218Y-57479062D01*
X167625350Y-57479023D01*
X167952339Y-57469410D01*
X167953203Y-57469388D01*
X168305849Y-57462125D01*
X168306690Y-57462111D01*
X168677066Y-57457219D01*
X168677755Y-57457212D01*
X169059088Y-57454683D01*
X169059295Y-57454682D01*
X169444118Y-57454532D01*
X169444789Y-57454533D01*
G37*
G04 #@! TD.AperFunction*
G04 #@! TD*
M02*
