G04 #@! TF.GenerationSoftware,KiCad,Pcbnew,7.0.1-3b83917a11~171~ubuntu22.04.1*
G04 #@! TF.CreationDate,2023-03-23T14:32:19-07:00*
G04 #@! TF.ProjectId,badge,62616467-652e-46b6-9963-61645f706362,rev?*
G04 #@! TF.SameCoordinates,Original*
G04 #@! TF.FileFunction,Legend,Bot*
G04 #@! TF.FilePolarity,Positive*
%FSLAX46Y46*%
G04 Gerber Fmt 4.6, Leading zero omitted, Abs format (unit mm)*
G04 Created by KiCad (PCBNEW 7.0.1-3b83917a11~171~ubuntu22.04.1) date 2023-03-23 14:32:19*
%MOMM*%
%LPD*%
G01*
G04 APERTURE LIST*
%ADD10C,0.500000*%
%ADD11C,0.150000*%
%ADD12C,0.250000*%
%ADD13C,0.120000*%
G04 APERTURE END LIST*
D10*
X107312905Y-79401857D02*
X103912905Y-79401857D01*
X103912905Y-79401857D02*
X106341477Y-80535191D01*
X106341477Y-80535191D02*
X103912905Y-81668524D01*
X103912905Y-81668524D02*
X107312905Y-81668524D01*
X107312905Y-83287571D02*
X105046239Y-83287571D01*
X103912905Y-83287571D02*
X104074810Y-83125667D01*
X104074810Y-83125667D02*
X104236715Y-83287571D01*
X104236715Y-83287571D02*
X104074810Y-83449476D01*
X104074810Y-83449476D02*
X103912905Y-83287571D01*
X103912905Y-83287571D02*
X104236715Y-83287571D01*
X105046239Y-84906619D02*
X107312905Y-84906619D01*
X105370048Y-84906619D02*
X105208143Y-85068524D01*
X105208143Y-85068524D02*
X105046239Y-85392334D01*
X105046239Y-85392334D02*
X105046239Y-85878048D01*
X105046239Y-85878048D02*
X105208143Y-86201857D01*
X105208143Y-86201857D02*
X105531953Y-86363762D01*
X105531953Y-86363762D02*
X107312905Y-86363762D01*
X107312905Y-87982809D02*
X105046239Y-87982809D01*
X103912905Y-87982809D02*
X104074810Y-87820905D01*
X104074810Y-87820905D02*
X104236715Y-87982809D01*
X104236715Y-87982809D02*
X104074810Y-88144714D01*
X104074810Y-88144714D02*
X103912905Y-87982809D01*
X103912905Y-87982809D02*
X104236715Y-87982809D01*
X107312905Y-89601857D02*
X105046239Y-89601857D01*
X105370048Y-89601857D02*
X105208143Y-89763762D01*
X105208143Y-89763762D02*
X105046239Y-90087572D01*
X105046239Y-90087572D02*
X105046239Y-90573286D01*
X105046239Y-90573286D02*
X105208143Y-90897095D01*
X105208143Y-90897095D02*
X105531953Y-91059000D01*
X105531953Y-91059000D02*
X107312905Y-91059000D01*
X105531953Y-91059000D02*
X105208143Y-91220905D01*
X105208143Y-91220905D02*
X105046239Y-91544714D01*
X105046239Y-91544714D02*
X105046239Y-92030429D01*
X105046239Y-92030429D02*
X105208143Y-92354238D01*
X105208143Y-92354238D02*
X105531953Y-92516143D01*
X105531953Y-92516143D02*
X107312905Y-92516143D01*
X107312905Y-96725666D02*
X103912905Y-96725666D01*
X105046239Y-98344714D02*
X107312905Y-98344714D01*
X105370048Y-98344714D02*
X105208143Y-98506619D01*
X105208143Y-98506619D02*
X105046239Y-98830429D01*
X105046239Y-98830429D02*
X105046239Y-99316143D01*
X105046239Y-99316143D02*
X105208143Y-99639952D01*
X105208143Y-99639952D02*
X105531953Y-99801857D01*
X105531953Y-99801857D02*
X107312905Y-99801857D01*
X107151001Y-102878047D02*
X107312905Y-102554238D01*
X107312905Y-102554238D02*
X107312905Y-101906619D01*
X107312905Y-101906619D02*
X107151001Y-101582809D01*
X107151001Y-101582809D02*
X106989096Y-101420904D01*
X106989096Y-101420904D02*
X106665286Y-101259000D01*
X106665286Y-101259000D02*
X105693858Y-101259000D01*
X105693858Y-101259000D02*
X105370048Y-101420904D01*
X105370048Y-101420904D02*
X105208143Y-101582809D01*
X105208143Y-101582809D02*
X105046239Y-101906619D01*
X105046239Y-101906619D02*
X105046239Y-102554238D01*
X105046239Y-102554238D02*
X105208143Y-102878047D01*
X118167001Y-71549477D02*
X118328905Y-72035191D01*
X118328905Y-72035191D02*
X118328905Y-72844715D01*
X118328905Y-72844715D02*
X118167001Y-73168524D01*
X118167001Y-73168524D02*
X118005096Y-73330429D01*
X118005096Y-73330429D02*
X117681286Y-73492334D01*
X117681286Y-73492334D02*
X117357477Y-73492334D01*
X117357477Y-73492334D02*
X117033667Y-73330429D01*
X117033667Y-73330429D02*
X116871762Y-73168524D01*
X116871762Y-73168524D02*
X116709858Y-72844715D01*
X116709858Y-72844715D02*
X116547953Y-72197096D01*
X116547953Y-72197096D02*
X116386048Y-71873286D01*
X116386048Y-71873286D02*
X116224143Y-71711381D01*
X116224143Y-71711381D02*
X115900334Y-71549477D01*
X115900334Y-71549477D02*
X115576524Y-71549477D01*
X115576524Y-71549477D02*
X115252715Y-71711381D01*
X115252715Y-71711381D02*
X115090810Y-71873286D01*
X115090810Y-71873286D02*
X114928905Y-72197096D01*
X114928905Y-72197096D02*
X114928905Y-73006619D01*
X114928905Y-73006619D02*
X115090810Y-73492334D01*
X118328905Y-75435191D02*
X118167001Y-75111381D01*
X118167001Y-75111381D02*
X118005096Y-74949476D01*
X118005096Y-74949476D02*
X117681286Y-74787572D01*
X117681286Y-74787572D02*
X116709858Y-74787572D01*
X116709858Y-74787572D02*
X116386048Y-74949476D01*
X116386048Y-74949476D02*
X116224143Y-75111381D01*
X116224143Y-75111381D02*
X116062239Y-75435191D01*
X116062239Y-75435191D02*
X116062239Y-75920905D01*
X116062239Y-75920905D02*
X116224143Y-76244714D01*
X116224143Y-76244714D02*
X116386048Y-76406619D01*
X116386048Y-76406619D02*
X116709858Y-76568524D01*
X116709858Y-76568524D02*
X117681286Y-76568524D01*
X117681286Y-76568524D02*
X118005096Y-76406619D01*
X118005096Y-76406619D02*
X118167001Y-76244714D01*
X118167001Y-76244714D02*
X118328905Y-75920905D01*
X118328905Y-75920905D02*
X118328905Y-75435191D01*
X116062239Y-77539952D02*
X116062239Y-78835190D01*
X118328905Y-78025666D02*
X115414620Y-78025666D01*
X115414620Y-78025666D02*
X115090810Y-78187571D01*
X115090810Y-78187571D02*
X114928905Y-78511381D01*
X114928905Y-78511381D02*
X114928905Y-78835190D01*
X116062239Y-79482809D02*
X116062239Y-80778047D01*
X114928905Y-79968523D02*
X117843191Y-79968523D01*
X117843191Y-79968523D02*
X118167001Y-80130428D01*
X118167001Y-80130428D02*
X118328905Y-80454238D01*
X118328905Y-80454238D02*
X118328905Y-80778047D01*
X116062239Y-81587571D02*
X118328905Y-82235190D01*
X118328905Y-82235190D02*
X116709858Y-82882809D01*
X116709858Y-82882809D02*
X118328905Y-83530428D01*
X118328905Y-83530428D02*
X116062239Y-84178047D01*
X118328905Y-86930428D02*
X116547953Y-86930428D01*
X116547953Y-86930428D02*
X116224143Y-86768523D01*
X116224143Y-86768523D02*
X116062239Y-86444714D01*
X116062239Y-86444714D02*
X116062239Y-85797095D01*
X116062239Y-85797095D02*
X116224143Y-85473285D01*
X118167001Y-86930428D02*
X118328905Y-86606619D01*
X118328905Y-86606619D02*
X118328905Y-85797095D01*
X118328905Y-85797095D02*
X118167001Y-85473285D01*
X118167001Y-85473285D02*
X117843191Y-85311381D01*
X117843191Y-85311381D02*
X117519381Y-85311381D01*
X117519381Y-85311381D02*
X117195572Y-85473285D01*
X117195572Y-85473285D02*
X117033667Y-85797095D01*
X117033667Y-85797095D02*
X117033667Y-86606619D01*
X117033667Y-86606619D02*
X116871762Y-86930428D01*
X118328905Y-88549475D02*
X116062239Y-88549475D01*
X116709858Y-88549475D02*
X116386048Y-88711380D01*
X116386048Y-88711380D02*
X116224143Y-88873285D01*
X116224143Y-88873285D02*
X116062239Y-89197094D01*
X116062239Y-89197094D02*
X116062239Y-89520904D01*
X118167001Y-91949475D02*
X118328905Y-91625666D01*
X118328905Y-91625666D02*
X118328905Y-90978047D01*
X118328905Y-90978047D02*
X118167001Y-90654237D01*
X118167001Y-90654237D02*
X117843191Y-90492333D01*
X117843191Y-90492333D02*
X116547953Y-90492333D01*
X116547953Y-90492333D02*
X116224143Y-90654237D01*
X116224143Y-90654237D02*
X116062239Y-90978047D01*
X116062239Y-90978047D02*
X116062239Y-91625666D01*
X116062239Y-91625666D02*
X116224143Y-91949475D01*
X116224143Y-91949475D02*
X116547953Y-92111380D01*
X116547953Y-92111380D02*
X116871762Y-92111380D01*
X116871762Y-92111380D02*
X117195572Y-90492333D01*
X114928905Y-96806618D02*
X114928905Y-97454237D01*
X114928905Y-97454237D02*
X115090810Y-97778047D01*
X115090810Y-97778047D02*
X115414620Y-98101856D01*
X115414620Y-98101856D02*
X116062239Y-98263761D01*
X116062239Y-98263761D02*
X117195572Y-98263761D01*
X117195572Y-98263761D02*
X117843191Y-98101856D01*
X117843191Y-98101856D02*
X118167001Y-97778047D01*
X118167001Y-97778047D02*
X118328905Y-97454237D01*
X118328905Y-97454237D02*
X118328905Y-96806618D01*
X118328905Y-96806618D02*
X118167001Y-96482809D01*
X118167001Y-96482809D02*
X117843191Y-96158999D01*
X117843191Y-96158999D02*
X117195572Y-95997095D01*
X117195572Y-95997095D02*
X116062239Y-95997095D01*
X116062239Y-95997095D02*
X115414620Y-96158999D01*
X115414620Y-96158999D02*
X115090810Y-96482809D01*
X115090810Y-96482809D02*
X114928905Y-96806618D01*
X116062239Y-99720904D02*
X118328905Y-99720904D01*
X116386048Y-99720904D02*
X116224143Y-99882809D01*
X116224143Y-99882809D02*
X116062239Y-100206619D01*
X116062239Y-100206619D02*
X116062239Y-100692333D01*
X116062239Y-100692333D02*
X116224143Y-101016142D01*
X116224143Y-101016142D02*
X116547953Y-101178047D01*
X116547953Y-101178047D02*
X118328905Y-101178047D01*
X118167001Y-102635190D02*
X118328905Y-102958999D01*
X118328905Y-102958999D02*
X118328905Y-103606618D01*
X118328905Y-103606618D02*
X118167001Y-103930428D01*
X118167001Y-103930428D02*
X117843191Y-104092332D01*
X117843191Y-104092332D02*
X117681286Y-104092332D01*
X117681286Y-104092332D02*
X117357477Y-103930428D01*
X117357477Y-103930428D02*
X117195572Y-103606618D01*
X117195572Y-103606618D02*
X117195572Y-103120904D01*
X117195572Y-103120904D02*
X117033667Y-102797094D01*
X117033667Y-102797094D02*
X116709858Y-102635190D01*
X116709858Y-102635190D02*
X116547953Y-102635190D01*
X116547953Y-102635190D02*
X116224143Y-102797094D01*
X116224143Y-102797094D02*
X116062239Y-103120904D01*
X116062239Y-103120904D02*
X116062239Y-103606618D01*
X116062239Y-103606618D02*
X116224143Y-103930428D01*
X118328905Y-105549475D02*
X116062239Y-105549475D01*
X114928905Y-105549475D02*
X115090810Y-105387571D01*
X115090810Y-105387571D02*
X115252715Y-105549475D01*
X115252715Y-105549475D02*
X115090810Y-105711380D01*
X115090810Y-105711380D02*
X114928905Y-105549475D01*
X114928905Y-105549475D02*
X115252715Y-105549475D01*
X116062239Y-106682809D02*
X116062239Y-107978047D01*
X114928905Y-107168523D02*
X117843191Y-107168523D01*
X117843191Y-107168523D02*
X118167001Y-107330428D01*
X118167001Y-107330428D02*
X118328905Y-107654238D01*
X118328905Y-107654238D02*
X118328905Y-107978047D01*
X118167001Y-110406618D02*
X118328905Y-110082809D01*
X118328905Y-110082809D02*
X118328905Y-109435190D01*
X118328905Y-109435190D02*
X118167001Y-109111380D01*
X118167001Y-109111380D02*
X117843191Y-108949476D01*
X117843191Y-108949476D02*
X116547953Y-108949476D01*
X116547953Y-108949476D02*
X116224143Y-109111380D01*
X116224143Y-109111380D02*
X116062239Y-109435190D01*
X116062239Y-109435190D02*
X116062239Y-110082809D01*
X116062239Y-110082809D02*
X116224143Y-110406618D01*
X116224143Y-110406618D02*
X116547953Y-110568523D01*
X116547953Y-110568523D02*
X116871762Y-110568523D01*
X116871762Y-110568523D02*
X117195572Y-108949476D01*
D11*
X110489714Y-63568238D02*
X110584952Y-63520619D01*
X110584952Y-63520619D02*
X110727809Y-63520619D01*
X110727809Y-63520619D02*
X110870666Y-63568238D01*
X110870666Y-63568238D02*
X110965904Y-63663476D01*
X110965904Y-63663476D02*
X111013523Y-63758714D01*
X111013523Y-63758714D02*
X111061142Y-63949190D01*
X111061142Y-63949190D02*
X111061142Y-64092047D01*
X111061142Y-64092047D02*
X111013523Y-64282523D01*
X111013523Y-64282523D02*
X110965904Y-64377761D01*
X110965904Y-64377761D02*
X110870666Y-64473000D01*
X110870666Y-64473000D02*
X110727809Y-64520619D01*
X110727809Y-64520619D02*
X110632571Y-64520619D01*
X110632571Y-64520619D02*
X110489714Y-64473000D01*
X110489714Y-64473000D02*
X110442095Y-64425380D01*
X110442095Y-64425380D02*
X110442095Y-64092047D01*
X110442095Y-64092047D02*
X110632571Y-64092047D01*
X110013523Y-64520619D02*
X110013523Y-63520619D01*
X110013523Y-63520619D02*
X109442095Y-64520619D01*
X109442095Y-64520619D02*
X109442095Y-63520619D01*
X108965904Y-64520619D02*
X108965904Y-63520619D01*
X108965904Y-63520619D02*
X108727809Y-63520619D01*
X108727809Y-63520619D02*
X108584952Y-63568238D01*
X108584952Y-63568238D02*
X108489714Y-63663476D01*
X108489714Y-63663476D02*
X108442095Y-63758714D01*
X108442095Y-63758714D02*
X108394476Y-63949190D01*
X108394476Y-63949190D02*
X108394476Y-64092047D01*
X108394476Y-64092047D02*
X108442095Y-64282523D01*
X108442095Y-64282523D02*
X108489714Y-64377761D01*
X108489714Y-64377761D02*
X108584952Y-64473000D01*
X108584952Y-64473000D02*
X108727809Y-64520619D01*
X108727809Y-64520619D02*
X108965904Y-64520619D01*
X111013523Y-66679666D02*
X110251619Y-66679666D01*
X110632571Y-67060619D02*
X110632571Y-66298714D01*
X109299238Y-66060619D02*
X109775428Y-66060619D01*
X109775428Y-66060619D02*
X109823047Y-66536809D01*
X109823047Y-66536809D02*
X109775428Y-66489190D01*
X109775428Y-66489190D02*
X109680190Y-66441571D01*
X109680190Y-66441571D02*
X109442095Y-66441571D01*
X109442095Y-66441571D02*
X109346857Y-66489190D01*
X109346857Y-66489190D02*
X109299238Y-66536809D01*
X109299238Y-66536809D02*
X109251619Y-66632047D01*
X109251619Y-66632047D02*
X109251619Y-66870142D01*
X109251619Y-66870142D02*
X109299238Y-66965380D01*
X109299238Y-66965380D02*
X109346857Y-67013000D01*
X109346857Y-67013000D02*
X109442095Y-67060619D01*
X109442095Y-67060619D02*
X109680190Y-67060619D01*
X109680190Y-67060619D02*
X109775428Y-67013000D01*
X109775428Y-67013000D02*
X109823047Y-66965380D01*
X108965904Y-66060619D02*
X108632571Y-67060619D01*
X108632571Y-67060619D02*
X108299238Y-66060619D01*
D10*
X142947857Y-82225857D02*
X139947857Y-82225857D01*
X139947857Y-82225857D02*
X142090714Y-83225857D01*
X142090714Y-83225857D02*
X139947857Y-84225857D01*
X139947857Y-84225857D02*
X142947857Y-84225857D01*
X142947857Y-86940143D02*
X141376428Y-86940143D01*
X141376428Y-86940143D02*
X141090714Y-86797285D01*
X141090714Y-86797285D02*
X140947857Y-86511571D01*
X140947857Y-86511571D02*
X140947857Y-85940143D01*
X140947857Y-85940143D02*
X141090714Y-85654428D01*
X142805000Y-86940143D02*
X142947857Y-86654428D01*
X142947857Y-86654428D02*
X142947857Y-85940143D01*
X142947857Y-85940143D02*
X142805000Y-85654428D01*
X142805000Y-85654428D02*
X142519285Y-85511571D01*
X142519285Y-85511571D02*
X142233571Y-85511571D01*
X142233571Y-85511571D02*
X141947857Y-85654428D01*
X141947857Y-85654428D02*
X141805000Y-85940143D01*
X141805000Y-85940143D02*
X141805000Y-86654428D01*
X141805000Y-86654428D02*
X141662142Y-86940143D01*
X140947857Y-88083000D02*
X142947857Y-88797286D01*
X140947857Y-89511571D02*
X142947857Y-88797286D01*
X142947857Y-88797286D02*
X143662142Y-88511571D01*
X143662142Y-88511571D02*
X143805000Y-88368714D01*
X143805000Y-88368714D02*
X143947857Y-88083000D01*
X140233571Y-92797285D02*
X140090714Y-92940142D01*
X140090714Y-92940142D02*
X139947857Y-93225857D01*
X139947857Y-93225857D02*
X139947857Y-93940142D01*
X139947857Y-93940142D02*
X140090714Y-94225857D01*
X140090714Y-94225857D02*
X140233571Y-94368714D01*
X140233571Y-94368714D02*
X140519285Y-94511571D01*
X140519285Y-94511571D02*
X140805000Y-94511571D01*
X140805000Y-94511571D02*
X141233571Y-94368714D01*
X141233571Y-94368714D02*
X142947857Y-92654428D01*
X142947857Y-92654428D02*
X142947857Y-94511571D01*
X139947857Y-96368714D02*
X139947857Y-96654428D01*
X139947857Y-96654428D02*
X140090714Y-96940142D01*
X140090714Y-96940142D02*
X140233571Y-97083000D01*
X140233571Y-97083000D02*
X140519285Y-97225857D01*
X140519285Y-97225857D02*
X141090714Y-97368714D01*
X141090714Y-97368714D02*
X141805000Y-97368714D01*
X141805000Y-97368714D02*
X142376428Y-97225857D01*
X142376428Y-97225857D02*
X142662142Y-97083000D01*
X142662142Y-97083000D02*
X142805000Y-96940142D01*
X142805000Y-96940142D02*
X142947857Y-96654428D01*
X142947857Y-96654428D02*
X142947857Y-96368714D01*
X142947857Y-96368714D02*
X142805000Y-96083000D01*
X142805000Y-96083000D02*
X142662142Y-95940142D01*
X142662142Y-95940142D02*
X142376428Y-95797285D01*
X142376428Y-95797285D02*
X141805000Y-95654428D01*
X141805000Y-95654428D02*
X141090714Y-95654428D01*
X141090714Y-95654428D02*
X140519285Y-95797285D01*
X140519285Y-95797285D02*
X140233571Y-95940142D01*
X140233571Y-95940142D02*
X140090714Y-96083000D01*
X140090714Y-96083000D02*
X139947857Y-96368714D01*
X140233571Y-98511571D02*
X140090714Y-98654428D01*
X140090714Y-98654428D02*
X139947857Y-98940143D01*
X139947857Y-98940143D02*
X139947857Y-99654428D01*
X139947857Y-99654428D02*
X140090714Y-99940143D01*
X140090714Y-99940143D02*
X140233571Y-100083000D01*
X140233571Y-100083000D02*
X140519285Y-100225857D01*
X140519285Y-100225857D02*
X140805000Y-100225857D01*
X140805000Y-100225857D02*
X141233571Y-100083000D01*
X141233571Y-100083000D02*
X142947857Y-98368714D01*
X142947857Y-98368714D02*
X142947857Y-100225857D01*
X139947857Y-101225857D02*
X139947857Y-103083000D01*
X139947857Y-103083000D02*
X141090714Y-102083000D01*
X141090714Y-102083000D02*
X141090714Y-102511571D01*
X141090714Y-102511571D02*
X141233571Y-102797286D01*
X141233571Y-102797286D02*
X141376428Y-102940143D01*
X141376428Y-102940143D02*
X141662142Y-103083000D01*
X141662142Y-103083000D02*
X142376428Y-103083000D01*
X142376428Y-103083000D02*
X142662142Y-102940143D01*
X142662142Y-102940143D02*
X142805000Y-102797286D01*
X142805000Y-102797286D02*
X142947857Y-102511571D01*
X142947857Y-102511571D02*
X142947857Y-101654428D01*
X142947857Y-101654428D02*
X142805000Y-101368714D01*
X142805000Y-101368714D02*
X142662142Y-101225857D01*
X150667857Y-88297286D02*
X152667857Y-89011572D01*
X152667857Y-89011572D02*
X150667857Y-89725857D01*
X152667857Y-92440143D02*
X152667857Y-90725857D01*
X152667857Y-91583000D02*
X149667857Y-91583000D01*
X149667857Y-91583000D02*
X150096428Y-91297286D01*
X150096428Y-91297286D02*
X150382142Y-91011571D01*
X150382142Y-91011571D02*
X150525000Y-90725857D01*
X152382142Y-93725857D02*
X152525000Y-93868714D01*
X152525000Y-93868714D02*
X152667857Y-93725857D01*
X152667857Y-93725857D02*
X152525000Y-93583000D01*
X152525000Y-93583000D02*
X152382142Y-93725857D01*
X152382142Y-93725857D02*
X152667857Y-93725857D01*
X152667857Y-96725857D02*
X152667857Y-95011571D01*
X152667857Y-95868714D02*
X149667857Y-95868714D01*
X149667857Y-95868714D02*
X150096428Y-95583000D01*
X150096428Y-95583000D02*
X150382142Y-95297285D01*
X150382142Y-95297285D02*
X150525000Y-95011571D01*
D11*
X111442095Y-61853619D02*
X111442095Y-60853619D01*
X111442095Y-60853619D02*
X111204000Y-60853619D01*
X111204000Y-60853619D02*
X111061143Y-60901238D01*
X111061143Y-60901238D02*
X110965905Y-60996476D01*
X110965905Y-60996476D02*
X110918286Y-61091714D01*
X110918286Y-61091714D02*
X110870667Y-61282190D01*
X110870667Y-61282190D02*
X110870667Y-61425047D01*
X110870667Y-61425047D02*
X110918286Y-61615523D01*
X110918286Y-61615523D02*
X110965905Y-61710761D01*
X110965905Y-61710761D02*
X111061143Y-61806000D01*
X111061143Y-61806000D02*
X111204000Y-61853619D01*
X111204000Y-61853619D02*
X111442095Y-61853619D01*
X110489714Y-61567904D02*
X110013524Y-61567904D01*
X110584952Y-61853619D02*
X110251619Y-60853619D01*
X110251619Y-60853619D02*
X109918286Y-61853619D01*
X109727809Y-60853619D02*
X109156381Y-60853619D01*
X109442095Y-61853619D02*
X109442095Y-60853619D01*
X108870666Y-61567904D02*
X108394476Y-61567904D01*
X108965904Y-61853619D02*
X108632571Y-60853619D01*
X108632571Y-60853619D02*
X108299238Y-61853619D01*
D12*
X187800428Y-85654428D02*
X188871857Y-85654428D01*
X188871857Y-85654428D02*
X189086142Y-85582999D01*
X189086142Y-85582999D02*
X189229000Y-85440142D01*
X189229000Y-85440142D02*
X189300428Y-85225856D01*
X189300428Y-85225856D02*
X189300428Y-85082999D01*
X189300428Y-87082999D02*
X189300428Y-86368713D01*
X189300428Y-86368713D02*
X187800428Y-86368713D01*
X189157571Y-88440142D02*
X189229000Y-88368714D01*
X189229000Y-88368714D02*
X189300428Y-88154428D01*
X189300428Y-88154428D02*
X189300428Y-88011571D01*
X189300428Y-88011571D02*
X189229000Y-87797285D01*
X189229000Y-87797285D02*
X189086142Y-87654428D01*
X189086142Y-87654428D02*
X188943285Y-87582999D01*
X188943285Y-87582999D02*
X188657571Y-87511571D01*
X188657571Y-87511571D02*
X188443285Y-87511571D01*
X188443285Y-87511571D02*
X188157571Y-87582999D01*
X188157571Y-87582999D02*
X188014714Y-87654428D01*
X188014714Y-87654428D02*
X187871857Y-87797285D01*
X187871857Y-87797285D02*
X187800428Y-88011571D01*
X187800428Y-88011571D02*
X187800428Y-88154428D01*
X187800428Y-88154428D02*
X187871857Y-88368714D01*
X187871857Y-88368714D02*
X187943285Y-88440142D01*
X187800428Y-89511571D02*
X188871857Y-89511571D01*
X188871857Y-89511571D02*
X189086142Y-89440142D01*
X189086142Y-89440142D02*
X189229000Y-89297285D01*
X189229000Y-89297285D02*
X189300428Y-89082999D01*
X189300428Y-89082999D02*
X189300428Y-88940142D01*
X189300428Y-90940142D02*
X189300428Y-90225856D01*
X189300428Y-90225856D02*
X187800428Y-90225856D01*
X189157571Y-92297285D02*
X189229000Y-92225857D01*
X189229000Y-92225857D02*
X189300428Y-92011571D01*
X189300428Y-92011571D02*
X189300428Y-91868714D01*
X189300428Y-91868714D02*
X189229000Y-91654428D01*
X189229000Y-91654428D02*
X189086142Y-91511571D01*
X189086142Y-91511571D02*
X188943285Y-91440142D01*
X188943285Y-91440142D02*
X188657571Y-91368714D01*
X188657571Y-91368714D02*
X188443285Y-91368714D01*
X188443285Y-91368714D02*
X188157571Y-91440142D01*
X188157571Y-91440142D02*
X188014714Y-91511571D01*
X188014714Y-91511571D02*
X187871857Y-91654428D01*
X187871857Y-91654428D02*
X187800428Y-91868714D01*
X187800428Y-91868714D02*
X187800428Y-92011571D01*
X187800428Y-92011571D02*
X187871857Y-92225857D01*
X187871857Y-92225857D02*
X187943285Y-92297285D01*
X187800428Y-93368714D02*
X188871857Y-93368714D01*
X188871857Y-93368714D02*
X189086142Y-93297285D01*
X189086142Y-93297285D02*
X189229000Y-93154428D01*
X189229000Y-93154428D02*
X189300428Y-92940142D01*
X189300428Y-92940142D02*
X189300428Y-92797285D01*
X189300428Y-94797285D02*
X189300428Y-94082999D01*
X189300428Y-94082999D02*
X187800428Y-94082999D01*
X189157571Y-96154428D02*
X189229000Y-96083000D01*
X189229000Y-96083000D02*
X189300428Y-95868714D01*
X189300428Y-95868714D02*
X189300428Y-95725857D01*
X189300428Y-95725857D02*
X189229000Y-95511571D01*
X189229000Y-95511571D02*
X189086142Y-95368714D01*
X189086142Y-95368714D02*
X188943285Y-95297285D01*
X188943285Y-95297285D02*
X188657571Y-95225857D01*
X188657571Y-95225857D02*
X188443285Y-95225857D01*
X188443285Y-95225857D02*
X188157571Y-95297285D01*
X188157571Y-95297285D02*
X188014714Y-95368714D01*
X188014714Y-95368714D02*
X187871857Y-95511571D01*
X187871857Y-95511571D02*
X187800428Y-95725857D01*
X187800428Y-95725857D02*
X187800428Y-95868714D01*
X187800428Y-95868714D02*
X187871857Y-96083000D01*
X187871857Y-96083000D02*
X187943285Y-96154428D01*
X187800428Y-97225857D02*
X188871857Y-97225857D01*
X188871857Y-97225857D02*
X189086142Y-97154428D01*
X189086142Y-97154428D02*
X189229000Y-97011571D01*
X189229000Y-97011571D02*
X189300428Y-96797285D01*
X189300428Y-96797285D02*
X189300428Y-96654428D01*
X189300428Y-98654428D02*
X189300428Y-97940142D01*
X189300428Y-97940142D02*
X187800428Y-97940142D01*
X189157571Y-100011571D02*
X189229000Y-99940143D01*
X189229000Y-99940143D02*
X189300428Y-99725857D01*
X189300428Y-99725857D02*
X189300428Y-99583000D01*
X189300428Y-99583000D02*
X189229000Y-99368714D01*
X189229000Y-99368714D02*
X189086142Y-99225857D01*
X189086142Y-99225857D02*
X188943285Y-99154428D01*
X188943285Y-99154428D02*
X188657571Y-99083000D01*
X188657571Y-99083000D02*
X188443285Y-99083000D01*
X188443285Y-99083000D02*
X188157571Y-99154428D01*
X188157571Y-99154428D02*
X188014714Y-99225857D01*
X188014714Y-99225857D02*
X187871857Y-99368714D01*
X187871857Y-99368714D02*
X187800428Y-99583000D01*
X187800428Y-99583000D02*
X187800428Y-99725857D01*
X187800428Y-99725857D02*
X187871857Y-99940143D01*
X187871857Y-99940143D02*
X187943285Y-100011571D01*
D11*
G04 #@! TO.C,D17*
X182988285Y-91052619D02*
X182988285Y-90052619D01*
X182988285Y-90052619D02*
X182750190Y-90052619D01*
X182750190Y-90052619D02*
X182607333Y-90100238D01*
X182607333Y-90100238D02*
X182512095Y-90195476D01*
X182512095Y-90195476D02*
X182464476Y-90290714D01*
X182464476Y-90290714D02*
X182416857Y-90481190D01*
X182416857Y-90481190D02*
X182416857Y-90624047D01*
X182416857Y-90624047D02*
X182464476Y-90814523D01*
X182464476Y-90814523D02*
X182512095Y-90909761D01*
X182512095Y-90909761D02*
X182607333Y-91005000D01*
X182607333Y-91005000D02*
X182750190Y-91052619D01*
X182750190Y-91052619D02*
X182988285Y-91052619D01*
X181464476Y-91052619D02*
X182035904Y-91052619D01*
X181750190Y-91052619D02*
X181750190Y-90052619D01*
X181750190Y-90052619D02*
X181845428Y-90195476D01*
X181845428Y-90195476D02*
X181940666Y-90290714D01*
X181940666Y-90290714D02*
X182035904Y-90338333D01*
X181131142Y-90052619D02*
X180464476Y-90052619D01*
X180464476Y-90052619D02*
X180893047Y-91052619D01*
G04 #@! TO.C,D15*
X182988285Y-80722619D02*
X182988285Y-79722619D01*
X182988285Y-79722619D02*
X182750190Y-79722619D01*
X182750190Y-79722619D02*
X182607333Y-79770238D01*
X182607333Y-79770238D02*
X182512095Y-79865476D01*
X182512095Y-79865476D02*
X182464476Y-79960714D01*
X182464476Y-79960714D02*
X182416857Y-80151190D01*
X182416857Y-80151190D02*
X182416857Y-80294047D01*
X182416857Y-80294047D02*
X182464476Y-80484523D01*
X182464476Y-80484523D02*
X182512095Y-80579761D01*
X182512095Y-80579761D02*
X182607333Y-80675000D01*
X182607333Y-80675000D02*
X182750190Y-80722619D01*
X182750190Y-80722619D02*
X182988285Y-80722619D01*
X181464476Y-80722619D02*
X182035904Y-80722619D01*
X181750190Y-80722619D02*
X181750190Y-79722619D01*
X181750190Y-79722619D02*
X181845428Y-79865476D01*
X181845428Y-79865476D02*
X181940666Y-79960714D01*
X181940666Y-79960714D02*
X182035904Y-80008333D01*
X180559714Y-79722619D02*
X181035904Y-79722619D01*
X181035904Y-79722619D02*
X181083523Y-80198809D01*
X181083523Y-80198809D02*
X181035904Y-80151190D01*
X181035904Y-80151190D02*
X180940666Y-80103571D01*
X180940666Y-80103571D02*
X180702571Y-80103571D01*
X180702571Y-80103571D02*
X180607333Y-80151190D01*
X180607333Y-80151190D02*
X180559714Y-80198809D01*
X180559714Y-80198809D02*
X180512095Y-80294047D01*
X180512095Y-80294047D02*
X180512095Y-80532142D01*
X180512095Y-80532142D02*
X180559714Y-80627380D01*
X180559714Y-80627380D02*
X180607333Y-80675000D01*
X180607333Y-80675000D02*
X180702571Y-80722619D01*
X180702571Y-80722619D02*
X180940666Y-80722619D01*
X180940666Y-80722619D02*
X181035904Y-80675000D01*
X181035904Y-80675000D02*
X181083523Y-80627380D01*
G04 #@! TO.C,D7*
X147288094Y-79452619D02*
X147288094Y-78452619D01*
X147288094Y-78452619D02*
X147049999Y-78452619D01*
X147049999Y-78452619D02*
X146907142Y-78500238D01*
X146907142Y-78500238D02*
X146811904Y-78595476D01*
X146811904Y-78595476D02*
X146764285Y-78690714D01*
X146764285Y-78690714D02*
X146716666Y-78881190D01*
X146716666Y-78881190D02*
X146716666Y-79024047D01*
X146716666Y-79024047D02*
X146764285Y-79214523D01*
X146764285Y-79214523D02*
X146811904Y-79309761D01*
X146811904Y-79309761D02*
X146907142Y-79405000D01*
X146907142Y-79405000D02*
X147049999Y-79452619D01*
X147049999Y-79452619D02*
X147288094Y-79452619D01*
X146383332Y-78452619D02*
X145716666Y-78452619D01*
X145716666Y-78452619D02*
X146145237Y-79452619D01*
G04 #@! TO.C,D14*
X182909280Y-74189409D02*
X182567260Y-73249716D01*
X182567260Y-73249716D02*
X182343523Y-73331150D01*
X182343523Y-73331150D02*
X182225568Y-73424757D01*
X182225568Y-73424757D02*
X182168647Y-73546825D01*
X182168647Y-73546825D02*
X182156473Y-73652606D01*
X182156473Y-73652606D02*
X182176873Y-73847882D01*
X182176873Y-73847882D02*
X182225733Y-73982124D01*
X182225733Y-73982124D02*
X182335627Y-74144826D01*
X182335627Y-74144826D02*
X182412947Y-74218034D01*
X182412947Y-74218034D02*
X182535015Y-74274955D01*
X182535015Y-74274955D02*
X182685544Y-74270842D01*
X182685544Y-74270842D02*
X182909280Y-74189409D01*
X181477367Y-74710583D02*
X182014335Y-74515142D01*
X181745851Y-74612863D02*
X181403831Y-73673170D01*
X181403831Y-73673170D02*
X181542185Y-73774838D01*
X181542185Y-73774838D02*
X181664253Y-73831760D01*
X181664253Y-73831760D02*
X181770034Y-73843933D01*
X180443903Y-74377281D02*
X180671916Y-75003743D01*
X180537346Y-73937869D02*
X181005382Y-74527645D01*
X181005382Y-74527645D02*
X180423668Y-74739372D01*
G04 #@! TO.C,D25*
X125460590Y-68099280D02*
X126400283Y-67757260D01*
X126400283Y-67757260D02*
X126318849Y-67533523D01*
X126318849Y-67533523D02*
X126225242Y-67415568D01*
X126225242Y-67415568D02*
X126103174Y-67358647D01*
X126103174Y-67358647D02*
X125997393Y-67346473D01*
X125997393Y-67346473D02*
X125802117Y-67366873D01*
X125802117Y-67366873D02*
X125667875Y-67415733D01*
X125667875Y-67415733D02*
X125505173Y-67525627D01*
X125505173Y-67525627D02*
X125431965Y-67602947D01*
X125431965Y-67602947D02*
X125375044Y-67725015D01*
X125375044Y-67725015D02*
X125379157Y-67875544D01*
X125379157Y-67875544D02*
X125460590Y-68099280D01*
X125985055Y-66894888D02*
X126013515Y-66833854D01*
X126013515Y-66833854D02*
X126025689Y-66728073D01*
X126025689Y-66728073D02*
X125944256Y-66504336D01*
X125944256Y-66504336D02*
X125866935Y-66431128D01*
X125866935Y-66431128D02*
X125805901Y-66402668D01*
X125805901Y-66402668D02*
X125700120Y-66390494D01*
X125700120Y-66390494D02*
X125610625Y-66423067D01*
X125610625Y-66423067D02*
X125492670Y-66516675D01*
X125492670Y-66516675D02*
X125151143Y-67249082D01*
X125151143Y-67249082D02*
X124939416Y-66667367D01*
X125569662Y-65475149D02*
X125732529Y-65922622D01*
X125732529Y-65922622D02*
X125301343Y-66130236D01*
X125301343Y-66130236D02*
X125329804Y-66069202D01*
X125329804Y-66069202D02*
X125341977Y-65963421D01*
X125341977Y-65963421D02*
X125260544Y-65739684D01*
X125260544Y-65739684D02*
X125183224Y-65666476D01*
X125183224Y-65666476D02*
X125122190Y-65638016D01*
X125122190Y-65638016D02*
X125016408Y-65625842D01*
X125016408Y-65625842D02*
X124792672Y-65707275D01*
X124792672Y-65707275D02*
X124719464Y-65784596D01*
X124719464Y-65784596D02*
X124691004Y-65845630D01*
X124691004Y-65845630D02*
X124678830Y-65951411D01*
X124678830Y-65951411D02*
X124760263Y-66175147D01*
X124760263Y-66175147D02*
X124837584Y-66248355D01*
X124837584Y-66248355D02*
X124898618Y-66276816D01*
G04 #@! TO.C,D16*
X182984285Y-85882619D02*
X182984285Y-84882619D01*
X182984285Y-84882619D02*
X182746190Y-84882619D01*
X182746190Y-84882619D02*
X182603333Y-84930238D01*
X182603333Y-84930238D02*
X182508095Y-85025476D01*
X182508095Y-85025476D02*
X182460476Y-85120714D01*
X182460476Y-85120714D02*
X182412857Y-85311190D01*
X182412857Y-85311190D02*
X182412857Y-85454047D01*
X182412857Y-85454047D02*
X182460476Y-85644523D01*
X182460476Y-85644523D02*
X182508095Y-85739761D01*
X182508095Y-85739761D02*
X182603333Y-85835000D01*
X182603333Y-85835000D02*
X182746190Y-85882619D01*
X182746190Y-85882619D02*
X182984285Y-85882619D01*
X181460476Y-85882619D02*
X182031904Y-85882619D01*
X181746190Y-85882619D02*
X181746190Y-84882619D01*
X181746190Y-84882619D02*
X181841428Y-85025476D01*
X181841428Y-85025476D02*
X181936666Y-85120714D01*
X181936666Y-85120714D02*
X182031904Y-85168333D01*
X180603333Y-84882619D02*
X180793809Y-84882619D01*
X180793809Y-84882619D02*
X180889047Y-84930238D01*
X180889047Y-84930238D02*
X180936666Y-84977857D01*
X180936666Y-84977857D02*
X181031904Y-85120714D01*
X181031904Y-85120714D02*
X181079523Y-85311190D01*
X181079523Y-85311190D02*
X181079523Y-85692142D01*
X181079523Y-85692142D02*
X181031904Y-85787380D01*
X181031904Y-85787380D02*
X180984285Y-85835000D01*
X180984285Y-85835000D02*
X180889047Y-85882619D01*
X180889047Y-85882619D02*
X180698571Y-85882619D01*
X180698571Y-85882619D02*
X180603333Y-85835000D01*
X180603333Y-85835000D02*
X180555714Y-85787380D01*
X180555714Y-85787380D02*
X180508095Y-85692142D01*
X180508095Y-85692142D02*
X180508095Y-85454047D01*
X180508095Y-85454047D02*
X180555714Y-85358809D01*
X180555714Y-85358809D02*
X180603333Y-85311190D01*
X180603333Y-85311190D02*
X180698571Y-85263571D01*
X180698571Y-85263571D02*
X180889047Y-85263571D01*
X180889047Y-85263571D02*
X180984285Y-85311190D01*
X180984285Y-85311190D02*
X181031904Y-85358809D01*
X181031904Y-85358809D02*
X181079523Y-85454047D01*
G04 #@! TO.C,D2*
X147288094Y-106332619D02*
X147288094Y-105332619D01*
X147288094Y-105332619D02*
X147049999Y-105332619D01*
X147049999Y-105332619D02*
X146907142Y-105380238D01*
X146907142Y-105380238D02*
X146811904Y-105475476D01*
X146811904Y-105475476D02*
X146764285Y-105570714D01*
X146764285Y-105570714D02*
X146716666Y-105761190D01*
X146716666Y-105761190D02*
X146716666Y-105904047D01*
X146716666Y-105904047D02*
X146764285Y-106094523D01*
X146764285Y-106094523D02*
X146811904Y-106189761D01*
X146811904Y-106189761D02*
X146907142Y-106285000D01*
X146907142Y-106285000D02*
X147049999Y-106332619D01*
X147049999Y-106332619D02*
X147288094Y-106332619D01*
X146335713Y-105427857D02*
X146288094Y-105380238D01*
X146288094Y-105380238D02*
X146192856Y-105332619D01*
X146192856Y-105332619D02*
X145954761Y-105332619D01*
X145954761Y-105332619D02*
X145859523Y-105380238D01*
X145859523Y-105380238D02*
X145811904Y-105427857D01*
X145811904Y-105427857D02*
X145764285Y-105523095D01*
X145764285Y-105523095D02*
X145764285Y-105618333D01*
X145764285Y-105618333D02*
X145811904Y-105761190D01*
X145811904Y-105761190D02*
X146383332Y-106332619D01*
X146383332Y-106332619D02*
X145764285Y-106332619D01*
G04 #@! TO.C,D22*
X144010032Y-71562469D02*
X143436455Y-70743317D01*
X143436455Y-70743317D02*
X143241419Y-70879883D01*
X143241419Y-70879883D02*
X143151710Y-71000830D01*
X143151710Y-71000830D02*
X143128322Y-71133470D01*
X143128322Y-71133470D02*
X143143941Y-71238798D01*
X143143941Y-71238798D02*
X143214187Y-71422140D01*
X143214187Y-71422140D02*
X143296126Y-71539162D01*
X143296126Y-71539162D02*
X143444386Y-71667878D01*
X143444386Y-71667878D02*
X143538020Y-71718579D01*
X143538020Y-71718579D02*
X143670660Y-71741967D01*
X143670660Y-71741967D02*
X143814995Y-71699035D01*
X143814995Y-71699035D02*
X144010032Y-71562469D01*
X142710937Y-71367595D02*
X142644616Y-71355901D01*
X142644616Y-71355901D02*
X142539289Y-71371520D01*
X142539289Y-71371520D02*
X142344252Y-71508086D01*
X142344252Y-71508086D02*
X142293551Y-71601719D01*
X142293551Y-71601719D02*
X142281857Y-71668040D01*
X142281857Y-71668040D02*
X142297476Y-71773367D01*
X142297476Y-71773367D02*
X142352102Y-71851382D01*
X142352102Y-71851382D02*
X142473049Y-71941090D01*
X142473049Y-71941090D02*
X143268894Y-72081419D01*
X143268894Y-72081419D02*
X142761800Y-72436490D01*
X141930792Y-71913858D02*
X141864471Y-71902164D01*
X141864471Y-71902164D02*
X141759144Y-71917783D01*
X141759144Y-71917783D02*
X141564108Y-72054349D01*
X141564108Y-72054349D02*
X141513406Y-72147983D01*
X141513406Y-72147983D02*
X141501712Y-72214303D01*
X141501712Y-72214303D02*
X141517331Y-72319631D01*
X141517331Y-72319631D02*
X141571958Y-72397645D01*
X141571958Y-72397645D02*
X141692904Y-72487354D01*
X141692904Y-72487354D02*
X142488749Y-72627683D01*
X142488749Y-72627683D02*
X141981655Y-72982754D01*
G04 #@! TO.C,D31*
X112974285Y-85044619D02*
X112974285Y-84044619D01*
X112974285Y-84044619D02*
X112736190Y-84044619D01*
X112736190Y-84044619D02*
X112593333Y-84092238D01*
X112593333Y-84092238D02*
X112498095Y-84187476D01*
X112498095Y-84187476D02*
X112450476Y-84282714D01*
X112450476Y-84282714D02*
X112402857Y-84473190D01*
X112402857Y-84473190D02*
X112402857Y-84616047D01*
X112402857Y-84616047D02*
X112450476Y-84806523D01*
X112450476Y-84806523D02*
X112498095Y-84901761D01*
X112498095Y-84901761D02*
X112593333Y-84997000D01*
X112593333Y-84997000D02*
X112736190Y-85044619D01*
X112736190Y-85044619D02*
X112974285Y-85044619D01*
X112069523Y-84044619D02*
X111450476Y-84044619D01*
X111450476Y-84044619D02*
X111783809Y-84425571D01*
X111783809Y-84425571D02*
X111640952Y-84425571D01*
X111640952Y-84425571D02*
X111545714Y-84473190D01*
X111545714Y-84473190D02*
X111498095Y-84520809D01*
X111498095Y-84520809D02*
X111450476Y-84616047D01*
X111450476Y-84616047D02*
X111450476Y-84854142D01*
X111450476Y-84854142D02*
X111498095Y-84949380D01*
X111498095Y-84949380D02*
X111545714Y-84997000D01*
X111545714Y-84997000D02*
X111640952Y-85044619D01*
X111640952Y-85044619D02*
X111926666Y-85044619D01*
X111926666Y-85044619D02*
X112021904Y-84997000D01*
X112021904Y-84997000D02*
X112069523Y-84949380D01*
X110498095Y-85044619D02*
X111069523Y-85044619D01*
X110783809Y-85044619D02*
X110783809Y-84044619D01*
X110783809Y-84044619D02*
X110879047Y-84187476D01*
X110879047Y-84187476D02*
X110974285Y-84282714D01*
X110974285Y-84282714D02*
X111069523Y-84330333D01*
G04 #@! TO.C,D32*
X112974285Y-90378619D02*
X112974285Y-89378619D01*
X112974285Y-89378619D02*
X112736190Y-89378619D01*
X112736190Y-89378619D02*
X112593333Y-89426238D01*
X112593333Y-89426238D02*
X112498095Y-89521476D01*
X112498095Y-89521476D02*
X112450476Y-89616714D01*
X112450476Y-89616714D02*
X112402857Y-89807190D01*
X112402857Y-89807190D02*
X112402857Y-89950047D01*
X112402857Y-89950047D02*
X112450476Y-90140523D01*
X112450476Y-90140523D02*
X112498095Y-90235761D01*
X112498095Y-90235761D02*
X112593333Y-90331000D01*
X112593333Y-90331000D02*
X112736190Y-90378619D01*
X112736190Y-90378619D02*
X112974285Y-90378619D01*
X112069523Y-89378619D02*
X111450476Y-89378619D01*
X111450476Y-89378619D02*
X111783809Y-89759571D01*
X111783809Y-89759571D02*
X111640952Y-89759571D01*
X111640952Y-89759571D02*
X111545714Y-89807190D01*
X111545714Y-89807190D02*
X111498095Y-89854809D01*
X111498095Y-89854809D02*
X111450476Y-89950047D01*
X111450476Y-89950047D02*
X111450476Y-90188142D01*
X111450476Y-90188142D02*
X111498095Y-90283380D01*
X111498095Y-90283380D02*
X111545714Y-90331000D01*
X111545714Y-90331000D02*
X111640952Y-90378619D01*
X111640952Y-90378619D02*
X111926666Y-90378619D01*
X111926666Y-90378619D02*
X112021904Y-90331000D01*
X112021904Y-90331000D02*
X112069523Y-90283380D01*
X111069523Y-89473857D02*
X111021904Y-89426238D01*
X111021904Y-89426238D02*
X110926666Y-89378619D01*
X110926666Y-89378619D02*
X110688571Y-89378619D01*
X110688571Y-89378619D02*
X110593333Y-89426238D01*
X110593333Y-89426238D02*
X110545714Y-89473857D01*
X110545714Y-89473857D02*
X110498095Y-89569095D01*
X110498095Y-89569095D02*
X110498095Y-89664333D01*
X110498095Y-89664333D02*
X110545714Y-89807190D01*
X110545714Y-89807190D02*
X111117142Y-90378619D01*
X111117142Y-90378619D02*
X110498095Y-90378619D01*
G04 #@! TO.C,D27*
X115768285Y-62819619D02*
X115768285Y-61819619D01*
X115768285Y-61819619D02*
X115530190Y-61819619D01*
X115530190Y-61819619D02*
X115387333Y-61867238D01*
X115387333Y-61867238D02*
X115292095Y-61962476D01*
X115292095Y-61962476D02*
X115244476Y-62057714D01*
X115244476Y-62057714D02*
X115196857Y-62248190D01*
X115196857Y-62248190D02*
X115196857Y-62391047D01*
X115196857Y-62391047D02*
X115244476Y-62581523D01*
X115244476Y-62581523D02*
X115292095Y-62676761D01*
X115292095Y-62676761D02*
X115387333Y-62772000D01*
X115387333Y-62772000D02*
X115530190Y-62819619D01*
X115530190Y-62819619D02*
X115768285Y-62819619D01*
X114815904Y-61914857D02*
X114768285Y-61867238D01*
X114768285Y-61867238D02*
X114673047Y-61819619D01*
X114673047Y-61819619D02*
X114434952Y-61819619D01*
X114434952Y-61819619D02*
X114339714Y-61867238D01*
X114339714Y-61867238D02*
X114292095Y-61914857D01*
X114292095Y-61914857D02*
X114244476Y-62010095D01*
X114244476Y-62010095D02*
X114244476Y-62105333D01*
X114244476Y-62105333D02*
X114292095Y-62248190D01*
X114292095Y-62248190D02*
X114863523Y-62819619D01*
X114863523Y-62819619D02*
X114244476Y-62819619D01*
X113911142Y-61819619D02*
X113244476Y-61819619D01*
X113244476Y-61819619D02*
X113673047Y-62819619D01*
G04 #@! TO.C,D18*
X182988285Y-96222619D02*
X182988285Y-95222619D01*
X182988285Y-95222619D02*
X182750190Y-95222619D01*
X182750190Y-95222619D02*
X182607333Y-95270238D01*
X182607333Y-95270238D02*
X182512095Y-95365476D01*
X182512095Y-95365476D02*
X182464476Y-95460714D01*
X182464476Y-95460714D02*
X182416857Y-95651190D01*
X182416857Y-95651190D02*
X182416857Y-95794047D01*
X182416857Y-95794047D02*
X182464476Y-95984523D01*
X182464476Y-95984523D02*
X182512095Y-96079761D01*
X182512095Y-96079761D02*
X182607333Y-96175000D01*
X182607333Y-96175000D02*
X182750190Y-96222619D01*
X182750190Y-96222619D02*
X182988285Y-96222619D01*
X181464476Y-96222619D02*
X182035904Y-96222619D01*
X181750190Y-96222619D02*
X181750190Y-95222619D01*
X181750190Y-95222619D02*
X181845428Y-95365476D01*
X181845428Y-95365476D02*
X181940666Y-95460714D01*
X181940666Y-95460714D02*
X182035904Y-95508333D01*
X180893047Y-95651190D02*
X180988285Y-95603571D01*
X180988285Y-95603571D02*
X181035904Y-95555952D01*
X181035904Y-95555952D02*
X181083523Y-95460714D01*
X181083523Y-95460714D02*
X181083523Y-95413095D01*
X181083523Y-95413095D02*
X181035904Y-95317857D01*
X181035904Y-95317857D02*
X180988285Y-95270238D01*
X180988285Y-95270238D02*
X180893047Y-95222619D01*
X180893047Y-95222619D02*
X180702571Y-95222619D01*
X180702571Y-95222619D02*
X180607333Y-95270238D01*
X180607333Y-95270238D02*
X180559714Y-95317857D01*
X180559714Y-95317857D02*
X180512095Y-95413095D01*
X180512095Y-95413095D02*
X180512095Y-95460714D01*
X180512095Y-95460714D02*
X180559714Y-95555952D01*
X180559714Y-95555952D02*
X180607333Y-95603571D01*
X180607333Y-95603571D02*
X180702571Y-95651190D01*
X180702571Y-95651190D02*
X180893047Y-95651190D01*
X180893047Y-95651190D02*
X180988285Y-95698809D01*
X180988285Y-95698809D02*
X181035904Y-95746428D01*
X181035904Y-95746428D02*
X181083523Y-95841666D01*
X181083523Y-95841666D02*
X181083523Y-96032142D01*
X181083523Y-96032142D02*
X181035904Y-96127380D01*
X181035904Y-96127380D02*
X180988285Y-96175000D01*
X180988285Y-96175000D02*
X180893047Y-96222619D01*
X180893047Y-96222619D02*
X180702571Y-96222619D01*
X180702571Y-96222619D02*
X180607333Y-96175000D01*
X180607333Y-96175000D02*
X180559714Y-96127380D01*
X180559714Y-96127380D02*
X180512095Y-96032142D01*
X180512095Y-96032142D02*
X180512095Y-95841666D01*
X180512095Y-95841666D02*
X180559714Y-95746428D01*
X180559714Y-95746428D02*
X180607333Y-95698809D01*
X180607333Y-95698809D02*
X180702571Y-95651190D01*
G04 #@! TO.C,D12*
X174747782Y-64969707D02*
X173881757Y-64469707D01*
X173881757Y-64469707D02*
X173762709Y-64675903D01*
X173762709Y-64675903D02*
X173732520Y-64823431D01*
X173732520Y-64823431D02*
X173767380Y-64953528D01*
X173767380Y-64953528D02*
X173826049Y-65042387D01*
X173826049Y-65042387D02*
X173967196Y-65178864D01*
X173967196Y-65178864D02*
X174090914Y-65250293D01*
X174090914Y-65250293D02*
X174279681Y-65304291D01*
X174279681Y-65304291D02*
X174385969Y-65310671D01*
X174385969Y-65310671D02*
X174516067Y-65275812D01*
X174516067Y-65275812D02*
X174628735Y-65175903D01*
X174628735Y-65175903D02*
X174747782Y-64969707D01*
X173985877Y-66289364D02*
X174271592Y-65794493D01*
X174128735Y-66041929D02*
X173262709Y-65541929D01*
X173262709Y-65541929D02*
X173434046Y-65530879D01*
X173434046Y-65530879D02*
X173564144Y-65496019D01*
X173564144Y-65496019D02*
X173653002Y-65437350D01*
X173011854Y-66166898D02*
X172946806Y-66184328D01*
X172946806Y-66184328D02*
X172857947Y-66242997D01*
X172857947Y-66242997D02*
X172738900Y-66449193D01*
X172738900Y-66449193D02*
X172732520Y-66555482D01*
X172732520Y-66555482D02*
X172749950Y-66620530D01*
X172749950Y-66620530D02*
X172808619Y-66709389D01*
X172808619Y-66709389D02*
X172891097Y-66757008D01*
X172891097Y-66757008D02*
X173038625Y-66787197D01*
X173038625Y-66787197D02*
X173819211Y-66578040D01*
X173819211Y-66578040D02*
X173509687Y-67114151D01*
G04 #@! TO.C,D13*
X179797562Y-68653858D02*
X179154775Y-67887814D01*
X179154775Y-67887814D02*
X178972383Y-68040859D01*
X178972383Y-68040859D02*
X178893557Y-68169164D01*
X178893557Y-68169164D02*
X178881818Y-68303338D01*
X178881818Y-68303338D02*
X178906558Y-68406904D01*
X178906558Y-68406904D02*
X178992515Y-68583426D01*
X178992515Y-68583426D02*
X179084342Y-68692861D01*
X179084342Y-68692861D02*
X179243256Y-68808165D01*
X179243256Y-68808165D02*
X179340952Y-68850513D01*
X179340952Y-68850513D02*
X179475127Y-68862252D01*
X179475127Y-68862252D02*
X179615171Y-68806903D01*
X179615171Y-68806903D02*
X179797562Y-68653858D01*
X178630256Y-69633344D02*
X179067996Y-69266037D01*
X178849126Y-69449691D02*
X178206339Y-68683646D01*
X178206339Y-68683646D02*
X178371122Y-68731863D01*
X178371122Y-68731863D02*
X178505296Y-68743602D01*
X178505296Y-68743602D02*
X178608862Y-68718862D01*
X177732121Y-69081562D02*
X177257903Y-69479479D01*
X177257903Y-69479479D02*
X177758122Y-69557042D01*
X177758122Y-69557042D02*
X177648687Y-69648869D01*
X177648687Y-69648869D02*
X177606340Y-69746565D01*
X177606340Y-69746565D02*
X177600470Y-69813653D01*
X177600470Y-69813653D02*
X177625210Y-69917218D01*
X177625210Y-69917218D02*
X177778254Y-70099610D01*
X177778254Y-70099610D02*
X177875951Y-70141957D01*
X177875951Y-70141957D02*
X177943038Y-70147827D01*
X177943038Y-70147827D02*
X178046603Y-70123087D01*
X178046603Y-70123087D02*
X178265473Y-69939434D01*
X178265473Y-69939434D02*
X178307821Y-69841737D01*
X178307821Y-69841737D02*
X178313690Y-69774650D01*
G04 #@! TO.C,D11*
X168112619Y-63555714D02*
X167112619Y-63555714D01*
X167112619Y-63555714D02*
X167112619Y-63793809D01*
X167112619Y-63793809D02*
X167160238Y-63936666D01*
X167160238Y-63936666D02*
X167255476Y-64031904D01*
X167255476Y-64031904D02*
X167350714Y-64079523D01*
X167350714Y-64079523D02*
X167541190Y-64127142D01*
X167541190Y-64127142D02*
X167684047Y-64127142D01*
X167684047Y-64127142D02*
X167874523Y-64079523D01*
X167874523Y-64079523D02*
X167969761Y-64031904D01*
X167969761Y-64031904D02*
X168065000Y-63936666D01*
X168065000Y-63936666D02*
X168112619Y-63793809D01*
X168112619Y-63793809D02*
X168112619Y-63555714D01*
X168112619Y-65079523D02*
X168112619Y-64508095D01*
X168112619Y-64793809D02*
X167112619Y-64793809D01*
X167112619Y-64793809D02*
X167255476Y-64698571D01*
X167255476Y-64698571D02*
X167350714Y-64603333D01*
X167350714Y-64603333D02*
X167398333Y-64508095D01*
X168112619Y-66031904D02*
X168112619Y-65460476D01*
X168112619Y-65746190D02*
X167112619Y-65746190D01*
X167112619Y-65746190D02*
X167255476Y-65650952D01*
X167255476Y-65650952D02*
X167350714Y-65555714D01*
X167350714Y-65555714D02*
X167398333Y-65460476D01*
G04 #@! TO.C,D1*
X147288094Y-111712619D02*
X147288094Y-110712619D01*
X147288094Y-110712619D02*
X147049999Y-110712619D01*
X147049999Y-110712619D02*
X146907142Y-110760238D01*
X146907142Y-110760238D02*
X146811904Y-110855476D01*
X146811904Y-110855476D02*
X146764285Y-110950714D01*
X146764285Y-110950714D02*
X146716666Y-111141190D01*
X146716666Y-111141190D02*
X146716666Y-111284047D01*
X146716666Y-111284047D02*
X146764285Y-111474523D01*
X146764285Y-111474523D02*
X146811904Y-111569761D01*
X146811904Y-111569761D02*
X146907142Y-111665000D01*
X146907142Y-111665000D02*
X147049999Y-111712619D01*
X147049999Y-111712619D02*
X147288094Y-111712619D01*
X145764285Y-111712619D02*
X146335713Y-111712619D01*
X146049999Y-111712619D02*
X146049999Y-110712619D01*
X146049999Y-110712619D02*
X146145237Y-110855476D01*
X146145237Y-110855476D02*
X146240475Y-110950714D01*
X146240475Y-110950714D02*
X146335713Y-110998333D01*
G04 #@! TO.C,D9*
X155668407Y-68940518D02*
X156534432Y-68440518D01*
X156534432Y-68440518D02*
X156415385Y-68234321D01*
X156415385Y-68234321D02*
X156302717Y-68134413D01*
X156302717Y-68134413D02*
X156172619Y-68099553D01*
X156172619Y-68099553D02*
X156066331Y-68105933D01*
X156066331Y-68105933D02*
X155877564Y-68159932D01*
X155877564Y-68159932D02*
X155753846Y-68231360D01*
X155753846Y-68231360D02*
X155612699Y-68367838D01*
X155612699Y-68367838D02*
X155554030Y-68456696D01*
X155554030Y-68456696D02*
X155519170Y-68586794D01*
X155519170Y-68586794D02*
X155549359Y-68734321D01*
X155549359Y-68734321D02*
X155668407Y-68940518D01*
X155144598Y-68033253D02*
X155049359Y-67868296D01*
X155049359Y-67868296D02*
X155042980Y-67762008D01*
X155042980Y-67762008D02*
X155060409Y-67696959D01*
X155060409Y-67696959D02*
X155136508Y-67543052D01*
X155136508Y-67543052D02*
X155277656Y-67406574D01*
X155277656Y-67406574D02*
X155607570Y-67216098D01*
X155607570Y-67216098D02*
X155713859Y-67209718D01*
X155713859Y-67209718D02*
X155778907Y-67227148D01*
X155778907Y-67227148D02*
X155867766Y-67285817D01*
X155867766Y-67285817D02*
X155963004Y-67450775D01*
X155963004Y-67450775D02*
X155969384Y-67557063D01*
X155969384Y-67557063D02*
X155951954Y-67622111D01*
X155951954Y-67622111D02*
X155893285Y-67710970D01*
X155893285Y-67710970D02*
X155687088Y-67830017D01*
X155687088Y-67830017D02*
X155580800Y-67836397D01*
X155580800Y-67836397D02*
X155515751Y-67818967D01*
X155515751Y-67818967D02*
X155426893Y-67760298D01*
X155426893Y-67760298D02*
X155331655Y-67595341D01*
X155331655Y-67595341D02*
X155325275Y-67489053D01*
X155325275Y-67489053D02*
X155342705Y-67424004D01*
X155342705Y-67424004D02*
X155401374Y-67335146D01*
G04 #@! TO.C,D23*
X139187782Y-66499707D02*
X138321757Y-65999707D01*
X138321757Y-65999707D02*
X138202709Y-66205903D01*
X138202709Y-66205903D02*
X138172520Y-66353431D01*
X138172520Y-66353431D02*
X138207380Y-66483528D01*
X138207380Y-66483528D02*
X138266049Y-66572387D01*
X138266049Y-66572387D02*
X138407196Y-66708864D01*
X138407196Y-66708864D02*
X138530914Y-66780293D01*
X138530914Y-66780293D02*
X138719681Y-66834291D01*
X138719681Y-66834291D02*
X138825969Y-66840671D01*
X138825969Y-66840671D02*
X138956067Y-66805812D01*
X138956067Y-66805812D02*
X139068735Y-66705903D01*
X139068735Y-66705903D02*
X139187782Y-66499707D01*
X137928045Y-66872112D02*
X137862996Y-66889542D01*
X137862996Y-66889542D02*
X137774138Y-66948211D01*
X137774138Y-66948211D02*
X137655090Y-67154407D01*
X137655090Y-67154407D02*
X137648710Y-67260695D01*
X137648710Y-67260695D02*
X137666140Y-67325744D01*
X137666140Y-67325744D02*
X137724809Y-67414603D01*
X137724809Y-67414603D02*
X137807288Y-67462222D01*
X137807288Y-67462222D02*
X137954815Y-67492411D01*
X137954815Y-67492411D02*
X138735401Y-67283254D01*
X138735401Y-67283254D02*
X138425877Y-67819364D01*
X137393185Y-67608040D02*
X137083662Y-68144151D01*
X137083662Y-68144151D02*
X137580243Y-68045952D01*
X137580243Y-68045952D02*
X137508814Y-68169670D01*
X137508814Y-68169670D02*
X137502434Y-68275958D01*
X137502434Y-68275958D02*
X137519864Y-68341007D01*
X137519864Y-68341007D02*
X137578533Y-68429865D01*
X137578533Y-68429865D02*
X137784730Y-68548913D01*
X137784730Y-68548913D02*
X137891018Y-68555292D01*
X137891018Y-68555292D02*
X137956067Y-68537862D01*
X137956067Y-68537862D02*
X138044925Y-68479193D01*
X138044925Y-68479193D02*
X138187782Y-68231758D01*
X138187782Y-68231758D02*
X138194162Y-68125469D01*
X138194162Y-68125469D02*
X138176732Y-68060421D01*
G04 #@! TO.C,D21*
X182984285Y-111712619D02*
X182984285Y-110712619D01*
X182984285Y-110712619D02*
X182746190Y-110712619D01*
X182746190Y-110712619D02*
X182603333Y-110760238D01*
X182603333Y-110760238D02*
X182508095Y-110855476D01*
X182508095Y-110855476D02*
X182460476Y-110950714D01*
X182460476Y-110950714D02*
X182412857Y-111141190D01*
X182412857Y-111141190D02*
X182412857Y-111284047D01*
X182412857Y-111284047D02*
X182460476Y-111474523D01*
X182460476Y-111474523D02*
X182508095Y-111569761D01*
X182508095Y-111569761D02*
X182603333Y-111665000D01*
X182603333Y-111665000D02*
X182746190Y-111712619D01*
X182746190Y-111712619D02*
X182984285Y-111712619D01*
X182031904Y-110807857D02*
X181984285Y-110760238D01*
X181984285Y-110760238D02*
X181889047Y-110712619D01*
X181889047Y-110712619D02*
X181650952Y-110712619D01*
X181650952Y-110712619D02*
X181555714Y-110760238D01*
X181555714Y-110760238D02*
X181508095Y-110807857D01*
X181508095Y-110807857D02*
X181460476Y-110903095D01*
X181460476Y-110903095D02*
X181460476Y-110998333D01*
X181460476Y-110998333D02*
X181508095Y-111141190D01*
X181508095Y-111141190D02*
X182079523Y-111712619D01*
X182079523Y-111712619D02*
X181460476Y-111712619D01*
X180508095Y-111712619D02*
X181079523Y-111712619D01*
X180793809Y-111712619D02*
X180793809Y-110712619D01*
X180793809Y-110712619D02*
X180889047Y-110855476D01*
X180889047Y-110855476D02*
X180984285Y-110950714D01*
X180984285Y-110950714D02*
X181079523Y-110998333D01*
G04 #@! TO.C,D29*
X112974285Y-74376619D02*
X112974285Y-73376619D01*
X112974285Y-73376619D02*
X112736190Y-73376619D01*
X112736190Y-73376619D02*
X112593333Y-73424238D01*
X112593333Y-73424238D02*
X112498095Y-73519476D01*
X112498095Y-73519476D02*
X112450476Y-73614714D01*
X112450476Y-73614714D02*
X112402857Y-73805190D01*
X112402857Y-73805190D02*
X112402857Y-73948047D01*
X112402857Y-73948047D02*
X112450476Y-74138523D01*
X112450476Y-74138523D02*
X112498095Y-74233761D01*
X112498095Y-74233761D02*
X112593333Y-74329000D01*
X112593333Y-74329000D02*
X112736190Y-74376619D01*
X112736190Y-74376619D02*
X112974285Y-74376619D01*
X112021904Y-73471857D02*
X111974285Y-73424238D01*
X111974285Y-73424238D02*
X111879047Y-73376619D01*
X111879047Y-73376619D02*
X111640952Y-73376619D01*
X111640952Y-73376619D02*
X111545714Y-73424238D01*
X111545714Y-73424238D02*
X111498095Y-73471857D01*
X111498095Y-73471857D02*
X111450476Y-73567095D01*
X111450476Y-73567095D02*
X111450476Y-73662333D01*
X111450476Y-73662333D02*
X111498095Y-73805190D01*
X111498095Y-73805190D02*
X112069523Y-74376619D01*
X112069523Y-74376619D02*
X111450476Y-74376619D01*
X110974285Y-74376619D02*
X110783809Y-74376619D01*
X110783809Y-74376619D02*
X110688571Y-74329000D01*
X110688571Y-74329000D02*
X110640952Y-74281380D01*
X110640952Y-74281380D02*
X110545714Y-74138523D01*
X110545714Y-74138523D02*
X110498095Y-73948047D01*
X110498095Y-73948047D02*
X110498095Y-73567095D01*
X110498095Y-73567095D02*
X110545714Y-73471857D01*
X110545714Y-73471857D02*
X110593333Y-73424238D01*
X110593333Y-73424238D02*
X110688571Y-73376619D01*
X110688571Y-73376619D02*
X110879047Y-73376619D01*
X110879047Y-73376619D02*
X110974285Y-73424238D01*
X110974285Y-73424238D02*
X111021904Y-73471857D01*
X111021904Y-73471857D02*
X111069523Y-73567095D01*
X111069523Y-73567095D02*
X111069523Y-73805190D01*
X111069523Y-73805190D02*
X111021904Y-73900428D01*
X111021904Y-73900428D02*
X110974285Y-73948047D01*
X110974285Y-73948047D02*
X110879047Y-73995666D01*
X110879047Y-73995666D02*
X110688571Y-73995666D01*
X110688571Y-73995666D02*
X110593333Y-73948047D01*
X110593333Y-73948047D02*
X110545714Y-73900428D01*
X110545714Y-73900428D02*
X110498095Y-73805190D01*
G04 #@! TO.C,D26*
X120056141Y-70827562D02*
X120822185Y-70184775D01*
X120822185Y-70184775D02*
X120669140Y-70002383D01*
X120669140Y-70002383D02*
X120540835Y-69923557D01*
X120540835Y-69923557D02*
X120406661Y-69911818D01*
X120406661Y-69911818D02*
X120303095Y-69936558D01*
X120303095Y-69936558D02*
X120126573Y-70022515D01*
X120126573Y-70022515D02*
X120017138Y-70114342D01*
X120017138Y-70114342D02*
X119901834Y-70273256D01*
X119901834Y-70273256D02*
X119859486Y-70370952D01*
X119859486Y-70370952D02*
X119847747Y-70505127D01*
X119847747Y-70505127D02*
X119903096Y-70645171D01*
X119903096Y-70645171D02*
X120056141Y-70827562D01*
X120137050Y-69516426D02*
X120142919Y-69449339D01*
X120142919Y-69449339D02*
X120118180Y-69345773D01*
X120118180Y-69345773D02*
X119965135Y-69163382D01*
X119965135Y-69163382D02*
X119867439Y-69121034D01*
X119867439Y-69121034D02*
X119800351Y-69115165D01*
X119800351Y-69115165D02*
X119696786Y-69139904D01*
X119696786Y-69139904D02*
X119623829Y-69201122D01*
X119623829Y-69201122D02*
X119545003Y-69329427D01*
X119545003Y-69329427D02*
X119474571Y-70134474D01*
X119474571Y-70134474D02*
X119076655Y-69660256D01*
X119291738Y-68360859D02*
X119414174Y-68506772D01*
X119414174Y-68506772D02*
X119438914Y-68610338D01*
X119438914Y-68610338D02*
X119433044Y-68677425D01*
X119433044Y-68677425D02*
X119384827Y-68842209D01*
X119384827Y-68842209D02*
X119269523Y-69001123D01*
X119269523Y-69001123D02*
X118977696Y-69245994D01*
X118977696Y-69245994D02*
X118874131Y-69270734D01*
X118874131Y-69270734D02*
X118807044Y-69264864D01*
X118807044Y-69264864D02*
X118709347Y-69222517D01*
X118709347Y-69222517D02*
X118586912Y-69076603D01*
X118586912Y-69076603D02*
X118562172Y-68973038D01*
X118562172Y-68973038D02*
X118568042Y-68905951D01*
X118568042Y-68905951D02*
X118610389Y-68808254D01*
X118610389Y-68808254D02*
X118792781Y-68655210D01*
X118792781Y-68655210D02*
X118896346Y-68630470D01*
X118896346Y-68630470D02*
X118963434Y-68636340D01*
X118963434Y-68636340D02*
X119061130Y-68678687D01*
X119061130Y-68678687D02*
X119183565Y-68824600D01*
X119183565Y-68824600D02*
X119208305Y-68928166D01*
X119208305Y-68928166D02*
X119202436Y-68995253D01*
X119202436Y-68995253D02*
X119160088Y-69092949D01*
G04 #@! TO.C,D33*
X112974285Y-95712619D02*
X112974285Y-94712619D01*
X112974285Y-94712619D02*
X112736190Y-94712619D01*
X112736190Y-94712619D02*
X112593333Y-94760238D01*
X112593333Y-94760238D02*
X112498095Y-94855476D01*
X112498095Y-94855476D02*
X112450476Y-94950714D01*
X112450476Y-94950714D02*
X112402857Y-95141190D01*
X112402857Y-95141190D02*
X112402857Y-95284047D01*
X112402857Y-95284047D02*
X112450476Y-95474523D01*
X112450476Y-95474523D02*
X112498095Y-95569761D01*
X112498095Y-95569761D02*
X112593333Y-95665000D01*
X112593333Y-95665000D02*
X112736190Y-95712619D01*
X112736190Y-95712619D02*
X112974285Y-95712619D01*
X112069523Y-94712619D02*
X111450476Y-94712619D01*
X111450476Y-94712619D02*
X111783809Y-95093571D01*
X111783809Y-95093571D02*
X111640952Y-95093571D01*
X111640952Y-95093571D02*
X111545714Y-95141190D01*
X111545714Y-95141190D02*
X111498095Y-95188809D01*
X111498095Y-95188809D02*
X111450476Y-95284047D01*
X111450476Y-95284047D02*
X111450476Y-95522142D01*
X111450476Y-95522142D02*
X111498095Y-95617380D01*
X111498095Y-95617380D02*
X111545714Y-95665000D01*
X111545714Y-95665000D02*
X111640952Y-95712619D01*
X111640952Y-95712619D02*
X111926666Y-95712619D01*
X111926666Y-95712619D02*
X112021904Y-95665000D01*
X112021904Y-95665000D02*
X112069523Y-95617380D01*
X111117142Y-94712619D02*
X110498095Y-94712619D01*
X110498095Y-94712619D02*
X110831428Y-95093571D01*
X110831428Y-95093571D02*
X110688571Y-95093571D01*
X110688571Y-95093571D02*
X110593333Y-95141190D01*
X110593333Y-95141190D02*
X110545714Y-95188809D01*
X110545714Y-95188809D02*
X110498095Y-95284047D01*
X110498095Y-95284047D02*
X110498095Y-95522142D01*
X110498095Y-95522142D02*
X110545714Y-95617380D01*
X110545714Y-95617380D02*
X110593333Y-95665000D01*
X110593333Y-95665000D02*
X110688571Y-95712619D01*
X110688571Y-95712619D02*
X110974285Y-95712619D01*
X110974285Y-95712619D02*
X111069523Y-95665000D01*
X111069523Y-95665000D02*
X111117142Y-95617380D01*
G04 #@! TO.C,D20*
X182988285Y-106552619D02*
X182988285Y-105552619D01*
X182988285Y-105552619D02*
X182750190Y-105552619D01*
X182750190Y-105552619D02*
X182607333Y-105600238D01*
X182607333Y-105600238D02*
X182512095Y-105695476D01*
X182512095Y-105695476D02*
X182464476Y-105790714D01*
X182464476Y-105790714D02*
X182416857Y-105981190D01*
X182416857Y-105981190D02*
X182416857Y-106124047D01*
X182416857Y-106124047D02*
X182464476Y-106314523D01*
X182464476Y-106314523D02*
X182512095Y-106409761D01*
X182512095Y-106409761D02*
X182607333Y-106505000D01*
X182607333Y-106505000D02*
X182750190Y-106552619D01*
X182750190Y-106552619D02*
X182988285Y-106552619D01*
X182035904Y-105647857D02*
X181988285Y-105600238D01*
X181988285Y-105600238D02*
X181893047Y-105552619D01*
X181893047Y-105552619D02*
X181654952Y-105552619D01*
X181654952Y-105552619D02*
X181559714Y-105600238D01*
X181559714Y-105600238D02*
X181512095Y-105647857D01*
X181512095Y-105647857D02*
X181464476Y-105743095D01*
X181464476Y-105743095D02*
X181464476Y-105838333D01*
X181464476Y-105838333D02*
X181512095Y-105981190D01*
X181512095Y-105981190D02*
X182083523Y-106552619D01*
X182083523Y-106552619D02*
X181464476Y-106552619D01*
X180845428Y-105552619D02*
X180750190Y-105552619D01*
X180750190Y-105552619D02*
X180654952Y-105600238D01*
X180654952Y-105600238D02*
X180607333Y-105647857D01*
X180607333Y-105647857D02*
X180559714Y-105743095D01*
X180559714Y-105743095D02*
X180512095Y-105933571D01*
X180512095Y-105933571D02*
X180512095Y-106171666D01*
X180512095Y-106171666D02*
X180559714Y-106362142D01*
X180559714Y-106362142D02*
X180607333Y-106457380D01*
X180607333Y-106457380D02*
X180654952Y-106505000D01*
X180654952Y-106505000D02*
X180750190Y-106552619D01*
X180750190Y-106552619D02*
X180845428Y-106552619D01*
X180845428Y-106552619D02*
X180940666Y-106505000D01*
X180940666Y-106505000D02*
X180988285Y-106457380D01*
X180988285Y-106457380D02*
X181035904Y-106362142D01*
X181035904Y-106362142D02*
X181083523Y-106171666D01*
X181083523Y-106171666D02*
X181083523Y-105933571D01*
X181083523Y-105933571D02*
X181035904Y-105743095D01*
X181035904Y-105743095D02*
X180988285Y-105647857D01*
X180988285Y-105647857D02*
X180940666Y-105600238D01*
X180940666Y-105600238D02*
X180845428Y-105552619D01*
G04 #@! TO.C,D35*
X112974285Y-106380619D02*
X112974285Y-105380619D01*
X112974285Y-105380619D02*
X112736190Y-105380619D01*
X112736190Y-105380619D02*
X112593333Y-105428238D01*
X112593333Y-105428238D02*
X112498095Y-105523476D01*
X112498095Y-105523476D02*
X112450476Y-105618714D01*
X112450476Y-105618714D02*
X112402857Y-105809190D01*
X112402857Y-105809190D02*
X112402857Y-105952047D01*
X112402857Y-105952047D02*
X112450476Y-106142523D01*
X112450476Y-106142523D02*
X112498095Y-106237761D01*
X112498095Y-106237761D02*
X112593333Y-106333000D01*
X112593333Y-106333000D02*
X112736190Y-106380619D01*
X112736190Y-106380619D02*
X112974285Y-106380619D01*
X112069523Y-105380619D02*
X111450476Y-105380619D01*
X111450476Y-105380619D02*
X111783809Y-105761571D01*
X111783809Y-105761571D02*
X111640952Y-105761571D01*
X111640952Y-105761571D02*
X111545714Y-105809190D01*
X111545714Y-105809190D02*
X111498095Y-105856809D01*
X111498095Y-105856809D02*
X111450476Y-105952047D01*
X111450476Y-105952047D02*
X111450476Y-106190142D01*
X111450476Y-106190142D02*
X111498095Y-106285380D01*
X111498095Y-106285380D02*
X111545714Y-106333000D01*
X111545714Y-106333000D02*
X111640952Y-106380619D01*
X111640952Y-106380619D02*
X111926666Y-106380619D01*
X111926666Y-106380619D02*
X112021904Y-106333000D01*
X112021904Y-106333000D02*
X112069523Y-106285380D01*
X110545714Y-105380619D02*
X111021904Y-105380619D01*
X111021904Y-105380619D02*
X111069523Y-105856809D01*
X111069523Y-105856809D02*
X111021904Y-105809190D01*
X111021904Y-105809190D02*
X110926666Y-105761571D01*
X110926666Y-105761571D02*
X110688571Y-105761571D01*
X110688571Y-105761571D02*
X110593333Y-105809190D01*
X110593333Y-105809190D02*
X110545714Y-105856809D01*
X110545714Y-105856809D02*
X110498095Y-105952047D01*
X110498095Y-105952047D02*
X110498095Y-106190142D01*
X110498095Y-106190142D02*
X110545714Y-106285380D01*
X110545714Y-106285380D02*
X110593333Y-106333000D01*
X110593333Y-106333000D02*
X110688571Y-106380619D01*
X110688571Y-106380619D02*
X110926666Y-106380619D01*
X110926666Y-106380619D02*
X111021904Y-106333000D01*
X111021904Y-106333000D02*
X111069523Y-106285380D01*
G04 #@! TO.C,D19*
X182994285Y-101382619D02*
X182994285Y-100382619D01*
X182994285Y-100382619D02*
X182756190Y-100382619D01*
X182756190Y-100382619D02*
X182613333Y-100430238D01*
X182613333Y-100430238D02*
X182518095Y-100525476D01*
X182518095Y-100525476D02*
X182470476Y-100620714D01*
X182470476Y-100620714D02*
X182422857Y-100811190D01*
X182422857Y-100811190D02*
X182422857Y-100954047D01*
X182422857Y-100954047D02*
X182470476Y-101144523D01*
X182470476Y-101144523D02*
X182518095Y-101239761D01*
X182518095Y-101239761D02*
X182613333Y-101335000D01*
X182613333Y-101335000D02*
X182756190Y-101382619D01*
X182756190Y-101382619D02*
X182994285Y-101382619D01*
X181470476Y-101382619D02*
X182041904Y-101382619D01*
X181756190Y-101382619D02*
X181756190Y-100382619D01*
X181756190Y-100382619D02*
X181851428Y-100525476D01*
X181851428Y-100525476D02*
X181946666Y-100620714D01*
X181946666Y-100620714D02*
X182041904Y-100668333D01*
X180994285Y-101382619D02*
X180803809Y-101382619D01*
X180803809Y-101382619D02*
X180708571Y-101335000D01*
X180708571Y-101335000D02*
X180660952Y-101287380D01*
X180660952Y-101287380D02*
X180565714Y-101144523D01*
X180565714Y-101144523D02*
X180518095Y-100954047D01*
X180518095Y-100954047D02*
X180518095Y-100573095D01*
X180518095Y-100573095D02*
X180565714Y-100477857D01*
X180565714Y-100477857D02*
X180613333Y-100430238D01*
X180613333Y-100430238D02*
X180708571Y-100382619D01*
X180708571Y-100382619D02*
X180899047Y-100382619D01*
X180899047Y-100382619D02*
X180994285Y-100430238D01*
X180994285Y-100430238D02*
X181041904Y-100477857D01*
X181041904Y-100477857D02*
X181089523Y-100573095D01*
X181089523Y-100573095D02*
X181089523Y-100811190D01*
X181089523Y-100811190D02*
X181041904Y-100906428D01*
X181041904Y-100906428D02*
X180994285Y-100954047D01*
X180994285Y-100954047D02*
X180899047Y-101001666D01*
X180899047Y-101001666D02*
X180708571Y-101001666D01*
X180708571Y-101001666D02*
X180613333Y-100954047D01*
X180613333Y-100954047D02*
X180565714Y-100906428D01*
X180565714Y-100906428D02*
X180518095Y-100811190D01*
G04 #@! TO.C,D6*
X147288094Y-84832619D02*
X147288094Y-83832619D01*
X147288094Y-83832619D02*
X147049999Y-83832619D01*
X147049999Y-83832619D02*
X146907142Y-83880238D01*
X146907142Y-83880238D02*
X146811904Y-83975476D01*
X146811904Y-83975476D02*
X146764285Y-84070714D01*
X146764285Y-84070714D02*
X146716666Y-84261190D01*
X146716666Y-84261190D02*
X146716666Y-84404047D01*
X146716666Y-84404047D02*
X146764285Y-84594523D01*
X146764285Y-84594523D02*
X146811904Y-84689761D01*
X146811904Y-84689761D02*
X146907142Y-84785000D01*
X146907142Y-84785000D02*
X147049999Y-84832619D01*
X147049999Y-84832619D02*
X147288094Y-84832619D01*
X145859523Y-83832619D02*
X146049999Y-83832619D01*
X146049999Y-83832619D02*
X146145237Y-83880238D01*
X146145237Y-83880238D02*
X146192856Y-83927857D01*
X146192856Y-83927857D02*
X146288094Y-84070714D01*
X146288094Y-84070714D02*
X146335713Y-84261190D01*
X146335713Y-84261190D02*
X146335713Y-84642142D01*
X146335713Y-84642142D02*
X146288094Y-84737380D01*
X146288094Y-84737380D02*
X146240475Y-84785000D01*
X146240475Y-84785000D02*
X146145237Y-84832619D01*
X146145237Y-84832619D02*
X145954761Y-84832619D01*
X145954761Y-84832619D02*
X145859523Y-84785000D01*
X145859523Y-84785000D02*
X145811904Y-84737380D01*
X145811904Y-84737380D02*
X145764285Y-84642142D01*
X145764285Y-84642142D02*
X145764285Y-84404047D01*
X145764285Y-84404047D02*
X145811904Y-84308809D01*
X145811904Y-84308809D02*
X145859523Y-84261190D01*
X145859523Y-84261190D02*
X145954761Y-84213571D01*
X145954761Y-84213571D02*
X146145237Y-84213571D01*
X146145237Y-84213571D02*
X146240475Y-84261190D01*
X146240475Y-84261190D02*
X146288094Y-84308809D01*
X146288094Y-84308809D02*
X146335713Y-84404047D01*
G04 #@! TO.C,D3*
X147288094Y-100962619D02*
X147288094Y-99962619D01*
X147288094Y-99962619D02*
X147049999Y-99962619D01*
X147049999Y-99962619D02*
X146907142Y-100010238D01*
X146907142Y-100010238D02*
X146811904Y-100105476D01*
X146811904Y-100105476D02*
X146764285Y-100200714D01*
X146764285Y-100200714D02*
X146716666Y-100391190D01*
X146716666Y-100391190D02*
X146716666Y-100534047D01*
X146716666Y-100534047D02*
X146764285Y-100724523D01*
X146764285Y-100724523D02*
X146811904Y-100819761D01*
X146811904Y-100819761D02*
X146907142Y-100915000D01*
X146907142Y-100915000D02*
X147049999Y-100962619D01*
X147049999Y-100962619D02*
X147288094Y-100962619D01*
X146383332Y-99962619D02*
X145764285Y-99962619D01*
X145764285Y-99962619D02*
X146097618Y-100343571D01*
X146097618Y-100343571D02*
X145954761Y-100343571D01*
X145954761Y-100343571D02*
X145859523Y-100391190D01*
X145859523Y-100391190D02*
X145811904Y-100438809D01*
X145811904Y-100438809D02*
X145764285Y-100534047D01*
X145764285Y-100534047D02*
X145764285Y-100772142D01*
X145764285Y-100772142D02*
X145811904Y-100867380D01*
X145811904Y-100867380D02*
X145859523Y-100915000D01*
X145859523Y-100915000D02*
X145954761Y-100962619D01*
X145954761Y-100962619D02*
X146240475Y-100962619D01*
X146240475Y-100962619D02*
X146335713Y-100915000D01*
X146335713Y-100915000D02*
X146383332Y-100867380D01*
G04 #@! TO.C,D10*
X161270590Y-66829280D02*
X162210283Y-66487260D01*
X162210283Y-66487260D02*
X162128849Y-66263523D01*
X162128849Y-66263523D02*
X162035242Y-66145568D01*
X162035242Y-66145568D02*
X161913174Y-66088647D01*
X161913174Y-66088647D02*
X161807393Y-66076473D01*
X161807393Y-66076473D02*
X161612117Y-66096873D01*
X161612117Y-66096873D02*
X161477875Y-66145733D01*
X161477875Y-66145733D02*
X161315173Y-66255627D01*
X161315173Y-66255627D02*
X161241965Y-66332947D01*
X161241965Y-66332947D02*
X161185044Y-66455015D01*
X161185044Y-66455015D02*
X161189157Y-66605544D01*
X161189157Y-66605544D02*
X161270590Y-66829280D01*
X160749416Y-65397367D02*
X160944857Y-65934335D01*
X160847136Y-65665851D02*
X161786829Y-65323831D01*
X161786829Y-65323831D02*
X161685161Y-65462185D01*
X161685161Y-65462185D02*
X161628239Y-65584253D01*
X161628239Y-65584253D02*
X161616066Y-65690034D01*
X161477382Y-64473633D02*
X161444809Y-64384138D01*
X161444809Y-64384138D02*
X161367488Y-64310930D01*
X161367488Y-64310930D02*
X161306454Y-64282470D01*
X161306454Y-64282470D02*
X161200673Y-64270296D01*
X161200673Y-64270296D02*
X161005397Y-64290695D01*
X161005397Y-64290695D02*
X160781661Y-64372129D01*
X160781661Y-64372129D02*
X160618959Y-64482023D01*
X160618959Y-64482023D02*
X160545751Y-64559343D01*
X160545751Y-64559343D02*
X160517290Y-64620377D01*
X160517290Y-64620377D02*
X160505116Y-64726158D01*
X160505116Y-64726158D02*
X160537690Y-64815653D01*
X160537690Y-64815653D02*
X160615010Y-64888861D01*
X160615010Y-64888861D02*
X160676044Y-64917321D01*
X160676044Y-64917321D02*
X160781825Y-64929495D01*
X160781825Y-64929495D02*
X160977101Y-64909096D01*
X160977101Y-64909096D02*
X161200838Y-64827662D01*
X161200838Y-64827662D02*
X161363540Y-64717768D01*
X161363540Y-64717768D02*
X161436748Y-64640448D01*
X161436748Y-64640448D02*
X161465208Y-64579414D01*
X161465208Y-64579414D02*
X161477382Y-64473633D01*
G04 #@! TO.C,D34*
X112974285Y-101046619D02*
X112974285Y-100046619D01*
X112974285Y-100046619D02*
X112736190Y-100046619D01*
X112736190Y-100046619D02*
X112593333Y-100094238D01*
X112593333Y-100094238D02*
X112498095Y-100189476D01*
X112498095Y-100189476D02*
X112450476Y-100284714D01*
X112450476Y-100284714D02*
X112402857Y-100475190D01*
X112402857Y-100475190D02*
X112402857Y-100618047D01*
X112402857Y-100618047D02*
X112450476Y-100808523D01*
X112450476Y-100808523D02*
X112498095Y-100903761D01*
X112498095Y-100903761D02*
X112593333Y-100999000D01*
X112593333Y-100999000D02*
X112736190Y-101046619D01*
X112736190Y-101046619D02*
X112974285Y-101046619D01*
X112069523Y-100046619D02*
X111450476Y-100046619D01*
X111450476Y-100046619D02*
X111783809Y-100427571D01*
X111783809Y-100427571D02*
X111640952Y-100427571D01*
X111640952Y-100427571D02*
X111545714Y-100475190D01*
X111545714Y-100475190D02*
X111498095Y-100522809D01*
X111498095Y-100522809D02*
X111450476Y-100618047D01*
X111450476Y-100618047D02*
X111450476Y-100856142D01*
X111450476Y-100856142D02*
X111498095Y-100951380D01*
X111498095Y-100951380D02*
X111545714Y-100999000D01*
X111545714Y-100999000D02*
X111640952Y-101046619D01*
X111640952Y-101046619D02*
X111926666Y-101046619D01*
X111926666Y-101046619D02*
X112021904Y-100999000D01*
X112021904Y-100999000D02*
X112069523Y-100951380D01*
X110593333Y-100379952D02*
X110593333Y-101046619D01*
X110831428Y-99999000D02*
X111069523Y-100713285D01*
X111069523Y-100713285D02*
X110450476Y-100713285D01*
G04 #@! TO.C,D36*
X112974285Y-111714619D02*
X112974285Y-110714619D01*
X112974285Y-110714619D02*
X112736190Y-110714619D01*
X112736190Y-110714619D02*
X112593333Y-110762238D01*
X112593333Y-110762238D02*
X112498095Y-110857476D01*
X112498095Y-110857476D02*
X112450476Y-110952714D01*
X112450476Y-110952714D02*
X112402857Y-111143190D01*
X112402857Y-111143190D02*
X112402857Y-111286047D01*
X112402857Y-111286047D02*
X112450476Y-111476523D01*
X112450476Y-111476523D02*
X112498095Y-111571761D01*
X112498095Y-111571761D02*
X112593333Y-111667000D01*
X112593333Y-111667000D02*
X112736190Y-111714619D01*
X112736190Y-111714619D02*
X112974285Y-111714619D01*
X112069523Y-110714619D02*
X111450476Y-110714619D01*
X111450476Y-110714619D02*
X111783809Y-111095571D01*
X111783809Y-111095571D02*
X111640952Y-111095571D01*
X111640952Y-111095571D02*
X111545714Y-111143190D01*
X111545714Y-111143190D02*
X111498095Y-111190809D01*
X111498095Y-111190809D02*
X111450476Y-111286047D01*
X111450476Y-111286047D02*
X111450476Y-111524142D01*
X111450476Y-111524142D02*
X111498095Y-111619380D01*
X111498095Y-111619380D02*
X111545714Y-111667000D01*
X111545714Y-111667000D02*
X111640952Y-111714619D01*
X111640952Y-111714619D02*
X111926666Y-111714619D01*
X111926666Y-111714619D02*
X112021904Y-111667000D01*
X112021904Y-111667000D02*
X112069523Y-111619380D01*
X110593333Y-110714619D02*
X110783809Y-110714619D01*
X110783809Y-110714619D02*
X110879047Y-110762238D01*
X110879047Y-110762238D02*
X110926666Y-110809857D01*
X110926666Y-110809857D02*
X111021904Y-110952714D01*
X111021904Y-110952714D02*
X111069523Y-111143190D01*
X111069523Y-111143190D02*
X111069523Y-111524142D01*
X111069523Y-111524142D02*
X111021904Y-111619380D01*
X111021904Y-111619380D02*
X110974285Y-111667000D01*
X110974285Y-111667000D02*
X110879047Y-111714619D01*
X110879047Y-111714619D02*
X110688571Y-111714619D01*
X110688571Y-111714619D02*
X110593333Y-111667000D01*
X110593333Y-111667000D02*
X110545714Y-111619380D01*
X110545714Y-111619380D02*
X110498095Y-111524142D01*
X110498095Y-111524142D02*
X110498095Y-111286047D01*
X110498095Y-111286047D02*
X110545714Y-111190809D01*
X110545714Y-111190809D02*
X110593333Y-111143190D01*
X110593333Y-111143190D02*
X110688571Y-111095571D01*
X110688571Y-111095571D02*
X110879047Y-111095571D01*
X110879047Y-111095571D02*
X110974285Y-111143190D01*
X110974285Y-111143190D02*
X111021904Y-111190809D01*
X111021904Y-111190809D02*
X111069523Y-111286047D01*
G04 #@! TO.C,D30*
X112974285Y-79710619D02*
X112974285Y-78710619D01*
X112974285Y-78710619D02*
X112736190Y-78710619D01*
X112736190Y-78710619D02*
X112593333Y-78758238D01*
X112593333Y-78758238D02*
X112498095Y-78853476D01*
X112498095Y-78853476D02*
X112450476Y-78948714D01*
X112450476Y-78948714D02*
X112402857Y-79139190D01*
X112402857Y-79139190D02*
X112402857Y-79282047D01*
X112402857Y-79282047D02*
X112450476Y-79472523D01*
X112450476Y-79472523D02*
X112498095Y-79567761D01*
X112498095Y-79567761D02*
X112593333Y-79663000D01*
X112593333Y-79663000D02*
X112736190Y-79710619D01*
X112736190Y-79710619D02*
X112974285Y-79710619D01*
X112069523Y-78710619D02*
X111450476Y-78710619D01*
X111450476Y-78710619D02*
X111783809Y-79091571D01*
X111783809Y-79091571D02*
X111640952Y-79091571D01*
X111640952Y-79091571D02*
X111545714Y-79139190D01*
X111545714Y-79139190D02*
X111498095Y-79186809D01*
X111498095Y-79186809D02*
X111450476Y-79282047D01*
X111450476Y-79282047D02*
X111450476Y-79520142D01*
X111450476Y-79520142D02*
X111498095Y-79615380D01*
X111498095Y-79615380D02*
X111545714Y-79663000D01*
X111545714Y-79663000D02*
X111640952Y-79710619D01*
X111640952Y-79710619D02*
X111926666Y-79710619D01*
X111926666Y-79710619D02*
X112021904Y-79663000D01*
X112021904Y-79663000D02*
X112069523Y-79615380D01*
X110831428Y-78710619D02*
X110736190Y-78710619D01*
X110736190Y-78710619D02*
X110640952Y-78758238D01*
X110640952Y-78758238D02*
X110593333Y-78805857D01*
X110593333Y-78805857D02*
X110545714Y-78901095D01*
X110545714Y-78901095D02*
X110498095Y-79091571D01*
X110498095Y-79091571D02*
X110498095Y-79329666D01*
X110498095Y-79329666D02*
X110545714Y-79520142D01*
X110545714Y-79520142D02*
X110593333Y-79615380D01*
X110593333Y-79615380D02*
X110640952Y-79663000D01*
X110640952Y-79663000D02*
X110736190Y-79710619D01*
X110736190Y-79710619D02*
X110831428Y-79710619D01*
X110831428Y-79710619D02*
X110926666Y-79663000D01*
X110926666Y-79663000D02*
X110974285Y-79615380D01*
X110974285Y-79615380D02*
X111021904Y-79520142D01*
X111021904Y-79520142D02*
X111069523Y-79329666D01*
X111069523Y-79329666D02*
X111069523Y-79091571D01*
X111069523Y-79091571D02*
X111021904Y-78901095D01*
X111021904Y-78901095D02*
X110974285Y-78805857D01*
X110974285Y-78805857D02*
X110926666Y-78758238D01*
X110926666Y-78758238D02*
X110831428Y-78710619D01*
G04 #@! TO.C,D28*
X115641285Y-68534619D02*
X115641285Y-67534619D01*
X115641285Y-67534619D02*
X115403190Y-67534619D01*
X115403190Y-67534619D02*
X115260333Y-67582238D01*
X115260333Y-67582238D02*
X115165095Y-67677476D01*
X115165095Y-67677476D02*
X115117476Y-67772714D01*
X115117476Y-67772714D02*
X115069857Y-67963190D01*
X115069857Y-67963190D02*
X115069857Y-68106047D01*
X115069857Y-68106047D02*
X115117476Y-68296523D01*
X115117476Y-68296523D02*
X115165095Y-68391761D01*
X115165095Y-68391761D02*
X115260333Y-68487000D01*
X115260333Y-68487000D02*
X115403190Y-68534619D01*
X115403190Y-68534619D02*
X115641285Y-68534619D01*
X114688904Y-67629857D02*
X114641285Y-67582238D01*
X114641285Y-67582238D02*
X114546047Y-67534619D01*
X114546047Y-67534619D02*
X114307952Y-67534619D01*
X114307952Y-67534619D02*
X114212714Y-67582238D01*
X114212714Y-67582238D02*
X114165095Y-67629857D01*
X114165095Y-67629857D02*
X114117476Y-67725095D01*
X114117476Y-67725095D02*
X114117476Y-67820333D01*
X114117476Y-67820333D02*
X114165095Y-67963190D01*
X114165095Y-67963190D02*
X114736523Y-68534619D01*
X114736523Y-68534619D02*
X114117476Y-68534619D01*
X113546047Y-67963190D02*
X113641285Y-67915571D01*
X113641285Y-67915571D02*
X113688904Y-67867952D01*
X113688904Y-67867952D02*
X113736523Y-67772714D01*
X113736523Y-67772714D02*
X113736523Y-67725095D01*
X113736523Y-67725095D02*
X113688904Y-67629857D01*
X113688904Y-67629857D02*
X113641285Y-67582238D01*
X113641285Y-67582238D02*
X113546047Y-67534619D01*
X113546047Y-67534619D02*
X113355571Y-67534619D01*
X113355571Y-67534619D02*
X113260333Y-67582238D01*
X113260333Y-67582238D02*
X113212714Y-67629857D01*
X113212714Y-67629857D02*
X113165095Y-67725095D01*
X113165095Y-67725095D02*
X113165095Y-67772714D01*
X113165095Y-67772714D02*
X113212714Y-67867952D01*
X113212714Y-67867952D02*
X113260333Y-67915571D01*
X113260333Y-67915571D02*
X113355571Y-67963190D01*
X113355571Y-67963190D02*
X113546047Y-67963190D01*
X113546047Y-67963190D02*
X113641285Y-68010809D01*
X113641285Y-68010809D02*
X113688904Y-68058428D01*
X113688904Y-68058428D02*
X113736523Y-68153666D01*
X113736523Y-68153666D02*
X113736523Y-68344142D01*
X113736523Y-68344142D02*
X113688904Y-68439380D01*
X113688904Y-68439380D02*
X113641285Y-68487000D01*
X113641285Y-68487000D02*
X113546047Y-68534619D01*
X113546047Y-68534619D02*
X113355571Y-68534619D01*
X113355571Y-68534619D02*
X113260333Y-68487000D01*
X113260333Y-68487000D02*
X113212714Y-68439380D01*
X113212714Y-68439380D02*
X113165095Y-68344142D01*
X113165095Y-68344142D02*
X113165095Y-68153666D01*
X113165095Y-68153666D02*
X113212714Y-68058428D01*
X113212714Y-68058428D02*
X113260333Y-68010809D01*
X113260333Y-68010809D02*
X113355571Y-67963190D01*
G04 #@! TO.C,D5*
X147288094Y-90212619D02*
X147288094Y-89212619D01*
X147288094Y-89212619D02*
X147049999Y-89212619D01*
X147049999Y-89212619D02*
X146907142Y-89260238D01*
X146907142Y-89260238D02*
X146811904Y-89355476D01*
X146811904Y-89355476D02*
X146764285Y-89450714D01*
X146764285Y-89450714D02*
X146716666Y-89641190D01*
X146716666Y-89641190D02*
X146716666Y-89784047D01*
X146716666Y-89784047D02*
X146764285Y-89974523D01*
X146764285Y-89974523D02*
X146811904Y-90069761D01*
X146811904Y-90069761D02*
X146907142Y-90165000D01*
X146907142Y-90165000D02*
X147049999Y-90212619D01*
X147049999Y-90212619D02*
X147288094Y-90212619D01*
X145811904Y-89212619D02*
X146288094Y-89212619D01*
X146288094Y-89212619D02*
X146335713Y-89688809D01*
X146335713Y-89688809D02*
X146288094Y-89641190D01*
X146288094Y-89641190D02*
X146192856Y-89593571D01*
X146192856Y-89593571D02*
X145954761Y-89593571D01*
X145954761Y-89593571D02*
X145859523Y-89641190D01*
X145859523Y-89641190D02*
X145811904Y-89688809D01*
X145811904Y-89688809D02*
X145764285Y-89784047D01*
X145764285Y-89784047D02*
X145764285Y-90022142D01*
X145764285Y-90022142D02*
X145811904Y-90117380D01*
X145811904Y-90117380D02*
X145859523Y-90165000D01*
X145859523Y-90165000D02*
X145954761Y-90212619D01*
X145954761Y-90212619D02*
X146192856Y-90212619D01*
X146192856Y-90212619D02*
X146288094Y-90165000D01*
X146288094Y-90165000D02*
X146335713Y-90117380D01*
G04 #@! TO.C,D8*
X150814790Y-73489032D02*
X151521897Y-72781926D01*
X151521897Y-72781926D02*
X151353538Y-72613567D01*
X151353538Y-72613567D02*
X151218851Y-72546223D01*
X151218851Y-72546223D02*
X151084164Y-72546223D01*
X151084164Y-72546223D02*
X150983149Y-72579895D01*
X150983149Y-72579895D02*
X150814790Y-72680910D01*
X150814790Y-72680910D02*
X150713775Y-72781926D01*
X150713775Y-72781926D02*
X150612760Y-72950284D01*
X150612760Y-72950284D02*
X150579088Y-73051300D01*
X150579088Y-73051300D02*
X150579088Y-73185987D01*
X150579088Y-73185987D02*
X150646431Y-73320674D01*
X150646431Y-73320674D02*
X150814790Y-73489032D01*
X150410729Y-72276849D02*
X150511744Y-72310521D01*
X150511744Y-72310521D02*
X150579088Y-72310521D01*
X150579088Y-72310521D02*
X150680103Y-72276849D01*
X150680103Y-72276849D02*
X150713775Y-72243178D01*
X150713775Y-72243178D02*
X150747447Y-72142162D01*
X150747447Y-72142162D02*
X150747447Y-72074819D01*
X150747447Y-72074819D02*
X150713775Y-71973804D01*
X150713775Y-71973804D02*
X150579088Y-71839117D01*
X150579088Y-71839117D02*
X150478073Y-71805445D01*
X150478073Y-71805445D02*
X150410729Y-71805445D01*
X150410729Y-71805445D02*
X150309714Y-71839117D01*
X150309714Y-71839117D02*
X150276042Y-71872788D01*
X150276042Y-71872788D02*
X150242370Y-71973804D01*
X150242370Y-71973804D02*
X150242370Y-72041147D01*
X150242370Y-72041147D02*
X150276042Y-72142162D01*
X150276042Y-72142162D02*
X150410729Y-72276849D01*
X150410729Y-72276849D02*
X150444401Y-72377865D01*
X150444401Y-72377865D02*
X150444401Y-72445208D01*
X150444401Y-72445208D02*
X150410729Y-72546223D01*
X150410729Y-72546223D02*
X150276042Y-72680910D01*
X150276042Y-72680910D02*
X150175027Y-72714582D01*
X150175027Y-72714582D02*
X150107683Y-72714582D01*
X150107683Y-72714582D02*
X150006668Y-72680910D01*
X150006668Y-72680910D02*
X149871981Y-72546223D01*
X149871981Y-72546223D02*
X149838309Y-72445208D01*
X149838309Y-72445208D02*
X149838309Y-72377865D01*
X149838309Y-72377865D02*
X149871981Y-72276849D01*
X149871981Y-72276849D02*
X150006668Y-72142162D01*
X150006668Y-72142162D02*
X150107683Y-72108491D01*
X150107683Y-72108491D02*
X150175027Y-72108491D01*
X150175027Y-72108491D02*
X150276042Y-72142162D01*
G04 #@! TO.C,D24*
X132032619Y-64571714D02*
X131032619Y-64571714D01*
X131032619Y-64571714D02*
X131032619Y-64809809D01*
X131032619Y-64809809D02*
X131080238Y-64952666D01*
X131080238Y-64952666D02*
X131175476Y-65047904D01*
X131175476Y-65047904D02*
X131270714Y-65095523D01*
X131270714Y-65095523D02*
X131461190Y-65143142D01*
X131461190Y-65143142D02*
X131604047Y-65143142D01*
X131604047Y-65143142D02*
X131794523Y-65095523D01*
X131794523Y-65095523D02*
X131889761Y-65047904D01*
X131889761Y-65047904D02*
X131985000Y-64952666D01*
X131985000Y-64952666D02*
X132032619Y-64809809D01*
X132032619Y-64809809D02*
X132032619Y-64571714D01*
X131127857Y-65524095D02*
X131080238Y-65571714D01*
X131080238Y-65571714D02*
X131032619Y-65666952D01*
X131032619Y-65666952D02*
X131032619Y-65905047D01*
X131032619Y-65905047D02*
X131080238Y-66000285D01*
X131080238Y-66000285D02*
X131127857Y-66047904D01*
X131127857Y-66047904D02*
X131223095Y-66095523D01*
X131223095Y-66095523D02*
X131318333Y-66095523D01*
X131318333Y-66095523D02*
X131461190Y-66047904D01*
X131461190Y-66047904D02*
X132032619Y-65476476D01*
X132032619Y-65476476D02*
X132032619Y-66095523D01*
X131365952Y-66952666D02*
X132032619Y-66952666D01*
X130985000Y-66714571D02*
X131699285Y-66476476D01*
X131699285Y-66476476D02*
X131699285Y-67095523D01*
G04 #@! TO.C,D4*
X147288094Y-95582619D02*
X147288094Y-94582619D01*
X147288094Y-94582619D02*
X147049999Y-94582619D01*
X147049999Y-94582619D02*
X146907142Y-94630238D01*
X146907142Y-94630238D02*
X146811904Y-94725476D01*
X146811904Y-94725476D02*
X146764285Y-94820714D01*
X146764285Y-94820714D02*
X146716666Y-95011190D01*
X146716666Y-95011190D02*
X146716666Y-95154047D01*
X146716666Y-95154047D02*
X146764285Y-95344523D01*
X146764285Y-95344523D02*
X146811904Y-95439761D01*
X146811904Y-95439761D02*
X146907142Y-95535000D01*
X146907142Y-95535000D02*
X147049999Y-95582619D01*
X147049999Y-95582619D02*
X147288094Y-95582619D01*
X145859523Y-94915952D02*
X145859523Y-95582619D01*
X146097618Y-94535000D02*
X146335713Y-95249285D01*
X146335713Y-95249285D02*
X145716666Y-95249285D01*
G04 #@! TO.C,J2*
X101585833Y-58675619D02*
X101585833Y-59389904D01*
X101585833Y-59389904D02*
X101633452Y-59532761D01*
X101633452Y-59532761D02*
X101728690Y-59628000D01*
X101728690Y-59628000D02*
X101871547Y-59675619D01*
X101871547Y-59675619D02*
X101966785Y-59675619D01*
X101157261Y-58770857D02*
X101109642Y-58723238D01*
X101109642Y-58723238D02*
X101014404Y-58675619D01*
X101014404Y-58675619D02*
X100776309Y-58675619D01*
X100776309Y-58675619D02*
X100681071Y-58723238D01*
X100681071Y-58723238D02*
X100633452Y-58770857D01*
X100633452Y-58770857D02*
X100585833Y-58866095D01*
X100585833Y-58866095D02*
X100585833Y-58961333D01*
X100585833Y-58961333D02*
X100633452Y-59104190D01*
X100633452Y-59104190D02*
X101204880Y-59675619D01*
X101204880Y-59675619D02*
X100585833Y-59675619D01*
D13*
X106907500Y-61483000D02*
X106907500Y-60213000D01*
X106907500Y-60213000D02*
X105637500Y-60213000D01*
X104594571Y-66943000D02*
X104197500Y-66943000D01*
X104594571Y-66183000D02*
X104197500Y-66183000D01*
X104594571Y-64403000D02*
X104197500Y-64403000D01*
X104594571Y-63643000D02*
X104197500Y-63643000D01*
X104527500Y-61863000D02*
X104197500Y-61863000D01*
X104527500Y-61103000D02*
X104197500Y-61103000D01*
X104197500Y-67893000D02*
X101537500Y-67893000D01*
X104197500Y-65293000D02*
X101537500Y-65293000D01*
X104197500Y-62753000D02*
X101537500Y-62753000D01*
X104197500Y-60153000D02*
X104197500Y-67893000D01*
X101537500Y-67893000D02*
X101537500Y-60153000D01*
X101537500Y-66183000D02*
X95537500Y-66183000D01*
X101537500Y-63643000D02*
X95537500Y-63643000D01*
X101537500Y-61763000D02*
X95537500Y-61763000D01*
X101537500Y-61643000D02*
X95537500Y-61643000D01*
X101537500Y-61523000D02*
X95537500Y-61523000D01*
X101537500Y-61403000D02*
X95537500Y-61403000D01*
X101537500Y-61283000D02*
X95537500Y-61283000D01*
X101537500Y-61163000D02*
X95537500Y-61163000D01*
X101537500Y-61103000D02*
X95537500Y-61103000D01*
X101537500Y-60153000D02*
X104197500Y-60153000D01*
X95537500Y-66943000D02*
X101537500Y-66943000D01*
X95537500Y-66183000D02*
X95537500Y-66943000D01*
X95537500Y-64403000D02*
X101537500Y-64403000D01*
X95537500Y-63643000D02*
X95537500Y-64403000D01*
X95537500Y-61863000D02*
X101537500Y-61863000D01*
X95537500Y-61103000D02*
X95537500Y-61863000D01*
G04 #@! TD*
M02*
