G04 #@! TF.GenerationSoftware,KiCad,Pcbnew,7.0.0-da2b9df05c~165~ubuntu22.04.1*
G04 #@! TF.CreationDate,2023-03-06T13:31:38-08:00*
G04 #@! TF.ProjectId,badge,62616467-652e-46b6-9963-61645f706362,rev?*
G04 #@! TF.SameCoordinates,Original*
G04 #@! TF.FileFunction,Legend,Bot*
G04 #@! TF.FilePolarity,Positive*
%FSLAX46Y46*%
G04 Gerber Fmt 4.6, Leading zero omitted, Abs format (unit mm)*
G04 Created by KiCad (PCBNEW 7.0.0-da2b9df05c~165~ubuntu22.04.1) date 2023-03-06 13:31:38*
%MOMM*%
%LPD*%
G01*
G04 APERTURE LIST*
%ADD10C,0.500000*%
%ADD11C,0.250000*%
%ADD12C,0.150000*%
G04 APERTURE END LIST*
D10*
X108372142Y-81016143D02*
X105372142Y-81016143D01*
X105372142Y-81016143D02*
X107515000Y-82016143D01*
X107515000Y-82016143D02*
X105372142Y-83016143D01*
X105372142Y-83016143D02*
X108372142Y-83016143D01*
X108372142Y-84444714D02*
X106372142Y-84444714D01*
X105372142Y-84444714D02*
X105515000Y-84301857D01*
X105515000Y-84301857D02*
X105657857Y-84444714D01*
X105657857Y-84444714D02*
X105515000Y-84587571D01*
X105515000Y-84587571D02*
X105372142Y-84444714D01*
X105372142Y-84444714D02*
X105657857Y-84444714D01*
X106372142Y-85873285D02*
X108372142Y-85873285D01*
X106657857Y-85873285D02*
X106515000Y-86016142D01*
X106515000Y-86016142D02*
X106372142Y-86301857D01*
X106372142Y-86301857D02*
X106372142Y-86730428D01*
X106372142Y-86730428D02*
X106515000Y-87016142D01*
X106515000Y-87016142D02*
X106800714Y-87159000D01*
X106800714Y-87159000D02*
X108372142Y-87159000D01*
X108372142Y-88587571D02*
X106372142Y-88587571D01*
X105372142Y-88587571D02*
X105515000Y-88444714D01*
X105515000Y-88444714D02*
X105657857Y-88587571D01*
X105657857Y-88587571D02*
X105515000Y-88730428D01*
X105515000Y-88730428D02*
X105372142Y-88587571D01*
X105372142Y-88587571D02*
X105657857Y-88587571D01*
X108372142Y-90016142D02*
X106372142Y-90016142D01*
X106657857Y-90016142D02*
X106515000Y-90158999D01*
X106515000Y-90158999D02*
X106372142Y-90444714D01*
X106372142Y-90444714D02*
X106372142Y-90873285D01*
X106372142Y-90873285D02*
X106515000Y-91158999D01*
X106515000Y-91158999D02*
X106800714Y-91301857D01*
X106800714Y-91301857D02*
X108372142Y-91301857D01*
X106800714Y-91301857D02*
X106515000Y-91444714D01*
X106515000Y-91444714D02*
X106372142Y-91730428D01*
X106372142Y-91730428D02*
X106372142Y-92158999D01*
X106372142Y-92158999D02*
X106515000Y-92444714D01*
X106515000Y-92444714D02*
X106800714Y-92587571D01*
X106800714Y-92587571D02*
X108372142Y-92587571D01*
X108372142Y-95816142D02*
X105372142Y-95816142D01*
X106372142Y-97244713D02*
X108372142Y-97244713D01*
X106657857Y-97244713D02*
X106515000Y-97387570D01*
X106515000Y-97387570D02*
X106372142Y-97673285D01*
X106372142Y-97673285D02*
X106372142Y-98101856D01*
X106372142Y-98101856D02*
X106515000Y-98387570D01*
X106515000Y-98387570D02*
X106800714Y-98530428D01*
X106800714Y-98530428D02*
X108372142Y-98530428D01*
X108229285Y-101244714D02*
X108372142Y-100958999D01*
X108372142Y-100958999D02*
X108372142Y-100387571D01*
X108372142Y-100387571D02*
X108229285Y-100101856D01*
X108229285Y-100101856D02*
X108086428Y-99958999D01*
X108086428Y-99958999D02*
X107800714Y-99816142D01*
X107800714Y-99816142D02*
X106943571Y-99816142D01*
X106943571Y-99816142D02*
X106657857Y-99958999D01*
X106657857Y-99958999D02*
X106515000Y-100101856D01*
X106515000Y-100101856D02*
X106372142Y-100387571D01*
X106372142Y-100387571D02*
X106372142Y-100958999D01*
X106372142Y-100958999D02*
X106515000Y-101244714D01*
X117949285Y-74087570D02*
X118092142Y-74516142D01*
X118092142Y-74516142D02*
X118092142Y-75230427D01*
X118092142Y-75230427D02*
X117949285Y-75516142D01*
X117949285Y-75516142D02*
X117806428Y-75658999D01*
X117806428Y-75658999D02*
X117520714Y-75801856D01*
X117520714Y-75801856D02*
X117235000Y-75801856D01*
X117235000Y-75801856D02*
X116949285Y-75658999D01*
X116949285Y-75658999D02*
X116806428Y-75516142D01*
X116806428Y-75516142D02*
X116663571Y-75230427D01*
X116663571Y-75230427D02*
X116520714Y-74658999D01*
X116520714Y-74658999D02*
X116377857Y-74373284D01*
X116377857Y-74373284D02*
X116235000Y-74230427D01*
X116235000Y-74230427D02*
X115949285Y-74087570D01*
X115949285Y-74087570D02*
X115663571Y-74087570D01*
X115663571Y-74087570D02*
X115377857Y-74230427D01*
X115377857Y-74230427D02*
X115235000Y-74373284D01*
X115235000Y-74373284D02*
X115092142Y-74658999D01*
X115092142Y-74658999D02*
X115092142Y-75373284D01*
X115092142Y-75373284D02*
X115235000Y-75801856D01*
X118092142Y-77516142D02*
X117949285Y-77230427D01*
X117949285Y-77230427D02*
X117806428Y-77087570D01*
X117806428Y-77087570D02*
X117520714Y-76944713D01*
X117520714Y-76944713D02*
X116663571Y-76944713D01*
X116663571Y-76944713D02*
X116377857Y-77087570D01*
X116377857Y-77087570D02*
X116235000Y-77230427D01*
X116235000Y-77230427D02*
X116092142Y-77516142D01*
X116092142Y-77516142D02*
X116092142Y-77944713D01*
X116092142Y-77944713D02*
X116235000Y-78230427D01*
X116235000Y-78230427D02*
X116377857Y-78373285D01*
X116377857Y-78373285D02*
X116663571Y-78516142D01*
X116663571Y-78516142D02*
X117520714Y-78516142D01*
X117520714Y-78516142D02*
X117806428Y-78373285D01*
X117806428Y-78373285D02*
X117949285Y-78230427D01*
X117949285Y-78230427D02*
X118092142Y-77944713D01*
X118092142Y-77944713D02*
X118092142Y-77516142D01*
X116092142Y-79373285D02*
X116092142Y-80516142D01*
X118092142Y-79801856D02*
X115520714Y-79801856D01*
X115520714Y-79801856D02*
X115235000Y-79944713D01*
X115235000Y-79944713D02*
X115092142Y-80230428D01*
X115092142Y-80230428D02*
X115092142Y-80516142D01*
X116092142Y-81087571D02*
X116092142Y-82230428D01*
X115092142Y-81516142D02*
X117663571Y-81516142D01*
X117663571Y-81516142D02*
X117949285Y-81658999D01*
X117949285Y-81658999D02*
X118092142Y-81944714D01*
X118092142Y-81944714D02*
X118092142Y-82230428D01*
X116092142Y-82944714D02*
X118092142Y-83516143D01*
X118092142Y-83516143D02*
X116663571Y-84087571D01*
X116663571Y-84087571D02*
X118092142Y-84659000D01*
X118092142Y-84659000D02*
X116092142Y-85230428D01*
X118092142Y-87659000D02*
X116520714Y-87659000D01*
X116520714Y-87659000D02*
X116235000Y-87516142D01*
X116235000Y-87516142D02*
X116092142Y-87230428D01*
X116092142Y-87230428D02*
X116092142Y-86659000D01*
X116092142Y-86659000D02*
X116235000Y-86373285D01*
X117949285Y-87659000D02*
X118092142Y-87373285D01*
X118092142Y-87373285D02*
X118092142Y-86659000D01*
X118092142Y-86659000D02*
X117949285Y-86373285D01*
X117949285Y-86373285D02*
X117663571Y-86230428D01*
X117663571Y-86230428D02*
X117377857Y-86230428D01*
X117377857Y-86230428D02*
X117092142Y-86373285D01*
X117092142Y-86373285D02*
X116949285Y-86659000D01*
X116949285Y-86659000D02*
X116949285Y-87373285D01*
X116949285Y-87373285D02*
X116806428Y-87659000D01*
X118092142Y-89087571D02*
X116092142Y-89087571D01*
X116663571Y-89087571D02*
X116377857Y-89230428D01*
X116377857Y-89230428D02*
X116235000Y-89373286D01*
X116235000Y-89373286D02*
X116092142Y-89659000D01*
X116092142Y-89659000D02*
X116092142Y-89944714D01*
X117949285Y-92087571D02*
X118092142Y-91801857D01*
X118092142Y-91801857D02*
X118092142Y-91230429D01*
X118092142Y-91230429D02*
X117949285Y-90944714D01*
X117949285Y-90944714D02*
X117663571Y-90801857D01*
X117663571Y-90801857D02*
X116520714Y-90801857D01*
X116520714Y-90801857D02*
X116235000Y-90944714D01*
X116235000Y-90944714D02*
X116092142Y-91230429D01*
X116092142Y-91230429D02*
X116092142Y-91801857D01*
X116092142Y-91801857D02*
X116235000Y-92087571D01*
X116235000Y-92087571D02*
X116520714Y-92230429D01*
X116520714Y-92230429D02*
X116806428Y-92230429D01*
X116806428Y-92230429D02*
X117092142Y-90801857D01*
X115092142Y-95887572D02*
X115092142Y-96459000D01*
X115092142Y-96459000D02*
X115235000Y-96744715D01*
X115235000Y-96744715D02*
X115520714Y-97030429D01*
X115520714Y-97030429D02*
X116092142Y-97173286D01*
X116092142Y-97173286D02*
X117092142Y-97173286D01*
X117092142Y-97173286D02*
X117663571Y-97030429D01*
X117663571Y-97030429D02*
X117949285Y-96744715D01*
X117949285Y-96744715D02*
X118092142Y-96459000D01*
X118092142Y-96459000D02*
X118092142Y-95887572D01*
X118092142Y-95887572D02*
X117949285Y-95601858D01*
X117949285Y-95601858D02*
X117663571Y-95316143D01*
X117663571Y-95316143D02*
X117092142Y-95173286D01*
X117092142Y-95173286D02*
X116092142Y-95173286D01*
X116092142Y-95173286D02*
X115520714Y-95316143D01*
X115520714Y-95316143D02*
X115235000Y-95601858D01*
X115235000Y-95601858D02*
X115092142Y-95887572D01*
X116092142Y-98459000D02*
X118092142Y-98459000D01*
X116377857Y-98459000D02*
X116235000Y-98601857D01*
X116235000Y-98601857D02*
X116092142Y-98887572D01*
X116092142Y-98887572D02*
X116092142Y-99316143D01*
X116092142Y-99316143D02*
X116235000Y-99601857D01*
X116235000Y-99601857D02*
X116520714Y-99744715D01*
X116520714Y-99744715D02*
X118092142Y-99744715D01*
X117949285Y-101030429D02*
X118092142Y-101316143D01*
X118092142Y-101316143D02*
X118092142Y-101887572D01*
X118092142Y-101887572D02*
X117949285Y-102173286D01*
X117949285Y-102173286D02*
X117663571Y-102316143D01*
X117663571Y-102316143D02*
X117520714Y-102316143D01*
X117520714Y-102316143D02*
X117235000Y-102173286D01*
X117235000Y-102173286D02*
X117092142Y-101887572D01*
X117092142Y-101887572D02*
X117092142Y-101459001D01*
X117092142Y-101459001D02*
X116949285Y-101173286D01*
X116949285Y-101173286D02*
X116663571Y-101030429D01*
X116663571Y-101030429D02*
X116520714Y-101030429D01*
X116520714Y-101030429D02*
X116235000Y-101173286D01*
X116235000Y-101173286D02*
X116092142Y-101459001D01*
X116092142Y-101459001D02*
X116092142Y-101887572D01*
X116092142Y-101887572D02*
X116235000Y-102173286D01*
X118092142Y-103601857D02*
X116092142Y-103601857D01*
X115092142Y-103601857D02*
X115235000Y-103459000D01*
X115235000Y-103459000D02*
X115377857Y-103601857D01*
X115377857Y-103601857D02*
X115235000Y-103744714D01*
X115235000Y-103744714D02*
X115092142Y-103601857D01*
X115092142Y-103601857D02*
X115377857Y-103601857D01*
X116092142Y-104601857D02*
X116092142Y-105744714D01*
X115092142Y-105030428D02*
X117663571Y-105030428D01*
X117663571Y-105030428D02*
X117949285Y-105173285D01*
X117949285Y-105173285D02*
X118092142Y-105459000D01*
X118092142Y-105459000D02*
X118092142Y-105744714D01*
X117949285Y-107887571D02*
X118092142Y-107601857D01*
X118092142Y-107601857D02*
X118092142Y-107030429D01*
X118092142Y-107030429D02*
X117949285Y-106744714D01*
X117949285Y-106744714D02*
X117663571Y-106601857D01*
X117663571Y-106601857D02*
X116520714Y-106601857D01*
X116520714Y-106601857D02*
X116235000Y-106744714D01*
X116235000Y-106744714D02*
X116092142Y-107030429D01*
X116092142Y-107030429D02*
X116092142Y-107601857D01*
X116092142Y-107601857D02*
X116235000Y-107887571D01*
X116235000Y-107887571D02*
X116520714Y-108030429D01*
X116520714Y-108030429D02*
X116806428Y-108030429D01*
X116806428Y-108030429D02*
X117092142Y-106601857D01*
X142662142Y-82468714D02*
X139662142Y-82468714D01*
X139662142Y-82468714D02*
X141805000Y-83468714D01*
X141805000Y-83468714D02*
X139662142Y-84468714D01*
X139662142Y-84468714D02*
X142662142Y-84468714D01*
X142662142Y-87183000D02*
X141090714Y-87183000D01*
X141090714Y-87183000D02*
X140805000Y-87040142D01*
X140805000Y-87040142D02*
X140662142Y-86754428D01*
X140662142Y-86754428D02*
X140662142Y-86183000D01*
X140662142Y-86183000D02*
X140805000Y-85897285D01*
X142519285Y-87183000D02*
X142662142Y-86897285D01*
X142662142Y-86897285D02*
X142662142Y-86183000D01*
X142662142Y-86183000D02*
X142519285Y-85897285D01*
X142519285Y-85897285D02*
X142233571Y-85754428D01*
X142233571Y-85754428D02*
X141947857Y-85754428D01*
X141947857Y-85754428D02*
X141662142Y-85897285D01*
X141662142Y-85897285D02*
X141519285Y-86183000D01*
X141519285Y-86183000D02*
X141519285Y-86897285D01*
X141519285Y-86897285D02*
X141376428Y-87183000D01*
X140662142Y-88325857D02*
X142662142Y-89040143D01*
X140662142Y-89754428D02*
X142662142Y-89040143D01*
X142662142Y-89040143D02*
X143376428Y-88754428D01*
X143376428Y-88754428D02*
X143519285Y-88611571D01*
X143519285Y-88611571D02*
X143662142Y-88325857D01*
X139947857Y-92554428D02*
X139805000Y-92697285D01*
X139805000Y-92697285D02*
X139662142Y-92983000D01*
X139662142Y-92983000D02*
X139662142Y-93697285D01*
X139662142Y-93697285D02*
X139805000Y-93983000D01*
X139805000Y-93983000D02*
X139947857Y-94125857D01*
X139947857Y-94125857D02*
X140233571Y-94268714D01*
X140233571Y-94268714D02*
X140519285Y-94268714D01*
X140519285Y-94268714D02*
X140947857Y-94125857D01*
X140947857Y-94125857D02*
X142662142Y-92411571D01*
X142662142Y-92411571D02*
X142662142Y-94268714D01*
X139662142Y-96125857D02*
X139662142Y-96411571D01*
X139662142Y-96411571D02*
X139805000Y-96697285D01*
X139805000Y-96697285D02*
X139947857Y-96840143D01*
X139947857Y-96840143D02*
X140233571Y-96983000D01*
X140233571Y-96983000D02*
X140805000Y-97125857D01*
X140805000Y-97125857D02*
X141519285Y-97125857D01*
X141519285Y-97125857D02*
X142090714Y-96983000D01*
X142090714Y-96983000D02*
X142376428Y-96840143D01*
X142376428Y-96840143D02*
X142519285Y-96697285D01*
X142519285Y-96697285D02*
X142662142Y-96411571D01*
X142662142Y-96411571D02*
X142662142Y-96125857D01*
X142662142Y-96125857D02*
X142519285Y-95840143D01*
X142519285Y-95840143D02*
X142376428Y-95697285D01*
X142376428Y-95697285D02*
X142090714Y-95554428D01*
X142090714Y-95554428D02*
X141519285Y-95411571D01*
X141519285Y-95411571D02*
X140805000Y-95411571D01*
X140805000Y-95411571D02*
X140233571Y-95554428D01*
X140233571Y-95554428D02*
X139947857Y-95697285D01*
X139947857Y-95697285D02*
X139805000Y-95840143D01*
X139805000Y-95840143D02*
X139662142Y-96125857D01*
X139947857Y-98268714D02*
X139805000Y-98411571D01*
X139805000Y-98411571D02*
X139662142Y-98697286D01*
X139662142Y-98697286D02*
X139662142Y-99411571D01*
X139662142Y-99411571D02*
X139805000Y-99697286D01*
X139805000Y-99697286D02*
X139947857Y-99840143D01*
X139947857Y-99840143D02*
X140233571Y-99983000D01*
X140233571Y-99983000D02*
X140519285Y-99983000D01*
X140519285Y-99983000D02*
X140947857Y-99840143D01*
X140947857Y-99840143D02*
X142662142Y-98125857D01*
X142662142Y-98125857D02*
X142662142Y-99983000D01*
X139662142Y-100983000D02*
X139662142Y-102840143D01*
X139662142Y-102840143D02*
X140805000Y-101840143D01*
X140805000Y-101840143D02*
X140805000Y-102268714D01*
X140805000Y-102268714D02*
X140947857Y-102554429D01*
X140947857Y-102554429D02*
X141090714Y-102697286D01*
X141090714Y-102697286D02*
X141376428Y-102840143D01*
X141376428Y-102840143D02*
X142090714Y-102840143D01*
X142090714Y-102840143D02*
X142376428Y-102697286D01*
X142376428Y-102697286D02*
X142519285Y-102554429D01*
X142519285Y-102554429D02*
X142662142Y-102268714D01*
X142662142Y-102268714D02*
X142662142Y-101411571D01*
X142662142Y-101411571D02*
X142519285Y-101125857D01*
X142519285Y-101125857D02*
X142376428Y-100983000D01*
X150382142Y-88297286D02*
X152382142Y-89011572D01*
X152382142Y-89011572D02*
X150382142Y-89725857D01*
X152382142Y-92440143D02*
X152382142Y-90725857D01*
X152382142Y-91583000D02*
X149382142Y-91583000D01*
X149382142Y-91583000D02*
X149810714Y-91297286D01*
X149810714Y-91297286D02*
X150096428Y-91011571D01*
X150096428Y-91011571D02*
X150239285Y-90725857D01*
X152096428Y-93725857D02*
X152239285Y-93868714D01*
X152239285Y-93868714D02*
X152382142Y-93725857D01*
X152382142Y-93725857D02*
X152239285Y-93583000D01*
X152239285Y-93583000D02*
X152096428Y-93725857D01*
X152096428Y-93725857D02*
X152382142Y-93725857D01*
X149382142Y-95725857D02*
X149382142Y-96011571D01*
X149382142Y-96011571D02*
X149525000Y-96297285D01*
X149525000Y-96297285D02*
X149667857Y-96440143D01*
X149667857Y-96440143D02*
X149953571Y-96583000D01*
X149953571Y-96583000D02*
X150525000Y-96725857D01*
X150525000Y-96725857D02*
X151239285Y-96725857D01*
X151239285Y-96725857D02*
X151810714Y-96583000D01*
X151810714Y-96583000D02*
X152096428Y-96440143D01*
X152096428Y-96440143D02*
X152239285Y-96297285D01*
X152239285Y-96297285D02*
X152382142Y-96011571D01*
X152382142Y-96011571D02*
X152382142Y-95725857D01*
X152382142Y-95725857D02*
X152239285Y-95440143D01*
X152239285Y-95440143D02*
X152096428Y-95297285D01*
X152096428Y-95297285D02*
X151810714Y-95154428D01*
X151810714Y-95154428D02*
X151239285Y-95011571D01*
X151239285Y-95011571D02*
X150525000Y-95011571D01*
X150525000Y-95011571D02*
X149953571Y-95154428D01*
X149953571Y-95154428D02*
X149667857Y-95297285D01*
X149667857Y-95297285D02*
X149525000Y-95440143D01*
X149525000Y-95440143D02*
X149382142Y-95725857D01*
D11*
X187048761Y-110966380D02*
X188477333Y-110966380D01*
X188477333Y-110966380D02*
X188763047Y-111061619D01*
X188763047Y-111061619D02*
X188953523Y-111252095D01*
X188953523Y-111252095D02*
X189048761Y-111537809D01*
X189048761Y-111537809D02*
X189048761Y-111728285D01*
X189048761Y-109061618D02*
X189048761Y-110013999D01*
X189048761Y-110013999D02*
X187048761Y-110013999D01*
X188858285Y-107252094D02*
X188953523Y-107347332D01*
X188953523Y-107347332D02*
X189048761Y-107633046D01*
X189048761Y-107633046D02*
X189048761Y-107823522D01*
X189048761Y-107823522D02*
X188953523Y-108109237D01*
X188953523Y-108109237D02*
X188763047Y-108299713D01*
X188763047Y-108299713D02*
X188572571Y-108394951D01*
X188572571Y-108394951D02*
X188191619Y-108490189D01*
X188191619Y-108490189D02*
X187905904Y-108490189D01*
X187905904Y-108490189D02*
X187524952Y-108394951D01*
X187524952Y-108394951D02*
X187334476Y-108299713D01*
X187334476Y-108299713D02*
X187144000Y-108109237D01*
X187144000Y-108109237D02*
X187048761Y-107823522D01*
X187048761Y-107823522D02*
X187048761Y-107633046D01*
X187048761Y-107633046D02*
X187144000Y-107347332D01*
X187144000Y-107347332D02*
X187239238Y-107252094D01*
X187048761Y-105823522D02*
X188477333Y-105823522D01*
X188477333Y-105823522D02*
X188763047Y-105918761D01*
X188763047Y-105918761D02*
X188953523Y-106109237D01*
X188953523Y-106109237D02*
X189048761Y-106394951D01*
X189048761Y-106394951D02*
X189048761Y-106585427D01*
X189048761Y-103918760D02*
X189048761Y-104871141D01*
X189048761Y-104871141D02*
X187048761Y-104871141D01*
X188858285Y-102109236D02*
X188953523Y-102204474D01*
X188953523Y-102204474D02*
X189048761Y-102490188D01*
X189048761Y-102490188D02*
X189048761Y-102680664D01*
X189048761Y-102680664D02*
X188953523Y-102966379D01*
X188953523Y-102966379D02*
X188763047Y-103156855D01*
X188763047Y-103156855D02*
X188572571Y-103252093D01*
X188572571Y-103252093D02*
X188191619Y-103347331D01*
X188191619Y-103347331D02*
X187905904Y-103347331D01*
X187905904Y-103347331D02*
X187524952Y-103252093D01*
X187524952Y-103252093D02*
X187334476Y-103156855D01*
X187334476Y-103156855D02*
X187144000Y-102966379D01*
X187144000Y-102966379D02*
X187048761Y-102680664D01*
X187048761Y-102680664D02*
X187048761Y-102490188D01*
X187048761Y-102490188D02*
X187144000Y-102204474D01*
X187144000Y-102204474D02*
X187239238Y-102109236D01*
X187048761Y-100680664D02*
X188477333Y-100680664D01*
X188477333Y-100680664D02*
X188763047Y-100775903D01*
X188763047Y-100775903D02*
X188953523Y-100966379D01*
X188953523Y-100966379D02*
X189048761Y-101252093D01*
X189048761Y-101252093D02*
X189048761Y-101442569D01*
X189048761Y-98775902D02*
X189048761Y-99728283D01*
X189048761Y-99728283D02*
X187048761Y-99728283D01*
X188858285Y-96966378D02*
X188953523Y-97061616D01*
X188953523Y-97061616D02*
X189048761Y-97347330D01*
X189048761Y-97347330D02*
X189048761Y-97537806D01*
X189048761Y-97537806D02*
X188953523Y-97823521D01*
X188953523Y-97823521D02*
X188763047Y-98013997D01*
X188763047Y-98013997D02*
X188572571Y-98109235D01*
X188572571Y-98109235D02*
X188191619Y-98204473D01*
X188191619Y-98204473D02*
X187905904Y-98204473D01*
X187905904Y-98204473D02*
X187524952Y-98109235D01*
X187524952Y-98109235D02*
X187334476Y-98013997D01*
X187334476Y-98013997D02*
X187144000Y-97823521D01*
X187144000Y-97823521D02*
X187048761Y-97537806D01*
X187048761Y-97537806D02*
X187048761Y-97347330D01*
X187048761Y-97347330D02*
X187144000Y-97061616D01*
X187144000Y-97061616D02*
X187239238Y-96966378D01*
X187048761Y-95537806D02*
X188477333Y-95537806D01*
X188477333Y-95537806D02*
X188763047Y-95633045D01*
X188763047Y-95633045D02*
X188953523Y-95823521D01*
X188953523Y-95823521D02*
X189048761Y-96109235D01*
X189048761Y-96109235D02*
X189048761Y-96299711D01*
X189048761Y-93633044D02*
X189048761Y-94585425D01*
X189048761Y-94585425D02*
X187048761Y-94585425D01*
X188858285Y-91823520D02*
X188953523Y-91918758D01*
X188953523Y-91918758D02*
X189048761Y-92204472D01*
X189048761Y-92204472D02*
X189048761Y-92394948D01*
X189048761Y-92394948D02*
X188953523Y-92680663D01*
X188953523Y-92680663D02*
X188763047Y-92871139D01*
X188763047Y-92871139D02*
X188572571Y-92966377D01*
X188572571Y-92966377D02*
X188191619Y-93061615D01*
X188191619Y-93061615D02*
X187905904Y-93061615D01*
X187905904Y-93061615D02*
X187524952Y-92966377D01*
X187524952Y-92966377D02*
X187334476Y-92871139D01*
X187334476Y-92871139D02*
X187144000Y-92680663D01*
X187144000Y-92680663D02*
X187048761Y-92394948D01*
X187048761Y-92394948D02*
X187048761Y-92204472D01*
X187048761Y-92204472D02*
X187144000Y-91918758D01*
X187144000Y-91918758D02*
X187239238Y-91823520D01*
D12*
G04 #@! TO.C,D17*
X182988285Y-90957380D02*
X182988285Y-89957380D01*
X182988285Y-89957380D02*
X182750190Y-89957380D01*
X182750190Y-89957380D02*
X182607333Y-90005000D01*
X182607333Y-90005000D02*
X182512095Y-90100238D01*
X182512095Y-90100238D02*
X182464476Y-90195476D01*
X182464476Y-90195476D02*
X182416857Y-90385952D01*
X182416857Y-90385952D02*
X182416857Y-90528809D01*
X182416857Y-90528809D02*
X182464476Y-90719285D01*
X182464476Y-90719285D02*
X182512095Y-90814523D01*
X182512095Y-90814523D02*
X182607333Y-90909761D01*
X182607333Y-90909761D02*
X182750190Y-90957380D01*
X182750190Y-90957380D02*
X182988285Y-90957380D01*
X181464476Y-90957380D02*
X182035904Y-90957380D01*
X181750190Y-90957380D02*
X181750190Y-89957380D01*
X181750190Y-89957380D02*
X181845428Y-90100238D01*
X181845428Y-90100238D02*
X181940666Y-90195476D01*
X181940666Y-90195476D02*
X182035904Y-90243095D01*
X181131142Y-89957380D02*
X180464476Y-89957380D01*
X180464476Y-89957380D02*
X180893047Y-90957380D01*
G04 #@! TO.C,D15*
X182988285Y-80627380D02*
X182988285Y-79627380D01*
X182988285Y-79627380D02*
X182750190Y-79627380D01*
X182750190Y-79627380D02*
X182607333Y-79675000D01*
X182607333Y-79675000D02*
X182512095Y-79770238D01*
X182512095Y-79770238D02*
X182464476Y-79865476D01*
X182464476Y-79865476D02*
X182416857Y-80055952D01*
X182416857Y-80055952D02*
X182416857Y-80198809D01*
X182416857Y-80198809D02*
X182464476Y-80389285D01*
X182464476Y-80389285D02*
X182512095Y-80484523D01*
X182512095Y-80484523D02*
X182607333Y-80579761D01*
X182607333Y-80579761D02*
X182750190Y-80627380D01*
X182750190Y-80627380D02*
X182988285Y-80627380D01*
X181464476Y-80627380D02*
X182035904Y-80627380D01*
X181750190Y-80627380D02*
X181750190Y-79627380D01*
X181750190Y-79627380D02*
X181845428Y-79770238D01*
X181845428Y-79770238D02*
X181940666Y-79865476D01*
X181940666Y-79865476D02*
X182035904Y-79913095D01*
X180559714Y-79627380D02*
X181035904Y-79627380D01*
X181035904Y-79627380D02*
X181083523Y-80103571D01*
X181083523Y-80103571D02*
X181035904Y-80055952D01*
X181035904Y-80055952D02*
X180940666Y-80008333D01*
X180940666Y-80008333D02*
X180702571Y-80008333D01*
X180702571Y-80008333D02*
X180607333Y-80055952D01*
X180607333Y-80055952D02*
X180559714Y-80103571D01*
X180559714Y-80103571D02*
X180512095Y-80198809D01*
X180512095Y-80198809D02*
X180512095Y-80436904D01*
X180512095Y-80436904D02*
X180559714Y-80532142D01*
X180559714Y-80532142D02*
X180607333Y-80579761D01*
X180607333Y-80579761D02*
X180702571Y-80627380D01*
X180702571Y-80627380D02*
X180940666Y-80627380D01*
X180940666Y-80627380D02*
X181035904Y-80579761D01*
X181035904Y-80579761D02*
X181083523Y-80532142D01*
G04 #@! TO.C,D7*
X146788094Y-79357380D02*
X146788094Y-78357380D01*
X146788094Y-78357380D02*
X146549999Y-78357380D01*
X146549999Y-78357380D02*
X146407142Y-78405000D01*
X146407142Y-78405000D02*
X146311904Y-78500238D01*
X146311904Y-78500238D02*
X146264285Y-78595476D01*
X146264285Y-78595476D02*
X146216666Y-78785952D01*
X146216666Y-78785952D02*
X146216666Y-78928809D01*
X146216666Y-78928809D02*
X146264285Y-79119285D01*
X146264285Y-79119285D02*
X146311904Y-79214523D01*
X146311904Y-79214523D02*
X146407142Y-79309761D01*
X146407142Y-79309761D02*
X146549999Y-79357380D01*
X146549999Y-79357380D02*
X146788094Y-79357380D01*
X145883332Y-78357380D02*
X145216666Y-78357380D01*
X145216666Y-78357380D02*
X145645237Y-79357380D01*
G04 #@! TO.C,D14*
X182876707Y-74099914D02*
X182534686Y-73160222D01*
X182534686Y-73160222D02*
X182310950Y-73241655D01*
X182310950Y-73241655D02*
X182192995Y-73335263D01*
X182192995Y-73335263D02*
X182136074Y-73457330D01*
X182136074Y-73457330D02*
X182123900Y-73563112D01*
X182123900Y-73563112D02*
X182144299Y-73758387D01*
X182144299Y-73758387D02*
X182193159Y-73892629D01*
X182193159Y-73892629D02*
X182303053Y-74055332D01*
X182303053Y-74055332D02*
X182380374Y-74128539D01*
X182380374Y-74128539D02*
X182502442Y-74185461D01*
X182502442Y-74185461D02*
X182652970Y-74181348D01*
X182652970Y-74181348D02*
X182876707Y-74099914D01*
X181444794Y-74621088D02*
X181981761Y-74425648D01*
X181713278Y-74523368D02*
X181371257Y-73583675D01*
X181371257Y-73583675D02*
X181509612Y-73685344D01*
X181509612Y-73685344D02*
X181631680Y-73742265D01*
X181631680Y-73742265D02*
X181737461Y-73754439D01*
X180411330Y-74287786D02*
X180639343Y-74914248D01*
X180504773Y-73848375D02*
X180972809Y-74438151D01*
X180972809Y-74438151D02*
X180391095Y-74649877D01*
G04 #@! TO.C,D25*
X125550085Y-68066707D02*
X126489777Y-67724686D01*
X126489777Y-67724686D02*
X126408344Y-67500950D01*
X126408344Y-67500950D02*
X126314736Y-67382995D01*
X126314736Y-67382995D02*
X126192669Y-67326074D01*
X126192669Y-67326074D02*
X126086887Y-67313900D01*
X126086887Y-67313900D02*
X125891612Y-67334299D01*
X125891612Y-67334299D02*
X125757370Y-67383159D01*
X125757370Y-67383159D02*
X125594667Y-67493053D01*
X125594667Y-67493053D02*
X125521460Y-67570374D01*
X125521460Y-67570374D02*
X125464538Y-67692442D01*
X125464538Y-67692442D02*
X125468651Y-67842970D01*
X125468651Y-67842970D02*
X125550085Y-68066707D01*
X126074549Y-66862314D02*
X126103010Y-66801280D01*
X126103010Y-66801280D02*
X126115184Y-66695499D01*
X126115184Y-66695499D02*
X126033750Y-66471763D01*
X126033750Y-66471763D02*
X125956430Y-66398555D01*
X125956430Y-66398555D02*
X125895396Y-66370094D01*
X125895396Y-66370094D02*
X125789615Y-66357921D01*
X125789615Y-66357921D02*
X125700120Y-66390494D01*
X125700120Y-66390494D02*
X125582165Y-66484101D01*
X125582165Y-66484101D02*
X125240638Y-67216508D01*
X125240638Y-67216508D02*
X125028911Y-66634794D01*
X125659157Y-65442576D02*
X125822024Y-65890048D01*
X125822024Y-65890048D02*
X125390838Y-66097662D01*
X125390838Y-66097662D02*
X125419298Y-66036628D01*
X125419298Y-66036628D02*
X125431472Y-65930847D01*
X125431472Y-65930847D02*
X125350039Y-65707111D01*
X125350039Y-65707111D02*
X125272718Y-65633903D01*
X125272718Y-65633903D02*
X125211684Y-65605442D01*
X125211684Y-65605442D02*
X125105903Y-65593269D01*
X125105903Y-65593269D02*
X124882167Y-65674702D01*
X124882167Y-65674702D02*
X124808959Y-65752023D01*
X124808959Y-65752023D02*
X124780498Y-65813056D01*
X124780498Y-65813056D02*
X124768324Y-65918838D01*
X124768324Y-65918838D02*
X124849758Y-66142574D01*
X124849758Y-66142574D02*
X124927078Y-66215782D01*
X124927078Y-66215782D02*
X124988112Y-66244242D01*
G04 #@! TO.C,D16*
X182984285Y-85787380D02*
X182984285Y-84787380D01*
X182984285Y-84787380D02*
X182746190Y-84787380D01*
X182746190Y-84787380D02*
X182603333Y-84835000D01*
X182603333Y-84835000D02*
X182508095Y-84930238D01*
X182508095Y-84930238D02*
X182460476Y-85025476D01*
X182460476Y-85025476D02*
X182412857Y-85215952D01*
X182412857Y-85215952D02*
X182412857Y-85358809D01*
X182412857Y-85358809D02*
X182460476Y-85549285D01*
X182460476Y-85549285D02*
X182508095Y-85644523D01*
X182508095Y-85644523D02*
X182603333Y-85739761D01*
X182603333Y-85739761D02*
X182746190Y-85787380D01*
X182746190Y-85787380D02*
X182984285Y-85787380D01*
X181460476Y-85787380D02*
X182031904Y-85787380D01*
X181746190Y-85787380D02*
X181746190Y-84787380D01*
X181746190Y-84787380D02*
X181841428Y-84930238D01*
X181841428Y-84930238D02*
X181936666Y-85025476D01*
X181936666Y-85025476D02*
X182031904Y-85073095D01*
X180603333Y-84787380D02*
X180793809Y-84787380D01*
X180793809Y-84787380D02*
X180889047Y-84835000D01*
X180889047Y-84835000D02*
X180936666Y-84882619D01*
X180936666Y-84882619D02*
X181031904Y-85025476D01*
X181031904Y-85025476D02*
X181079523Y-85215952D01*
X181079523Y-85215952D02*
X181079523Y-85596904D01*
X181079523Y-85596904D02*
X181031904Y-85692142D01*
X181031904Y-85692142D02*
X180984285Y-85739761D01*
X180984285Y-85739761D02*
X180889047Y-85787380D01*
X180889047Y-85787380D02*
X180698571Y-85787380D01*
X180698571Y-85787380D02*
X180603333Y-85739761D01*
X180603333Y-85739761D02*
X180555714Y-85692142D01*
X180555714Y-85692142D02*
X180508095Y-85596904D01*
X180508095Y-85596904D02*
X180508095Y-85358809D01*
X180508095Y-85358809D02*
X180555714Y-85263571D01*
X180555714Y-85263571D02*
X180603333Y-85215952D01*
X180603333Y-85215952D02*
X180698571Y-85168333D01*
X180698571Y-85168333D02*
X180889047Y-85168333D01*
X180889047Y-85168333D02*
X180984285Y-85215952D01*
X180984285Y-85215952D02*
X181031904Y-85263571D01*
X181031904Y-85263571D02*
X181079523Y-85358809D01*
G04 #@! TO.C,D2*
X146788094Y-106237380D02*
X146788094Y-105237380D01*
X146788094Y-105237380D02*
X146549999Y-105237380D01*
X146549999Y-105237380D02*
X146407142Y-105285000D01*
X146407142Y-105285000D02*
X146311904Y-105380238D01*
X146311904Y-105380238D02*
X146264285Y-105475476D01*
X146264285Y-105475476D02*
X146216666Y-105665952D01*
X146216666Y-105665952D02*
X146216666Y-105808809D01*
X146216666Y-105808809D02*
X146264285Y-105999285D01*
X146264285Y-105999285D02*
X146311904Y-106094523D01*
X146311904Y-106094523D02*
X146407142Y-106189761D01*
X146407142Y-106189761D02*
X146549999Y-106237380D01*
X146549999Y-106237380D02*
X146788094Y-106237380D01*
X145835713Y-105332619D02*
X145788094Y-105285000D01*
X145788094Y-105285000D02*
X145692856Y-105237380D01*
X145692856Y-105237380D02*
X145454761Y-105237380D01*
X145454761Y-105237380D02*
X145359523Y-105285000D01*
X145359523Y-105285000D02*
X145311904Y-105332619D01*
X145311904Y-105332619D02*
X145264285Y-105427857D01*
X145264285Y-105427857D02*
X145264285Y-105523095D01*
X145264285Y-105523095D02*
X145311904Y-105665952D01*
X145311904Y-105665952D02*
X145883332Y-106237380D01*
X145883332Y-106237380D02*
X145264285Y-106237380D01*
G04 #@! TO.C,D22*
X143955405Y-71484455D02*
X143381829Y-70665303D01*
X143381829Y-70665303D02*
X143186793Y-70801868D01*
X143186793Y-70801868D02*
X143097084Y-70922815D01*
X143097084Y-70922815D02*
X143073696Y-71055456D01*
X143073696Y-71055456D02*
X143089315Y-71160784D01*
X143089315Y-71160784D02*
X143159560Y-71344126D01*
X143159560Y-71344126D02*
X143241500Y-71461147D01*
X143241500Y-71461147D02*
X143389760Y-71589863D01*
X143389760Y-71589863D02*
X143483393Y-71640565D01*
X143483393Y-71640565D02*
X143616034Y-71663953D01*
X143616034Y-71663953D02*
X143760369Y-71621020D01*
X143760369Y-71621020D02*
X143955405Y-71484455D01*
X142656310Y-71289580D02*
X142589990Y-71277886D01*
X142589990Y-71277886D02*
X142484662Y-71293505D01*
X142484662Y-71293505D02*
X142289626Y-71430071D01*
X142289626Y-71430071D02*
X142238925Y-71523705D01*
X142238925Y-71523705D02*
X142227231Y-71590025D01*
X142227231Y-71590025D02*
X142242850Y-71695353D01*
X142242850Y-71695353D02*
X142297476Y-71773367D01*
X142297476Y-71773367D02*
X142418423Y-71863076D01*
X142418423Y-71863076D02*
X143214268Y-72003405D01*
X143214268Y-72003405D02*
X142707174Y-72358476D01*
X141876165Y-71835844D02*
X141809845Y-71824150D01*
X141809845Y-71824150D02*
X141704517Y-71839769D01*
X141704517Y-71839769D02*
X141509481Y-71976334D01*
X141509481Y-71976334D02*
X141458780Y-72069968D01*
X141458780Y-72069968D02*
X141447086Y-72136288D01*
X141447086Y-72136288D02*
X141462705Y-72241616D01*
X141462705Y-72241616D02*
X141517331Y-72319631D01*
X141517331Y-72319631D02*
X141638278Y-72409339D01*
X141638278Y-72409339D02*
X142434123Y-72549668D01*
X142434123Y-72549668D02*
X141927029Y-72904739D01*
G04 #@! TO.C,D31*
X112974285Y-84949380D02*
X112974285Y-83949380D01*
X112974285Y-83949380D02*
X112736190Y-83949380D01*
X112736190Y-83949380D02*
X112593333Y-83997000D01*
X112593333Y-83997000D02*
X112498095Y-84092238D01*
X112498095Y-84092238D02*
X112450476Y-84187476D01*
X112450476Y-84187476D02*
X112402857Y-84377952D01*
X112402857Y-84377952D02*
X112402857Y-84520809D01*
X112402857Y-84520809D02*
X112450476Y-84711285D01*
X112450476Y-84711285D02*
X112498095Y-84806523D01*
X112498095Y-84806523D02*
X112593333Y-84901761D01*
X112593333Y-84901761D02*
X112736190Y-84949380D01*
X112736190Y-84949380D02*
X112974285Y-84949380D01*
X112069523Y-83949380D02*
X111450476Y-83949380D01*
X111450476Y-83949380D02*
X111783809Y-84330333D01*
X111783809Y-84330333D02*
X111640952Y-84330333D01*
X111640952Y-84330333D02*
X111545714Y-84377952D01*
X111545714Y-84377952D02*
X111498095Y-84425571D01*
X111498095Y-84425571D02*
X111450476Y-84520809D01*
X111450476Y-84520809D02*
X111450476Y-84758904D01*
X111450476Y-84758904D02*
X111498095Y-84854142D01*
X111498095Y-84854142D02*
X111545714Y-84901761D01*
X111545714Y-84901761D02*
X111640952Y-84949380D01*
X111640952Y-84949380D02*
X111926666Y-84949380D01*
X111926666Y-84949380D02*
X112021904Y-84901761D01*
X112021904Y-84901761D02*
X112069523Y-84854142D01*
X110498095Y-84949380D02*
X111069523Y-84949380D01*
X110783809Y-84949380D02*
X110783809Y-83949380D01*
X110783809Y-83949380D02*
X110879047Y-84092238D01*
X110879047Y-84092238D02*
X110974285Y-84187476D01*
X110974285Y-84187476D02*
X111069523Y-84235095D01*
G04 #@! TO.C,D32*
X112974285Y-90283380D02*
X112974285Y-89283380D01*
X112974285Y-89283380D02*
X112736190Y-89283380D01*
X112736190Y-89283380D02*
X112593333Y-89331000D01*
X112593333Y-89331000D02*
X112498095Y-89426238D01*
X112498095Y-89426238D02*
X112450476Y-89521476D01*
X112450476Y-89521476D02*
X112402857Y-89711952D01*
X112402857Y-89711952D02*
X112402857Y-89854809D01*
X112402857Y-89854809D02*
X112450476Y-90045285D01*
X112450476Y-90045285D02*
X112498095Y-90140523D01*
X112498095Y-90140523D02*
X112593333Y-90235761D01*
X112593333Y-90235761D02*
X112736190Y-90283380D01*
X112736190Y-90283380D02*
X112974285Y-90283380D01*
X112069523Y-89283380D02*
X111450476Y-89283380D01*
X111450476Y-89283380D02*
X111783809Y-89664333D01*
X111783809Y-89664333D02*
X111640952Y-89664333D01*
X111640952Y-89664333D02*
X111545714Y-89711952D01*
X111545714Y-89711952D02*
X111498095Y-89759571D01*
X111498095Y-89759571D02*
X111450476Y-89854809D01*
X111450476Y-89854809D02*
X111450476Y-90092904D01*
X111450476Y-90092904D02*
X111498095Y-90188142D01*
X111498095Y-90188142D02*
X111545714Y-90235761D01*
X111545714Y-90235761D02*
X111640952Y-90283380D01*
X111640952Y-90283380D02*
X111926666Y-90283380D01*
X111926666Y-90283380D02*
X112021904Y-90235761D01*
X112021904Y-90235761D02*
X112069523Y-90188142D01*
X111069523Y-89378619D02*
X111021904Y-89331000D01*
X111021904Y-89331000D02*
X110926666Y-89283380D01*
X110926666Y-89283380D02*
X110688571Y-89283380D01*
X110688571Y-89283380D02*
X110593333Y-89331000D01*
X110593333Y-89331000D02*
X110545714Y-89378619D01*
X110545714Y-89378619D02*
X110498095Y-89473857D01*
X110498095Y-89473857D02*
X110498095Y-89569095D01*
X110498095Y-89569095D02*
X110545714Y-89711952D01*
X110545714Y-89711952D02*
X111117142Y-90283380D01*
X111117142Y-90283380D02*
X110498095Y-90283380D01*
G04 #@! TO.C,D27*
X112974285Y-63613380D02*
X112974285Y-62613380D01*
X112974285Y-62613380D02*
X112736190Y-62613380D01*
X112736190Y-62613380D02*
X112593333Y-62661000D01*
X112593333Y-62661000D02*
X112498095Y-62756238D01*
X112498095Y-62756238D02*
X112450476Y-62851476D01*
X112450476Y-62851476D02*
X112402857Y-63041952D01*
X112402857Y-63041952D02*
X112402857Y-63184809D01*
X112402857Y-63184809D02*
X112450476Y-63375285D01*
X112450476Y-63375285D02*
X112498095Y-63470523D01*
X112498095Y-63470523D02*
X112593333Y-63565761D01*
X112593333Y-63565761D02*
X112736190Y-63613380D01*
X112736190Y-63613380D02*
X112974285Y-63613380D01*
X112021904Y-62708619D02*
X111974285Y-62661000D01*
X111974285Y-62661000D02*
X111879047Y-62613380D01*
X111879047Y-62613380D02*
X111640952Y-62613380D01*
X111640952Y-62613380D02*
X111545714Y-62661000D01*
X111545714Y-62661000D02*
X111498095Y-62708619D01*
X111498095Y-62708619D02*
X111450476Y-62803857D01*
X111450476Y-62803857D02*
X111450476Y-62899095D01*
X111450476Y-62899095D02*
X111498095Y-63041952D01*
X111498095Y-63041952D02*
X112069523Y-63613380D01*
X112069523Y-63613380D02*
X111450476Y-63613380D01*
X111117142Y-62613380D02*
X110450476Y-62613380D01*
X110450476Y-62613380D02*
X110879047Y-63613380D01*
G04 #@! TO.C,D18*
X182988285Y-96127380D02*
X182988285Y-95127380D01*
X182988285Y-95127380D02*
X182750190Y-95127380D01*
X182750190Y-95127380D02*
X182607333Y-95175000D01*
X182607333Y-95175000D02*
X182512095Y-95270238D01*
X182512095Y-95270238D02*
X182464476Y-95365476D01*
X182464476Y-95365476D02*
X182416857Y-95555952D01*
X182416857Y-95555952D02*
X182416857Y-95698809D01*
X182416857Y-95698809D02*
X182464476Y-95889285D01*
X182464476Y-95889285D02*
X182512095Y-95984523D01*
X182512095Y-95984523D02*
X182607333Y-96079761D01*
X182607333Y-96079761D02*
X182750190Y-96127380D01*
X182750190Y-96127380D02*
X182988285Y-96127380D01*
X181464476Y-96127380D02*
X182035904Y-96127380D01*
X181750190Y-96127380D02*
X181750190Y-95127380D01*
X181750190Y-95127380D02*
X181845428Y-95270238D01*
X181845428Y-95270238D02*
X181940666Y-95365476D01*
X181940666Y-95365476D02*
X182035904Y-95413095D01*
X180893047Y-95555952D02*
X180988285Y-95508333D01*
X180988285Y-95508333D02*
X181035904Y-95460714D01*
X181035904Y-95460714D02*
X181083523Y-95365476D01*
X181083523Y-95365476D02*
X181083523Y-95317857D01*
X181083523Y-95317857D02*
X181035904Y-95222619D01*
X181035904Y-95222619D02*
X180988285Y-95175000D01*
X180988285Y-95175000D02*
X180893047Y-95127380D01*
X180893047Y-95127380D02*
X180702571Y-95127380D01*
X180702571Y-95127380D02*
X180607333Y-95175000D01*
X180607333Y-95175000D02*
X180559714Y-95222619D01*
X180559714Y-95222619D02*
X180512095Y-95317857D01*
X180512095Y-95317857D02*
X180512095Y-95365476D01*
X180512095Y-95365476D02*
X180559714Y-95460714D01*
X180559714Y-95460714D02*
X180607333Y-95508333D01*
X180607333Y-95508333D02*
X180702571Y-95555952D01*
X180702571Y-95555952D02*
X180893047Y-95555952D01*
X180893047Y-95555952D02*
X180988285Y-95603571D01*
X180988285Y-95603571D02*
X181035904Y-95651190D01*
X181035904Y-95651190D02*
X181083523Y-95746428D01*
X181083523Y-95746428D02*
X181083523Y-95936904D01*
X181083523Y-95936904D02*
X181035904Y-96032142D01*
X181035904Y-96032142D02*
X180988285Y-96079761D01*
X180988285Y-96079761D02*
X180893047Y-96127380D01*
X180893047Y-96127380D02*
X180702571Y-96127380D01*
X180702571Y-96127380D02*
X180607333Y-96079761D01*
X180607333Y-96079761D02*
X180559714Y-96032142D01*
X180559714Y-96032142D02*
X180512095Y-95936904D01*
X180512095Y-95936904D02*
X180512095Y-95746428D01*
X180512095Y-95746428D02*
X180559714Y-95651190D01*
X180559714Y-95651190D02*
X180607333Y-95603571D01*
X180607333Y-95603571D02*
X180702571Y-95555952D01*
G04 #@! TO.C,D12*
X174665304Y-64922088D02*
X173799278Y-64422088D01*
X173799278Y-64422088D02*
X173680231Y-64628284D01*
X173680231Y-64628284D02*
X173650041Y-64775812D01*
X173650041Y-64775812D02*
X173684901Y-64905909D01*
X173684901Y-64905909D02*
X173743570Y-64994768D01*
X173743570Y-64994768D02*
X173884718Y-65131245D01*
X173884718Y-65131245D02*
X174008436Y-65202674D01*
X174008436Y-65202674D02*
X174197202Y-65256672D01*
X174197202Y-65256672D02*
X174303490Y-65263052D01*
X174303490Y-65263052D02*
X174433588Y-65228193D01*
X174433588Y-65228193D02*
X174546256Y-65128284D01*
X174546256Y-65128284D02*
X174665304Y-64922088D01*
X173903399Y-66241745D02*
X174189113Y-65746874D01*
X174046256Y-65994310D02*
X173180231Y-65494310D01*
X173180231Y-65494310D02*
X173351568Y-65483260D01*
X173351568Y-65483260D02*
X173481665Y-65448400D01*
X173481665Y-65448400D02*
X173570524Y-65389731D01*
X172929376Y-66119279D02*
X172864327Y-66136709D01*
X172864327Y-66136709D02*
X172775469Y-66195378D01*
X172775469Y-66195378D02*
X172656421Y-66401574D01*
X172656421Y-66401574D02*
X172650041Y-66507862D01*
X172650041Y-66507862D02*
X172667471Y-66572911D01*
X172667471Y-66572911D02*
X172726140Y-66661770D01*
X172726140Y-66661770D02*
X172808619Y-66709389D01*
X172808619Y-66709389D02*
X172956146Y-66739578D01*
X172956146Y-66739578D02*
X173736732Y-66530421D01*
X173736732Y-66530421D02*
X173427208Y-67066532D01*
G04 #@! TO.C,D13*
X179736344Y-68580902D02*
X179093557Y-67814857D01*
X179093557Y-67814857D02*
X178911165Y-67967902D01*
X178911165Y-67967902D02*
X178832339Y-68096207D01*
X178832339Y-68096207D02*
X178820600Y-68230382D01*
X178820600Y-68230382D02*
X178845340Y-68333947D01*
X178845340Y-68333947D02*
X178931297Y-68510469D01*
X178931297Y-68510469D02*
X179023124Y-68619904D01*
X179023124Y-68619904D02*
X179182038Y-68735209D01*
X179182038Y-68735209D02*
X179279734Y-68777556D01*
X179279734Y-68777556D02*
X179413909Y-68789295D01*
X179413909Y-68789295D02*
X179553953Y-68733946D01*
X179553953Y-68733946D02*
X179736344Y-68580902D01*
X178569038Y-69560388D02*
X179006778Y-69193080D01*
X178787908Y-69376734D02*
X178145121Y-68610690D01*
X178145121Y-68610690D02*
X178309904Y-68658907D01*
X178309904Y-68658907D02*
X178444079Y-68670645D01*
X178444079Y-68670645D02*
X178547644Y-68645906D01*
X177670903Y-69008606D02*
X177196685Y-69406522D01*
X177196685Y-69406522D02*
X177696904Y-69484086D01*
X177696904Y-69484086D02*
X177587469Y-69575913D01*
X177587469Y-69575913D02*
X177545122Y-69673609D01*
X177545122Y-69673609D02*
X177539252Y-69740696D01*
X177539252Y-69740696D02*
X177563992Y-69844262D01*
X177563992Y-69844262D02*
X177717037Y-70026653D01*
X177717037Y-70026653D02*
X177814733Y-70069001D01*
X177814733Y-70069001D02*
X177881820Y-70074870D01*
X177881820Y-70074870D02*
X177985386Y-70050131D01*
X177985386Y-70050131D02*
X178204255Y-69866477D01*
X178204255Y-69866477D02*
X178246603Y-69768781D01*
X178246603Y-69768781D02*
X178252472Y-69701694D01*
G04 #@! TO.C,D11*
X168017380Y-63555714D02*
X167017380Y-63555714D01*
X167017380Y-63555714D02*
X167017380Y-63793809D01*
X167017380Y-63793809D02*
X167065000Y-63936666D01*
X167065000Y-63936666D02*
X167160238Y-64031904D01*
X167160238Y-64031904D02*
X167255476Y-64079523D01*
X167255476Y-64079523D02*
X167445952Y-64127142D01*
X167445952Y-64127142D02*
X167588809Y-64127142D01*
X167588809Y-64127142D02*
X167779285Y-64079523D01*
X167779285Y-64079523D02*
X167874523Y-64031904D01*
X167874523Y-64031904D02*
X167969761Y-63936666D01*
X167969761Y-63936666D02*
X168017380Y-63793809D01*
X168017380Y-63793809D02*
X168017380Y-63555714D01*
X168017380Y-65079523D02*
X168017380Y-64508095D01*
X168017380Y-64793809D02*
X167017380Y-64793809D01*
X167017380Y-64793809D02*
X167160238Y-64698571D01*
X167160238Y-64698571D02*
X167255476Y-64603333D01*
X167255476Y-64603333D02*
X167303095Y-64508095D01*
X168017380Y-66031904D02*
X168017380Y-65460476D01*
X168017380Y-65746190D02*
X167017380Y-65746190D01*
X167017380Y-65746190D02*
X167160238Y-65650952D01*
X167160238Y-65650952D02*
X167255476Y-65555714D01*
X167255476Y-65555714D02*
X167303095Y-65460476D01*
G04 #@! TO.C,D1*
X146788094Y-111617380D02*
X146788094Y-110617380D01*
X146788094Y-110617380D02*
X146549999Y-110617380D01*
X146549999Y-110617380D02*
X146407142Y-110665000D01*
X146407142Y-110665000D02*
X146311904Y-110760238D01*
X146311904Y-110760238D02*
X146264285Y-110855476D01*
X146264285Y-110855476D02*
X146216666Y-111045952D01*
X146216666Y-111045952D02*
X146216666Y-111188809D01*
X146216666Y-111188809D02*
X146264285Y-111379285D01*
X146264285Y-111379285D02*
X146311904Y-111474523D01*
X146311904Y-111474523D02*
X146407142Y-111569761D01*
X146407142Y-111569761D02*
X146549999Y-111617380D01*
X146549999Y-111617380D02*
X146788094Y-111617380D01*
X145264285Y-111617380D02*
X145835713Y-111617380D01*
X145549999Y-111617380D02*
X145549999Y-110617380D01*
X145549999Y-110617380D02*
X145645237Y-110760238D01*
X145645237Y-110760238D02*
X145740475Y-110855476D01*
X145740475Y-110855476D02*
X145835713Y-110903095D01*
G04 #@! TO.C,D9*
X155750886Y-68892899D02*
X156616911Y-68392899D01*
X156616911Y-68392899D02*
X156497863Y-68186702D01*
X156497863Y-68186702D02*
X156385196Y-68086794D01*
X156385196Y-68086794D02*
X156255098Y-68051934D01*
X156255098Y-68051934D02*
X156148810Y-68058314D01*
X156148810Y-68058314D02*
X155960043Y-68112313D01*
X155960043Y-68112313D02*
X155836325Y-68183741D01*
X155836325Y-68183741D02*
X155695177Y-68320219D01*
X155695177Y-68320219D02*
X155636508Y-68409077D01*
X155636508Y-68409077D02*
X155601649Y-68539175D01*
X155601649Y-68539175D02*
X155631838Y-68686702D01*
X155631838Y-68686702D02*
X155750886Y-68892899D01*
X155227076Y-67985634D02*
X155131838Y-67820677D01*
X155131838Y-67820677D02*
X155125458Y-67714389D01*
X155125458Y-67714389D02*
X155142888Y-67649340D01*
X155142888Y-67649340D02*
X155218987Y-67495433D01*
X155218987Y-67495433D02*
X155360135Y-67358955D01*
X155360135Y-67358955D02*
X155690049Y-67168479D01*
X155690049Y-67168479D02*
X155796337Y-67162099D01*
X155796337Y-67162099D02*
X155861386Y-67179529D01*
X155861386Y-67179529D02*
X155950244Y-67238198D01*
X155950244Y-67238198D02*
X156045482Y-67403155D01*
X156045482Y-67403155D02*
X156051862Y-67509444D01*
X156051862Y-67509444D02*
X156034432Y-67574492D01*
X156034432Y-67574492D02*
X155975763Y-67663351D01*
X155975763Y-67663351D02*
X155769567Y-67782398D01*
X155769567Y-67782398D02*
X155663279Y-67788778D01*
X155663279Y-67788778D02*
X155598230Y-67771348D01*
X155598230Y-67771348D02*
X155509372Y-67712679D01*
X155509372Y-67712679D02*
X155414133Y-67547722D01*
X155414133Y-67547722D02*
X155407754Y-67441434D01*
X155407754Y-67441434D02*
X155425183Y-67376385D01*
X155425183Y-67376385D02*
X155483853Y-67287527D01*
G04 #@! TO.C,D23*
X139105304Y-66452088D02*
X138239278Y-65952088D01*
X138239278Y-65952088D02*
X138120231Y-66158284D01*
X138120231Y-66158284D02*
X138090041Y-66305812D01*
X138090041Y-66305812D02*
X138124901Y-66435909D01*
X138124901Y-66435909D02*
X138183570Y-66524768D01*
X138183570Y-66524768D02*
X138324718Y-66661245D01*
X138324718Y-66661245D02*
X138448436Y-66732674D01*
X138448436Y-66732674D02*
X138637202Y-66786672D01*
X138637202Y-66786672D02*
X138743490Y-66793052D01*
X138743490Y-66793052D02*
X138873588Y-66758193D01*
X138873588Y-66758193D02*
X138986256Y-66658284D01*
X138986256Y-66658284D02*
X139105304Y-66452088D01*
X137845566Y-66824493D02*
X137780518Y-66841923D01*
X137780518Y-66841923D02*
X137691659Y-66900592D01*
X137691659Y-66900592D02*
X137572612Y-67106788D01*
X137572612Y-67106788D02*
X137566232Y-67213076D01*
X137566232Y-67213076D02*
X137583662Y-67278125D01*
X137583662Y-67278125D02*
X137642331Y-67366984D01*
X137642331Y-67366984D02*
X137724809Y-67414603D01*
X137724809Y-67414603D02*
X137872337Y-67444792D01*
X137872337Y-67444792D02*
X138652923Y-67235634D01*
X138652923Y-67235634D02*
X138343399Y-67771745D01*
X137310707Y-67560421D02*
X137001183Y-68096532D01*
X137001183Y-68096532D02*
X137497764Y-67998333D01*
X137497764Y-67998333D02*
X137426335Y-68122051D01*
X137426335Y-68122051D02*
X137419956Y-68228339D01*
X137419956Y-68228339D02*
X137437386Y-68293387D01*
X137437386Y-68293387D02*
X137496055Y-68382246D01*
X137496055Y-68382246D02*
X137702251Y-68501293D01*
X137702251Y-68501293D02*
X137808539Y-68507673D01*
X137808539Y-68507673D02*
X137873588Y-68490243D01*
X137873588Y-68490243D02*
X137962446Y-68431574D01*
X137962446Y-68431574D02*
X138105304Y-68184139D01*
X138105304Y-68184139D02*
X138111683Y-68077850D01*
X138111683Y-68077850D02*
X138094254Y-68012802D01*
G04 #@! TO.C,D21*
X182984285Y-111617380D02*
X182984285Y-110617380D01*
X182984285Y-110617380D02*
X182746190Y-110617380D01*
X182746190Y-110617380D02*
X182603333Y-110665000D01*
X182603333Y-110665000D02*
X182508095Y-110760238D01*
X182508095Y-110760238D02*
X182460476Y-110855476D01*
X182460476Y-110855476D02*
X182412857Y-111045952D01*
X182412857Y-111045952D02*
X182412857Y-111188809D01*
X182412857Y-111188809D02*
X182460476Y-111379285D01*
X182460476Y-111379285D02*
X182508095Y-111474523D01*
X182508095Y-111474523D02*
X182603333Y-111569761D01*
X182603333Y-111569761D02*
X182746190Y-111617380D01*
X182746190Y-111617380D02*
X182984285Y-111617380D01*
X182031904Y-110712619D02*
X181984285Y-110665000D01*
X181984285Y-110665000D02*
X181889047Y-110617380D01*
X181889047Y-110617380D02*
X181650952Y-110617380D01*
X181650952Y-110617380D02*
X181555714Y-110665000D01*
X181555714Y-110665000D02*
X181508095Y-110712619D01*
X181508095Y-110712619D02*
X181460476Y-110807857D01*
X181460476Y-110807857D02*
X181460476Y-110903095D01*
X181460476Y-110903095D02*
X181508095Y-111045952D01*
X181508095Y-111045952D02*
X182079523Y-111617380D01*
X182079523Y-111617380D02*
X181460476Y-111617380D01*
X180508095Y-111617380D02*
X181079523Y-111617380D01*
X180793809Y-111617380D02*
X180793809Y-110617380D01*
X180793809Y-110617380D02*
X180889047Y-110760238D01*
X180889047Y-110760238D02*
X180984285Y-110855476D01*
X180984285Y-110855476D02*
X181079523Y-110903095D01*
G04 #@! TO.C,D29*
X112974285Y-74281380D02*
X112974285Y-73281380D01*
X112974285Y-73281380D02*
X112736190Y-73281380D01*
X112736190Y-73281380D02*
X112593333Y-73329000D01*
X112593333Y-73329000D02*
X112498095Y-73424238D01*
X112498095Y-73424238D02*
X112450476Y-73519476D01*
X112450476Y-73519476D02*
X112402857Y-73709952D01*
X112402857Y-73709952D02*
X112402857Y-73852809D01*
X112402857Y-73852809D02*
X112450476Y-74043285D01*
X112450476Y-74043285D02*
X112498095Y-74138523D01*
X112498095Y-74138523D02*
X112593333Y-74233761D01*
X112593333Y-74233761D02*
X112736190Y-74281380D01*
X112736190Y-74281380D02*
X112974285Y-74281380D01*
X112021904Y-73376619D02*
X111974285Y-73329000D01*
X111974285Y-73329000D02*
X111879047Y-73281380D01*
X111879047Y-73281380D02*
X111640952Y-73281380D01*
X111640952Y-73281380D02*
X111545714Y-73329000D01*
X111545714Y-73329000D02*
X111498095Y-73376619D01*
X111498095Y-73376619D02*
X111450476Y-73471857D01*
X111450476Y-73471857D02*
X111450476Y-73567095D01*
X111450476Y-73567095D02*
X111498095Y-73709952D01*
X111498095Y-73709952D02*
X112069523Y-74281380D01*
X112069523Y-74281380D02*
X111450476Y-74281380D01*
X110974285Y-74281380D02*
X110783809Y-74281380D01*
X110783809Y-74281380D02*
X110688571Y-74233761D01*
X110688571Y-74233761D02*
X110640952Y-74186142D01*
X110640952Y-74186142D02*
X110545714Y-74043285D01*
X110545714Y-74043285D02*
X110498095Y-73852809D01*
X110498095Y-73852809D02*
X110498095Y-73471857D01*
X110498095Y-73471857D02*
X110545714Y-73376619D01*
X110545714Y-73376619D02*
X110593333Y-73329000D01*
X110593333Y-73329000D02*
X110688571Y-73281380D01*
X110688571Y-73281380D02*
X110879047Y-73281380D01*
X110879047Y-73281380D02*
X110974285Y-73329000D01*
X110974285Y-73329000D02*
X111021904Y-73376619D01*
X111021904Y-73376619D02*
X111069523Y-73471857D01*
X111069523Y-73471857D02*
X111069523Y-73709952D01*
X111069523Y-73709952D02*
X111021904Y-73805190D01*
X111021904Y-73805190D02*
X110974285Y-73852809D01*
X110974285Y-73852809D02*
X110879047Y-73900428D01*
X110879047Y-73900428D02*
X110688571Y-73900428D01*
X110688571Y-73900428D02*
X110593333Y-73852809D01*
X110593333Y-73852809D02*
X110545714Y-73805190D01*
X110545714Y-73805190D02*
X110498095Y-73709952D01*
G04 #@! TO.C,D26*
X120129097Y-70766344D02*
X120895142Y-70123557D01*
X120895142Y-70123557D02*
X120742097Y-69941165D01*
X120742097Y-69941165D02*
X120613792Y-69862339D01*
X120613792Y-69862339D02*
X120479617Y-69850600D01*
X120479617Y-69850600D02*
X120376052Y-69875340D01*
X120376052Y-69875340D02*
X120199530Y-69961297D01*
X120199530Y-69961297D02*
X120090095Y-70053124D01*
X120090095Y-70053124D02*
X119974790Y-70212038D01*
X119974790Y-70212038D02*
X119932443Y-70309734D01*
X119932443Y-70309734D02*
X119920704Y-70443909D01*
X119920704Y-70443909D02*
X119976053Y-70583953D01*
X119976053Y-70583953D02*
X120129097Y-70766344D01*
X120210006Y-69455208D02*
X120215876Y-69388121D01*
X120215876Y-69388121D02*
X120191136Y-69284556D01*
X120191136Y-69284556D02*
X120038092Y-69102164D01*
X120038092Y-69102164D02*
X119940395Y-69059816D01*
X119940395Y-69059816D02*
X119873308Y-69053947D01*
X119873308Y-69053947D02*
X119769743Y-69078687D01*
X119769743Y-69078687D02*
X119696786Y-69139904D01*
X119696786Y-69139904D02*
X119617960Y-69268210D01*
X119617960Y-69268210D02*
X119547527Y-70073256D01*
X119547527Y-70073256D02*
X119149611Y-69599038D01*
X119364695Y-68299641D02*
X119487131Y-68445555D01*
X119487131Y-68445555D02*
X119511870Y-68549120D01*
X119511870Y-68549120D02*
X119506001Y-68616207D01*
X119506001Y-68616207D02*
X119457784Y-68780991D01*
X119457784Y-68780991D02*
X119342480Y-68939905D01*
X119342480Y-68939905D02*
X119050653Y-69184776D01*
X119050653Y-69184776D02*
X118947088Y-69209516D01*
X118947088Y-69209516D02*
X118880000Y-69203646D01*
X118880000Y-69203646D02*
X118782304Y-69161299D01*
X118782304Y-69161299D02*
X118659868Y-69015386D01*
X118659868Y-69015386D02*
X118635129Y-68911820D01*
X118635129Y-68911820D02*
X118640998Y-68844733D01*
X118640998Y-68844733D02*
X118683346Y-68747037D01*
X118683346Y-68747037D02*
X118865737Y-68593992D01*
X118865737Y-68593992D02*
X118969303Y-68569252D01*
X118969303Y-68569252D02*
X119036390Y-68575122D01*
X119036390Y-68575122D02*
X119134086Y-68617469D01*
X119134086Y-68617469D02*
X119256522Y-68763383D01*
X119256522Y-68763383D02*
X119281262Y-68866948D01*
X119281262Y-68866948D02*
X119275392Y-68934035D01*
X119275392Y-68934035D02*
X119233045Y-69031732D01*
G04 #@! TO.C,D33*
X112974285Y-95617380D02*
X112974285Y-94617380D01*
X112974285Y-94617380D02*
X112736190Y-94617380D01*
X112736190Y-94617380D02*
X112593333Y-94665000D01*
X112593333Y-94665000D02*
X112498095Y-94760238D01*
X112498095Y-94760238D02*
X112450476Y-94855476D01*
X112450476Y-94855476D02*
X112402857Y-95045952D01*
X112402857Y-95045952D02*
X112402857Y-95188809D01*
X112402857Y-95188809D02*
X112450476Y-95379285D01*
X112450476Y-95379285D02*
X112498095Y-95474523D01*
X112498095Y-95474523D02*
X112593333Y-95569761D01*
X112593333Y-95569761D02*
X112736190Y-95617380D01*
X112736190Y-95617380D02*
X112974285Y-95617380D01*
X112069523Y-94617380D02*
X111450476Y-94617380D01*
X111450476Y-94617380D02*
X111783809Y-94998333D01*
X111783809Y-94998333D02*
X111640952Y-94998333D01*
X111640952Y-94998333D02*
X111545714Y-95045952D01*
X111545714Y-95045952D02*
X111498095Y-95093571D01*
X111498095Y-95093571D02*
X111450476Y-95188809D01*
X111450476Y-95188809D02*
X111450476Y-95426904D01*
X111450476Y-95426904D02*
X111498095Y-95522142D01*
X111498095Y-95522142D02*
X111545714Y-95569761D01*
X111545714Y-95569761D02*
X111640952Y-95617380D01*
X111640952Y-95617380D02*
X111926666Y-95617380D01*
X111926666Y-95617380D02*
X112021904Y-95569761D01*
X112021904Y-95569761D02*
X112069523Y-95522142D01*
X111117142Y-94617380D02*
X110498095Y-94617380D01*
X110498095Y-94617380D02*
X110831428Y-94998333D01*
X110831428Y-94998333D02*
X110688571Y-94998333D01*
X110688571Y-94998333D02*
X110593333Y-95045952D01*
X110593333Y-95045952D02*
X110545714Y-95093571D01*
X110545714Y-95093571D02*
X110498095Y-95188809D01*
X110498095Y-95188809D02*
X110498095Y-95426904D01*
X110498095Y-95426904D02*
X110545714Y-95522142D01*
X110545714Y-95522142D02*
X110593333Y-95569761D01*
X110593333Y-95569761D02*
X110688571Y-95617380D01*
X110688571Y-95617380D02*
X110974285Y-95617380D01*
X110974285Y-95617380D02*
X111069523Y-95569761D01*
X111069523Y-95569761D02*
X111117142Y-95522142D01*
G04 #@! TO.C,D20*
X182988285Y-106457380D02*
X182988285Y-105457380D01*
X182988285Y-105457380D02*
X182750190Y-105457380D01*
X182750190Y-105457380D02*
X182607333Y-105505000D01*
X182607333Y-105505000D02*
X182512095Y-105600238D01*
X182512095Y-105600238D02*
X182464476Y-105695476D01*
X182464476Y-105695476D02*
X182416857Y-105885952D01*
X182416857Y-105885952D02*
X182416857Y-106028809D01*
X182416857Y-106028809D02*
X182464476Y-106219285D01*
X182464476Y-106219285D02*
X182512095Y-106314523D01*
X182512095Y-106314523D02*
X182607333Y-106409761D01*
X182607333Y-106409761D02*
X182750190Y-106457380D01*
X182750190Y-106457380D02*
X182988285Y-106457380D01*
X182035904Y-105552619D02*
X181988285Y-105505000D01*
X181988285Y-105505000D02*
X181893047Y-105457380D01*
X181893047Y-105457380D02*
X181654952Y-105457380D01*
X181654952Y-105457380D02*
X181559714Y-105505000D01*
X181559714Y-105505000D02*
X181512095Y-105552619D01*
X181512095Y-105552619D02*
X181464476Y-105647857D01*
X181464476Y-105647857D02*
X181464476Y-105743095D01*
X181464476Y-105743095D02*
X181512095Y-105885952D01*
X181512095Y-105885952D02*
X182083523Y-106457380D01*
X182083523Y-106457380D02*
X181464476Y-106457380D01*
X180845428Y-105457380D02*
X180750190Y-105457380D01*
X180750190Y-105457380D02*
X180654952Y-105505000D01*
X180654952Y-105505000D02*
X180607333Y-105552619D01*
X180607333Y-105552619D02*
X180559714Y-105647857D01*
X180559714Y-105647857D02*
X180512095Y-105838333D01*
X180512095Y-105838333D02*
X180512095Y-106076428D01*
X180512095Y-106076428D02*
X180559714Y-106266904D01*
X180559714Y-106266904D02*
X180607333Y-106362142D01*
X180607333Y-106362142D02*
X180654952Y-106409761D01*
X180654952Y-106409761D02*
X180750190Y-106457380D01*
X180750190Y-106457380D02*
X180845428Y-106457380D01*
X180845428Y-106457380D02*
X180940666Y-106409761D01*
X180940666Y-106409761D02*
X180988285Y-106362142D01*
X180988285Y-106362142D02*
X181035904Y-106266904D01*
X181035904Y-106266904D02*
X181083523Y-106076428D01*
X181083523Y-106076428D02*
X181083523Y-105838333D01*
X181083523Y-105838333D02*
X181035904Y-105647857D01*
X181035904Y-105647857D02*
X180988285Y-105552619D01*
X180988285Y-105552619D02*
X180940666Y-105505000D01*
X180940666Y-105505000D02*
X180845428Y-105457380D01*
G04 #@! TO.C,D35*
X112974285Y-106285380D02*
X112974285Y-105285380D01*
X112974285Y-105285380D02*
X112736190Y-105285380D01*
X112736190Y-105285380D02*
X112593333Y-105333000D01*
X112593333Y-105333000D02*
X112498095Y-105428238D01*
X112498095Y-105428238D02*
X112450476Y-105523476D01*
X112450476Y-105523476D02*
X112402857Y-105713952D01*
X112402857Y-105713952D02*
X112402857Y-105856809D01*
X112402857Y-105856809D02*
X112450476Y-106047285D01*
X112450476Y-106047285D02*
X112498095Y-106142523D01*
X112498095Y-106142523D02*
X112593333Y-106237761D01*
X112593333Y-106237761D02*
X112736190Y-106285380D01*
X112736190Y-106285380D02*
X112974285Y-106285380D01*
X112069523Y-105285380D02*
X111450476Y-105285380D01*
X111450476Y-105285380D02*
X111783809Y-105666333D01*
X111783809Y-105666333D02*
X111640952Y-105666333D01*
X111640952Y-105666333D02*
X111545714Y-105713952D01*
X111545714Y-105713952D02*
X111498095Y-105761571D01*
X111498095Y-105761571D02*
X111450476Y-105856809D01*
X111450476Y-105856809D02*
X111450476Y-106094904D01*
X111450476Y-106094904D02*
X111498095Y-106190142D01*
X111498095Y-106190142D02*
X111545714Y-106237761D01*
X111545714Y-106237761D02*
X111640952Y-106285380D01*
X111640952Y-106285380D02*
X111926666Y-106285380D01*
X111926666Y-106285380D02*
X112021904Y-106237761D01*
X112021904Y-106237761D02*
X112069523Y-106190142D01*
X110545714Y-105285380D02*
X111021904Y-105285380D01*
X111021904Y-105285380D02*
X111069523Y-105761571D01*
X111069523Y-105761571D02*
X111021904Y-105713952D01*
X111021904Y-105713952D02*
X110926666Y-105666333D01*
X110926666Y-105666333D02*
X110688571Y-105666333D01*
X110688571Y-105666333D02*
X110593333Y-105713952D01*
X110593333Y-105713952D02*
X110545714Y-105761571D01*
X110545714Y-105761571D02*
X110498095Y-105856809D01*
X110498095Y-105856809D02*
X110498095Y-106094904D01*
X110498095Y-106094904D02*
X110545714Y-106190142D01*
X110545714Y-106190142D02*
X110593333Y-106237761D01*
X110593333Y-106237761D02*
X110688571Y-106285380D01*
X110688571Y-106285380D02*
X110926666Y-106285380D01*
X110926666Y-106285380D02*
X111021904Y-106237761D01*
X111021904Y-106237761D02*
X111069523Y-106190142D01*
G04 #@! TO.C,D19*
X182994285Y-101287380D02*
X182994285Y-100287380D01*
X182994285Y-100287380D02*
X182756190Y-100287380D01*
X182756190Y-100287380D02*
X182613333Y-100335000D01*
X182613333Y-100335000D02*
X182518095Y-100430238D01*
X182518095Y-100430238D02*
X182470476Y-100525476D01*
X182470476Y-100525476D02*
X182422857Y-100715952D01*
X182422857Y-100715952D02*
X182422857Y-100858809D01*
X182422857Y-100858809D02*
X182470476Y-101049285D01*
X182470476Y-101049285D02*
X182518095Y-101144523D01*
X182518095Y-101144523D02*
X182613333Y-101239761D01*
X182613333Y-101239761D02*
X182756190Y-101287380D01*
X182756190Y-101287380D02*
X182994285Y-101287380D01*
X181470476Y-101287380D02*
X182041904Y-101287380D01*
X181756190Y-101287380D02*
X181756190Y-100287380D01*
X181756190Y-100287380D02*
X181851428Y-100430238D01*
X181851428Y-100430238D02*
X181946666Y-100525476D01*
X181946666Y-100525476D02*
X182041904Y-100573095D01*
X180994285Y-101287380D02*
X180803809Y-101287380D01*
X180803809Y-101287380D02*
X180708571Y-101239761D01*
X180708571Y-101239761D02*
X180660952Y-101192142D01*
X180660952Y-101192142D02*
X180565714Y-101049285D01*
X180565714Y-101049285D02*
X180518095Y-100858809D01*
X180518095Y-100858809D02*
X180518095Y-100477857D01*
X180518095Y-100477857D02*
X180565714Y-100382619D01*
X180565714Y-100382619D02*
X180613333Y-100335000D01*
X180613333Y-100335000D02*
X180708571Y-100287380D01*
X180708571Y-100287380D02*
X180899047Y-100287380D01*
X180899047Y-100287380D02*
X180994285Y-100335000D01*
X180994285Y-100335000D02*
X181041904Y-100382619D01*
X181041904Y-100382619D02*
X181089523Y-100477857D01*
X181089523Y-100477857D02*
X181089523Y-100715952D01*
X181089523Y-100715952D02*
X181041904Y-100811190D01*
X181041904Y-100811190D02*
X180994285Y-100858809D01*
X180994285Y-100858809D02*
X180899047Y-100906428D01*
X180899047Y-100906428D02*
X180708571Y-100906428D01*
X180708571Y-100906428D02*
X180613333Y-100858809D01*
X180613333Y-100858809D02*
X180565714Y-100811190D01*
X180565714Y-100811190D02*
X180518095Y-100715952D01*
G04 #@! TO.C,D6*
X146788094Y-84737380D02*
X146788094Y-83737380D01*
X146788094Y-83737380D02*
X146549999Y-83737380D01*
X146549999Y-83737380D02*
X146407142Y-83785000D01*
X146407142Y-83785000D02*
X146311904Y-83880238D01*
X146311904Y-83880238D02*
X146264285Y-83975476D01*
X146264285Y-83975476D02*
X146216666Y-84165952D01*
X146216666Y-84165952D02*
X146216666Y-84308809D01*
X146216666Y-84308809D02*
X146264285Y-84499285D01*
X146264285Y-84499285D02*
X146311904Y-84594523D01*
X146311904Y-84594523D02*
X146407142Y-84689761D01*
X146407142Y-84689761D02*
X146549999Y-84737380D01*
X146549999Y-84737380D02*
X146788094Y-84737380D01*
X145359523Y-83737380D02*
X145549999Y-83737380D01*
X145549999Y-83737380D02*
X145645237Y-83785000D01*
X145645237Y-83785000D02*
X145692856Y-83832619D01*
X145692856Y-83832619D02*
X145788094Y-83975476D01*
X145788094Y-83975476D02*
X145835713Y-84165952D01*
X145835713Y-84165952D02*
X145835713Y-84546904D01*
X145835713Y-84546904D02*
X145788094Y-84642142D01*
X145788094Y-84642142D02*
X145740475Y-84689761D01*
X145740475Y-84689761D02*
X145645237Y-84737380D01*
X145645237Y-84737380D02*
X145454761Y-84737380D01*
X145454761Y-84737380D02*
X145359523Y-84689761D01*
X145359523Y-84689761D02*
X145311904Y-84642142D01*
X145311904Y-84642142D02*
X145264285Y-84546904D01*
X145264285Y-84546904D02*
X145264285Y-84308809D01*
X145264285Y-84308809D02*
X145311904Y-84213571D01*
X145311904Y-84213571D02*
X145359523Y-84165952D01*
X145359523Y-84165952D02*
X145454761Y-84118333D01*
X145454761Y-84118333D02*
X145645237Y-84118333D01*
X145645237Y-84118333D02*
X145740475Y-84165952D01*
X145740475Y-84165952D02*
X145788094Y-84213571D01*
X145788094Y-84213571D02*
X145835713Y-84308809D01*
G04 #@! TO.C,D3*
X146788094Y-100867380D02*
X146788094Y-99867380D01*
X146788094Y-99867380D02*
X146549999Y-99867380D01*
X146549999Y-99867380D02*
X146407142Y-99915000D01*
X146407142Y-99915000D02*
X146311904Y-100010238D01*
X146311904Y-100010238D02*
X146264285Y-100105476D01*
X146264285Y-100105476D02*
X146216666Y-100295952D01*
X146216666Y-100295952D02*
X146216666Y-100438809D01*
X146216666Y-100438809D02*
X146264285Y-100629285D01*
X146264285Y-100629285D02*
X146311904Y-100724523D01*
X146311904Y-100724523D02*
X146407142Y-100819761D01*
X146407142Y-100819761D02*
X146549999Y-100867380D01*
X146549999Y-100867380D02*
X146788094Y-100867380D01*
X145883332Y-99867380D02*
X145264285Y-99867380D01*
X145264285Y-99867380D02*
X145597618Y-100248333D01*
X145597618Y-100248333D02*
X145454761Y-100248333D01*
X145454761Y-100248333D02*
X145359523Y-100295952D01*
X145359523Y-100295952D02*
X145311904Y-100343571D01*
X145311904Y-100343571D02*
X145264285Y-100438809D01*
X145264285Y-100438809D02*
X145264285Y-100676904D01*
X145264285Y-100676904D02*
X145311904Y-100772142D01*
X145311904Y-100772142D02*
X145359523Y-100819761D01*
X145359523Y-100819761D02*
X145454761Y-100867380D01*
X145454761Y-100867380D02*
X145740475Y-100867380D01*
X145740475Y-100867380D02*
X145835713Y-100819761D01*
X145835713Y-100819761D02*
X145883332Y-100772142D01*
G04 #@! TO.C,D10*
X161360085Y-66796707D02*
X162299777Y-66454686D01*
X162299777Y-66454686D02*
X162218344Y-66230950D01*
X162218344Y-66230950D02*
X162124736Y-66112995D01*
X162124736Y-66112995D02*
X162002669Y-66056074D01*
X162002669Y-66056074D02*
X161896887Y-66043900D01*
X161896887Y-66043900D02*
X161701612Y-66064299D01*
X161701612Y-66064299D02*
X161567370Y-66113159D01*
X161567370Y-66113159D02*
X161404667Y-66223053D01*
X161404667Y-66223053D02*
X161331460Y-66300374D01*
X161331460Y-66300374D02*
X161274538Y-66422442D01*
X161274538Y-66422442D02*
X161278651Y-66572970D01*
X161278651Y-66572970D02*
X161360085Y-66796707D01*
X160838911Y-65364794D02*
X161034351Y-65901761D01*
X160936631Y-65633278D02*
X161876324Y-65291257D01*
X161876324Y-65291257D02*
X161774655Y-65429612D01*
X161774655Y-65429612D02*
X161717734Y-65551680D01*
X161717734Y-65551680D02*
X161705560Y-65657461D01*
X161566877Y-64441059D02*
X161534303Y-64351565D01*
X161534303Y-64351565D02*
X161456983Y-64278357D01*
X161456983Y-64278357D02*
X161395949Y-64249896D01*
X161395949Y-64249896D02*
X161290168Y-64237722D01*
X161290168Y-64237722D02*
X161094892Y-64258122D01*
X161094892Y-64258122D02*
X160871156Y-64339555D01*
X160871156Y-64339555D02*
X160708453Y-64449449D01*
X160708453Y-64449449D02*
X160635245Y-64526770D01*
X160635245Y-64526770D02*
X160606785Y-64587804D01*
X160606785Y-64587804D02*
X160594611Y-64693585D01*
X160594611Y-64693585D02*
X160627184Y-64783079D01*
X160627184Y-64783079D02*
X160704505Y-64856287D01*
X160704505Y-64856287D02*
X160765539Y-64884748D01*
X160765539Y-64884748D02*
X160871320Y-64896922D01*
X160871320Y-64896922D02*
X161066596Y-64876522D01*
X161066596Y-64876522D02*
X161290332Y-64795089D01*
X161290332Y-64795089D02*
X161453034Y-64685195D01*
X161453034Y-64685195D02*
X161526242Y-64607874D01*
X161526242Y-64607874D02*
X161554703Y-64546841D01*
X161554703Y-64546841D02*
X161566877Y-64441059D01*
G04 #@! TO.C,D34*
X112974285Y-100951380D02*
X112974285Y-99951380D01*
X112974285Y-99951380D02*
X112736190Y-99951380D01*
X112736190Y-99951380D02*
X112593333Y-99999000D01*
X112593333Y-99999000D02*
X112498095Y-100094238D01*
X112498095Y-100094238D02*
X112450476Y-100189476D01*
X112450476Y-100189476D02*
X112402857Y-100379952D01*
X112402857Y-100379952D02*
X112402857Y-100522809D01*
X112402857Y-100522809D02*
X112450476Y-100713285D01*
X112450476Y-100713285D02*
X112498095Y-100808523D01*
X112498095Y-100808523D02*
X112593333Y-100903761D01*
X112593333Y-100903761D02*
X112736190Y-100951380D01*
X112736190Y-100951380D02*
X112974285Y-100951380D01*
X112069523Y-99951380D02*
X111450476Y-99951380D01*
X111450476Y-99951380D02*
X111783809Y-100332333D01*
X111783809Y-100332333D02*
X111640952Y-100332333D01*
X111640952Y-100332333D02*
X111545714Y-100379952D01*
X111545714Y-100379952D02*
X111498095Y-100427571D01*
X111498095Y-100427571D02*
X111450476Y-100522809D01*
X111450476Y-100522809D02*
X111450476Y-100760904D01*
X111450476Y-100760904D02*
X111498095Y-100856142D01*
X111498095Y-100856142D02*
X111545714Y-100903761D01*
X111545714Y-100903761D02*
X111640952Y-100951380D01*
X111640952Y-100951380D02*
X111926666Y-100951380D01*
X111926666Y-100951380D02*
X112021904Y-100903761D01*
X112021904Y-100903761D02*
X112069523Y-100856142D01*
X110593333Y-100284714D02*
X110593333Y-100951380D01*
X110831428Y-99903761D02*
X111069523Y-100618047D01*
X111069523Y-100618047D02*
X110450476Y-100618047D01*
G04 #@! TO.C,D36*
X112974285Y-111619380D02*
X112974285Y-110619380D01*
X112974285Y-110619380D02*
X112736190Y-110619380D01*
X112736190Y-110619380D02*
X112593333Y-110667000D01*
X112593333Y-110667000D02*
X112498095Y-110762238D01*
X112498095Y-110762238D02*
X112450476Y-110857476D01*
X112450476Y-110857476D02*
X112402857Y-111047952D01*
X112402857Y-111047952D02*
X112402857Y-111190809D01*
X112402857Y-111190809D02*
X112450476Y-111381285D01*
X112450476Y-111381285D02*
X112498095Y-111476523D01*
X112498095Y-111476523D02*
X112593333Y-111571761D01*
X112593333Y-111571761D02*
X112736190Y-111619380D01*
X112736190Y-111619380D02*
X112974285Y-111619380D01*
X112069523Y-110619380D02*
X111450476Y-110619380D01*
X111450476Y-110619380D02*
X111783809Y-111000333D01*
X111783809Y-111000333D02*
X111640952Y-111000333D01*
X111640952Y-111000333D02*
X111545714Y-111047952D01*
X111545714Y-111047952D02*
X111498095Y-111095571D01*
X111498095Y-111095571D02*
X111450476Y-111190809D01*
X111450476Y-111190809D02*
X111450476Y-111428904D01*
X111450476Y-111428904D02*
X111498095Y-111524142D01*
X111498095Y-111524142D02*
X111545714Y-111571761D01*
X111545714Y-111571761D02*
X111640952Y-111619380D01*
X111640952Y-111619380D02*
X111926666Y-111619380D01*
X111926666Y-111619380D02*
X112021904Y-111571761D01*
X112021904Y-111571761D02*
X112069523Y-111524142D01*
X110593333Y-110619380D02*
X110783809Y-110619380D01*
X110783809Y-110619380D02*
X110879047Y-110667000D01*
X110879047Y-110667000D02*
X110926666Y-110714619D01*
X110926666Y-110714619D02*
X111021904Y-110857476D01*
X111021904Y-110857476D02*
X111069523Y-111047952D01*
X111069523Y-111047952D02*
X111069523Y-111428904D01*
X111069523Y-111428904D02*
X111021904Y-111524142D01*
X111021904Y-111524142D02*
X110974285Y-111571761D01*
X110974285Y-111571761D02*
X110879047Y-111619380D01*
X110879047Y-111619380D02*
X110688571Y-111619380D01*
X110688571Y-111619380D02*
X110593333Y-111571761D01*
X110593333Y-111571761D02*
X110545714Y-111524142D01*
X110545714Y-111524142D02*
X110498095Y-111428904D01*
X110498095Y-111428904D02*
X110498095Y-111190809D01*
X110498095Y-111190809D02*
X110545714Y-111095571D01*
X110545714Y-111095571D02*
X110593333Y-111047952D01*
X110593333Y-111047952D02*
X110688571Y-111000333D01*
X110688571Y-111000333D02*
X110879047Y-111000333D01*
X110879047Y-111000333D02*
X110974285Y-111047952D01*
X110974285Y-111047952D02*
X111021904Y-111095571D01*
X111021904Y-111095571D02*
X111069523Y-111190809D01*
G04 #@! TO.C,D30*
X112974285Y-79615380D02*
X112974285Y-78615380D01*
X112974285Y-78615380D02*
X112736190Y-78615380D01*
X112736190Y-78615380D02*
X112593333Y-78663000D01*
X112593333Y-78663000D02*
X112498095Y-78758238D01*
X112498095Y-78758238D02*
X112450476Y-78853476D01*
X112450476Y-78853476D02*
X112402857Y-79043952D01*
X112402857Y-79043952D02*
X112402857Y-79186809D01*
X112402857Y-79186809D02*
X112450476Y-79377285D01*
X112450476Y-79377285D02*
X112498095Y-79472523D01*
X112498095Y-79472523D02*
X112593333Y-79567761D01*
X112593333Y-79567761D02*
X112736190Y-79615380D01*
X112736190Y-79615380D02*
X112974285Y-79615380D01*
X112069523Y-78615380D02*
X111450476Y-78615380D01*
X111450476Y-78615380D02*
X111783809Y-78996333D01*
X111783809Y-78996333D02*
X111640952Y-78996333D01*
X111640952Y-78996333D02*
X111545714Y-79043952D01*
X111545714Y-79043952D02*
X111498095Y-79091571D01*
X111498095Y-79091571D02*
X111450476Y-79186809D01*
X111450476Y-79186809D02*
X111450476Y-79424904D01*
X111450476Y-79424904D02*
X111498095Y-79520142D01*
X111498095Y-79520142D02*
X111545714Y-79567761D01*
X111545714Y-79567761D02*
X111640952Y-79615380D01*
X111640952Y-79615380D02*
X111926666Y-79615380D01*
X111926666Y-79615380D02*
X112021904Y-79567761D01*
X112021904Y-79567761D02*
X112069523Y-79520142D01*
X110831428Y-78615380D02*
X110736190Y-78615380D01*
X110736190Y-78615380D02*
X110640952Y-78663000D01*
X110640952Y-78663000D02*
X110593333Y-78710619D01*
X110593333Y-78710619D02*
X110545714Y-78805857D01*
X110545714Y-78805857D02*
X110498095Y-78996333D01*
X110498095Y-78996333D02*
X110498095Y-79234428D01*
X110498095Y-79234428D02*
X110545714Y-79424904D01*
X110545714Y-79424904D02*
X110593333Y-79520142D01*
X110593333Y-79520142D02*
X110640952Y-79567761D01*
X110640952Y-79567761D02*
X110736190Y-79615380D01*
X110736190Y-79615380D02*
X110831428Y-79615380D01*
X110831428Y-79615380D02*
X110926666Y-79567761D01*
X110926666Y-79567761D02*
X110974285Y-79520142D01*
X110974285Y-79520142D02*
X111021904Y-79424904D01*
X111021904Y-79424904D02*
X111069523Y-79234428D01*
X111069523Y-79234428D02*
X111069523Y-78996333D01*
X111069523Y-78996333D02*
X111021904Y-78805857D01*
X111021904Y-78805857D02*
X110974285Y-78710619D01*
X110974285Y-78710619D02*
X110926666Y-78663000D01*
X110926666Y-78663000D02*
X110831428Y-78615380D01*
G04 #@! TO.C,D28*
X112974285Y-68947380D02*
X112974285Y-67947380D01*
X112974285Y-67947380D02*
X112736190Y-67947380D01*
X112736190Y-67947380D02*
X112593333Y-67995000D01*
X112593333Y-67995000D02*
X112498095Y-68090238D01*
X112498095Y-68090238D02*
X112450476Y-68185476D01*
X112450476Y-68185476D02*
X112402857Y-68375952D01*
X112402857Y-68375952D02*
X112402857Y-68518809D01*
X112402857Y-68518809D02*
X112450476Y-68709285D01*
X112450476Y-68709285D02*
X112498095Y-68804523D01*
X112498095Y-68804523D02*
X112593333Y-68899761D01*
X112593333Y-68899761D02*
X112736190Y-68947380D01*
X112736190Y-68947380D02*
X112974285Y-68947380D01*
X112021904Y-68042619D02*
X111974285Y-67995000D01*
X111974285Y-67995000D02*
X111879047Y-67947380D01*
X111879047Y-67947380D02*
X111640952Y-67947380D01*
X111640952Y-67947380D02*
X111545714Y-67995000D01*
X111545714Y-67995000D02*
X111498095Y-68042619D01*
X111498095Y-68042619D02*
X111450476Y-68137857D01*
X111450476Y-68137857D02*
X111450476Y-68233095D01*
X111450476Y-68233095D02*
X111498095Y-68375952D01*
X111498095Y-68375952D02*
X112069523Y-68947380D01*
X112069523Y-68947380D02*
X111450476Y-68947380D01*
X110879047Y-68375952D02*
X110974285Y-68328333D01*
X110974285Y-68328333D02*
X111021904Y-68280714D01*
X111021904Y-68280714D02*
X111069523Y-68185476D01*
X111069523Y-68185476D02*
X111069523Y-68137857D01*
X111069523Y-68137857D02*
X111021904Y-68042619D01*
X111021904Y-68042619D02*
X110974285Y-67995000D01*
X110974285Y-67995000D02*
X110879047Y-67947380D01*
X110879047Y-67947380D02*
X110688571Y-67947380D01*
X110688571Y-67947380D02*
X110593333Y-67995000D01*
X110593333Y-67995000D02*
X110545714Y-68042619D01*
X110545714Y-68042619D02*
X110498095Y-68137857D01*
X110498095Y-68137857D02*
X110498095Y-68185476D01*
X110498095Y-68185476D02*
X110545714Y-68280714D01*
X110545714Y-68280714D02*
X110593333Y-68328333D01*
X110593333Y-68328333D02*
X110688571Y-68375952D01*
X110688571Y-68375952D02*
X110879047Y-68375952D01*
X110879047Y-68375952D02*
X110974285Y-68423571D01*
X110974285Y-68423571D02*
X111021904Y-68471190D01*
X111021904Y-68471190D02*
X111069523Y-68566428D01*
X111069523Y-68566428D02*
X111069523Y-68756904D01*
X111069523Y-68756904D02*
X111021904Y-68852142D01*
X111021904Y-68852142D02*
X110974285Y-68899761D01*
X110974285Y-68899761D02*
X110879047Y-68947380D01*
X110879047Y-68947380D02*
X110688571Y-68947380D01*
X110688571Y-68947380D02*
X110593333Y-68899761D01*
X110593333Y-68899761D02*
X110545714Y-68852142D01*
X110545714Y-68852142D02*
X110498095Y-68756904D01*
X110498095Y-68756904D02*
X110498095Y-68566428D01*
X110498095Y-68566428D02*
X110545714Y-68471190D01*
X110545714Y-68471190D02*
X110593333Y-68423571D01*
X110593333Y-68423571D02*
X110688571Y-68375952D01*
G04 #@! TO.C,D5*
X146788094Y-90117380D02*
X146788094Y-89117380D01*
X146788094Y-89117380D02*
X146549999Y-89117380D01*
X146549999Y-89117380D02*
X146407142Y-89165000D01*
X146407142Y-89165000D02*
X146311904Y-89260238D01*
X146311904Y-89260238D02*
X146264285Y-89355476D01*
X146264285Y-89355476D02*
X146216666Y-89545952D01*
X146216666Y-89545952D02*
X146216666Y-89688809D01*
X146216666Y-89688809D02*
X146264285Y-89879285D01*
X146264285Y-89879285D02*
X146311904Y-89974523D01*
X146311904Y-89974523D02*
X146407142Y-90069761D01*
X146407142Y-90069761D02*
X146549999Y-90117380D01*
X146549999Y-90117380D02*
X146788094Y-90117380D01*
X145311904Y-89117380D02*
X145788094Y-89117380D01*
X145788094Y-89117380D02*
X145835713Y-89593571D01*
X145835713Y-89593571D02*
X145788094Y-89545952D01*
X145788094Y-89545952D02*
X145692856Y-89498333D01*
X145692856Y-89498333D02*
X145454761Y-89498333D01*
X145454761Y-89498333D02*
X145359523Y-89545952D01*
X145359523Y-89545952D02*
X145311904Y-89593571D01*
X145311904Y-89593571D02*
X145264285Y-89688809D01*
X145264285Y-89688809D02*
X145264285Y-89926904D01*
X145264285Y-89926904D02*
X145311904Y-90022142D01*
X145311904Y-90022142D02*
X145359523Y-90069761D01*
X145359523Y-90069761D02*
X145454761Y-90117380D01*
X145454761Y-90117380D02*
X145692856Y-90117380D01*
X145692856Y-90117380D02*
X145788094Y-90069761D01*
X145788094Y-90069761D02*
X145835713Y-90022142D01*
G04 #@! TO.C,D8*
X150882134Y-73421689D02*
X151589241Y-72714582D01*
X151589241Y-72714582D02*
X151420882Y-72546223D01*
X151420882Y-72546223D02*
X151286195Y-72478880D01*
X151286195Y-72478880D02*
X151151508Y-72478880D01*
X151151508Y-72478880D02*
X151050493Y-72512552D01*
X151050493Y-72512552D02*
X150882134Y-72613567D01*
X150882134Y-72613567D02*
X150781118Y-72714582D01*
X150781118Y-72714582D02*
X150680103Y-72882941D01*
X150680103Y-72882941D02*
X150646431Y-72983956D01*
X150646431Y-72983956D02*
X150646431Y-73118643D01*
X150646431Y-73118643D02*
X150713775Y-73253330D01*
X150713775Y-73253330D02*
X150882134Y-73421689D01*
X150478073Y-72209506D02*
X150579088Y-72243178D01*
X150579088Y-72243178D02*
X150646431Y-72243178D01*
X150646431Y-72243178D02*
X150747447Y-72209506D01*
X150747447Y-72209506D02*
X150781118Y-72175834D01*
X150781118Y-72175834D02*
X150814790Y-72074819D01*
X150814790Y-72074819D02*
X150814790Y-72007475D01*
X150814790Y-72007475D02*
X150781118Y-71906460D01*
X150781118Y-71906460D02*
X150646431Y-71771773D01*
X150646431Y-71771773D02*
X150545416Y-71738101D01*
X150545416Y-71738101D02*
X150478073Y-71738101D01*
X150478073Y-71738101D02*
X150377057Y-71771773D01*
X150377057Y-71771773D02*
X150343386Y-71805445D01*
X150343386Y-71805445D02*
X150309714Y-71906460D01*
X150309714Y-71906460D02*
X150309714Y-71973804D01*
X150309714Y-71973804D02*
X150343386Y-72074819D01*
X150343386Y-72074819D02*
X150478073Y-72209506D01*
X150478073Y-72209506D02*
X150511744Y-72310521D01*
X150511744Y-72310521D02*
X150511744Y-72377865D01*
X150511744Y-72377865D02*
X150478073Y-72478880D01*
X150478073Y-72478880D02*
X150343386Y-72613567D01*
X150343386Y-72613567D02*
X150242370Y-72647239D01*
X150242370Y-72647239D02*
X150175027Y-72647239D01*
X150175027Y-72647239D02*
X150074012Y-72613567D01*
X150074012Y-72613567D02*
X149939325Y-72478880D01*
X149939325Y-72478880D02*
X149905653Y-72377865D01*
X149905653Y-72377865D02*
X149905653Y-72310521D01*
X149905653Y-72310521D02*
X149939325Y-72209506D01*
X149939325Y-72209506D02*
X150074012Y-72074819D01*
X150074012Y-72074819D02*
X150175027Y-72041147D01*
X150175027Y-72041147D02*
X150242370Y-72041147D01*
X150242370Y-72041147D02*
X150343386Y-72074819D01*
G04 #@! TO.C,D24*
X131937380Y-64571714D02*
X130937380Y-64571714D01*
X130937380Y-64571714D02*
X130937380Y-64809809D01*
X130937380Y-64809809D02*
X130985000Y-64952666D01*
X130985000Y-64952666D02*
X131080238Y-65047904D01*
X131080238Y-65047904D02*
X131175476Y-65095523D01*
X131175476Y-65095523D02*
X131365952Y-65143142D01*
X131365952Y-65143142D02*
X131508809Y-65143142D01*
X131508809Y-65143142D02*
X131699285Y-65095523D01*
X131699285Y-65095523D02*
X131794523Y-65047904D01*
X131794523Y-65047904D02*
X131889761Y-64952666D01*
X131889761Y-64952666D02*
X131937380Y-64809809D01*
X131937380Y-64809809D02*
X131937380Y-64571714D01*
X131032619Y-65524095D02*
X130985000Y-65571714D01*
X130985000Y-65571714D02*
X130937380Y-65666952D01*
X130937380Y-65666952D02*
X130937380Y-65905047D01*
X130937380Y-65905047D02*
X130985000Y-66000285D01*
X130985000Y-66000285D02*
X131032619Y-66047904D01*
X131032619Y-66047904D02*
X131127857Y-66095523D01*
X131127857Y-66095523D02*
X131223095Y-66095523D01*
X131223095Y-66095523D02*
X131365952Y-66047904D01*
X131365952Y-66047904D02*
X131937380Y-65476476D01*
X131937380Y-65476476D02*
X131937380Y-66095523D01*
X131270714Y-66952666D02*
X131937380Y-66952666D01*
X130889761Y-66714571D02*
X131604047Y-66476476D01*
X131604047Y-66476476D02*
X131604047Y-67095523D01*
G04 #@! TO.C,D4*
X146788094Y-95487380D02*
X146788094Y-94487380D01*
X146788094Y-94487380D02*
X146549999Y-94487380D01*
X146549999Y-94487380D02*
X146407142Y-94535000D01*
X146407142Y-94535000D02*
X146311904Y-94630238D01*
X146311904Y-94630238D02*
X146264285Y-94725476D01*
X146264285Y-94725476D02*
X146216666Y-94915952D01*
X146216666Y-94915952D02*
X146216666Y-95058809D01*
X146216666Y-95058809D02*
X146264285Y-95249285D01*
X146264285Y-95249285D02*
X146311904Y-95344523D01*
X146311904Y-95344523D02*
X146407142Y-95439761D01*
X146407142Y-95439761D02*
X146549999Y-95487380D01*
X146549999Y-95487380D02*
X146788094Y-95487380D01*
X145359523Y-94820714D02*
X145359523Y-95487380D01*
X145597618Y-94439761D02*
X145835713Y-95154047D01*
X145835713Y-95154047D02*
X145216666Y-95154047D01*
G04 #@! TD*
M02*
