  0
SECTION
  2
HEADER
  9
$ACADVER
  1
AC1014
  9
$HANDSEED
  5
FFFF
  9
$MEASUREMENT
 70
     1
  0
ENDSEC
  0
SECTION
  2
TABLES
  0
TABLE
  2
VPORT
  5
8
330
0
100
AcDbSymbolTable
 70
     4
  0
VPORT
  5
2E
330
8
100
AcDbSymbolTableRecord
100
AcDbViewportTableRecord
  2
*ACTIVE
 70
     0
 10
0.0
 20
0.0
 11
1.0
 21
1.0
 12
210.0
 22
148.5
 13
0.0
 23
0.0
 14
10.0
 24
10.0
 15
10.0
 25
10.0
 16
0.0
 26
0.0
 36
1.0
 17
0.0
 27
0.0
 37
0.0
 40
341.0
 41
1.24
 42
50.0
 43
0.0
 44
0.0
 50
0.0
 51
0.0
 71
     0
 72
   100
 73
     1
 74
     3
 75
     0
 76
     0
 77
     0
 78
     0
  0
ENDTAB
  0
TABLE
  2
LTYPE
  5
5
330
0
100
AcDbSymbolTable
 70
     1
  0
LTYPE
  5
14
330
5
100
AcDbSymbolTableRecord
100
AcDbLinetypeTableRecord
  2
BYBLOCK
 70
     0
  3

 72
    65
 73
     0
 40
0.0
  0
LTYPE
  5
15
330
5
100
AcDbSymbolTableRecord
100
AcDbLinetypeTableRecord
  2
BYLAYER
 70
     0
  3

 72
    65
 73
     0
 40
0.0
  0
LTYPE
  5
16
330
5
100
AcDbSymbolTableRecord
100
AcDbLinetypeTableRecord
  2
CONTINUOUS
 70
     0
  3
Solid line
 72
    65
 73
     0
 40
0.0
  0
ENDTAB
  0
TABLE
  2
LAYER
  5
2
100
AcDbSymbolTable
 70
3
  0
LAYER
  5
50
100
AcDbSymbolTableRecord
100
AcDbLayerTableRecord
  2
0
 70
0
  6
CONTINUOUS
  0
LAYER
  5
51
100
AcDbSymbolTableRecord
100
AcDbLayerTableRecord
  2
Layer_1
 70
0
  6
CONTINUOUS
  0
LAYER
  5
52
100
AcDbSymbolTableRecord
100
AcDbLayerTableRecord
  2
Layer_2
 70
0
  6
CONTINUOUS
  0
ENDTAB
  0
TABLE
  2
STYLE
  5
3
330
0
100
AcDbSymbolTable
 70
     1
  0
STYLE
  5
11
330
3
100
AcDbSymbolTableRecord
100
AcDbTextStyleTableRecord
  2
STANDARD
 70
     0
 40
0.0
 41
1.0
 50
0.0
 71
     0
 42
2.5
  3
txt
  4

  0
ENDTAB
  0
TABLE
  2
VIEW
  5
6
330
0
100
AcDbSymbolTable
 70
     0
  0
ENDTAB
  0
TABLE
  2
UCS
  5
7
330
0
100
AcDbSymbolTable
 70
     0
  0
ENDTAB
  0
TABLE
  2
APPID
  5
9
330
0
100
AcDbSymbolTable
 70
     2
  0
APPID
  5
12
330
9
100
AcDbSymbolTableRecord
100
AcDbRegAppTableRecord
  2
ACAD
 70
     0
  0
ENDTAB
  0
TABLE
  2
DIMSTYLE
  5
A
330
0
100
AcDbSymbolTable
 70
     1
  0
DIMSTYLE
105
27
330
A
100
AcDbSymbolTableRecord
100
AcDbDimStyleTableRecord
  2
ISO-25
 70
     0
  3

  4

  5

  6

  7

 40
1.0
 41
2.5
 42
0.625
 43
3.75
 44
1.25
 45
0.0
 46
0.0
 47
0.0
 48
0.0
140
2.5
141
2.5
142
0.0
143
0.03937007874016
144
1.0
145
0.0
146
1.0
147
0.625
 71
     0
 72
     0
 73
     0
 74
     0
 75
     0
 76
     0
 77
     1
 78
     8
170
     0
171
     3
172
     1
173
     0
174
     0
175
     0
176
     0
177
     0
178
     0
270
     2
271
     2
272
     2
273
     2
274
     3
340
11
275
     0
280
     0
281
     0
282
     0
283
     0
284
     8
285
     0
286
     0
287
     3
288
     0
  0
ENDTAB
  0
TABLE
  2
BLOCK_RECORD
  5
1
330
0
100
AcDbSymbolTable
 70
     1
  0
BLOCK_RECORD
  5
1F
330
1
100
AcDbSymbolTableRecord
100
AcDbBlockTableRecord
  2
*MODEL_SPACE
  0
BLOCK_RECORD
  5
1B
330
1
100
AcDbSymbolTableRecord
100
AcDbBlockTableRecord
  2
*PAPER_SPACE
  0
ENDTAB
  0
ENDSEC
  0
SECTION
  2
BLOCKS
  0
BLOCK
  5
20
330
1F
100
AcDbEntity
  8
0
100
AcDbBlockBegin
  2
*MODEL_SPACE
 70
     0
 10
0.0
 20
0.0
 30
0.0
  3
*MODEL_SPACE
  1

  0
ENDBLK
  5
21
330
1F
100
AcDbEntity
  8
0
100
AcDbBlockEnd
  0
BLOCK
  5
1C
330
1B
100
AcDbEntity
 67
     1
  8
0
100
AcDbBlockBegin
  2
*PAPER_SPACE
  1

  0
ENDBLK
  5
1D
330
1B
100
AcDbEntity
 67
     1
  8
0
100
AcDbBlockEnd
  0
ENDSEC
  0
SECTION
  2
ENTITIES
  0
SPLINE
  5
100
100
AcDbEntity
  8
Layer_2
 62
7
100
AcDbSpline
 70
8
 71
3
 72
8
 73
4
 74
0
 40
0
 40
0
 40
0
 40
0
 40
1
 40
1
 40
1
 40
1
 10
0.211638
 20
7.589036
 30
0.0
 10
0.210778
 20
7.591302
 30
0.0
 10
0.210452
 20
8.066649
 30
0.0
 10
0.210914
 20
8.645363
 30
0.0
  0
SPLINE
  5
101
100
AcDbEntity
  8
Layer_2
 62
7
100
AcDbSpline
 70
8
 71
3
 72
8
 73
4
 74
0
 40
0
 40
0
 40
0
 40
0
 40
1
 40
1
 40
1
 40
1
 10
0.400528
 20
9.697571
 30
0.0
 10
0.570884
 20
9.697571
 30
0.0
 10
0.591864
 20
9.696991
 30
0.0
 10
0.615566
 20
9.691625
 30
0.0
  0
SPLINE
  5
102
100
AcDbEntity
  8
Layer_2
 62
7
100
AcDbSpline
 70
8
 71
3
 72
8
 73
4
 74
0
 40
0
 40
0
 40
0
 40
0
 40
1
 40
1
 40
1
 40
1
 10
0.615566
 20
9.691625
 30
0.0
 10
0.705439
 20
9.671278
 30
0.0
 10
0.761858
 20
9.641357
 30
0.0
 10
0.816728
 20
9.584942
 30
0.0
  0
SPLINE
  5
103
100
AcDbEntity
  8
Layer_2
 62
7
100
AcDbSpline
 70
8
 71
3
 72
8
 73
4
 74
0
 40
0
 40
0
 40
0
 40
0
 40
1
 40
1
 40
1
 40
1
 10
0.816728
 20
9.584942
 30
0.0
 10
0.847002
 20
9.553816
 30
0.0
 10
0.846083
 20
9.553996
 30
0.0
 10
0.869624
 20
9.574585
 30
0.0
  0
SPLINE
  5
104
100
AcDbEntity
  8
Layer_2
 62
7
100
AcDbSpline
 70
8
 71
3
 72
8
 73
4
 74
0
 40
0
 40
0
 40
0
 40
0
 40
1
 40
1
 40
1
 40
1
 10
0.869624
 20
9.574585
 30
0.0
 10
0.875737
 20
9.579932
 30
0.0
 10
0.881737
 20
9.584307
 30
0.0
 10
0.882958
 20
9.584307
 30
0.0
  0
SPLINE
  5
105
100
AcDbEntity
  8
Layer_2
 62
7
100
AcDbSpline
 70
8
 71
3
 72
8
 73
4
 74
0
 40
0
 40
0
 40
0
 40
0
 40
1
 40
1
 40
1
 40
1
 10
0.882958
 20
9.584307
 30
0.0
 10
0.884178
 20
9.584307
 30
0.0
 10
0.888041
 20
9.586892
 30
0.0
 10
0.891541
 20
9.590052
 30
0.0
  0
SPLINE
  5
106
100
AcDbEntity
  8
Layer_2
 62
7
100
AcDbSpline
 70
8
 71
3
 72
8
 73
4
 74
0
 40
0
 40
0
 40
0
 40
0
 40
1
 40
1
 40
1
 40
1
 10
0.891541
 20
9.590052
 30
0.0
 10
0.895042
 20
9.593212
 30
0.0
 10
0.903815
 20
9.599790
 30
0.0
 10
0.911038
 20
9.604671
 30
0.0
  0
SPLINE
  5
107
100
AcDbEntity
  8
Layer_2
 62
7
100
AcDbSpline
 70
8
 71
3
 72
8
 73
4
 74
0
 40
0
 40
0
 40
0
 40
0
 40
1
 40
1
 40
1
 40
1
 10
0.911038
 20
9.604671
 30
0.0
 10
0.918260
 20
9.609551
 30
0.0
 10
0.935082
 20
9.621000
 30
0.0
 10
0.948420
 20
9.630114
 30
0.0
  0
SPLINE
  5
108
100
AcDbEntity
  8
Layer_2
 62
7
100
AcDbSpline
 70
8
 71
3
 72
8
 73
4
 74
0
 40
0
 40
0
 40
0
 40
0
 40
1
 40
1
 40
1
 40
1
 10
0.948420
 20
9.630114
 30
0.0
 10
0.961757
 20
9.639227
 30
0.0
 10
0.973348
 20
9.646684
 30
0.0
 10
0.974177
 20
9.646684
 30
0.0
  0
SPLINE
  5
109
100
AcDbEntity
  8
Layer_2
 62
7
100
AcDbSpline
 70
8
 71
3
 72
8
 73
4
 74
0
 40
0
 40
0
 40
0
 40
0
 40
1
 40
1
 40
1
 40
1
 10
0.974177
 20
9.646684
 30
0.0
 10
0.975006
 20
9.646684
 30
0.0
 10
0.980324
 20
9.650008
 30
0.0
 10
0.985994
 20
9.654071
 30
0.0
  0
SPLINE
  5
10a
100
AcDbEntity
  8
Layer_2
 62
7
100
AcDbSpline
 70
8
 71
3
 72
8
 73
4
 74
0
 40
0
 40
0
 40
0
 40
0
 40
1
 40
1
 40
1
 40
1
 10
0.985994
 20
9.654071
 30
0.0
 10
0.991664
 20
9.658133
 30
0.0
 10
0.999279
 20
9.663096
 30
0.0
 10
1.002916
 20
9.665099
 30
0.0
  0
SPLINE
  5
10b
100
AcDbEntity
  8
Layer_2
 62
7
100
AcDbSpline
 70
8
 71
3
 72
8
 73
4
 74
0
 40
0
 40
0
 40
0
 40
0
 40
1
 40
1
 40
1
 40
1
 10
1.002916
 20
9.665099
 30
0.0
 10
1.006553
 20
9.667101
 30
0.0
 10
1.020608
 20
9.675099
 30
0.0
 10
1.034151
 20
9.682871
 30
0.0
  0
SPLINE
  5
10c
100
AcDbEntity
  8
Layer_2
 62
7
100
AcDbSpline
 70
8
 71
3
 72
8
 73
4
 74
0
 40
0
 40
0
 40
0
 40
0
 40
1
 40
1
 40
1
 40
1
 10
1.034151
 20
9.682871
 30
0.0
 10
1.119945
 20
9.732109
 30
0.0
 10
1.213909
 20
9.767604
 30
0.0
 10
1.306641
 20
9.785807
 30
0.0
  0
SPLINE
  5
10d
100
AcDbEntity
  8
Layer_2
 62
7
100
AcDbSpline
 70
8
 71
3
 72
8
 73
4
 74
0
 40
0
 40
0
 40
0
 40
0
 40
1
 40
1
 40
1
 40
1
 10
1.306641
 20
9.785807
 30
0.0
 10
1.378583
 20
9.799928
 30
0.0
 10
1.487018
 20
9.804032
 30
0.0
 10
1.552868
 20
9.795126
 30
0.0
  0
SPLINE
  5
10e
100
AcDbEntity
  8
Layer_2
 62
7
100
AcDbSpline
 70
8
 71
3
 72
8
 73
4
 74
0
 40
0
 40
0
 40
0
 40
0
 40
1
 40
1
 40
1
 40
1
 10
1.552868
 20
9.795126
 30
0.0
 10
1.634052
 20
9.784146
 30
0.0
 10
1.716910
 20
9.766070
 30
0.0
 10
1.737493
 20
9.754848
 30
0.0
  0
SPLINE
  5
10f
100
AcDbEntity
  8
Layer_2
 62
7
100
AcDbSpline
 70
8
 71
3
 72
8
 73
4
 74
0
 40
0
 40
0
 40
0
 40
0
 40
1
 40
1
 40
1
 40
1
 10
1.737493
 20
9.754848
 30
0.0
 10
1.740629
 20
9.753139
 30
0.0
 10
1.745380
 20
9.751741
 30
0.0
 10
1.748052
 20
9.751741
 30
0.0
  0
SPLINE
  5
110
100
AcDbEntity
  8
Layer_2
 62
7
100
AcDbSpline
 70
8
 71
3
 72
8
 73
4
 74
0
 40
0
 40
0
 40
0
 40
0
 40
1
 40
1
 40
1
 40
1
 10
1.748052
 20
9.751741
 30
0.0
 10
1.750723
 20
9.751741
 30
0.0
 10
1.758499
 20
9.749320
 30
0.0
 10
1.765332
 20
9.746361
 30
0.0
  0
SPLINE
  5
111
100
AcDbEntity
  8
Layer_2
 62
7
100
AcDbSpline
 70
8
 71
3
 72
8
 73
4
 74
0
 40
0
 40
0
 40
0
 40
0
 40
1
 40
1
 40
1
 40
1
 10
1.765332
 20
9.746361
 30
0.0
 10
1.772164
 20
9.743402
 30
0.0
 10
1.780709
 20
9.739813
 30
0.0
 10
1.784321
 20
9.738386
 30
0.0
  0
SPLINE
  5
112
100
AcDbEntity
  8
Layer_2
 62
7
100
AcDbSpline
 70
8
 71
3
 72
8
 73
4
 74
0
 40
0
 40
0
 40
0
 40
0
 40
1
 40
1
 40
1
 40
1
 10
1.784321
 20
9.738386
 30
0.0
 10
1.792995
 20
9.734957
 30
0.0
 10
1.877674
 20
9.693316
 30
0.0
 10
1.886112
 20
9.688329
 30
0.0
  0
SPLINE
  5
113
100
AcDbEntity
  8
Layer_2
 62
7
100
AcDbSpline
 70
8
 71
3
 72
8
 73
4
 74
0
 40
0
 40
0
 40
0
 40
0
 40
1
 40
1
 40
1
 40
1
 10
1.886112
 20
9.688329
 30
0.0
 10
1.893805
 20
9.683783
 30
0.0
 10
1.950216
 20
9.646574
 30
0.0
 10
1.955038
 20
9.642865
 30
0.0
  0
SPLINE
  5
114
100
AcDbEntity
  8
Layer_2
 62
7
100
AcDbSpline
 70
8
 71
3
 72
8
 73
4
 74
0
 40
0
 40
0
 40
0
 40
0
 40
1
 40
1
 40
1
 40
1
 10
1.955038
 20
9.642865
 30
0.0
 10
2.000394
 20
9.607976
 30
0.0
 10
2.072740
 20
9.539071
 30
0.0
 10
2.103337
 20
9.501620
 30
0.0
  0
SPLINE
  5
115
100
AcDbEntity
  8
Layer_2
 62
7
100
AcDbSpline
 70
8
 71
3
 72
8
 73
4
 74
0
 40
0
 40
0
 40
0
 40
0
 40
1
 40
1
 40
1
 40
1
 10
2.103337
 20
9.501620
 30
0.0
 10
2.110250
 20
9.493158
 30
0.0
 10
2.117896
 20
9.486140
 30
0.0
 10
2.120329
 20
9.486025
 30
0.0
  0
SPLINE
  5
116
100
AcDbEntity
  8
Layer_2
 62
7
100
AcDbSpline
 70
8
 71
3
 72
8
 73
4
 74
0
 40
0
 40
0
 40
0
 40
0
 40
1
 40
1
 40
1
 40
1
 10
2.120329
 20
9.486025
 30
0.0
 10
2.126071
 20
9.485754
 30
0.0
 10
2.183879
 20
9.531365
 30
0.0
 10
2.273698
 20
9.607037
 30
0.0
  0
SPLINE
  5
117
100
AcDbEntity
  8
Layer_2
 62
7
100
AcDbSpline
 70
8
 71
3
 72
8
 73
4
 74
0
 40
0
 40
0
 40
0
 40
0
 40
1
 40
1
 40
1
 40
1
 10
2.273698
 20
9.607037
 30
0.0
 10
2.286750
 20
9.618033
 30
0.0
 10
2.342506
 20
9.657373
 30
0.0
 10
2.349821
 20
9.660746
 30
0.0
  0
SPLINE
  5
118
100
AcDbEntity
  8
Layer_2
 62
7
100
AcDbSpline
 70
8
 71
3
 72
8
 73
4
 74
0
 40
0
 40
0
 40
0
 40
0
 40
1
 40
1
 40
1
 40
1
 10
2.349821
 20
9.660746
 30
0.0
 10
2.353883
 20
9.662620
 30
0.0
 10
2.357208
 20
9.665393
 30
0.0
 10
2.357208
 20
9.666909
 30
0.0
  0
SPLINE
  5
119
100
AcDbEntity
  8
Layer_2
 62
7
100
AcDbSpline
 70
8
 71
3
 72
8
 73
4
 74
0
 40
0
 40
0
 40
0
 40
0
 40
1
 40
1
 40
1
 40
1
 10
2.357208
 20
9.666909
 30
0.0
 10
2.357208
 20
9.668425
 30
0.0
 10
2.358938
 20
9.669665
 30
0.0
 10
2.361053
 20
9.669665
 30
0.0
  0
SPLINE
  5
11a
100
AcDbEntity
  8
Layer_2
 62
7
100
AcDbSpline
 70
8
 71
3
 72
8
 73
4
 74
0
 40
0
 40
0
 40
0
 40
0
 40
1
 40
1
 40
1
 40
1
 10
2.361053
 20
9.669665
 30
0.0
 10
2.363168
 20
9.669665
 30
0.0
 10
2.367230
 20
9.671731
 30
0.0
 10
2.370081
 20
9.674256
 30
0.0
  0
SPLINE
  5
11b
100
AcDbEntity
  8
Layer_2
 62
7
100
AcDbSpline
 70
8
 71
3
 72
8
 73
4
 74
0
 40
0
 40
0
 40
0
 40
0
 40
1
 40
1
 40
1
 40
1
 10
2.370081
 20
9.674256
 30
0.0
 10
2.381800
 20
9.684638
 30
0.0
 10
2.449800
 20
9.719587
 30
0.0
 10
2.493453
 20
9.737665
 30
0.0
  0
SPLINE
  5
11c
100
AcDbEntity
  8
Layer_2
 62
7
100
AcDbSpline
 70
8
 71
3
 72
8
 73
4
 74
0
 40
0
 40
0
 40
0
 40
0
 40
1
 40
1
 40
1
 40
1
 10
2.493453
 20
9.737665
 30
0.0
 10
2.525367
 20
9.750882
 30
0.0
 10
2.561032
 20
9.763241
 30
0.0
 10
2.589481
 20
9.770944
 30
0.0
  0
SPLINE
  5
11d
100
AcDbEntity
  8
Layer_2
 62
7
100
AcDbSpline
 70
8
 71
3
 72
8
 73
4
 74
0
 40
0
 40
0
 40
0
 40
0
 40
1
 40
1
 40
1
 40
1
 10
2.589481
 20
9.770944
 30
0.0
 10
2.597155
 20
9.773022
 30
0.0
 10
2.608974
 20
9.776242
 30
0.0
 10
2.615745
 20
9.778100
 30
0.0
  0
SPLINE
  5
11e
100
AcDbEntity
  8
Layer_2
 62
7
100
AcDbSpline
 70
8
 71
3
 72
8
 73
4
 74
0
 40
0
 40
0
 40
0
 40
0
 40
1
 40
1
 40
1
 40
1
 10
2.615745
 20
9.778100
 30
0.0
 10
2.640285
 20
9.784833
 30
0.0
 10
2.677409
 20
9.791207
 30
0.0
 10
2.729830
 20
9.797689
 30
0.0
  0
SPLINE
  5
11f
100
AcDbEntity
  8
Layer_2
 62
7
100
AcDbSpline
 70
8
 71
3
 72
8
 73
4
 74
0
 40
0
 40
0
 40
0
 40
0
 40
1
 40
1
 40
1
 40
1
 10
2.729830
 20
9.797689
 30
0.0
 10
2.762258
 20
9.801698
 30
0.0
 10
2.892301
 20
9.801750
 30
0.0
 10
2.923528
 20
9.797765
 30
0.0
  0
SPLINE
  5
120
100
AcDbEntity
  8
Layer_2
 62
7
100
AcDbSpline
 70
8
 71
3
 72
8
 73
4
 74
0
 40
0
 40
0
 40
0
 40
0
 40
1
 40
1
 40
1
 40
1
 10
2.923528
 20
9.797765
 30
0.0
 10
2.936168
 20
9.796153
 30
0.0
 10
2.954635
 20
9.793946
 30
0.0
 10
2.964566
 20
9.792862
 30
0.0
  0
SPLINE
  5
121
100
AcDbEntity
  8
Layer_2
 62
7
100
AcDbSpline
 70
8
 71
3
 72
8
 73
4
 74
0
 40
0
 40
0
 40
0
 40
0
 40
1
 40
1
 40
1
 40
1
 10
2.964566
 20
9.792862
 30
0.0
 10
2.988420
 20
9.790258
 30
0.0
 10
3.038317
 20
9.780760
 30
0.0
 10
3.079472
 20
9.770989
 30
0.0
  0
SPLINE
  5
122
100
AcDbEntity
  8
Layer_2
 62
7
100
AcDbSpline
 70
8
 71
3
 72
8
 73
4
 74
0
 40
0
 40
0
 40
0
 40
0
 40
1
 40
1
 40
1
 40
1
 10
3.079472
 20
9.770989
 30
0.0
 10
3.113497
 20
9.762910
 30
0.0
 10
3.181719
 20
9.741825
 30
0.0
 10
3.186006
 20
9.738063
 30
0.0
  0
SPLINE
  5
123
100
AcDbEntity
  8
Layer_2
 62
7
100
AcDbSpline
 70
8
 71
3
 72
8
 73
4
 74
0
 40
0
 40
0
 40
0
 40
0
 40
1
 40
1
 40
1
 40
1
 10
3.186006
 20
9.738063
 30
0.0
 10
3.187720
 20
9.736557
 30
0.0
 10
3.191005
 20
9.735325
 30
0.0
 10
3.193303
 20
9.735325
 30
0.0
  0
SPLINE
  5
124
100
AcDbEntity
  8
Layer_2
 62
7
100
AcDbSpline
 70
8
 71
3
 72
8
 73
4
 74
0
 40
0
 40
0
 40
0
 40
0
 40
1
 40
1
 40
1
 40
1
 10
3.193303
 20
9.735325
 30
0.0
 10
3.197539
 20
9.735325
 30
0.0
 10
3.219342
 20
9.725927
 30
0.0
 10
3.255113
 20
9.708681
 30
0.0
  0
SPLINE
  5
125
100
AcDbEntity
  8
Layer_2
 62
7
100
AcDbSpline
 70
8
 71
3
 72
8
 73
4
 74
0
 40
0
 40
0
 40
0
 40
0
 40
1
 40
1
 40
1
 40
1
 10
3.255113
 20
9.708681
 30
0.0
 10
3.324505
 20
9.675227
 30
0.0
 10
3.379484
 20
9.635242
 30
0.0
 10
3.435989
 20
9.577132
 30
0.0
  0
SPLINE
  5
126
100
AcDbEntity
  8
Layer_2
 62
7
100
AcDbSpline
 70
8
 71
3
 72
8
 73
4
 74
0
 40
0
 40
0
 40
0
 40
0
 40
1
 40
1
 40
1
 40
1
 10
3.435989
 20
9.577132
 30
0.0
 10
3.476954
 20
9.535006
 30
0.0
 10
3.495000
 20
9.511008
 30
0.0
 10
3.538123
 20
9.441318
 30
0.0
  0
SPLINE
  5
127
100
AcDbEntity
  8
Layer_2
 62
7
100
AcDbSpline
 70
8
 71
3
 72
8
 73
4
 74
0
 40
0
 40
0
 40
0
 40
0
 40
1
 40
1
 40
1
 40
1
 10
3.538123
 20
9.441318
 30
0.0
 10
3.542360
 20
9.434471
 30
0.0
 10
3.557711
 20
9.403275
 30
0.0
 10
3.566627
 20
9.383392
 30
0.0
  0
SPLINE
  5
128
100
AcDbEntity
  8
Layer_2
 62
7
100
AcDbSpline
 70
8
 71
3
 72
8
 73
4
 74
0
 40
0
 40
0
 40
0
 40
0
 40
1
 40
1
 40
1
 40
1
 10
3.566627
 20
9.383392
 30
0.0
 10
3.573470
 20
9.368130
 30
0.0
 10
3.591152
 20
9.320222
 30
0.0
 10
3.595164
 20
9.306071
 30
0.0
  0
SPLINE
  5
129
100
AcDbEntity
  8
Layer_2
 62
7
100
AcDbSpline
 70
8
 71
3
 72
8
 73
4
 74
0
 40
0
 40
0
 40
0
 40
0
 40
1
 40
1
 40
1
 40
1
 10
3.595164
 20
9.306071
 30
0.0
 10
3.596828
 20
9.300202
 30
0.0
 10
3.599570
 20
9.290600
 30
0.0
 10
3.601258
 20
9.284731
 30
0.0
  0
SPLINE
  5
12a
100
AcDbEntity
  8
Layer_2
 62
7
100
AcDbSpline
 70
8
 71
3
 72
8
 73
4
 74
0
 40
0
 40
0
 40
0
 40
0
 40
1
 40
1
 40
1
 40
1
 10
3.601258
 20
9.284731
 30
0.0
 10
3.622881
 20
9.209575
 30
0.0
 10
3.630543
 20
9.155591
 30
0.0
 10
3.642612
 20
8.993363
 30
0.0
  0
SPLINE
  5
12b
100
AcDbEntity
  8
Layer_2
 62
7
100
AcDbSpline
 70
8
 71
3
 72
8
 73
4
 74
0
 40
0
 40
0
 40
0
 40
0
 40
1
 40
1
 40
1
 40
1
 10
3.642612
 20
8.993363
 30
0.0
 10
3.652751
 20
8.857062
 30
0.0
 10
3.655887
 20
8.679861
 30
0.0
 10
3.662619
 20
7.862869
 30
0.0
  0
SPLINE
  5
12c
100
AcDbEntity
  8
Layer_2
 62
7
100
AcDbSpline
 70
8
 71
3
 72
8
 73
4
 74
0
 40
0
 40
0
 40
0
 40
0
 40
1
 40
1
 40
1
 40
1
 10
3.662619
 20
7.862869
 30
0.0
 10
3.664526
 20
7.631205
 30
0.0
 10
3.664177
 20
7.590452
 30
0.0
 10
3.660251
 20
7.587967
 30
0.0
  0
SPLINE
  5
12d
100
AcDbEntity
  8
Layer_2
 62
7
100
AcDbSpline
 70
8
 71
3
 72
8
 73
4
 74
0
 40
0
 40
0
 40
0
 40
0
 40
1
 40
1
 40
1
 40
1
 10
3.660251
 20
7.587967
 30
0.0
 10
3.657642
 20
7.586316
 30
0.0
 10
3.512914
 20
7.585027
 30
0.0
 10
3.326921
 20
7.584998
 30
0.0
  0
SPLINE
  5
12e
100
AcDbEntity
  8
Layer_2
 62
7
100
AcDbSpline
 70
8
 71
3
 72
8
 73
4
 74
0
 40
0
 40
0
 40
0
 40
0
 40
1
 40
1
 40
1
 40
1
 10
3.326921
 20
7.584998
 30
0.0
 10
3.059067
 20
7.584956
 30
0.0
 10
2.997536
 20
7.585748
 30
0.0
 10
2.994614
 20
7.589270
 30
0.0
  0
SPLINE
  5
12f
100
AcDbEntity
  8
Layer_2
 62
7
100
AcDbSpline
 70
8
 71
3
 72
8
 73
4
 74
0
 40
0
 40
0
 40
0
 40
0
 40
1
 40
1
 40
1
 40
1
 10
2.994614
 20
7.589270
 30
0.0
 10
2.992055
 20
7.592354
 30
0.0
 10
2.990703
 20
7.785347
 30
0.0
 10
2.989895
 20
8.263109
 30
0.0
  0
SPLINE
  5
130
100
AcDbEntity
  8
Layer_2
 62
7
100
AcDbSpline
 70
8
 71
3
 72
8
 73
4
 74
0
 40
0
 40
0
 40
0
 40
0
 40
1
 40
1
 40
1
 40
1
 10
2.989895
 20
8.263109
 30
0.0
 10
2.989009
 20
8.787494
 30
0.0
 10
2.987866
 20
8.936186
 30
0.0
 10
2.984628
 20
8.949042
 30
0.0
  0
SPLINE
  5
131
100
AcDbEntity
  8
Layer_2
 62
7
100
AcDbSpline
 70
8
 71
3
 72
8
 73
4
 74
0
 40
0
 40
0
 40
0
 40
0
 40
1
 40
1
 40
1
 40
1
 10
2.984628
 20
8.949042
 30
0.0
 10
2.973279
 20
8.994092
 30
0.0
 10
2.969666
 20
9.006647
 30
0.0
 10
2.961954
 20
9.027835
 30
0.0
  0
SPLINE
  5
132
100
AcDbEntity
  8
Layer_2
 62
7
100
AcDbSpline
 70
8
 71
3
 72
8
 73
4
 74
0
 40
0
 40
0
 40
0
 40
0
 40
1
 40
1
 40
1
 40
1
 10
2.961954
 20
9.027835
 30
0.0
 10
2.957352
 20
9.040475
 30
0.0
 10
2.949882
 20
9.057464
 30
0.0
 10
2.945352
 20
9.065590
 30
0.0
  0
SPLINE
  5
133
100
AcDbEntity
  8
Layer_2
 62
7
100
AcDbSpline
 70
8
 71
3
 72
8
 73
4
 74
0
 40
0
 40
0
 40
0
 40
0
 40
1
 40
1
 40
1
 40
1
 10
2.945352
 20
9.065590
 30
0.0
 10
2.940823
 20
9.073715
 30
0.0
 10
2.935537
 20
9.083367
 30
0.0
 10
2.933606
 20
9.087038
 30
0.0
  0
SPLINE
  5
134
100
AcDbEntity
  8
Layer_2
 62
7
100
AcDbSpline
 70
8
 71
3
 72
8
 73
4
 74
0
 40
0
 40
0
 40
0
 40
0
 40
1
 40
1
 40
1
 40
1
 10
2.933606
 20
9.087038
 30
0.0
 10
2.929125
 20
9.095554
 30
0.0
 10
2.906673
 20
9.123333
 30
0.0
 10
2.894355
 20
9.135599
 30
0.0
  0
SPLINE
  5
135
100
AcDbEntity
  8
Layer_2
 62
7
100
AcDbSpline
 70
8
 71
3
 72
8
 73
4
 74
0
 40
0
 40
0
 40
0
 40
0
 40
1
 40
1
 40
1
 40
1
 10
2.894355
 20
9.135599
 30
0.0
 10
2.860068
 20
9.169742
 30
0.0
 10
2.809326
 20
9.198125
 30
0.0
 10
2.756094
 20
9.212934
 30
0.0
  0
SPLINE
  5
136
100
AcDbEntity
  8
Layer_2
 62
7
100
AcDbSpline
 70
8
 71
3
 72
8
 73
4
 74
0
 40
0
 40
0
 40
0
 40
0
 40
1
 40
1
 40
1
 40
1
 10
2.756094
 20
9.212934
 30
0.0
 10
2.712559
 20
9.225046
 30
0.0
 10
2.695433
 20
9.227063
 30
0.0
 10
2.634623
 20
9.227238
 30
0.0
  0
SPLINE
  5
137
100
AcDbEntity
  8
Layer_2
 62
7
100
AcDbSpline
 70
8
 71
3
 72
8
 73
4
 74
0
 40
0
 40
0
 40
0
 40
0
 40
1
 40
1
 40
1
 40
1
 10
2.634623
 20
9.227238
 30
0.0
 10
2.568690
 20
9.227428
 30
0.0
 10
2.553239
 20
9.225214
 30
0.0
 10
2.503302
 20
9.208424
 30
0.0
  0
SPLINE
  5
138
100
AcDbEntity
  8
Layer_2
 62
7
100
AcDbSpline
 70
8
 71
3
 72
8
 73
4
 74
0
 40
0
 40
0
 40
0
 40
0
 40
1
 40
1
 40
1
 40
1
 10
2.503302
 20
9.208424
 30
0.0
 10
2.443126
 20
9.188191
 30
0.0
 10
2.385887
 20
9.147750
 30
0.0
 10
2.341638
 20
9.094203
 30
0.0
  0
SPLINE
  5
139
100
AcDbEntity
  8
Layer_2
 62
7
100
AcDbSpline
 70
8
 71
3
 72
8
 73
4
 74
0
 40
0
 40
0
 40
0
 40
0
 40
1
 40
1
 40
1
 40
1
 10
2.341638
 20
9.094203
 30
0.0
 10
2.331225
 20
9.081603
 30
0.0
 10
2.304467
 20
9.037724
 30
0.0
 10
2.294157
 20
9.016344
 30
0.0
  0
SPLINE
  5
13a
100
AcDbEntity
  8
Layer_2
 62
7
100
AcDbSpline
 70
8
 71
3
 72
8
 73
4
 74
0
 40
0
 40
0
 40
0
 40
0
 40
1
 40
1
 40
1
 40
1
 10
2.294157
 20
9.016344
 30
0.0
 10
2.280369
 20
8.987752
 30
0.0
 10
2.265867
 20
8.938860
 30
0.0
 10
2.258126
 20
8.894873
 30
0.0
  0
SPLINE
  5
13b
100
AcDbEntity
  8
Layer_2
 62
7
100
AcDbSpline
 70
8
 71
3
 72
8
 73
4
 74
0
 40
0
 40
0
 40
0
 40
0
 40
1
 40
1
 40
1
 40
1
 10
2.258126
 20
8.894873
 30
0.0
 10
2.252900
 20
8.865177
 30
0.0
 10
2.252388
 20
8.471228
 30
0.0
 10
2.256881
 20
7.935107
 30
0.0
  0
SPLINE
  5
13c
100
AcDbEntity
  8
Layer_2
 62
7
100
AcDbSpline
 70
8
 71
3
 72
8
 73
4
 74
0
 40
0
 40
0
 40
0
 40
0
 40
1
 40
1
 40
1
 40
1
 10
2.256881
 20
7.935107
 30
0.0
 10
2.259351
 20
7.640308
 30
0.0
 10
2.259100
 20
7.590487
 30
0.0
 10
2.255137
 20
7.587978
 30
0.0
  0
SPLINE
  5
13d
100
AcDbEntity
  8
Layer_2
 62
7
100
AcDbSpline
 70
8
 71
3
 72
8
 73
4
 74
0
 40
0
 40
0
 40
0
 40
0
 40
1
 40
1
 40
1
 40
1
 10
2.255137
 20
7.587978
 30
0.0
 10
2.252507
 20
7.586313
 30
0.0
 10
2.111999
 20
7.585027
 30
0.0
 10
1.929657
 20
7.584998
 30
0.0
  0
LWPOLYLINE
  5
13e
100
AcDbEntity
  8
Layer_2
 62
7
100
AcDbPolyline
 90
3
 70
0
 10
0.210914
 20
8.645363
 30
0.0
 10
0.211755
 20
9.697571
 30
0.0
 10
0.400528
 20
9.697571
 30
0.0
  0
SPLINE
  5
13f
100
AcDbEntity
  8
Layer_2
 62
7
100
AcDbSpline
 70
8
 71
3
 72
8
 73
4
 74
0
 40
0
 40
0
 40
0
 40
0
 40
1
 40
1
 40
1
 40
1
 10
1.607293
 20
7.592335
 30
0.0
 10
1.606462
 20
7.596398
 30
0.0
 10
1.604957
 20
7.772573
 30
0.0
 10
1.603949
 20
7.983835
 30
0.0
  0
SPLINE
  5
140
100
AcDbEntity
  8
Layer_2
 62
7
100
AcDbSpline
 70
8
 71
3
 72
8
 73
4
 74
0
 40
0
 40
0
 40
0
 40
0
 40
1
 40
1
 40
1
 40
1
 10
1.603949
 20
7.983835
 30
0.0
 10
1.599896
 20
8.832876
 30
0.0
 10
1.599296
 20
8.866523
 30
0.0
 10
1.586885
 20
8.940835
 30
0.0
  0
SPLINE
  5
141
100
AcDbEntity
  8
Layer_2
 62
7
100
AcDbSpline
 70
8
 71
3
 72
8
 73
4
 74
0
 40
0
 40
0
 40
0
 40
0
 40
1
 40
1
 40
1
 40
1
 10
1.586885
 20
8.940835
 30
0.0
 10
1.578378
 20
8.991778
 30
0.0
 10
1.559064
 20
9.052460
 30
0.0
 10
1.542476
 20
9.080363
 30
0.0
  0
SPLINE
  5
142
100
AcDbEntity
  8
Layer_2
 62
7
100
AcDbSpline
 70
8
 71
3
 72
8
 73
4
 74
0
 40
0
 40
0
 40
0
 40
0
 40
1
 40
1
 40
1
 40
1
 10
1.542476
 20
9.080363
 30
0.0
 10
1.539256
 20
9.085780
 30
0.0
 10
1.533731
 20
9.095493
 30
0.0
 10
1.530198
 20
9.101948
 30
0.0
  0
SPLINE
  5
143
100
AcDbEntity
  8
Layer_2
 62
7
100
AcDbSpline
 70
8
 71
3
 72
8
 73
4
 74
0
 40
0
 40
0
 40
0
 40
0
 40
1
 40
1
 40
1
 40
1
 10
1.530198
 20
9.101948
 30
0.0
 10
1.519793
 20
9.120958
 30
0.0
 10
1.478650
 20
9.162717
 30
0.0
 10
1.454522
 20
9.178757
 30
0.0
  0
SPLINE
  5
144
100
AcDbEntity
  8
Layer_2
 62
7
100
AcDbSpline
 70
8
 71
3
 72
8
 73
4
 74
0
 40
0
 40
0
 40
0
 40
0
 40
1
 40
1
 40
1
 40
1
 10
1.454522
 20
9.178757
 30
0.0
 10
1.442220
 20
9.186936
 30
0.0
 10
1.431286
 20
9.193627
 30
0.0
 10
1.430224
 20
9.193627
 30
0.0
  0
SPLINE
  5
145
100
AcDbEntity
  8
Layer_2
 62
7
100
AcDbSpline
 70
8
 71
3
 72
8
 73
4
 74
0
 40
0
 40
0
 40
0
 40
0
 40
1
 40
1
 40
1
 40
1
 10
1.430224
 20
9.193627
 30
0.0
 10
1.429162
 20
9.193627
 30
0.0
 10
1.420496
 20
9.197152
 30
0.0
 10
1.410967
 20
9.201460
 30
0.0
  0
SPLINE
  5
146
100
AcDbEntity
  8
Layer_2
 62
7
100
AcDbSpline
 70
8
 71
3
 72
8
 73
4
 74
0
 40
0
 40
0
 40
0
 40
0
 40
1
 40
1
 40
1
 40
1
 10
1.410967
 20
9.201460
 30
0.0
 10
1.395177
 20
9.208598
 30
0.0
 10
1.373381
 20
9.215492
 30
0.0
 10
1.342755
 20
9.223034
 30
0.0
  0
SPLINE
  5
147
100
AcDbEntity
  8
Layer_2
 62
7
100
AcDbSpline
 70
8
 71
3
 72
8
 73
4
 74
0
 40
0
 40
0
 40
0
 40
0
 40
1
 40
1
 40
1
 40
1
 10
1.342755
 20
9.223034
 30
0.0
 10
1.301353
 20
9.233229
 30
0.0
 10
1.237107
 20
9.235956
 30
0.0
 10
1.194259
 20
9.229337
 30
0.0
  0
SPLINE
  5
148
100
AcDbEntity
  8
Layer_2
 62
7
100
AcDbSpline
 70
8
 71
3
 72
8
 73
4
 74
0
 40
0
 40
0
 40
0
 40
0
 40
1
 40
1
 40
1
 40
1
 10
1.194259
 20
9.229337
 30
0.0
 10
1.173011
 20
9.226055
 30
0.0
 10
1.122786
 20
9.212596
 30
0.0
 10
1.109660
 20
9.206667
 30
0.0
  0
SPLINE
  5
149
100
AcDbEntity
  8
Layer_2
 62
7
100
AcDbSpline
 70
8
 71
3
 72
8
 73
4
 74
0
 40
0
 40
0
 40
0
 40
0
 40
1
 40
1
 40
1
 40
1
 10
1.109660
 20
9.206667
 30
0.0
 10
1.085103
 20
9.195574
 30
0.0
 10
1.074847
 20
9.189989
 30
0.0
 10
1.050928
 20
9.174686
 30
0.0
  0
SPLINE
  5
14a
100
AcDbEntity
  8
Layer_2
 62
7
100
AcDbSpline
 70
8
 71
3
 72
8
 73
4
 74
0
 40
0
 40
0
 40
0
 40
0
 40
1
 40
1
 40
1
 40
1
 10
1.050928
 20
9.174686
 30
0.0
 10
1.014294
 20
9.151247
 30
0.0
 10
0.959792
 20
9.097798
 30
0.0
 10
0.935450
 20
9.061438
 30
0.0
  0
SPLINE
  5
14b
100
AcDbEntity
  8
Layer_2
 62
7
100
AcDbSpline
 70
8
 71
3
 72
8
 73
4
 74
0
 40
0
 40
0
 40
0
 40
0
 40
1
 40
1
 40
1
 40
1
 10
0.935450
 20
9.061438
 30
0.0
 10
0.916357
 20
9.032918
 30
0.0
 10
0.896264
 20
8.993787
 30
0.0
 10
0.896264
 20
8.985120
 30
0.0
  0
SPLINE
  5
14c
100
AcDbEntity
  8
Layer_2
 62
7
100
AcDbSpline
 70
8
 71
3
 72
8
 73
4
 74
0
 40
0
 40
0
 40
0
 40
0
 40
1
 40
1
 40
1
 40
1
 10
0.896264
 20
8.985120
 30
0.0
 10
0.896264
 20
8.982644
 30
0.0
 10
0.895022
 20
8.979851
 30
0.0
 10
0.893503
 20
8.978912
 30
0.0
  0
SPLINE
  5
14d
100
AcDbEntity
  8
Layer_2
 62
7
100
AcDbSpline
 70
8
 71
3
 72
8
 73
4
 74
0
 40
0
 40
0
 40
0
 40
0
 40
1
 40
1
 40
1
 40
1
 10
0.893503
 20
8.978912
 30
0.0
 10
0.891985
 20
8.977974
 30
0.0
 10
0.888235
 20
8.967176
 30
0.0
 10
0.885171
 20
8.954917
 30
0.0
  0
SPLINE
  5
14e
100
AcDbEntity
  8
Layer_2
 62
7
100
AcDbSpline
 70
8
 71
3
 72
8
 73
4
 74
0
 40
0
 40
0
 40
0
 40
0
 40
1
 40
1
 40
1
 40
1
 10
0.885171
 20
8.954917
 30
0.0
 10
0.882107
 20
8.942658
 30
0.0
 10
0.878299
 20
8.928195
 30
0.0
 10
0.876708
 20
8.922778
 30
0.0
  0
SPLINE
  5
14f
100
AcDbEntity
  8
Layer_2
 62
7
100
AcDbSpline
 70
8
 71
3
 72
8
 73
4
 74
0
 40
0
 40
0
 40
0
 40
0
 40
1
 40
1
 40
1
 40
1
 10
0.876708
 20
8.922778
 30
0.0
 10
0.866344
 20
8.887481
 30
0.0
 10
0.865714
 20
8.836499
 30
0.0
 10
0.869402
 20
8.331835
 30
0.0
  0
SPLINE
  5
150
100
AcDbEntity
  8
Layer_2
 62
7
100
AcDbSpline
 70
8
 71
3
 72
8
 73
4
 74
0
 40
0
 40
0
 40
0
 40
0
 40
1
 40
1
 40
1
 40
1
 10
0.869402
 20
8.331835
 30
0.0
 10
0.871421
 20
8.055569
 30
0.0
 10
0.872751
 20
7.774871
 30
0.0
 10
0.872357
 20
7.708061
 30
0.0
  0
LWPOLYLINE
  5
151
100
AcDbEntity
  8
Layer_2
 62
7
100
AcDbPolyline
 90
3
 70
0
 10
1.929657
 20
7.584998
 30
0.0
 10
1.608804
 20
7.584948
 30
0.0
 10
1.607293
 20
7.592335
 30
0.0
  0
SPLINE
  5
152
100
AcDbEntity
  8
Layer_2
 62
7
100
AcDbSpline
 70
8
 71
3
 72
8
 73
4
 74
0
 40
0
 40
0
 40
0
 40
0
 40
1
 40
1
 40
1
 40
1
 10
0.542422
 20
7.585753
 30
0.0
 10
0.280777
 20
7.585088
 30
0.0
 10
0.212881
 20
7.585763
 30
0.0
 10
0.211638
 20
7.589036
 30
0.0
  0
LWPOLYLINE
  5
153
100
AcDbEntity
  8
Layer_2
 62
7
100
AcDbPolyline
 90
3
 70
0
 10
0.872357
 20
7.708061
 30
0.0
 10
0.871641
 20
7.586590
 30
0.0
 10
0.542422
 20
7.585753
 30
0.0
  0
LWPOLYLINE
  5
154
100
AcDbEntity
  8
Layer_2
 62
7
100
AcDbPolyline
 90
1
 70
1
 10
0.211638
 20
7.589036
 30
0.0
  0
ENDSEC
  0
SECTION
  2
OBJECTS
  0
DICTIONARY
  5
C
330
0
100
AcDbDictionary
  3
ACAD_GROUP
350
D
  3
ACAD_MLINESTYLE
350
17
  0
DICTIONARY
  5
D
330
C
100
AcDbDictionary
  0
DICTIONARY
  5
1A
330
C
100
AcDbDictionary
  0
DICTIONARY
  5
17
330
C
100
AcDbDictionary
  3
STANDARD
350
18
  0
DICTIONARY
  5
19
330
C
100
AcDbDictionary
  0
ENDSEC
  0
EOF
